M48
; DRILL file {KiCad 9.0.7} date 2026-02-16T17:52:40-0500
; FORMAT={-:-/ absolute / metric / decimal}
; #@! TF.CreationDate,2026-02-16T17:52:40-05:00
; #@! TF.GenerationSoftware,Kicad,Pcbnew,9.0.7
; #@! TF.FileFunction,Plated,1,2,PTH
FMAT,2
METRIC
; #@! TA.AperFunction,Plated,PTH,ViaDrill
T1C0.300
; #@! TA.AperFunction,Plated,PTH,ComponentDrill
T2C0.500
; #@! TA.AperFunction,Plated,PTH,ComponentDrill
T3C0.600
; #@! TA.AperFunction,Plated,PTH,ComponentDrill
T4C0.800
; #@! TA.AperFunction,Plated,PTH,ComponentDrill
T5C0.900
; #@! TA.AperFunction,Plated,PTH,ComponentDrill
T6C1.100
; #@! TA.AperFunction,Plated,PTH,ComponentDrill
T7C3.200
%
G90
G05
T1
X7.7Y38.8
X7.75Y43.7
X17.25Y40.0
X22.75Y46.5
X26.3Y35.575
X26.4Y31.5
X34.75Y44.5
X38.0Y50.5
X38.25Y40.5
X38.77Y31.72
X39.001Y39.949
X43.0Y63.25
X43.125Y25.875
X44.0Y42.0
X45.75Y34.25
X45.9Y16.794
X45.9Y15.405
X46.25Y22.65
X46.501Y28.794
X46.8Y43.345
X49.175Y22.575
X49.35Y55.356
X49.5Y36.4
X50.2Y40.116
X50.75Y53.956
X51.365Y45.885
X51.75Y61.0
X51.75Y55.75
X51.952Y53.0
X52.5Y30.194
X52.75Y48.0
X53.75Y52.0
X54.45Y39.6
X55.25Y63.25
X57.5Y59.75
X57.7Y29.181
X58.0Y36.0
X58.7Y26.9
X59.25Y5.25
X61.25Y64.0
X62.6Y11.2
X64.36Y50.89
X65.6Y11.2
X68.25Y56.0
X69.4Y14.6
X70.65Y52.95
X71.5Y60.75
X72.25Y58.75
X73.0Y55.75
X77.25Y20.75
X85.75Y52.0
X92.5Y56.0
T2
X2.6Y65.0
X2.6Y5.0
X3.303Y66.697
X3.303Y63.303
X3.303Y6.697
X3.303Y3.303
X5.0Y67.4
X5.0Y62.6
X5.0Y7.4
X5.0Y2.6
X6.697Y66.697
X6.697Y63.303
X6.697Y6.697
X6.697Y3.303
X7.4Y65.0
X7.4Y5.0
X92.1Y65.0
X92.1Y5.0
X92.803Y66.697
X92.803Y63.303
X92.803Y6.697
X92.803Y3.303
X94.5Y67.4
X94.5Y62.6
X94.5Y7.4
X94.5Y2.6
X96.197Y66.697
X96.197Y63.303
X96.197Y6.697
X96.197Y3.303
X96.9Y65.0
X96.9Y5.0
T4
X3.75Y56.56
X3.75Y48.94
X4.25Y20.94
X4.25Y16.06
X9.0Y56.56
X9.0Y48.94
X9.25Y25.0
X9.25Y20.0
X9.25Y17.0
X9.25Y12.0
X9.69Y29.25
X12.0Y35.25
X12.19Y23.25
X12.5Y46.5
X13.375Y19.31
X13.375Y11.69
X15.915Y19.31
X15.915Y11.69
X17.0Y35.25
X17.31Y29.25
X17.5Y46.5
X18.455Y19.31
X18.455Y11.69
X19.81Y23.25
X20.25Y29.5
X20.75Y60.975
X20.75Y58.435
X20.75Y55.895
X20.75Y53.355
X20.75Y50.815
X20.75Y48.275
X20.75Y45.735
X20.75Y43.195
X20.75Y40.655
X20.75Y38.115
X20.75Y35.575
X20.75Y33.035
X20.995Y19.31
X20.995Y11.69
X22.44Y23.25
X23.535Y19.31
X23.535Y11.69
X24.0Y6.75
X25.25Y29.5
X26.075Y19.31
X26.075Y11.69
X28.615Y19.31
X28.615Y11.69
X29.0Y6.75
X29.44Y27.75
X30.06Y23.25
X34.75Y19.31
X34.75Y11.69
X35.99Y60.975
X35.99Y58.435
X35.99Y55.895
X35.99Y53.355
X35.99Y50.815
X35.99Y48.275
X35.99Y45.735
X35.99Y43.195
X35.99Y40.655
X35.99Y38.115
X35.99Y35.575
X35.99Y33.035
X37.06Y27.75
X40.24Y9.25
X40.63Y61.125
X40.63Y58.585
X40.63Y56.045
X40.63Y53.505
X40.63Y50.965
X40.63Y48.425
X40.63Y45.885
X40.63Y43.345
X40.63Y40.805
X40.63Y38.265
X40.63Y35.725
X40.63Y33.185
X40.63Y30.645
X40.63Y28.105
X40.63Y25.565
X40.63Y23.025
X40.63Y20.485
X40.63Y17.945
X40.63Y15.405
X40.63Y12.865
X45.24Y9.25
X55.87Y61.125
X55.87Y58.585
X55.87Y56.045
X55.87Y53.505
X55.87Y50.965
X55.87Y48.425
X55.87Y45.885
X55.87Y43.345
X55.87Y40.805
X55.87Y38.265
X55.87Y35.725
X55.87Y33.185
X55.87Y30.645
X55.87Y28.105
X55.87Y25.565
X55.87Y23.025
X55.87Y20.485
X55.87Y17.945
X55.87Y15.405
X55.87Y12.865
X60.13Y61.05
X60.13Y58.51
X60.13Y55.97
X60.13Y53.43
X60.13Y50.89
X60.13Y48.35
X60.13Y45.81
X60.13Y43.27
X60.13Y40.73
X60.13Y38.19
X60.13Y35.65
X60.13Y33.11
X60.13Y30.57
X60.13Y28.03
X60.13Y25.49
X60.13Y22.95
X60.44Y19.0
X68.06Y19.0
X73.75Y19.0
X74.135Y14.06
X74.135Y6.44
X75.37Y61.05
X75.37Y58.51
X75.37Y55.97
X75.37Y53.43
X75.37Y50.89
X75.37Y48.35
X75.37Y45.81
X75.37Y43.27
X75.37Y40.73
X75.37Y38.19
X75.37Y35.65
X75.37Y33.11
X75.37Y30.57
X75.37Y28.03
X75.37Y25.49
X75.37Y22.95
X76.675Y14.06
X76.675Y6.44
X78.25Y61.0
X78.75Y19.0
X79.215Y14.06
X79.215Y6.44
X79.63Y56.01
X79.63Y53.47
X79.63Y50.93
X79.63Y48.39
X79.63Y45.85
X79.63Y43.31
X79.63Y40.77
X79.63Y38.23
X79.63Y35.69
X79.63Y33.15
X79.63Y30.61
X79.63Y28.07
X79.63Y25.53
X79.63Y22.99
X81.755Y14.06
X81.755Y6.44
X83.25Y61.0
X84.295Y14.06
X84.295Y6.44
X85.75Y61.0
X86.835Y14.06
X86.835Y6.44
X89.375Y14.06
X89.375Y6.44
X90.75Y61.0
X94.87Y56.01
X94.87Y53.47
X94.87Y50.93
X94.87Y48.39
X94.87Y45.85
X94.87Y43.31
X94.87Y40.77
X94.87Y38.23
X94.87Y35.69
X94.87Y33.15
X94.87Y30.61
X94.87Y28.07
X94.87Y25.53
X94.87Y22.99
T5
X4.0Y32.265
X4.0Y29.725
T6
X61.0Y14.0
X61.0Y9.5
X67.5Y14.0
X67.5Y9.5
T7
X5.0Y65.0
X5.0Y5.0
X94.5Y65.0
X94.5Y5.0
T3
G00X1.69Y45.57
M15
G01X1.09Y45.57
M16
G05
G00X1.69Y36.93
M15
G01X1.09Y36.93
M16
G05
G00X6.12Y45.57
M15
G01X5.02Y45.57
M16
G05
G00X6.12Y36.93
M15
G01X5.02Y36.93
M16
G05
M30
