%TF.GenerationSoftware,KiCad,Pcbnew,9.0.7*%
%TF.CreationDate,2026-02-16T17:51:40-05:00*%
%TF.ProjectId,zed-80,7a65642d-3830-42e6-9b69-6361645f7063,A*%
%TF.SameCoordinates,PX4db9760PY6b49d20*%
%TF.FileFunction,Legend,Top*%
%TF.FilePolarity,Positive*%
%FSLAX46Y46*%
G04 Gerber Fmt 4.6, Leading zero omitted, Abs format (unit mm)*
G04 Created by KiCad (PCBNEW 9.0.7) date 2026-02-16 17:51:40*
%MOMM*%
%LPD*%
G01*
G04 APERTURE LIST*
%ADD10C,0.500000*%
%ADD11C,0.400000*%
%ADD12C,0.250000*%
%ADD13C,0.150000*%
%ADD14C,0.120000*%
%ADD15C,0.000000*%
G04 APERTURE END LIST*
D10*
G36*
X66229940Y66509822D02*
G01*
X66300731Y66485055D01*
X66356228Y66446019D01*
X66397881Y66392975D01*
X66423843Y66326261D01*
X66433164Y66241832D01*
X66423919Y66161261D01*
X66398048Y66097237D01*
X66356228Y66045950D01*
X66300952Y66008529D01*
X66230166Y65984656D01*
X66139462Y65975974D01*
X65898761Y65975974D01*
X65898761Y66518804D01*
X66139462Y66518804D01*
X66229940Y66509822D01*
G37*
G36*
X67850017Y66341117D02*
G01*
X67890561Y66129847D01*
X67988503Y65637453D01*
X67644364Y65637453D01*
X67747923Y66132656D01*
X67788468Y66342460D01*
X67817899Y66504882D01*
X67850017Y66341117D01*
G37*
G36*
X70468196Y64590000D02*
G01*
X65234647Y64590000D01*
X65234647Y65975974D01*
X65484647Y65975974D01*
X65484647Y64840000D01*
X65898761Y64840000D01*
X65898761Y65612296D01*
X66094644Y65612296D01*
X66424860Y64840000D01*
X66880861Y64840000D01*
X67048412Y64840000D01*
X67476448Y64840000D01*
X67574389Y65301619D01*
X68061287Y65301619D01*
X68159228Y64840000D01*
X68587264Y64840000D01*
X68774354Y64840000D01*
X69157693Y64840000D01*
X69157693Y65623409D01*
X69150082Y65940205D01*
X69128262Y66226445D01*
X69070987Y66689529D01*
X69322801Y65707429D01*
X69658513Y65707429D01*
X69915945Y66714686D01*
X69861357Y66215210D01*
X69841613Y65928213D01*
X69834856Y65623409D01*
X69834856Y64840000D01*
X70218196Y64840000D01*
X70218196Y66882603D01*
X69700523Y66882603D01*
X69493527Y66009557D01*
X69286409Y66882603D01*
X68774354Y66882603D01*
X68774354Y64840000D01*
X68587264Y64840000D01*
X68080826Y66882603D01*
X67549232Y66882603D01*
X67243937Y65637453D01*
X67048412Y64840000D01*
X66880861Y64840000D01*
X66494713Y65679463D01*
X66597080Y65735624D01*
X66683732Y65810527D01*
X66756297Y65905998D01*
X66809547Y66014076D01*
X66841833Y66131762D01*
X66852896Y66261372D01*
X66842577Y66385659D01*
X66812904Y66494828D01*
X66764724Y66591588D01*
X66698669Y66677106D01*
X66616808Y66748647D01*
X66517184Y66807010D01*
X66408366Y66847859D01*
X66283398Y66873560D01*
X66139462Y66882603D01*
X65484647Y66882603D01*
X65484647Y65975974D01*
X65234647Y65975974D01*
X65234647Y67132603D01*
X70468196Y67132603D01*
X70468196Y64590000D01*
G37*
G36*
X50929940Y9509822D02*
G01*
X51000731Y9485055D01*
X51056228Y9446019D01*
X51097881Y9392975D01*
X51123843Y9326261D01*
X51133164Y9241832D01*
X51123919Y9161261D01*
X51098048Y9097237D01*
X51056228Y9045950D01*
X51000952Y9008529D01*
X50930166Y8984656D01*
X50839462Y8975974D01*
X50598761Y8975974D01*
X50598761Y9518804D01*
X50839462Y9518804D01*
X50929940Y9509822D01*
G37*
G36*
X58530687Y7562035D02*
G01*
X49934647Y7562035D01*
X49934647Y8975974D01*
X50184647Y8975974D01*
X50184647Y7840000D01*
X50598761Y7840000D01*
X50598761Y8612296D01*
X50794644Y8612296D01*
X51124860Y7840000D01*
X51580861Y7840000D01*
X51902285Y7840000D01*
X53161357Y7840000D01*
X53161357Y8203800D01*
X52313590Y8203800D01*
X52313590Y8427649D01*
X53488398Y8427649D01*
X53498681Y8305174D01*
X53528291Y8197371D01*
X53576448Y8101585D01*
X53642538Y8017050D01*
X53724847Y7945922D01*
X53825453Y7887506D01*
X53935189Y7846603D01*
X54059802Y7821001D01*
X54201831Y7812035D01*
X54344021Y7820898D01*
X54437716Y7840000D01*
X55259159Y7840000D01*
X56518230Y7840000D01*
X56518230Y8203800D01*
X55670464Y8203800D01*
X55670464Y8713047D01*
X56420289Y8713047D01*
X56420289Y9059994D01*
X55670464Y9059994D01*
X55670464Y9504882D01*
X56825610Y9504882D01*
X57343283Y9504882D01*
X57343283Y7840000D01*
X57763014Y7840000D01*
X57763014Y9504882D01*
X58280687Y9504882D01*
X58280687Y9882603D01*
X56825610Y9882603D01*
X56825610Y9504882D01*
X55670464Y9504882D01*
X55670464Y9518804D01*
X56518230Y9518804D01*
X56518230Y9882603D01*
X55259159Y9882603D01*
X55259159Y7840000D01*
X54437716Y7840000D01*
X54467632Y7846099D01*
X54575401Y7886162D01*
X54674161Y7943602D01*
X54754589Y8013779D01*
X54818789Y8097432D01*
X54865572Y8192124D01*
X54894235Y8297651D01*
X54904152Y8416414D01*
X54894883Y8539285D01*
X54867997Y8650083D01*
X54824119Y8750826D01*
X54762857Y8843106D01*
X54686690Y8923559D01*
X54598718Y8988452D01*
X54497512Y9038609D01*
X54380983Y9073915D01*
X54123551Y9132656D01*
X54033392Y9165203D01*
X53975629Y9209527D01*
X53942147Y9265477D01*
X53930478Y9336965D01*
X53938289Y9399207D01*
X53960610Y9450579D01*
X53997644Y9493647D01*
X54045685Y9525042D01*
X54106943Y9545098D01*
X54185101Y9552387D01*
X54265089Y9544946D01*
X54328240Y9524411D01*
X54378175Y9492181D01*
X54416490Y9447883D01*
X54439870Y9393433D01*
X54448150Y9325730D01*
X54856646Y9325730D01*
X54844514Y9457103D01*
X54809848Y9569776D01*
X54753638Y9667384D01*
X54674685Y9752422D01*
X54580047Y9819282D01*
X54469094Y9868488D01*
X54338741Y9899558D01*
X54185101Y9910569D01*
X54031251Y9899585D01*
X53901653Y9868689D01*
X53792210Y9819933D01*
X53699668Y9753887D01*
X53623078Y9669792D01*
X53568130Y9571943D01*
X53533996Y9457613D01*
X53521981Y9322921D01*
X53531107Y9213214D01*
X53557707Y9113734D01*
X53601480Y9022559D01*
X53663276Y8938238D01*
X53766129Y8844381D01*
X53891984Y8772046D01*
X54045150Y8721351D01*
X54294277Y8662610D01*
X54356003Y8641735D01*
X54404616Y8611411D01*
X54442411Y8571630D01*
X54480177Y8498756D01*
X54492847Y8416414D01*
X54483950Y8347174D01*
X54458443Y8289786D01*
X54415910Y8241414D01*
X54361016Y8206330D01*
X54291043Y8183878D01*
X54201831Y8175712D01*
X54110948Y8184109D01*
X54038076Y8207425D01*
X53979448Y8244222D01*
X53933748Y8294858D01*
X53906419Y8354991D01*
X53896894Y8427649D01*
X53488398Y8427649D01*
X52313590Y8427649D01*
X52313590Y8713047D01*
X53063415Y8713047D01*
X53063415Y9059994D01*
X52313590Y9059994D01*
X52313590Y9518804D01*
X53161357Y9518804D01*
X53161357Y9882603D01*
X51902285Y9882603D01*
X51902285Y7840000D01*
X51580861Y7840000D01*
X51194713Y8679463D01*
X51297080Y8735624D01*
X51383732Y8810527D01*
X51456297Y8905998D01*
X51509547Y9014076D01*
X51541833Y9131762D01*
X51552896Y9261372D01*
X51542577Y9385659D01*
X51512904Y9494828D01*
X51464724Y9591588D01*
X51398669Y9677106D01*
X51316808Y9748647D01*
X51217184Y9807010D01*
X51108366Y9847859D01*
X50983398Y9873560D01*
X50839462Y9882603D01*
X50184647Y9882603D01*
X50184647Y8975974D01*
X49934647Y8975974D01*
X49934647Y10160569D01*
X58530687Y10160569D01*
X58530687Y7562035D01*
G37*
G36*
X5787264Y25062035D02*
G01*
X2145446Y25062035D01*
X2145446Y25899561D01*
X2395446Y25899561D01*
X2407921Y25767094D01*
X2443567Y25653653D01*
X2501436Y25555487D01*
X2582903Y25470060D01*
X2680252Y25403273D01*
X2794024Y25354084D01*
X2927280Y25323030D01*
X3083845Y25312035D01*
X3241978Y25323344D01*
X3374712Y25355106D01*
X3486373Y25405153D01*
X3580390Y25472869D01*
X3658193Y25559141D01*
X3714019Y25659327D01*
X3748690Y25776180D01*
X3760886Y25913605D01*
X3760886Y26056243D01*
X3749006Y26197338D01*
X3715528Y26315371D01*
X3662227Y26414653D01*
X3588817Y26498322D01*
X3499048Y26563906D01*
X3390453Y26612718D01*
X3259227Y26643934D01*
X3100575Y26655126D01*
X2865614Y26655126D01*
X2865614Y27004882D01*
X3685415Y27004882D01*
X3685415Y27382603D01*
X3998412Y27382603D01*
X4504849Y25340000D01*
X5036444Y25340000D01*
X5537264Y27382603D01*
X5114846Y27382603D01*
X4840561Y26095444D01*
X4809787Y25921909D01*
X4781821Y25745688D01*
X4749703Y25921909D01*
X4714654Y26092635D01*
X4432065Y27382603D01*
X3998412Y27382603D01*
X3685415Y27382603D01*
X2465422Y27382603D01*
X2465422Y26291326D01*
X3083845Y26291326D01*
X3183122Y26280339D01*
X3252599Y26251212D01*
X3300323Y26206373D01*
X3330236Y26143529D01*
X3341277Y26056243D01*
X3341277Y25913605D01*
X3333199Y25841822D01*
X3310592Y25784595D01*
X3274110Y25738605D01*
X3225692Y25704943D01*
X3163584Y25683507D01*
X3083845Y25675712D01*
X3005716Y25683000D01*
X2941839Y25703414D01*
X2889305Y25735918D01*
X2848339Y25780534D01*
X2823772Y25834132D01*
X2815177Y25899561D01*
X2395446Y25899561D01*
X2145446Y25899561D01*
X2145446Y27632603D01*
X5787264Y27632603D01*
X5787264Y25062035D01*
G37*
G36*
X48545951Y66509145D02*
G01*
X48616117Y66481886D01*
X48673866Y66437593D01*
X48717886Y66379369D01*
X48744407Y66312199D01*
X48753611Y66233406D01*
X48744409Y66154610D01*
X48717891Y66087396D01*
X48673866Y66029097D01*
X48616126Y65984876D01*
X48545960Y65957655D01*
X48459787Y65948008D01*
X48182815Y65948008D01*
X48182815Y66518804D01*
X48459787Y66518804D01*
X48545951Y66509145D01*
G37*
G36*
X51017759Y64562035D02*
G01*
X45829030Y64562035D01*
X45829030Y66294955D01*
X46079030Y66294955D01*
X46079030Y65427649D01*
X46088975Y65306908D01*
X46117668Y65199978D01*
X46164392Y65104393D01*
X46228450Y65019414D01*
X46307610Y64947883D01*
X46403628Y64888971D01*
X46508786Y64847146D01*
X46627378Y64821116D01*
X46761810Y64812035D01*
X46898059Y64821179D01*
X47017017Y64847266D01*
X47121336Y64888971D01*
X47216489Y64947809D01*
X47295187Y65019331D01*
X47359106Y65104393D01*
X47405830Y65199978D01*
X47434524Y65306908D01*
X47444469Y65427649D01*
X47024860Y65427649D01*
X47016494Y65350224D01*
X46993280Y65289410D01*
X46956228Y65241414D01*
X46906713Y65206200D01*
X46843255Y65183835D01*
X46761810Y65175712D01*
X46680364Y65183832D01*
X46616861Y65206195D01*
X46567271Y65241414D01*
X46530289Y65289400D01*
X46507114Y65350214D01*
X46498761Y65427649D01*
X46498761Y65948008D01*
X47763084Y65948008D01*
X47763084Y64840000D01*
X48182815Y64840000D01*
X48182815Y65438762D01*
X49424790Y65438762D01*
X49437057Y65295350D01*
X49471867Y65173543D01*
X49527719Y65069335D01*
X49605163Y64979830D01*
X49699735Y64908691D01*
X49810840Y64856547D01*
X49941668Y64823682D01*
X50096336Y64812035D01*
X50250846Y64823768D01*
X50381579Y64856891D01*
X50492657Y64909478D01*
X50587264Y64981295D01*
X50664939Y65071469D01*
X50720820Y65175747D01*
X50755551Y65296899D01*
X50767759Y65438762D01*
X50767759Y66882603D01*
X50348150Y66882603D01*
X50348150Y65441571D01*
X50339813Y65358331D01*
X50316928Y65293983D01*
X50280983Y65244222D01*
X50232242Y65207055D01*
X50171820Y65183964D01*
X50096336Y65175712D01*
X50018904Y65184068D01*
X49958135Y65207246D01*
X49910223Y65244222D01*
X49875123Y65293866D01*
X49852703Y65358210D01*
X49844521Y65441571D01*
X49844521Y66882603D01*
X49424790Y66882603D01*
X49424790Y65438762D01*
X48182815Y65438762D01*
X48182815Y65584331D01*
X48459787Y65584331D01*
X48601611Y65593952D01*
X48725670Y65621429D01*
X48834699Y65665419D01*
X48934089Y65727427D01*
X49016531Y65803100D01*
X49083705Y65893420D01*
X49132850Y65994726D01*
X49162943Y66107235D01*
X49173342Y66233406D01*
X49163024Y66361521D01*
X49133337Y66474411D01*
X49085170Y66574735D01*
X49018804Y66664077D01*
X48936424Y66739334D01*
X48836165Y66801393D01*
X48726187Y66845497D01*
X48601606Y66872993D01*
X48459787Y66882603D01*
X47763084Y66882603D01*
X47763084Y65948008D01*
X46498761Y65948008D01*
X46498761Y66294955D01*
X46507213Y66374181D01*
X46530468Y66435257D01*
X46567271Y66482412D01*
X46616755Y66516856D01*
X46680255Y66538792D01*
X46761810Y66546770D01*
X46843364Y66538790D01*
X46906819Y66516851D01*
X46956228Y66482412D01*
X46993102Y66435247D01*
X47016396Y66374171D01*
X47024860Y66294955D01*
X47444469Y66294955D01*
X47434452Y66417484D01*
X47405692Y66524786D01*
X47359106Y66619554D01*
X47295274Y66703780D01*
X47216586Y66774875D01*
X47121336Y66833633D01*
X47017017Y66875338D01*
X46898059Y66901425D01*
X46761810Y66910569D01*
X46627378Y66901488D01*
X46508786Y66875458D01*
X46403628Y66833633D01*
X46307512Y66774802D01*
X46228363Y66703696D01*
X46164392Y66619554D01*
X46117806Y66524786D01*
X46089047Y66417484D01*
X46079030Y66294955D01*
X45829030Y66294955D01*
X45829030Y67160569D01*
X51017759Y67160569D01*
X51017759Y64562035D01*
G37*
D11*
G36*
X83108575Y2586490D02*
G01*
X83174342Y2559851D01*
X83223429Y2517862D01*
X83258422Y2462038D01*
X83280994Y2389918D01*
X83289253Y2296944D01*
X83289253Y2260552D01*
X82746423Y2254934D01*
X82746423Y2291326D01*
X82754913Y2384192D01*
X82778307Y2457405D01*
X82814933Y2515175D01*
X82866002Y2558846D01*
X82932921Y2586285D01*
X83020708Y2596264D01*
X83108575Y2586490D01*
G37*
G36*
X81429940Y3009822D02*
G01*
X81500731Y2985055D01*
X81556228Y2946019D01*
X81597881Y2892975D01*
X81623843Y2826261D01*
X81633164Y2741832D01*
X81623919Y2661261D01*
X81598048Y2597237D01*
X81556228Y2545950D01*
X81500952Y2508529D01*
X81430166Y2484656D01*
X81339462Y2475974D01*
X81098761Y2475974D01*
X81098761Y3018804D01*
X81339462Y3018804D01*
X81429940Y3009822D01*
G37*
G36*
X89763764Y2841117D02*
G01*
X89804309Y2629847D01*
X89902250Y2137453D01*
X89558112Y2137453D01*
X89661671Y2632656D01*
X89702215Y2842460D01*
X89731646Y3004882D01*
X89763764Y2841117D01*
G37*
G36*
X90723233Y1089813D02*
G01*
X80462425Y1089813D01*
X80462425Y2475974D01*
X80684647Y2475974D01*
X80684647Y1340000D01*
X81098761Y1340000D01*
X81098761Y2112296D01*
X81294644Y2112296D01*
X81624860Y1340000D01*
X82080861Y1340000D01*
X81694713Y2179463D01*
X81797080Y2235624D01*
X81861519Y2291326D01*
X82346353Y2291326D01*
X82346353Y1927649D01*
X82355997Y1806755D01*
X82383781Y1699810D01*
X82428907Y1604393D01*
X82491243Y1519424D01*
X82568962Y1447906D01*
X82663869Y1388971D01*
X82768163Y1347187D01*
X82886278Y1321138D01*
X83020708Y1312035D01*
X83182832Y1326492D01*
X83323200Y1367913D01*
X83445935Y1435133D01*
X83527056Y1502758D01*
X83589946Y1578686D01*
X83636368Y1663811D01*
X83666974Y1759732D01*
X83255669Y1759732D01*
X83231737Y1712163D01*
X83177267Y1675712D01*
X83106671Y1655113D01*
X83020708Y1647746D01*
X82931704Y1656268D01*
X82864857Y1679320D01*
X82814933Y1714913D01*
X82778972Y1764224D01*
X82755306Y1832982D01*
X82746423Y1927649D01*
X82746423Y2005929D01*
X83689323Y2005929D01*
X83689323Y2291326D01*
X83679681Y2412138D01*
X83651899Y2519044D01*
X83606769Y2614460D01*
X83544633Y2699679D01*
X83467793Y2771216D01*
X83374616Y2830004D01*
X83272128Y2871705D01*
X83239501Y2878975D01*
X83924040Y2878975D01*
X84436095Y1340000D01*
X84962072Y1340000D01*
X85045862Y1594624D01*
X86092062Y1594624D01*
X86101262Y1513937D01*
X86127470Y1446850D01*
X86170464Y1390315D01*
X86226990Y1347393D01*
X86294077Y1321223D01*
X86374773Y1312035D01*
X86455465Y1321225D01*
X86503558Y1340000D01*
X88962159Y1340000D01*
X89390195Y1340000D01*
X89488136Y1801619D01*
X89975034Y1801619D01*
X90072976Y1340000D01*
X90501011Y1340000D01*
X89994574Y3382603D01*
X89462979Y3382603D01*
X89157684Y2137453D01*
X88962159Y1340000D01*
X86503558Y1340000D01*
X86522508Y1347398D01*
X86578960Y1390315D01*
X86621953Y1446850D01*
X86648161Y1513937D01*
X86657362Y1594624D01*
X86648159Y1675307D01*
X86621948Y1742350D01*
X86578960Y1798811D01*
X86522499Y1841799D01*
X86455456Y1868010D01*
X86374773Y1877213D01*
X86294086Y1868012D01*
X86226999Y1841804D01*
X86170464Y1798811D01*
X86127475Y1742350D01*
X86101265Y1675307D01*
X86092062Y1594624D01*
X85045862Y1594624D01*
X85468510Y2878975D01*
X85029239Y2878975D01*
X84766189Y2011546D01*
X84724180Y1852056D01*
X84699145Y1695374D01*
X84672522Y1852056D01*
X84626360Y2014355D01*
X84357693Y2878975D01*
X83924040Y2878975D01*
X83239501Y2878975D01*
X83155052Y2897792D01*
X83020708Y2906940D01*
X82886278Y2897837D01*
X82768163Y2871788D01*
X82663869Y2830004D01*
X82568971Y2771062D01*
X82491251Y2699505D01*
X82428907Y2614460D01*
X82383777Y2519044D01*
X82355994Y2412138D01*
X82346353Y2291326D01*
X81861519Y2291326D01*
X81883732Y2310527D01*
X81956297Y2405998D01*
X82009547Y2514076D01*
X82041833Y2631762D01*
X82052896Y2761372D01*
X82042577Y2885659D01*
X82012904Y2994828D01*
X81964724Y3091588D01*
X81898669Y3177106D01*
X81816808Y3248647D01*
X81717184Y3307010D01*
X81608366Y3347859D01*
X81483398Y3373560D01*
X81339462Y3382603D01*
X80684647Y3382603D01*
X80684647Y2475974D01*
X80462425Y2475974D01*
X80462425Y3604825D01*
X90723233Y3604825D01*
X90723233Y1089813D01*
G37*
D10*
G36*
X17048826Y51720746D02*
G01*
X17119308Y51695628D01*
X17175680Y51655649D01*
X17218381Y51601663D01*
X17244715Y51535263D01*
X17254082Y51452806D01*
X17244684Y51370384D01*
X17218332Y51304475D01*
X17175680Y51251305D01*
X17119411Y51212104D01*
X17048931Y51187412D01*
X16960258Y51178521D01*
X16697208Y51178521D01*
X16697208Y51729777D01*
X16960258Y51729777D01*
X17048826Y51720746D01*
G37*
G36*
X17023294Y52536216D02*
G01*
X17086403Y52514782D01*
X17136479Y52480946D01*
X17174480Y52434751D01*
X17198024Y52376749D01*
X17206454Y52303382D01*
X17198157Y52231745D01*
X17174715Y52173534D01*
X17136479Y52125695D01*
X17086196Y52090310D01*
X17023084Y52068022D01*
X16943527Y52059994D01*
X16697208Y52059994D01*
X16697208Y52543961D01*
X16943527Y52543961D01*
X17023294Y52536216D01*
G37*
G36*
X17926622Y50562035D02*
G01*
X12667916Y50562035D01*
X12667916Y51438762D01*
X12917916Y51438762D01*
X12930183Y51295350D01*
X12964993Y51173543D01*
X13020846Y51069335D01*
X13098290Y50979830D01*
X13192861Y50908691D01*
X13303966Y50856547D01*
X13434795Y50823682D01*
X13589462Y50812035D01*
X13743972Y50823768D01*
X13874705Y50856891D01*
X13985784Y50909478D01*
X14080390Y50981295D01*
X14158065Y51071469D01*
X14213946Y51175747D01*
X14248678Y51296899D01*
X14259930Y51427649D01*
X14559961Y51427649D01*
X14570245Y51305174D01*
X14599854Y51197371D01*
X14648011Y51101585D01*
X14714101Y51017050D01*
X14796410Y50945922D01*
X14897016Y50887506D01*
X15006752Y50846603D01*
X15131365Y50821001D01*
X15273394Y50812035D01*
X15415584Y50820898D01*
X15539195Y50846099D01*
X15646964Y50886162D01*
X15745724Y50943602D01*
X15826152Y51013779D01*
X15890352Y51097432D01*
X15937135Y51192124D01*
X15965798Y51297651D01*
X15975715Y51416414D01*
X15966446Y51539285D01*
X15939560Y51650083D01*
X15895682Y51750826D01*
X15834420Y51843106D01*
X15758253Y51923559D01*
X15670281Y51988452D01*
X15569075Y52038609D01*
X15498493Y52059994D01*
X16291521Y52059994D01*
X16291521Y51178521D01*
X16291521Y50840000D01*
X16974302Y50840000D01*
X17112594Y50848782D01*
X17234405Y50873906D01*
X17342131Y50914128D01*
X17441383Y50971186D01*
X17522809Y51040004D01*
X17588450Y51121124D01*
X17636909Y51213274D01*
X17666436Y51315540D01*
X17676622Y51430335D01*
X17664026Y51557274D01*
X17627651Y51668228D01*
X17568480Y51765641D01*
X17490509Y51843106D01*
X17396107Y51897142D01*
X17287665Y51922851D01*
X17287665Y51928469D01*
X17382859Y51954073D01*
X17464064Y51999830D01*
X17533862Y52066954D01*
X17585861Y52148937D01*
X17617806Y52244299D01*
X17628995Y52356504D01*
X17619140Y52460034D01*
X17590597Y52551543D01*
X17543632Y52633476D01*
X17480661Y52704802D01*
X17402113Y52765834D01*
X17305739Y52816780D01*
X17202137Y52852367D01*
X17084053Y52874747D01*
X16949145Y52882603D01*
X16291521Y52882603D01*
X16291521Y52059994D01*
X15498493Y52059994D01*
X15452547Y52073915D01*
X15195115Y52132656D01*
X15104956Y52165203D01*
X15047192Y52209527D01*
X15013710Y52265477D01*
X15002041Y52336965D01*
X15009852Y52399207D01*
X15032173Y52450579D01*
X15069207Y52493647D01*
X15117248Y52525042D01*
X15178506Y52545098D01*
X15256664Y52552387D01*
X15336652Y52544946D01*
X15399803Y52524411D01*
X15449738Y52492181D01*
X15488053Y52447883D01*
X15511433Y52393433D01*
X15519713Y52325730D01*
X15928210Y52325730D01*
X15916077Y52457103D01*
X15881411Y52569776D01*
X15825201Y52667384D01*
X15746249Y52752422D01*
X15651610Y52819282D01*
X15540657Y52868488D01*
X15410304Y52899558D01*
X15256664Y52910569D01*
X15102814Y52899585D01*
X14973216Y52868689D01*
X14863773Y52819933D01*
X14771231Y52753887D01*
X14694641Y52669792D01*
X14639693Y52571943D01*
X14605559Y52457613D01*
X14593545Y52322921D01*
X14602670Y52213214D01*
X14629271Y52113734D01*
X14673043Y52022559D01*
X14734839Y51938238D01*
X14837692Y51844381D01*
X14963547Y51772046D01*
X15116713Y51721351D01*
X15365840Y51662610D01*
X15427566Y51641735D01*
X15476179Y51611411D01*
X15513974Y51571630D01*
X15551741Y51498756D01*
X15564410Y51416414D01*
X15555513Y51347174D01*
X15530006Y51289786D01*
X15487473Y51241414D01*
X15432579Y51206330D01*
X15362606Y51183878D01*
X15273394Y51175712D01*
X15182511Y51184109D01*
X15109639Y51207425D01*
X15051011Y51244222D01*
X15005311Y51294858D01*
X14977982Y51354991D01*
X14968457Y51427649D01*
X14559961Y51427649D01*
X14259930Y51427649D01*
X14260886Y51438762D01*
X14260886Y52882603D01*
X13841277Y52882603D01*
X13841277Y51441571D01*
X13832939Y51358331D01*
X13810054Y51293983D01*
X13774110Y51244222D01*
X13725368Y51207055D01*
X13664946Y51183964D01*
X13589462Y51175712D01*
X13512031Y51184068D01*
X13451261Y51207246D01*
X13403349Y51244222D01*
X13368249Y51293866D01*
X13345829Y51358210D01*
X13337648Y51441571D01*
X13337648Y52882603D01*
X12917916Y52882603D01*
X12917916Y51438762D01*
X12667916Y51438762D01*
X12667916Y53160569D01*
X17926622Y53160569D01*
X17926622Y50562035D01*
G37*
G36*
X13010718Y6483112D02*
G01*
X13092928Y6449813D01*
X13154287Y6397327D01*
X13198028Y6327548D01*
X13226243Y6237397D01*
X13236566Y6121180D01*
X13236566Y6075690D01*
X12558029Y6068668D01*
X12558029Y6114158D01*
X12568641Y6230240D01*
X12597884Y6321756D01*
X12643667Y6393969D01*
X12707502Y6448558D01*
X12791152Y6482856D01*
X12900885Y6495329D01*
X13010718Y6483112D01*
G37*
G36*
X15077972Y6418385D02*
G01*
X15152584Y6389319D01*
X15210354Y6343136D01*
X15252302Y6281446D01*
X15279255Y6201130D01*
X15289122Y6096756D01*
X15289122Y5676963D01*
X15279255Y5572483D01*
X15252302Y5492063D01*
X15210354Y5430278D01*
X15152596Y5384184D01*
X15077984Y5355165D01*
X14981376Y5344640D01*
X14889234Y5354633D01*
X14816686Y5382394D01*
X14759268Y5426767D01*
X14717115Y5486197D01*
X14690361Y5562199D01*
X14680652Y5659561D01*
X14680652Y6114158D01*
X14690479Y6213783D01*
X14717328Y6290102D01*
X14759268Y6348478D01*
X14816555Y6391871D01*
X14889099Y6419106D01*
X14981376Y6428926D01*
X15077972Y6418385D01*
G37*
G36*
X19304171Y6035899D02*
G01*
X19397150Y6002372D01*
X19474681Y5948073D01*
X19534372Y5875438D01*
X19570536Y5788815D01*
X19583217Y5683985D01*
X19570669Y5581439D01*
X19534619Y5495249D01*
X19474681Y5421577D01*
X19397027Y5366298D01*
X19304050Y5332243D01*
X19191512Y5320216D01*
X19081184Y5332125D01*
X18988585Y5366078D01*
X18909870Y5421577D01*
X18848929Y5495372D01*
X18812364Y5581560D01*
X18799655Y5683985D01*
X18812499Y5788690D01*
X18849178Y5875313D01*
X18909870Y5948073D01*
X18988464Y6002590D01*
X19081068Y6036016D01*
X19191512Y6047754D01*
X19304171Y6035899D01*
G37*
G36*
X19283497Y7079763D02*
G01*
X19359835Y7050480D01*
X19424001Y7002591D01*
X19472908Y6939319D01*
X19502784Y6863589D01*
X19513302Y6771782D01*
X19502905Y6682173D01*
X19473132Y6606880D01*
X19424001Y6542651D01*
X19359712Y6493773D01*
X19283375Y6463968D01*
X19191512Y6453503D01*
X19101893Y6463885D01*
X19026599Y6493610D01*
X18962382Y6542651D01*
X18913340Y6606868D01*
X18883615Y6682163D01*
X18873233Y6771782D01*
X18883736Y6863600D01*
X18913565Y6939330D01*
X18962382Y7002591D01*
X19026476Y7050641D01*
X19101774Y7079845D01*
X19191512Y7090061D01*
X19283497Y7079763D01*
G37*
G36*
X21395996Y7048128D02*
G01*
X21480000Y7019559D01*
X21546471Y6974503D01*
X21597139Y6913115D01*
X21628240Y6837590D01*
X21639283Y6743694D01*
X21639283Y5659561D01*
X21628244Y5565661D01*
X21597145Y5490079D01*
X21546471Y5428599D01*
X21480000Y5383543D01*
X21395996Y5354974D01*
X21289558Y5344640D01*
X21185375Y5354859D01*
X21101709Y5383333D01*
X21034172Y5428599D01*
X20982503Y5490208D01*
X20950886Y5565791D01*
X20939680Y5659561D01*
X20939680Y6212160D01*
X21044705Y6212160D01*
X21052919Y6140456D01*
X21075836Y6083870D01*
X21112787Y6038901D01*
X21189168Y5993780D01*
X21289558Y5977840D01*
X21392560Y5993969D01*
X21467855Y6038901D01*
X21503819Y6083739D01*
X21526214Y6140321D01*
X21534259Y6212160D01*
X21526134Y6283808D01*
X21503694Y6339044D01*
X21467855Y6381756D01*
X21392845Y6424121D01*
X21289558Y6439459D01*
X21188896Y6424304D01*
X21112787Y6381756D01*
X21075960Y6338909D01*
X21052998Y6283666D01*
X21044705Y6212160D01*
X20939680Y6212160D01*
X20939680Y6743694D01*
X20950708Y6837601D01*
X20981762Y6913127D01*
X21032340Y6974503D01*
X21098908Y7019559D01*
X21183015Y7048128D01*
X21289558Y7058462D01*
X21395996Y7048128D01*
G37*
G36*
X22406616Y4612265D02*
G01*
X9717075Y4612265D01*
X9717075Y5379750D01*
X9994853Y5379750D01*
X9994853Y4925000D01*
X11603650Y4925000D01*
X11603650Y5379750D01*
X10613856Y5379750D01*
X11302722Y6114158D01*
X12057942Y6114158D01*
X12057942Y5659561D01*
X12069996Y5508444D01*
X12104727Y5374763D01*
X12161134Y5255492D01*
X12239054Y5149280D01*
X12336202Y5059882D01*
X12454836Y4986214D01*
X12585204Y4933983D01*
X12732848Y4901422D01*
X12900885Y4890043D01*
X13103540Y4908115D01*
X13279000Y4959891D01*
X13432418Y5043916D01*
X13533820Y5128447D01*
X13612433Y5223357D01*
X13670460Y5329764D01*
X13708718Y5449665D01*
X13194587Y5449665D01*
X13164671Y5390203D01*
X13096584Y5344640D01*
X13008339Y5318891D01*
X12900885Y5309683D01*
X12789630Y5320334D01*
X12706071Y5349150D01*
X12643667Y5393641D01*
X12598715Y5455280D01*
X12569132Y5541228D01*
X12558029Y5659561D01*
X12558029Y5757411D01*
X13736653Y5757411D01*
X13736653Y6114158D01*
X13735252Y6131713D01*
X14155988Y6131713D01*
X14155988Y6114158D01*
X14155988Y5642006D01*
X14168036Y5470788D01*
X14202057Y5325144D01*
X14255940Y5200867D01*
X14329095Y5094597D01*
X14422694Y5004645D01*
X14527097Y4941594D01*
X14644554Y4903291D01*
X14778502Y4890043D01*
X14903457Y4901692D01*
X15011932Y4935155D01*
X15107161Y4989725D01*
X15188611Y5063754D01*
X15255017Y5156553D01*
X15306677Y5271215D01*
X15306677Y4925000D01*
X15813786Y4925000D01*
X15813786Y5652539D01*
X18296057Y5652539D01*
X18309085Y5506674D01*
X18347037Y5375286D01*
X18409630Y5255492D01*
X18494255Y5149560D01*
X18598381Y5060077D01*
X18724398Y4986214D01*
X18861641Y4933969D01*
X19016342Y4901407D01*
X19191512Y4890043D01*
X19366579Y4901407D01*
X19521177Y4933969D01*
X19658321Y4986214D01*
X19784427Y5060092D01*
X19888547Y5149576D01*
X19973089Y5255492D01*
X20035770Y5375295D01*
X20073770Y5506682D01*
X20086815Y5652539D01*
X20071237Y5801531D01*
X20025601Y5935708D01*
X19953131Y6055942D01*
X19859364Y6156137D01*
X19746230Y6231995D01*
X19614663Y6278564D01*
X19614663Y6285586D01*
X19724106Y6319393D01*
X19819417Y6378555D01*
X19903175Y6465562D01*
X19965723Y6569701D01*
X20003745Y6686919D01*
X20009331Y6743694D01*
X20450126Y6743694D01*
X20450126Y5659561D01*
X20462180Y5508444D01*
X20496911Y5374763D01*
X20553319Y5255492D01*
X20631153Y5149169D01*
X20727779Y5059783D01*
X20845341Y4986214D01*
X20974532Y4934040D01*
X21121523Y4901453D01*
X21289558Y4890043D01*
X21459869Y4901532D01*
X21607313Y4934192D01*
X21735454Y4986214D01*
X21851937Y5059690D01*
X21947986Y5149063D01*
X22025645Y5255492D01*
X22082053Y5374763D01*
X22116784Y5508444D01*
X22128838Y5659561D01*
X22128838Y6743694D01*
X22116786Y6894708D01*
X22082058Y7028341D01*
X22025645Y7147610D01*
X21947976Y7254135D01*
X21851926Y7343556D01*
X21735454Y7417041D01*
X21607313Y7469063D01*
X21459869Y7501722D01*
X21289558Y7513211D01*
X21121523Y7501802D01*
X20974532Y7469215D01*
X20845341Y7417041D01*
X20727790Y7343462D01*
X20631163Y7254029D01*
X20553319Y7147610D01*
X20496906Y7028341D01*
X20462177Y6894708D01*
X20450126Y6743694D01*
X20009331Y6743694D01*
X20016900Y6820630D01*
X20004782Y6954975D01*
X19969634Y7074663D01*
X19911876Y7182568D01*
X19834054Y7277729D01*
X19738042Y7358580D01*
X19621532Y7425742D01*
X19495180Y7473249D01*
X19352756Y7502872D01*
X19191512Y7513211D01*
X19032538Y7502923D01*
X18891120Y7473348D01*
X18764698Y7425742D01*
X18648277Y7358595D01*
X18552259Y7277745D01*
X18474354Y7182568D01*
X18416684Y7074673D01*
X18381584Y6954983D01*
X18369482Y6820630D01*
X18374215Y6771782D01*
X18382448Y6686808D01*
X18419889Y6569581D01*
X18481376Y6465562D01*
X18564206Y6378598D01*
X18658939Y6319430D01*
X18768209Y6285586D01*
X18768209Y6278564D01*
X18639329Y6232252D01*
X18525187Y6156137D01*
X18430070Y6055820D01*
X18357270Y5935708D01*
X18311635Y5801531D01*
X18299345Y5683985D01*
X18296057Y5652539D01*
X15813786Y5652539D01*
X15813786Y5834347D01*
X16533845Y5834347D01*
X17653087Y5834347D01*
X17653087Y6324054D01*
X16533845Y6324054D01*
X16533845Y5834347D01*
X15813786Y5834347D01*
X15813786Y7478254D01*
X15289122Y7478254D01*
X15289122Y6953590D01*
X15303166Y6512884D01*
X15251671Y6625318D01*
X15185875Y6715817D01*
X15105482Y6787505D01*
X15011538Y6839999D01*
X14903646Y6872364D01*
X14778502Y6883675D01*
X14644564Y6870420D01*
X14527110Y6832092D01*
X14422704Y6768995D01*
X14329095Y6678969D01*
X14255945Y6572773D01*
X14202063Y6448551D01*
X14168038Y6302935D01*
X14155988Y6131713D01*
X13735252Y6131713D01*
X13724602Y6265172D01*
X13689874Y6398805D01*
X13633461Y6518074D01*
X13555792Y6624599D01*
X13459742Y6714020D01*
X13343270Y6787505D01*
X13215160Y6839631D01*
X13068815Y6872240D01*
X12900885Y6883675D01*
X12732848Y6872296D01*
X12585204Y6839735D01*
X12454836Y6787505D01*
X12336214Y6713828D01*
X12239063Y6624381D01*
X12161134Y6518074D01*
X12104722Y6398805D01*
X12069993Y6265172D01*
X12057942Y6114158D01*
X11302722Y6114158D01*
X11565182Y6393969D01*
X11565182Y6848718D01*
X10029810Y6848718D01*
X10029810Y6393969D01*
X10946179Y6393969D01*
X9994853Y5379750D01*
X9717075Y5379750D01*
X9717075Y7790989D01*
X22406616Y7790989D01*
X22406616Y4612265D01*
G37*
D12*
G36*
X10479295Y3872991D02*
G01*
X10601955Y3845497D01*
X10710101Y3801393D01*
X10808543Y3739408D01*
X10890053Y3663746D01*
X10956297Y3573392D01*
X11004416Y3472099D01*
X11034128Y3357804D01*
X11044469Y3227788D01*
X11044469Y2497502D01*
X11034201Y2369358D01*
X11004555Y2255475D01*
X10956297Y2153364D01*
X10890019Y2062066D01*
X10808496Y1985475D01*
X10710101Y1922555D01*
X10601878Y1877697D01*
X10479225Y1849762D01*
X10339462Y1840000D01*
X9676221Y1840000D01*
X9676221Y2217722D01*
X10095952Y2217722D01*
X10339462Y2217722D01*
X10420194Y2226880D01*
X10487763Y2253032D01*
X10545115Y2296002D01*
X10589040Y2352576D01*
X10615597Y2418788D01*
X10624860Y2497502D01*
X10624860Y3227788D01*
X10615565Y3306460D01*
X10588987Y3372147D01*
X10545115Y3427823D01*
X10487853Y3470074D01*
X10420280Y3495846D01*
X10339462Y3504882D01*
X10095952Y3504882D01*
X10095952Y2217722D01*
X9676221Y2217722D01*
X9676221Y3882603D01*
X10339462Y3882603D01*
X10479295Y3872991D01*
G37*
G36*
X11419016Y1840000D02*
G01*
X11419016Y3378975D01*
X11824825Y3378975D01*
X11824825Y3087959D01*
X11856717Y3181191D01*
X11905409Y3258193D01*
X11971615Y3321578D01*
X12051125Y3367953D01*
X12144674Y3396775D01*
X12255669Y3406940D01*
X12369341Y3396408D01*
X12465799Y3366446D01*
X12548409Y3318055D01*
X12619469Y3250259D01*
X12674574Y3169111D01*
X12715555Y3072358D01*
X12741673Y2956992D01*
X12750994Y2819292D01*
X12750994Y2665419D01*
X12331263Y2665419D01*
X12331263Y2791326D01*
X12323341Y2869012D01*
X12301474Y2929735D01*
X12266905Y2977317D01*
X12220081Y3012804D01*
X12160661Y3035096D01*
X12084944Y3043141D01*
X12009977Y3034259D01*
X11950576Y3009383D01*
X11903105Y2969013D01*
X11868896Y2915956D01*
X11846831Y2847039D01*
X11838747Y2757743D01*
X11838747Y1840000D01*
X11419016Y1840000D01*
G37*
G36*
X13858332Y3396911D02*
G01*
X13986083Y3368931D01*
X14092225Y3325285D01*
X14180303Y3266989D01*
X14254127Y3191203D01*
X14306838Y3102559D01*
X14339519Y2998495D01*
X14351029Y2875224D01*
X14351029Y1840000D01*
X13945341Y1840000D01*
X13945341Y2105859D01*
X13916482Y2020743D01*
X13868137Y1949684D01*
X13798429Y1890315D01*
X13715712Y1848173D01*
X13616676Y1821530D01*
X13497644Y1812035D01*
X13383999Y1821144D01*
X13287377Y1846953D01*
X13204750Y1888174D01*
X13133845Y1944903D01*
X13075908Y2015363D01*
X13034337Y2095543D01*
X13008622Y2187333D01*
X12999633Y2293315D01*
X13004771Y2346438D01*
X13405321Y2346438D01*
X13412473Y2291445D01*
X13433226Y2244527D01*
X13468213Y2203678D01*
X13513380Y2173826D01*
X13571398Y2154712D01*
X13645900Y2147746D01*
X13731283Y2155795D01*
X13799563Y2178141D01*
X13854361Y2213448D01*
X13897050Y2261752D01*
X13922480Y2318266D01*
X13931297Y2385639D01*
X13931297Y2542321D01*
X13637473Y2542321D01*
X13564812Y2535493D01*
X13508690Y2516819D01*
X13465404Y2487733D01*
X13432155Y2447985D01*
X13412238Y2401581D01*
X13405321Y2346438D01*
X13004771Y2346438D01*
X13010567Y2406358D01*
X13041836Y2503123D01*
X13092721Y2586884D01*
X13164619Y2659802D01*
X13249740Y2715573D01*
X13353003Y2757485D01*
X13478017Y2784446D01*
X13629169Y2794135D01*
X13931297Y2794135D01*
X13931297Y2892077D01*
X13924242Y2947018D01*
X13904217Y2991405D01*
X13871092Y3027753D01*
X13828330Y3053645D01*
X13772269Y3070510D01*
X13699145Y3076724D01*
X13599894Y3065273D01*
X13529762Y3034714D01*
X13494349Y3002610D01*
X13471711Y2962343D01*
X13461252Y2911616D01*
X13063869Y2911616D01*
X13078723Y3021253D01*
X13113353Y3116225D01*
X13167512Y3199401D01*
X13242899Y3272607D01*
X13330841Y3328870D01*
X13434984Y3370761D01*
X13558356Y3397439D01*
X13704640Y3406940D01*
X13858332Y3396911D01*
G37*
G36*
X15310183Y3398857D02*
G01*
X15392412Y3375724D01*
X15464288Y3338308D01*
X15527377Y3287218D01*
X15580385Y3223884D01*
X15623778Y3146700D01*
X15623778Y3378975D01*
X16029466Y3378975D01*
X16029466Y1879201D01*
X16017971Y1756140D01*
X15985178Y1651074D01*
X15932046Y1560473D01*
X15857397Y1481940D01*
X15768158Y1420743D01*
X15662507Y1375407D01*
X15537316Y1346617D01*
X15388695Y1336372D01*
X14940997Y1336372D01*
X14940997Y1672084D01*
X15374773Y1672084D01*
X15450952Y1679427D01*
X15509770Y1699534D01*
X15555146Y1730946D01*
X15589437Y1773826D01*
X15610614Y1826883D01*
X15618161Y1893123D01*
X15618161Y1951864D01*
X15620969Y2181330D01*
X15577523Y2104223D01*
X15524515Y2041363D01*
X15461479Y1991065D01*
X15389735Y1954383D01*
X15308382Y1931773D01*
X15215282Y1923898D01*
X15102048Y1934606D01*
X15004123Y1965335D01*
X14918476Y2015435D01*
X14843056Y2086197D01*
X14784075Y2170559D01*
X14740552Y2269879D01*
X14713006Y2386996D01*
X14703227Y2525468D01*
X14703227Y2791326D01*
X15122958Y2791326D01*
X15122958Y2539512D01*
X15130723Y2461706D01*
X15152123Y2400941D01*
X15185851Y2353399D01*
X15231846Y2318029D01*
X15290729Y2295758D01*
X15366346Y2287698D01*
X15440090Y2295660D01*
X15498624Y2317850D01*
X15545376Y2353399D01*
X15579950Y2401056D01*
X15601816Y2461825D01*
X15609734Y2539512D01*
X15609734Y2791326D01*
X15601813Y2869012D01*
X15579946Y2929735D01*
X15545376Y2977317D01*
X15498614Y3012937D01*
X15440080Y3035166D01*
X15366346Y3043141D01*
X15290739Y3035067D01*
X15231856Y3012758D01*
X15185851Y2977317D01*
X15152128Y2929850D01*
X15130726Y2869131D01*
X15122958Y2791326D01*
X14703227Y2791326D01*
X14703227Y2805370D01*
X14712948Y2942265D01*
X14740407Y3058727D01*
X14783921Y3158134D01*
X14843056Y3243176D01*
X14918568Y3314646D01*
X15004248Y3365185D01*
X15102139Y3396154D01*
X15215282Y3406940D01*
X15310183Y3398857D01*
G37*
G36*
X17189459Y3397749D02*
G01*
X17307413Y3371622D01*
X17409926Y3330004D01*
X17503104Y3271216D01*
X17579944Y3199679D01*
X17642079Y3114460D01*
X17687209Y3019044D01*
X17714992Y2912138D01*
X17724633Y2791326D01*
X17724633Y2427649D01*
X17714990Y2306755D01*
X17687205Y2199810D01*
X17642079Y2104393D01*
X17579951Y2019250D01*
X17503113Y1947752D01*
X17409926Y1888971D01*
X17307413Y1847353D01*
X17189459Y1821226D01*
X17053210Y1812035D01*
X16918782Y1821162D01*
X16801188Y1847232D01*
X16697836Y1888971D01*
X16603786Y1947827D01*
X16526485Y2019335D01*
X16464218Y2104393D01*
X16419092Y2199810D01*
X16391307Y2306755D01*
X16381664Y2427649D01*
X16381664Y2791326D01*
X16801395Y2791326D01*
X16801395Y2427649D01*
X16809457Y2349987D01*
X16831749Y2289179D01*
X16867096Y2241414D01*
X16914788Y2206071D01*
X16975550Y2183777D01*
X17053210Y2175712D01*
X17132672Y2183871D01*
X17193737Y2206241D01*
X17240666Y2241414D01*
X17275235Y2289073D01*
X17297102Y2349878D01*
X17305024Y2427649D01*
X17305024Y2791326D01*
X17297007Y2870902D01*
X17275062Y2931963D01*
X17240666Y2978783D01*
X17193846Y3013179D01*
X17132785Y3035124D01*
X17053210Y3043141D01*
X16975441Y3035216D01*
X16914682Y3013347D01*
X16867096Y2978783D01*
X16831924Y2931854D01*
X16809554Y2870789D01*
X16801395Y2791326D01*
X16381664Y2791326D01*
X16391305Y2912138D01*
X16419088Y3019044D01*
X16464218Y3114460D01*
X16526493Y3199594D01*
X16603795Y3271141D01*
X16697836Y3330004D01*
X16801188Y3371743D01*
X16918782Y3397813D01*
X17053210Y3406940D01*
X17189459Y3397749D01*
G37*
G36*
X18667288Y1812035D02*
G01*
X18541521Y1819203D01*
X18431218Y1839631D01*
X18334263Y1872118D01*
X18243886Y1918790D01*
X18170496Y1974247D01*
X18111880Y2038570D01*
X18067866Y2112883D01*
X18041276Y2195200D01*
X18032135Y2287698D01*
X18443440Y2287698D01*
X18450338Y2238566D01*
X18469794Y2200255D01*
X18502180Y2170095D01*
X18568403Y2141869D01*
X18667288Y2131016D01*
X18790387Y2131016D01*
X18897197Y2141946D01*
X18967951Y2170095D01*
X19003336Y2200414D01*
X19023874Y2237024D01*
X19030966Y2282080D01*
X19017810Y2343681D01*
X18980530Y2384174D01*
X18922538Y2409529D01*
X18826779Y2427649D01*
X18474214Y2469536D01*
X18343940Y2499267D01*
X18241262Y2550337D01*
X18160729Y2621944D01*
X18100961Y2712188D01*
X18064433Y2816783D01*
X18051674Y2939582D01*
X18064089Y3064483D01*
X18098698Y3164823D01*
X18153837Y3245939D01*
X18230998Y3311144D01*
X18334611Y3361275D01*
X18471520Y3394580D01*
X18650436Y3406940D01*
X18781960Y3406940D01*
X18924384Y3398196D01*
X19044746Y3373650D01*
X19146482Y3335182D01*
X19232466Y3283720D01*
X19306890Y3215825D01*
X19358469Y3139519D01*
X19389614Y3053086D01*
X19400383Y2953626D01*
X18989078Y2953626D01*
X18975344Y3013263D01*
X18934490Y3057185D01*
X18873048Y3083496D01*
X18781960Y3093577D01*
X18650436Y3093577D01*
X18559952Y3083352D01*
X18502058Y3057185D01*
X18464443Y3014042D01*
X18451744Y2956435D01*
X18464611Y2901462D01*
X18500715Y2869606D01*
X18555167Y2851222D01*
X18639323Y2836145D01*
X18975034Y2794135D01*
X19087384Y2772017D01*
X19179643Y2737453D01*
X19255128Y2691618D01*
X19316364Y2634645D01*
X19378533Y2540949D01*
X19417337Y2427092D01*
X19431158Y2287698D01*
X19420318Y2177365D01*
X19389469Y2084173D01*
X19339450Y2004630D01*
X19268859Y1936476D01*
X19185944Y1885760D01*
X19081751Y1846834D01*
X18951706Y1821329D01*
X18790387Y1812035D01*
X18667288Y1812035D01*
G37*
G36*
X22226237Y3874747D02*
G01*
X22344321Y3852367D01*
X22447923Y3816780D01*
X22544297Y3765834D01*
X22622845Y3704802D01*
X22685816Y3633476D01*
X22732781Y3551543D01*
X22761324Y3460034D01*
X22771179Y3356504D01*
X22759990Y3244299D01*
X22728045Y3148937D01*
X22676046Y3066954D01*
X22606248Y2999830D01*
X22525044Y2954073D01*
X22429849Y2928469D01*
X22429849Y2922851D01*
X22538291Y2897142D01*
X22632693Y2843106D01*
X22710664Y2765641D01*
X22769836Y2668228D01*
X22806210Y2557274D01*
X22818806Y2430335D01*
X22808620Y2315540D01*
X22779093Y2213274D01*
X22730635Y2121124D01*
X22664993Y2040004D01*
X22583567Y1971186D01*
X22484316Y1914128D01*
X22376589Y1873906D01*
X22254779Y1848782D01*
X22116486Y1840000D01*
X21433705Y1840000D01*
X21433705Y2178521D01*
X21839392Y2178521D01*
X22102442Y2178521D01*
X22191115Y2187412D01*
X22261596Y2212104D01*
X22317864Y2251305D01*
X22360516Y2304475D01*
X22386869Y2370384D01*
X22396266Y2452806D01*
X22386900Y2535263D01*
X22360566Y2601663D01*
X22317864Y2655649D01*
X22261492Y2695628D01*
X22191011Y2720746D01*
X22102442Y2729777D01*
X21839392Y2729777D01*
X21839392Y2178521D01*
X21433705Y2178521D01*
X21433705Y3059994D01*
X21839392Y3059994D01*
X22085711Y3059994D01*
X22165268Y3068022D01*
X22228380Y3090310D01*
X22278663Y3125695D01*
X22316899Y3173534D01*
X22340341Y3231745D01*
X22348639Y3303382D01*
X22340208Y3376749D01*
X22316664Y3434751D01*
X22278663Y3480946D01*
X22228587Y3514782D01*
X22165478Y3536216D01*
X22085711Y3543961D01*
X21839392Y3543961D01*
X21839392Y3059994D01*
X21433705Y3059994D01*
X21433705Y3882603D01*
X22091329Y3882603D01*
X22226237Y3874747D01*
G37*
G36*
X23766957Y1812035D02*
G01*
X23686261Y1821223D01*
X23619175Y1847393D01*
X23562648Y1890315D01*
X23519655Y1946850D01*
X23493446Y2013937D01*
X23484246Y2094624D01*
X23493449Y2175307D01*
X23519659Y2242350D01*
X23562648Y2298811D01*
X23619184Y2341804D01*
X23686270Y2368012D01*
X23766957Y2377213D01*
X23847640Y2368010D01*
X23914683Y2341799D01*
X23971144Y2298811D01*
X24014133Y2242350D01*
X24040343Y2175307D01*
X24049546Y2094624D01*
X24040346Y2013937D01*
X24014137Y1946850D01*
X23971144Y1890315D01*
X23914692Y1847398D01*
X23847649Y1821225D01*
X23766957Y1812035D01*
G37*
D10*
G36*
X27550017Y66341117D02*
G01*
X27590561Y66129847D01*
X27688503Y65637453D01*
X27344364Y65637453D01*
X27447923Y66132656D01*
X27488468Y66342460D01*
X27517899Y66504882D01*
X27550017Y66341117D01*
G37*
G36*
X29286813Y66509822D02*
G01*
X29357605Y66485055D01*
X29413101Y66446019D01*
X29454755Y66392975D01*
X29480717Y66326261D01*
X29490038Y66241832D01*
X29480792Y66161261D01*
X29454922Y66097237D01*
X29413101Y66045950D01*
X29357826Y66008529D01*
X29287040Y65984656D01*
X29196336Y65975974D01*
X28955635Y65975974D01*
X28955635Y66518804D01*
X29196336Y66518804D01*
X29286813Y66509822D01*
G37*
G36*
X31852250Y64562035D02*
G01*
X24917916Y64562035D01*
X24917916Y65438762D01*
X25167916Y65438762D01*
X25180183Y65295350D01*
X25214993Y65173543D01*
X25270846Y65069335D01*
X25348290Y64979830D01*
X25442861Y64908691D01*
X25553966Y64856547D01*
X25684795Y64823682D01*
X25839462Y64812035D01*
X25993972Y64823768D01*
X26058038Y64840000D01*
X26748412Y64840000D01*
X27176448Y64840000D01*
X27274389Y65301619D01*
X27761287Y65301619D01*
X27859228Y64840000D01*
X28287264Y64840000D01*
X28005613Y65975974D01*
X28541521Y65975974D01*
X28541521Y64840000D01*
X28955635Y64840000D01*
X28955635Y65612296D01*
X29151517Y65612296D01*
X29481734Y64840000D01*
X29937735Y64840000D01*
X29551587Y65679463D01*
X29653954Y65735624D01*
X29740606Y65810527D01*
X29813171Y65905998D01*
X29866421Y66014076D01*
X29898707Y66131762D01*
X29909769Y66261372D01*
X29899451Y66385659D01*
X29869777Y66494828D01*
X29864771Y66504882D01*
X30147173Y66504882D01*
X30664846Y66504882D01*
X30664846Y64840000D01*
X31084577Y64840000D01*
X31084577Y66504882D01*
X31602250Y66504882D01*
X31602250Y66882603D01*
X30147173Y66882603D01*
X30147173Y66504882D01*
X29864771Y66504882D01*
X29821598Y66591588D01*
X29755543Y66677106D01*
X29673682Y66748647D01*
X29574057Y66807010D01*
X29465240Y66847859D01*
X29340272Y66873560D01*
X29196336Y66882603D01*
X28541521Y66882603D01*
X28541521Y65975974D01*
X28005613Y65975974D01*
X27780826Y66882603D01*
X27249232Y66882603D01*
X26943937Y65637453D01*
X26748412Y64840000D01*
X26058038Y64840000D01*
X26124705Y64856891D01*
X26235784Y64909478D01*
X26330390Y64981295D01*
X26408065Y65071469D01*
X26463946Y65175747D01*
X26498678Y65296899D01*
X26510886Y65438762D01*
X26510886Y66882603D01*
X26091277Y66882603D01*
X26091277Y65441571D01*
X26082939Y65358331D01*
X26060054Y65293983D01*
X26024110Y65244222D01*
X25975368Y65207055D01*
X25914946Y65183964D01*
X25839462Y65175712D01*
X25762031Y65184068D01*
X25701261Y65207246D01*
X25653349Y65244222D01*
X25618249Y65293866D01*
X25595829Y65358210D01*
X25587648Y65441571D01*
X25587648Y66882603D01*
X25167916Y66882603D01*
X25167916Y65438762D01*
X24917916Y65438762D01*
X24917916Y67132603D01*
X31852250Y67132603D01*
X31852250Y64562035D01*
G37*
G36*
X6965701Y9562035D02*
G01*
X1679030Y9562035D01*
X1679030Y11294955D01*
X1929030Y11294955D01*
X1929030Y10427649D01*
X1938975Y10306908D01*
X1967668Y10199978D01*
X2014392Y10104393D01*
X2078450Y10019414D01*
X2157610Y9947883D01*
X2253628Y9888971D01*
X2358786Y9847146D01*
X2477378Y9821116D01*
X2611810Y9812035D01*
X2748059Y9821179D01*
X2833884Y9840000D01*
X3750226Y9840000D01*
X4995376Y9840000D01*
X5288712Y9840000D01*
X5708443Y9840000D01*
X5708443Y10715733D01*
X5907135Y10715733D01*
X6256891Y9840000D01*
X6715701Y9840000D01*
X6273621Y10917234D01*
X6698970Y11882603D01*
X6245655Y11882603D01*
X5904326Y11082342D01*
X5708443Y11082342D01*
X5708443Y11882603D01*
X5288712Y11882603D01*
X5288712Y9840000D01*
X4995376Y9840000D01*
X4995376Y10217722D01*
X4169958Y10217722D01*
X4169958Y11882603D01*
X3750226Y11882603D01*
X3750226Y9840000D01*
X2833884Y9840000D01*
X2867017Y9847266D01*
X2971336Y9888971D01*
X3066489Y9947809D01*
X3145187Y10019331D01*
X3209106Y10104393D01*
X3255830Y10199978D01*
X3284524Y10306908D01*
X3294469Y10427649D01*
X2874860Y10427649D01*
X2866494Y10350224D01*
X2843280Y10289410D01*
X2806228Y10241414D01*
X2756713Y10206200D01*
X2693255Y10183835D01*
X2611810Y10175712D01*
X2530364Y10183832D01*
X2466861Y10206195D01*
X2417271Y10241414D01*
X2380289Y10289400D01*
X2357114Y10350214D01*
X2348761Y10427649D01*
X2348761Y11294955D01*
X2357213Y11374181D01*
X2380468Y11435257D01*
X2417271Y11482412D01*
X2466755Y11516856D01*
X2530255Y11538792D01*
X2611810Y11546770D01*
X2693364Y11538790D01*
X2756819Y11516851D01*
X2806228Y11482412D01*
X2843102Y11435247D01*
X2866396Y11374171D01*
X2874860Y11294955D01*
X3294469Y11294955D01*
X3284452Y11417484D01*
X3255692Y11524786D01*
X3209106Y11619554D01*
X3145274Y11703780D01*
X3066586Y11774875D01*
X2971336Y11833633D01*
X2867017Y11875338D01*
X2748059Y11901425D01*
X2611810Y11910569D01*
X2477378Y11901488D01*
X2358786Y11875458D01*
X2253628Y11833633D01*
X2157512Y11774802D01*
X2078363Y11703696D01*
X2014392Y11619554D01*
X1967806Y11524786D01*
X1939047Y11417484D01*
X1929030Y11294955D01*
X1679030Y11294955D01*
X1679030Y12160569D01*
X6965701Y12160569D01*
X6965701Y9562035D01*
G37*
G36*
X87303049Y66538503D02*
G01*
X87370252Y66515648D01*
X87423429Y66479603D01*
X87463964Y66430492D01*
X87488845Y66370072D01*
X87497679Y66294955D01*
X87497679Y65427649D01*
X87488847Y65352529D01*
X87463968Y65292063D01*
X87423429Y65242879D01*
X87370252Y65206834D01*
X87303049Y65183979D01*
X87217899Y65175712D01*
X87134553Y65183888D01*
X87067620Y65206667D01*
X87013590Y65242879D01*
X86972255Y65292166D01*
X86946961Y65352633D01*
X86937997Y65427649D01*
X86937997Y65869728D01*
X87022016Y65869728D01*
X87028587Y65812365D01*
X87046922Y65767096D01*
X87076482Y65731121D01*
X87137587Y65695024D01*
X87217899Y65682272D01*
X87300300Y65695176D01*
X87360537Y65731121D01*
X87389308Y65766991D01*
X87407224Y65812257D01*
X87413660Y65869728D01*
X87407160Y65927047D01*
X87389208Y65971235D01*
X87360537Y66005405D01*
X87300529Y66039297D01*
X87217899Y66051567D01*
X87137370Y66039443D01*
X87076482Y66005405D01*
X87047020Y65971128D01*
X87028651Y65926933D01*
X87022016Y65869728D01*
X86937997Y65869728D01*
X86937997Y66294955D01*
X86946819Y66370081D01*
X86971662Y66430502D01*
X87012124Y66479603D01*
X87065379Y66515647D01*
X87132664Y66538503D01*
X87217899Y66546770D01*
X87303049Y66538503D01*
G37*
G36*
X85629940Y66509822D02*
G01*
X85700731Y66485055D01*
X85756228Y66446019D01*
X85797881Y66392975D01*
X85823843Y66326261D01*
X85833164Y66241832D01*
X85823919Y66161261D01*
X85798048Y66097237D01*
X85756228Y66045950D01*
X85700952Y66008529D01*
X85630166Y65984656D01*
X85539462Y65975974D01*
X85298761Y65975974D01*
X85298761Y66518804D01*
X85539462Y66518804D01*
X85629940Y66509822D01*
G37*
G36*
X89868196Y64562035D02*
G01*
X84634647Y64562035D01*
X84634647Y65975974D01*
X84884647Y65975974D01*
X84884647Y64840000D01*
X85298761Y64840000D01*
X85298761Y65612296D01*
X85494644Y65612296D01*
X85824860Y64840000D01*
X86280861Y64840000D01*
X85894713Y65679463D01*
X85997080Y65735624D01*
X86083732Y65810527D01*
X86156297Y65905998D01*
X86209547Y66014076D01*
X86241833Y66131762D01*
X86252896Y66261372D01*
X86250108Y66294955D01*
X86546353Y66294955D01*
X86546353Y65427649D01*
X86555997Y65306755D01*
X86583781Y65199810D01*
X86628907Y65104393D01*
X86691175Y65019335D01*
X86768476Y64947827D01*
X86862526Y64888971D01*
X86965878Y64847232D01*
X87083471Y64821162D01*
X87217899Y64812035D01*
X87354148Y64821226D01*
X87438907Y64840000D01*
X88174354Y64840000D01*
X88557693Y64840000D01*
X88557693Y65623409D01*
X88550082Y65940205D01*
X88528262Y66226445D01*
X88470987Y66689529D01*
X88722801Y65707429D01*
X89058513Y65707429D01*
X89315945Y66714686D01*
X89261357Y66215210D01*
X89241613Y65928213D01*
X89234856Y65623409D01*
X89234856Y64840000D01*
X89618196Y64840000D01*
X89618196Y66882603D01*
X89100523Y66882603D01*
X88893527Y66009557D01*
X88686409Y66882603D01*
X88174354Y66882603D01*
X88174354Y64840000D01*
X87438907Y64840000D01*
X87472103Y64847353D01*
X87574616Y64888971D01*
X87667802Y64947752D01*
X87744641Y65019250D01*
X87806769Y65104393D01*
X87851895Y65199810D01*
X87879679Y65306755D01*
X87889323Y65427649D01*
X87889323Y66294955D01*
X87879681Y66415767D01*
X87851899Y66522673D01*
X87806769Y66618088D01*
X87744633Y66703308D01*
X87667793Y66774845D01*
X87574616Y66833633D01*
X87472103Y66875251D01*
X87354148Y66901378D01*
X87217899Y66910569D01*
X87083471Y66901442D01*
X86965878Y66875372D01*
X86862526Y66833633D01*
X86768484Y66774770D01*
X86691183Y66703223D01*
X86628907Y66618088D01*
X86583777Y66522673D01*
X86555994Y66415767D01*
X86546353Y66294955D01*
X86250108Y66294955D01*
X86242577Y66385659D01*
X86212904Y66494828D01*
X86164724Y66591588D01*
X86098669Y66677106D01*
X86016808Y66748647D01*
X85917184Y66807010D01*
X85808366Y66847859D01*
X85683398Y66873560D01*
X85539462Y66882603D01*
X84884647Y66882603D01*
X84884647Y65975974D01*
X84634647Y65975974D01*
X84634647Y67160569D01*
X89868196Y67160569D01*
X89868196Y64562035D01*
G37*
D13*
X71259819Y8535715D02*
X72069342Y8535715D01*
X72069342Y8535715D02*
X72164580Y8583334D01*
X72164580Y8583334D02*
X72212200Y8630953D01*
X72212200Y8630953D02*
X72259819Y8726191D01*
X72259819Y8726191D02*
X72259819Y8916667D01*
X72259819Y8916667D02*
X72212200Y9011905D01*
X72212200Y9011905D02*
X72164580Y9059524D01*
X72164580Y9059524D02*
X72069342Y9107143D01*
X72069342Y9107143D02*
X71259819Y9107143D01*
X71259819Y9488096D02*
X71259819Y10107143D01*
X71259819Y10107143D02*
X71640771Y9773810D01*
X71640771Y9773810D02*
X71640771Y9916667D01*
X71640771Y9916667D02*
X71688390Y10011905D01*
X71688390Y10011905D02*
X71736009Y10059524D01*
X71736009Y10059524D02*
X71831247Y10107143D01*
X71831247Y10107143D02*
X72069342Y10107143D01*
X72069342Y10107143D02*
X72164580Y10059524D01*
X72164580Y10059524D02*
X72212200Y10011905D01*
X72212200Y10011905D02*
X72259819Y9916667D01*
X72259819Y9916667D02*
X72259819Y9630953D01*
X72259819Y9630953D02*
X72212200Y9535715D01*
X72212200Y9535715D02*
X72164580Y9488096D01*
X71259819Y10726191D02*
X71259819Y10821429D01*
X71259819Y10821429D02*
X71307438Y10916667D01*
X71307438Y10916667D02*
X71355057Y10964286D01*
X71355057Y10964286D02*
X71450295Y11011905D01*
X71450295Y11011905D02*
X71640771Y11059524D01*
X71640771Y11059524D02*
X71878866Y11059524D01*
X71878866Y11059524D02*
X72069342Y11011905D01*
X72069342Y11011905D02*
X72164580Y10964286D01*
X72164580Y10964286D02*
X72212200Y10916667D01*
X72212200Y10916667D02*
X72259819Y10821429D01*
X72259819Y10821429D02*
X72259819Y10726191D01*
X72259819Y10726191D02*
X72212200Y10630953D01*
X72212200Y10630953D02*
X72164580Y10583334D01*
X72164580Y10583334D02*
X72069342Y10535715D01*
X72069342Y10535715D02*
X71878866Y10488096D01*
X71878866Y10488096D02*
X71640771Y10488096D01*
X71640771Y10488096D02*
X71450295Y10535715D01*
X71450295Y10535715D02*
X71355057Y10583334D01*
X71355057Y10583334D02*
X71307438Y10630953D01*
X71307438Y10630953D02*
X71259819Y10726191D01*
X72259819Y12011905D02*
X72259819Y11440477D01*
X72259819Y11726191D02*
X71259819Y11726191D01*
X71259819Y11726191D02*
X71402676Y11630953D01*
X71402676Y11630953D02*
X71497914Y11535715D01*
X71497914Y11535715D02*
X71545533Y11440477D01*
X2309524Y34520181D02*
X2309524Y35520181D01*
X2309524Y35520181D02*
X2547619Y35520181D01*
X2547619Y35520181D02*
X2690476Y35472562D01*
X2690476Y35472562D02*
X2785714Y35377324D01*
X2785714Y35377324D02*
X2833333Y35282086D01*
X2833333Y35282086D02*
X2880952Y35091610D01*
X2880952Y35091610D02*
X2880952Y34948753D01*
X2880952Y34948753D02*
X2833333Y34758277D01*
X2833333Y34758277D02*
X2785714Y34663039D01*
X2785714Y34663039D02*
X2690476Y34567800D01*
X2690476Y34567800D02*
X2547619Y34520181D01*
X2547619Y34520181D02*
X2309524Y34520181D01*
X3738095Y35186848D02*
X3738095Y34520181D01*
X3500000Y35567800D02*
X3261905Y34853515D01*
X3261905Y34853515D02*
X3880952Y34853515D01*
X4452381Y35520181D02*
X4547619Y35520181D01*
X4547619Y35520181D02*
X4642857Y35472562D01*
X4642857Y35472562D02*
X4690476Y35424943D01*
X4690476Y35424943D02*
X4738095Y35329705D01*
X4738095Y35329705D02*
X4785714Y35139229D01*
X4785714Y35139229D02*
X4785714Y34901134D01*
X4785714Y34901134D02*
X4738095Y34710658D01*
X4738095Y34710658D02*
X4690476Y34615420D01*
X4690476Y34615420D02*
X4642857Y34567800D01*
X4642857Y34567800D02*
X4547619Y34520181D01*
X4547619Y34520181D02*
X4452381Y34520181D01*
X4452381Y34520181D02*
X4357143Y34567800D01*
X4357143Y34567800D02*
X4309524Y34615420D01*
X4309524Y34615420D02*
X4261905Y34710658D01*
X4261905Y34710658D02*
X4214286Y34901134D01*
X4214286Y34901134D02*
X4214286Y35139229D01*
X4214286Y35139229D02*
X4261905Y35329705D01*
X4261905Y35329705D02*
X4309524Y35424943D01*
X4309524Y35424943D02*
X4357143Y35472562D01*
X4357143Y35472562D02*
X4452381Y35520181D01*
X5738095Y34520181D02*
X5166667Y34520181D01*
X5452381Y34520181D02*
X5452381Y35520181D01*
X5452381Y35520181D02*
X5357143Y35377324D01*
X5357143Y35377324D02*
X5261905Y35282086D01*
X5261905Y35282086D02*
X5166667Y35234467D01*
X14880952Y25045181D02*
X14547619Y25521372D01*
X14309524Y25045181D02*
X14309524Y26045181D01*
X14309524Y26045181D02*
X14690476Y26045181D01*
X14690476Y26045181D02*
X14785714Y25997562D01*
X14785714Y25997562D02*
X14833333Y25949943D01*
X14833333Y25949943D02*
X14880952Y25854705D01*
X14880952Y25854705D02*
X14880952Y25711848D01*
X14880952Y25711848D02*
X14833333Y25616610D01*
X14833333Y25616610D02*
X14785714Y25568991D01*
X14785714Y25568991D02*
X14690476Y25521372D01*
X14690476Y25521372D02*
X14309524Y25521372D01*
X15261905Y25949943D02*
X15309524Y25997562D01*
X15309524Y25997562D02*
X15404762Y26045181D01*
X15404762Y26045181D02*
X15642857Y26045181D01*
X15642857Y26045181D02*
X15738095Y25997562D01*
X15738095Y25997562D02*
X15785714Y25949943D01*
X15785714Y25949943D02*
X15833333Y25854705D01*
X15833333Y25854705D02*
X15833333Y25759467D01*
X15833333Y25759467D02*
X15785714Y25616610D01*
X15785714Y25616610D02*
X15214286Y25045181D01*
X15214286Y25045181D02*
X15833333Y25045181D01*
X16452381Y26045181D02*
X16547619Y26045181D01*
X16547619Y26045181D02*
X16642857Y25997562D01*
X16642857Y25997562D02*
X16690476Y25949943D01*
X16690476Y25949943D02*
X16738095Y25854705D01*
X16738095Y25854705D02*
X16785714Y25664229D01*
X16785714Y25664229D02*
X16785714Y25426134D01*
X16785714Y25426134D02*
X16738095Y25235658D01*
X16738095Y25235658D02*
X16690476Y25140420D01*
X16690476Y25140420D02*
X16642857Y25092800D01*
X16642857Y25092800D02*
X16547619Y25045181D01*
X16547619Y25045181D02*
X16452381Y25045181D01*
X16452381Y25045181D02*
X16357143Y25092800D01*
X16357143Y25092800D02*
X16309524Y25140420D01*
X16309524Y25140420D02*
X16261905Y25235658D01*
X16261905Y25235658D02*
X16214286Y25426134D01*
X16214286Y25426134D02*
X16214286Y25664229D01*
X16214286Y25664229D02*
X16261905Y25854705D01*
X16261905Y25854705D02*
X16309524Y25949943D01*
X16309524Y25949943D02*
X16357143Y25997562D01*
X16357143Y25997562D02*
X16452381Y26045181D01*
X17166667Y25949943D02*
X17214286Y25997562D01*
X17214286Y25997562D02*
X17309524Y26045181D01*
X17309524Y26045181D02*
X17547619Y26045181D01*
X17547619Y26045181D02*
X17642857Y25997562D01*
X17642857Y25997562D02*
X17690476Y25949943D01*
X17690476Y25949943D02*
X17738095Y25854705D01*
X17738095Y25854705D02*
X17738095Y25759467D01*
X17738095Y25759467D02*
X17690476Y25616610D01*
X17690476Y25616610D02*
X17119048Y25045181D01*
X17119048Y25045181D02*
X17738095Y25045181D01*
X954819Y51714286D02*
X1669104Y51714286D01*
X1669104Y51714286D02*
X1811961Y51666667D01*
X1811961Y51666667D02*
X1907200Y51571429D01*
X1907200Y51571429D02*
X1954819Y51428572D01*
X1954819Y51428572D02*
X1954819Y51333334D01*
X1288152Y52619048D02*
X1954819Y52619048D01*
X907200Y52380953D02*
X1621485Y52142858D01*
X1621485Y52142858D02*
X1621485Y52761905D01*
X954819Y53333334D02*
X954819Y53428572D01*
X954819Y53428572D02*
X1002438Y53523810D01*
X1002438Y53523810D02*
X1050057Y53571429D01*
X1050057Y53571429D02*
X1145295Y53619048D01*
X1145295Y53619048D02*
X1335771Y53666667D01*
X1335771Y53666667D02*
X1573866Y53666667D01*
X1573866Y53666667D02*
X1764342Y53619048D01*
X1764342Y53619048D02*
X1859580Y53571429D01*
X1859580Y53571429D02*
X1907200Y53523810D01*
X1907200Y53523810D02*
X1954819Y53428572D01*
X1954819Y53428572D02*
X1954819Y53333334D01*
X1954819Y53333334D02*
X1907200Y53238096D01*
X1907200Y53238096D02*
X1859580Y53190477D01*
X1859580Y53190477D02*
X1764342Y53142858D01*
X1764342Y53142858D02*
X1573866Y53095239D01*
X1573866Y53095239D02*
X1335771Y53095239D01*
X1335771Y53095239D02*
X1145295Y53142858D01*
X1145295Y53142858D02*
X1050057Y53190477D01*
X1050057Y53190477D02*
X1002438Y53238096D01*
X1002438Y53238096D02*
X954819Y53333334D01*
X1954819Y54619048D02*
X1954819Y54047620D01*
X1954819Y54333334D02*
X954819Y54333334D01*
X954819Y54333334D02*
X1097676Y54238096D01*
X1097676Y54238096D02*
X1192914Y54142858D01*
X1192914Y54142858D02*
X1240533Y54047620D01*
X87130952Y63140420D02*
X87083333Y63092800D01*
X87083333Y63092800D02*
X86940476Y63045181D01*
X86940476Y63045181D02*
X86845238Y63045181D01*
X86845238Y63045181D02*
X86702381Y63092800D01*
X86702381Y63092800D02*
X86607143Y63188039D01*
X86607143Y63188039D02*
X86559524Y63283277D01*
X86559524Y63283277D02*
X86511905Y63473753D01*
X86511905Y63473753D02*
X86511905Y63616610D01*
X86511905Y63616610D02*
X86559524Y63807086D01*
X86559524Y63807086D02*
X86607143Y63902324D01*
X86607143Y63902324D02*
X86702381Y63997562D01*
X86702381Y63997562D02*
X86845238Y64045181D01*
X86845238Y64045181D02*
X86940476Y64045181D01*
X86940476Y64045181D02*
X87083333Y63997562D01*
X87083333Y63997562D02*
X87130952Y63949943D01*
X87464286Y64045181D02*
X88083333Y64045181D01*
X88083333Y64045181D02*
X87750000Y63664229D01*
X87750000Y63664229D02*
X87892857Y63664229D01*
X87892857Y63664229D02*
X87988095Y63616610D01*
X87988095Y63616610D02*
X88035714Y63568991D01*
X88035714Y63568991D02*
X88083333Y63473753D01*
X88083333Y63473753D02*
X88083333Y63235658D01*
X88083333Y63235658D02*
X88035714Y63140420D01*
X88035714Y63140420D02*
X87988095Y63092800D01*
X87988095Y63092800D02*
X87892857Y63045181D01*
X87892857Y63045181D02*
X87607143Y63045181D01*
X87607143Y63045181D02*
X87511905Y63092800D01*
X87511905Y63092800D02*
X87464286Y63140420D01*
X88702381Y64045181D02*
X88797619Y64045181D01*
X88797619Y64045181D02*
X88892857Y63997562D01*
X88892857Y63997562D02*
X88940476Y63949943D01*
X88940476Y63949943D02*
X88988095Y63854705D01*
X88988095Y63854705D02*
X89035714Y63664229D01*
X89035714Y63664229D02*
X89035714Y63426134D01*
X89035714Y63426134D02*
X88988095Y63235658D01*
X88988095Y63235658D02*
X88940476Y63140420D01*
X88940476Y63140420D02*
X88892857Y63092800D01*
X88892857Y63092800D02*
X88797619Y63045181D01*
X88797619Y63045181D02*
X88702381Y63045181D01*
X88702381Y63045181D02*
X88607143Y63092800D01*
X88607143Y63092800D02*
X88559524Y63140420D01*
X88559524Y63140420D02*
X88511905Y63235658D01*
X88511905Y63235658D02*
X88464286Y63426134D01*
X88464286Y63426134D02*
X88464286Y63664229D01*
X88464286Y63664229D02*
X88511905Y63854705D01*
X88511905Y63854705D02*
X88559524Y63949943D01*
X88559524Y63949943D02*
X88607143Y63997562D01*
X88607143Y63997562D02*
X88702381Y64045181D01*
X89416667Y63949943D02*
X89464286Y63997562D01*
X89464286Y63997562D02*
X89559524Y64045181D01*
X89559524Y64045181D02*
X89797619Y64045181D01*
X89797619Y64045181D02*
X89892857Y63997562D01*
X89892857Y63997562D02*
X89940476Y63949943D01*
X89940476Y63949943D02*
X89988095Y63854705D01*
X89988095Y63854705D02*
X89988095Y63759467D01*
X89988095Y63759467D02*
X89940476Y63616610D01*
X89940476Y63616610D02*
X89369048Y63045181D01*
X89369048Y63045181D02*
X89988095Y63045181D01*
X37554819Y14480953D02*
X37078628Y14147620D01*
X37554819Y13909525D02*
X36554819Y13909525D01*
X36554819Y13909525D02*
X36554819Y14290477D01*
X36554819Y14290477D02*
X36602438Y14385715D01*
X36602438Y14385715D02*
X36650057Y14433334D01*
X36650057Y14433334D02*
X36745295Y14480953D01*
X36745295Y14480953D02*
X36888152Y14480953D01*
X36888152Y14480953D02*
X36983390Y14433334D01*
X36983390Y14433334D02*
X37031009Y14385715D01*
X37031009Y14385715D02*
X37078628Y14290477D01*
X37078628Y14290477D02*
X37078628Y13909525D01*
X36650057Y14861906D02*
X36602438Y14909525D01*
X36602438Y14909525D02*
X36554819Y15004763D01*
X36554819Y15004763D02*
X36554819Y15242858D01*
X36554819Y15242858D02*
X36602438Y15338096D01*
X36602438Y15338096D02*
X36650057Y15385715D01*
X36650057Y15385715D02*
X36745295Y15433334D01*
X36745295Y15433334D02*
X36840533Y15433334D01*
X36840533Y15433334D02*
X36983390Y15385715D01*
X36983390Y15385715D02*
X37554819Y14814287D01*
X37554819Y14814287D02*
X37554819Y15433334D01*
X36554819Y16052382D02*
X36554819Y16147620D01*
X36554819Y16147620D02*
X36602438Y16242858D01*
X36602438Y16242858D02*
X36650057Y16290477D01*
X36650057Y16290477D02*
X36745295Y16338096D01*
X36745295Y16338096D02*
X36935771Y16385715D01*
X36935771Y16385715D02*
X37173866Y16385715D01*
X37173866Y16385715D02*
X37364342Y16338096D01*
X37364342Y16338096D02*
X37459580Y16290477D01*
X37459580Y16290477D02*
X37507200Y16242858D01*
X37507200Y16242858D02*
X37554819Y16147620D01*
X37554819Y16147620D02*
X37554819Y16052382D01*
X37554819Y16052382D02*
X37507200Y15957144D01*
X37507200Y15957144D02*
X37459580Y15909525D01*
X37459580Y15909525D02*
X37364342Y15861906D01*
X37364342Y15861906D02*
X37173866Y15814287D01*
X37173866Y15814287D02*
X36935771Y15814287D01*
X36935771Y15814287D02*
X36745295Y15861906D01*
X36745295Y15861906D02*
X36650057Y15909525D01*
X36650057Y15909525D02*
X36602438Y15957144D01*
X36602438Y15957144D02*
X36554819Y16052382D01*
X36554819Y17290477D02*
X36554819Y16814287D01*
X36554819Y16814287D02*
X37031009Y16766668D01*
X37031009Y16766668D02*
X36983390Y16814287D01*
X36983390Y16814287D02*
X36935771Y16909525D01*
X36935771Y16909525D02*
X36935771Y17147620D01*
X36935771Y17147620D02*
X36983390Y17242858D01*
X36983390Y17242858D02*
X37031009Y17290477D01*
X37031009Y17290477D02*
X37126247Y17338096D01*
X37126247Y17338096D02*
X37364342Y17338096D01*
X37364342Y17338096D02*
X37459580Y17290477D01*
X37459580Y17290477D02*
X37507200Y17242858D01*
X37507200Y17242858D02*
X37554819Y17147620D01*
X37554819Y17147620D02*
X37554819Y16909525D01*
X37554819Y16909525D02*
X37507200Y16814287D01*
X37507200Y16814287D02*
X37459580Y16766668D01*
X6704819Y51880953D02*
X6228628Y51547620D01*
X6704819Y51309525D02*
X5704819Y51309525D01*
X5704819Y51309525D02*
X5704819Y51690477D01*
X5704819Y51690477D02*
X5752438Y51785715D01*
X5752438Y51785715D02*
X5800057Y51833334D01*
X5800057Y51833334D02*
X5895295Y51880953D01*
X5895295Y51880953D02*
X6038152Y51880953D01*
X6038152Y51880953D02*
X6133390Y51833334D01*
X6133390Y51833334D02*
X6181009Y51785715D01*
X6181009Y51785715D02*
X6228628Y51690477D01*
X6228628Y51690477D02*
X6228628Y51309525D01*
X6038152Y52738096D02*
X6704819Y52738096D01*
X5657200Y52500001D02*
X6371485Y52261906D01*
X6371485Y52261906D02*
X6371485Y52880953D01*
X5704819Y53452382D02*
X5704819Y53547620D01*
X5704819Y53547620D02*
X5752438Y53642858D01*
X5752438Y53642858D02*
X5800057Y53690477D01*
X5800057Y53690477D02*
X5895295Y53738096D01*
X5895295Y53738096D02*
X6085771Y53785715D01*
X6085771Y53785715D02*
X6323866Y53785715D01*
X6323866Y53785715D02*
X6514342Y53738096D01*
X6514342Y53738096D02*
X6609580Y53690477D01*
X6609580Y53690477D02*
X6657200Y53642858D01*
X6657200Y53642858D02*
X6704819Y53547620D01*
X6704819Y53547620D02*
X6704819Y53452382D01*
X6704819Y53452382D02*
X6657200Y53357144D01*
X6657200Y53357144D02*
X6609580Y53309525D01*
X6609580Y53309525D02*
X6514342Y53261906D01*
X6514342Y53261906D02*
X6323866Y53214287D01*
X6323866Y53214287D02*
X6085771Y53214287D01*
X6085771Y53214287D02*
X5895295Y53261906D01*
X5895295Y53261906D02*
X5800057Y53309525D01*
X5800057Y53309525D02*
X5752438Y53357144D01*
X5752438Y53357144D02*
X5704819Y53452382D01*
X5800057Y54166668D02*
X5752438Y54214287D01*
X5752438Y54214287D02*
X5704819Y54309525D01*
X5704819Y54309525D02*
X5704819Y54547620D01*
X5704819Y54547620D02*
X5752438Y54642858D01*
X5752438Y54642858D02*
X5800057Y54690477D01*
X5800057Y54690477D02*
X5895295Y54738096D01*
X5895295Y54738096D02*
X5990533Y54738096D01*
X5990533Y54738096D02*
X6133390Y54690477D01*
X6133390Y54690477D02*
X6704819Y54119049D01*
X6704819Y54119049D02*
X6704819Y54738096D01*
X32130952Y29665181D02*
X31797619Y30141372D01*
X31559524Y29665181D02*
X31559524Y30665181D01*
X31559524Y30665181D02*
X31940476Y30665181D01*
X31940476Y30665181D02*
X32035714Y30617562D01*
X32035714Y30617562D02*
X32083333Y30569943D01*
X32083333Y30569943D02*
X32130952Y30474705D01*
X32130952Y30474705D02*
X32130952Y30331848D01*
X32130952Y30331848D02*
X32083333Y30236610D01*
X32083333Y30236610D02*
X32035714Y30188991D01*
X32035714Y30188991D02*
X31940476Y30141372D01*
X31940476Y30141372D02*
X31559524Y30141372D01*
X32511905Y30569943D02*
X32559524Y30617562D01*
X32559524Y30617562D02*
X32654762Y30665181D01*
X32654762Y30665181D02*
X32892857Y30665181D01*
X32892857Y30665181D02*
X32988095Y30617562D01*
X32988095Y30617562D02*
X33035714Y30569943D01*
X33035714Y30569943D02*
X33083333Y30474705D01*
X33083333Y30474705D02*
X33083333Y30379467D01*
X33083333Y30379467D02*
X33035714Y30236610D01*
X33035714Y30236610D02*
X32464286Y29665181D01*
X32464286Y29665181D02*
X33083333Y29665181D01*
X33702381Y30665181D02*
X33797619Y30665181D01*
X33797619Y30665181D02*
X33892857Y30617562D01*
X33892857Y30617562D02*
X33940476Y30569943D01*
X33940476Y30569943D02*
X33988095Y30474705D01*
X33988095Y30474705D02*
X34035714Y30284229D01*
X34035714Y30284229D02*
X34035714Y30046134D01*
X34035714Y30046134D02*
X33988095Y29855658D01*
X33988095Y29855658D02*
X33940476Y29760420D01*
X33940476Y29760420D02*
X33892857Y29712800D01*
X33892857Y29712800D02*
X33797619Y29665181D01*
X33797619Y29665181D02*
X33702381Y29665181D01*
X33702381Y29665181D02*
X33607143Y29712800D01*
X33607143Y29712800D02*
X33559524Y29760420D01*
X33559524Y29760420D02*
X33511905Y29855658D01*
X33511905Y29855658D02*
X33464286Y30046134D01*
X33464286Y30046134D02*
X33464286Y30284229D01*
X33464286Y30284229D02*
X33511905Y30474705D01*
X33511905Y30474705D02*
X33559524Y30569943D01*
X33559524Y30569943D02*
X33607143Y30617562D01*
X33607143Y30617562D02*
X33702381Y30665181D01*
X34892857Y30331848D02*
X34892857Y29665181D01*
X34654762Y30712800D02*
X34416667Y29998515D01*
X34416667Y29998515D02*
X35035714Y29998515D01*
X46535714Y64000181D02*
X46535714Y63190658D01*
X46535714Y63190658D02*
X46583333Y63095420D01*
X46583333Y63095420D02*
X46630952Y63047800D01*
X46630952Y63047800D02*
X46726190Y63000181D01*
X46726190Y63000181D02*
X46916666Y63000181D01*
X46916666Y63000181D02*
X47011904Y63047800D01*
X47011904Y63047800D02*
X47059523Y63095420D01*
X47059523Y63095420D02*
X47107142Y63190658D01*
X47107142Y63190658D02*
X47107142Y64000181D01*
X47535714Y63904943D02*
X47583333Y63952562D01*
X47583333Y63952562D02*
X47678571Y64000181D01*
X47678571Y64000181D02*
X47916666Y64000181D01*
X47916666Y64000181D02*
X48011904Y63952562D01*
X48011904Y63952562D02*
X48059523Y63904943D01*
X48059523Y63904943D02*
X48107142Y63809705D01*
X48107142Y63809705D02*
X48107142Y63714467D01*
X48107142Y63714467D02*
X48059523Y63571610D01*
X48059523Y63571610D02*
X47488095Y63000181D01*
X47488095Y63000181D02*
X48107142Y63000181D01*
X48726190Y64000181D02*
X48821428Y64000181D01*
X48821428Y64000181D02*
X48916666Y63952562D01*
X48916666Y63952562D02*
X48964285Y63904943D01*
X48964285Y63904943D02*
X49011904Y63809705D01*
X49011904Y63809705D02*
X49059523Y63619229D01*
X49059523Y63619229D02*
X49059523Y63381134D01*
X49059523Y63381134D02*
X49011904Y63190658D01*
X49011904Y63190658D02*
X48964285Y63095420D01*
X48964285Y63095420D02*
X48916666Y63047800D01*
X48916666Y63047800D02*
X48821428Y63000181D01*
X48821428Y63000181D02*
X48726190Y63000181D01*
X48726190Y63000181D02*
X48630952Y63047800D01*
X48630952Y63047800D02*
X48583333Y63095420D01*
X48583333Y63095420D02*
X48535714Y63190658D01*
X48535714Y63190658D02*
X48488095Y63381134D01*
X48488095Y63381134D02*
X48488095Y63619229D01*
X48488095Y63619229D02*
X48535714Y63809705D01*
X48535714Y63809705D02*
X48583333Y63904943D01*
X48583333Y63904943D02*
X48630952Y63952562D01*
X48630952Y63952562D02*
X48726190Y64000181D01*
X49440476Y63904943D02*
X49488095Y63952562D01*
X49488095Y63952562D02*
X49583333Y64000181D01*
X49583333Y64000181D02*
X49821428Y64000181D01*
X49821428Y64000181D02*
X49916666Y63952562D01*
X49916666Y63952562D02*
X49964285Y63904943D01*
X49964285Y63904943D02*
X50011904Y63809705D01*
X50011904Y63809705D02*
X50011904Y63714467D01*
X50011904Y63714467D02*
X49964285Y63571610D01*
X49964285Y63571610D02*
X49392857Y63000181D01*
X49392857Y63000181D02*
X50011904Y63000181D01*
X25130952Y25295181D02*
X24797619Y25771372D01*
X24559524Y25295181D02*
X24559524Y26295181D01*
X24559524Y26295181D02*
X24940476Y26295181D01*
X24940476Y26295181D02*
X25035714Y26247562D01*
X25035714Y26247562D02*
X25083333Y26199943D01*
X25083333Y26199943D02*
X25130952Y26104705D01*
X25130952Y26104705D02*
X25130952Y25961848D01*
X25130952Y25961848D02*
X25083333Y25866610D01*
X25083333Y25866610D02*
X25035714Y25818991D01*
X25035714Y25818991D02*
X24940476Y25771372D01*
X24940476Y25771372D02*
X24559524Y25771372D01*
X25511905Y26199943D02*
X25559524Y26247562D01*
X25559524Y26247562D02*
X25654762Y26295181D01*
X25654762Y26295181D02*
X25892857Y26295181D01*
X25892857Y26295181D02*
X25988095Y26247562D01*
X25988095Y26247562D02*
X26035714Y26199943D01*
X26035714Y26199943D02*
X26083333Y26104705D01*
X26083333Y26104705D02*
X26083333Y26009467D01*
X26083333Y26009467D02*
X26035714Y25866610D01*
X26035714Y25866610D02*
X25464286Y25295181D01*
X25464286Y25295181D02*
X26083333Y25295181D01*
X26702381Y26295181D02*
X26797619Y26295181D01*
X26797619Y26295181D02*
X26892857Y26247562D01*
X26892857Y26247562D02*
X26940476Y26199943D01*
X26940476Y26199943D02*
X26988095Y26104705D01*
X26988095Y26104705D02*
X27035714Y25914229D01*
X27035714Y25914229D02*
X27035714Y25676134D01*
X27035714Y25676134D02*
X26988095Y25485658D01*
X26988095Y25485658D02*
X26940476Y25390420D01*
X26940476Y25390420D02*
X26892857Y25342800D01*
X26892857Y25342800D02*
X26797619Y25295181D01*
X26797619Y25295181D02*
X26702381Y25295181D01*
X26702381Y25295181D02*
X26607143Y25342800D01*
X26607143Y25342800D02*
X26559524Y25390420D01*
X26559524Y25390420D02*
X26511905Y25485658D01*
X26511905Y25485658D02*
X26464286Y25676134D01*
X26464286Y25676134D02*
X26464286Y25914229D01*
X26464286Y25914229D02*
X26511905Y26104705D01*
X26511905Y26104705D02*
X26559524Y26199943D01*
X26559524Y26199943D02*
X26607143Y26247562D01*
X26607143Y26247562D02*
X26702381Y26295181D01*
X27988095Y25295181D02*
X27416667Y25295181D01*
X27702381Y25295181D02*
X27702381Y26295181D01*
X27702381Y26295181D02*
X27607143Y26152324D01*
X27607143Y26152324D02*
X27511905Y26057086D01*
X27511905Y26057086D02*
X27416667Y26009467D01*
X11954819Y51880953D02*
X11478628Y51547620D01*
X11954819Y51309525D02*
X10954819Y51309525D01*
X10954819Y51309525D02*
X10954819Y51690477D01*
X10954819Y51690477D02*
X11002438Y51785715D01*
X11002438Y51785715D02*
X11050057Y51833334D01*
X11050057Y51833334D02*
X11145295Y51880953D01*
X11145295Y51880953D02*
X11288152Y51880953D01*
X11288152Y51880953D02*
X11383390Y51833334D01*
X11383390Y51833334D02*
X11431009Y51785715D01*
X11431009Y51785715D02*
X11478628Y51690477D01*
X11478628Y51690477D02*
X11478628Y51309525D01*
X11288152Y52738096D02*
X11954819Y52738096D01*
X10907200Y52500001D02*
X11621485Y52261906D01*
X11621485Y52261906D02*
X11621485Y52880953D01*
X10954819Y53452382D02*
X10954819Y53547620D01*
X10954819Y53547620D02*
X11002438Y53642858D01*
X11002438Y53642858D02*
X11050057Y53690477D01*
X11050057Y53690477D02*
X11145295Y53738096D01*
X11145295Y53738096D02*
X11335771Y53785715D01*
X11335771Y53785715D02*
X11573866Y53785715D01*
X11573866Y53785715D02*
X11764342Y53738096D01*
X11764342Y53738096D02*
X11859580Y53690477D01*
X11859580Y53690477D02*
X11907200Y53642858D01*
X11907200Y53642858D02*
X11954819Y53547620D01*
X11954819Y53547620D02*
X11954819Y53452382D01*
X11954819Y53452382D02*
X11907200Y53357144D01*
X11907200Y53357144D02*
X11859580Y53309525D01*
X11859580Y53309525D02*
X11764342Y53261906D01*
X11764342Y53261906D02*
X11573866Y53214287D01*
X11573866Y53214287D02*
X11335771Y53214287D01*
X11335771Y53214287D02*
X11145295Y53261906D01*
X11145295Y53261906D02*
X11050057Y53309525D01*
X11050057Y53309525D02*
X11002438Y53357144D01*
X11002438Y53357144D02*
X10954819Y53452382D01*
X11954819Y54738096D02*
X11954819Y54166668D01*
X11954819Y54452382D02*
X10954819Y54452382D01*
X10954819Y54452382D02*
X11097676Y54357144D01*
X11097676Y54357144D02*
X11192914Y54261906D01*
X11192914Y54261906D02*
X11240533Y54166668D01*
X26655714Y63850181D02*
X26655714Y63040658D01*
X26655714Y63040658D02*
X26703333Y62945420D01*
X26703333Y62945420D02*
X26750952Y62897800D01*
X26750952Y62897800D02*
X26846190Y62850181D01*
X26846190Y62850181D02*
X27036666Y62850181D01*
X27036666Y62850181D02*
X27131904Y62897800D01*
X27131904Y62897800D02*
X27179523Y62945420D01*
X27179523Y62945420D02*
X27227142Y63040658D01*
X27227142Y63040658D02*
X27227142Y63850181D01*
X28131904Y63516848D02*
X28131904Y62850181D01*
X27893809Y63897800D02*
X27655714Y63183515D01*
X27655714Y63183515D02*
X28274761Y63183515D01*
X28846190Y63850181D02*
X28941428Y63850181D01*
X28941428Y63850181D02*
X29036666Y63802562D01*
X29036666Y63802562D02*
X29084285Y63754943D01*
X29084285Y63754943D02*
X29131904Y63659705D01*
X29131904Y63659705D02*
X29179523Y63469229D01*
X29179523Y63469229D02*
X29179523Y63231134D01*
X29179523Y63231134D02*
X29131904Y63040658D01*
X29131904Y63040658D02*
X29084285Y62945420D01*
X29084285Y62945420D02*
X29036666Y62897800D01*
X29036666Y62897800D02*
X28941428Y62850181D01*
X28941428Y62850181D02*
X28846190Y62850181D01*
X28846190Y62850181D02*
X28750952Y62897800D01*
X28750952Y62897800D02*
X28703333Y62945420D01*
X28703333Y62945420D02*
X28655714Y63040658D01*
X28655714Y63040658D02*
X28608095Y63231134D01*
X28608095Y63231134D02*
X28608095Y63469229D01*
X28608095Y63469229D02*
X28655714Y63659705D01*
X28655714Y63659705D02*
X28703333Y63754943D01*
X28703333Y63754943D02*
X28750952Y63802562D01*
X28750952Y63802562D02*
X28846190Y63850181D01*
X29560476Y63754943D02*
X29608095Y63802562D01*
X29608095Y63802562D02*
X29703333Y63850181D01*
X29703333Y63850181D02*
X29941428Y63850181D01*
X29941428Y63850181D02*
X30036666Y63802562D01*
X30036666Y63802562D02*
X30084285Y63754943D01*
X30084285Y63754943D02*
X30131904Y63659705D01*
X30131904Y63659705D02*
X30131904Y63564467D01*
X30131904Y63564467D02*
X30084285Y63421610D01*
X30084285Y63421610D02*
X29512857Y62850181D01*
X29512857Y62850181D02*
X30131904Y62850181D01*
X12230952Y31045181D02*
X11897619Y31521372D01*
X11659524Y31045181D02*
X11659524Y32045181D01*
X11659524Y32045181D02*
X12040476Y32045181D01*
X12040476Y32045181D02*
X12135714Y31997562D01*
X12135714Y31997562D02*
X12183333Y31949943D01*
X12183333Y31949943D02*
X12230952Y31854705D01*
X12230952Y31854705D02*
X12230952Y31711848D01*
X12230952Y31711848D02*
X12183333Y31616610D01*
X12183333Y31616610D02*
X12135714Y31568991D01*
X12135714Y31568991D02*
X12040476Y31521372D01*
X12040476Y31521372D02*
X11659524Y31521372D01*
X13088095Y31711848D02*
X13088095Y31045181D01*
X12850000Y32092800D02*
X12611905Y31378515D01*
X12611905Y31378515D02*
X13230952Y31378515D01*
X13802381Y32045181D02*
X13897619Y32045181D01*
X13897619Y32045181D02*
X13992857Y31997562D01*
X13992857Y31997562D02*
X14040476Y31949943D01*
X14040476Y31949943D02*
X14088095Y31854705D01*
X14088095Y31854705D02*
X14135714Y31664229D01*
X14135714Y31664229D02*
X14135714Y31426134D01*
X14135714Y31426134D02*
X14088095Y31235658D01*
X14088095Y31235658D02*
X14040476Y31140420D01*
X14040476Y31140420D02*
X13992857Y31092800D01*
X13992857Y31092800D02*
X13897619Y31045181D01*
X13897619Y31045181D02*
X13802381Y31045181D01*
X13802381Y31045181D02*
X13707143Y31092800D01*
X13707143Y31092800D02*
X13659524Y31140420D01*
X13659524Y31140420D02*
X13611905Y31235658D01*
X13611905Y31235658D02*
X13564286Y31426134D01*
X13564286Y31426134D02*
X13564286Y31664229D01*
X13564286Y31664229D02*
X13611905Y31854705D01*
X13611905Y31854705D02*
X13659524Y31949943D01*
X13659524Y31949943D02*
X13707143Y31997562D01*
X13707143Y31997562D02*
X13802381Y32045181D01*
X14469048Y32045181D02*
X15088095Y32045181D01*
X15088095Y32045181D02*
X14754762Y31664229D01*
X14754762Y31664229D02*
X14897619Y31664229D01*
X14897619Y31664229D02*
X14992857Y31616610D01*
X14992857Y31616610D02*
X15040476Y31568991D01*
X15040476Y31568991D02*
X15088095Y31473753D01*
X15088095Y31473753D02*
X15088095Y31235658D01*
X15088095Y31235658D02*
X15040476Y31140420D01*
X15040476Y31140420D02*
X14992857Y31092800D01*
X14992857Y31092800D02*
X14897619Y31045181D01*
X14897619Y31045181D02*
X14611905Y31045181D01*
X14611905Y31045181D02*
X14516667Y31092800D01*
X14516667Y31092800D02*
X14469048Y31140420D01*
X30399819Y13785715D02*
X31209342Y13785715D01*
X31209342Y13785715D02*
X31304580Y13833334D01*
X31304580Y13833334D02*
X31352200Y13880953D01*
X31352200Y13880953D02*
X31399819Y13976191D01*
X31399819Y13976191D02*
X31399819Y14166667D01*
X31399819Y14166667D02*
X31352200Y14261905D01*
X31352200Y14261905D02*
X31304580Y14309524D01*
X31304580Y14309524D02*
X31209342Y14357143D01*
X31209342Y14357143D02*
X30399819Y14357143D01*
X30495057Y14785715D02*
X30447438Y14833334D01*
X30447438Y14833334D02*
X30399819Y14928572D01*
X30399819Y14928572D02*
X30399819Y15166667D01*
X30399819Y15166667D02*
X30447438Y15261905D01*
X30447438Y15261905D02*
X30495057Y15309524D01*
X30495057Y15309524D02*
X30590295Y15357143D01*
X30590295Y15357143D02*
X30685533Y15357143D01*
X30685533Y15357143D02*
X30828390Y15309524D01*
X30828390Y15309524D02*
X31399819Y14738096D01*
X31399819Y14738096D02*
X31399819Y15357143D01*
X30399819Y15976191D02*
X30399819Y16071429D01*
X30399819Y16071429D02*
X30447438Y16166667D01*
X30447438Y16166667D02*
X30495057Y16214286D01*
X30495057Y16214286D02*
X30590295Y16261905D01*
X30590295Y16261905D02*
X30780771Y16309524D01*
X30780771Y16309524D02*
X31018866Y16309524D01*
X31018866Y16309524D02*
X31209342Y16261905D01*
X31209342Y16261905D02*
X31304580Y16214286D01*
X31304580Y16214286D02*
X31352200Y16166667D01*
X31352200Y16166667D02*
X31399819Y16071429D01*
X31399819Y16071429D02*
X31399819Y15976191D01*
X31399819Y15976191D02*
X31352200Y15880953D01*
X31352200Y15880953D02*
X31304580Y15833334D01*
X31304580Y15833334D02*
X31209342Y15785715D01*
X31209342Y15785715D02*
X31018866Y15738096D01*
X31018866Y15738096D02*
X30780771Y15738096D01*
X30780771Y15738096D02*
X30590295Y15785715D01*
X30590295Y15785715D02*
X30495057Y15833334D01*
X30495057Y15833334D02*
X30447438Y15880953D01*
X30447438Y15880953D02*
X30399819Y15976191D01*
X31399819Y17261905D02*
X31399819Y16690477D01*
X31399819Y16976191D02*
X30399819Y16976191D01*
X30399819Y16976191D02*
X30542676Y16880953D01*
X30542676Y16880953D02*
X30637914Y16785715D01*
X30637914Y16785715D02*
X30685533Y16690477D01*
X7785714Y46295181D02*
X7785714Y45485658D01*
X7785714Y45485658D02*
X7833333Y45390420D01*
X7833333Y45390420D02*
X7880952Y45342800D01*
X7880952Y45342800D02*
X7976190Y45295181D01*
X7976190Y45295181D02*
X8166666Y45295181D01*
X8166666Y45295181D02*
X8261904Y45342800D01*
X8261904Y45342800D02*
X8309523Y45390420D01*
X8309523Y45390420D02*
X8357142Y45485658D01*
X8357142Y45485658D02*
X8357142Y46295181D01*
X9261904Y45961848D02*
X9261904Y45295181D01*
X9023809Y46342800D02*
X8785714Y45628515D01*
X8785714Y45628515D02*
X9404761Y45628515D01*
X9976190Y46295181D02*
X10071428Y46295181D01*
X10071428Y46295181D02*
X10166666Y46247562D01*
X10166666Y46247562D02*
X10214285Y46199943D01*
X10214285Y46199943D02*
X10261904Y46104705D01*
X10261904Y46104705D02*
X10309523Y45914229D01*
X10309523Y45914229D02*
X10309523Y45676134D01*
X10309523Y45676134D02*
X10261904Y45485658D01*
X10261904Y45485658D02*
X10214285Y45390420D01*
X10214285Y45390420D02*
X10166666Y45342800D01*
X10166666Y45342800D02*
X10071428Y45295181D01*
X10071428Y45295181D02*
X9976190Y45295181D01*
X9976190Y45295181D02*
X9880952Y45342800D01*
X9880952Y45342800D02*
X9833333Y45390420D01*
X9833333Y45390420D02*
X9785714Y45485658D01*
X9785714Y45485658D02*
X9738095Y45676134D01*
X9738095Y45676134D02*
X9738095Y45914229D01*
X9738095Y45914229D02*
X9785714Y46104705D01*
X9785714Y46104705D02*
X9833333Y46199943D01*
X9833333Y46199943D02*
X9880952Y46247562D01*
X9880952Y46247562D02*
X9976190Y46295181D01*
X11261904Y45295181D02*
X10690476Y45295181D01*
X10976190Y45295181D02*
X10976190Y46295181D01*
X10976190Y46295181D02*
X10880952Y46152324D01*
X10880952Y46152324D02*
X10785714Y46057086D01*
X10785714Y46057086D02*
X10690476Y46009467D01*
X66035714Y63925181D02*
X66035714Y63115658D01*
X66035714Y63115658D02*
X66083333Y63020420D01*
X66083333Y63020420D02*
X66130952Y62972800D01*
X66130952Y62972800D02*
X66226190Y62925181D01*
X66226190Y62925181D02*
X66416666Y62925181D01*
X66416666Y62925181D02*
X66511904Y62972800D01*
X66511904Y62972800D02*
X66559523Y63020420D01*
X66559523Y63020420D02*
X66607142Y63115658D01*
X66607142Y63115658D02*
X66607142Y63925181D01*
X66988095Y63925181D02*
X67607142Y63925181D01*
X67607142Y63925181D02*
X67273809Y63544229D01*
X67273809Y63544229D02*
X67416666Y63544229D01*
X67416666Y63544229D02*
X67511904Y63496610D01*
X67511904Y63496610D02*
X67559523Y63448991D01*
X67559523Y63448991D02*
X67607142Y63353753D01*
X67607142Y63353753D02*
X67607142Y63115658D01*
X67607142Y63115658D02*
X67559523Y63020420D01*
X67559523Y63020420D02*
X67511904Y62972800D01*
X67511904Y62972800D02*
X67416666Y62925181D01*
X67416666Y62925181D02*
X67130952Y62925181D01*
X67130952Y62925181D02*
X67035714Y62972800D01*
X67035714Y62972800D02*
X66988095Y63020420D01*
X68226190Y63925181D02*
X68321428Y63925181D01*
X68321428Y63925181D02*
X68416666Y63877562D01*
X68416666Y63877562D02*
X68464285Y63829943D01*
X68464285Y63829943D02*
X68511904Y63734705D01*
X68511904Y63734705D02*
X68559523Y63544229D01*
X68559523Y63544229D02*
X68559523Y63306134D01*
X68559523Y63306134D02*
X68511904Y63115658D01*
X68511904Y63115658D02*
X68464285Y63020420D01*
X68464285Y63020420D02*
X68416666Y62972800D01*
X68416666Y62972800D02*
X68321428Y62925181D01*
X68321428Y62925181D02*
X68226190Y62925181D01*
X68226190Y62925181D02*
X68130952Y62972800D01*
X68130952Y62972800D02*
X68083333Y63020420D01*
X68083333Y63020420D02*
X68035714Y63115658D01*
X68035714Y63115658D02*
X67988095Y63306134D01*
X67988095Y63306134D02*
X67988095Y63544229D01*
X67988095Y63544229D02*
X68035714Y63734705D01*
X68035714Y63734705D02*
X68083333Y63829943D01*
X68083333Y63829943D02*
X68130952Y63877562D01*
X68130952Y63877562D02*
X68226190Y63925181D01*
X68892857Y63925181D02*
X69511904Y63925181D01*
X69511904Y63925181D02*
X69178571Y63544229D01*
X69178571Y63544229D02*
X69321428Y63544229D01*
X69321428Y63544229D02*
X69416666Y63496610D01*
X69416666Y63496610D02*
X69464285Y63448991D01*
X69464285Y63448991D02*
X69511904Y63353753D01*
X69511904Y63353753D02*
X69511904Y63115658D01*
X69511904Y63115658D02*
X69464285Y63020420D01*
X69464285Y63020420D02*
X69416666Y62972800D01*
X69416666Y62972800D02*
X69321428Y62925181D01*
X69321428Y62925181D02*
X69035714Y62925181D01*
X69035714Y62925181D02*
X68940476Y62972800D01*
X68940476Y62972800D02*
X68892857Y63020420D01*
X75130952Y16140420D02*
X75083333Y16092800D01*
X75083333Y16092800D02*
X74940476Y16045181D01*
X74940476Y16045181D02*
X74845238Y16045181D01*
X74845238Y16045181D02*
X74702381Y16092800D01*
X74702381Y16092800D02*
X74607143Y16188039D01*
X74607143Y16188039D02*
X74559524Y16283277D01*
X74559524Y16283277D02*
X74511905Y16473753D01*
X74511905Y16473753D02*
X74511905Y16616610D01*
X74511905Y16616610D02*
X74559524Y16807086D01*
X74559524Y16807086D02*
X74607143Y16902324D01*
X74607143Y16902324D02*
X74702381Y16997562D01*
X74702381Y16997562D02*
X74845238Y17045181D01*
X74845238Y17045181D02*
X74940476Y17045181D01*
X74940476Y17045181D02*
X75083333Y16997562D01*
X75083333Y16997562D02*
X75130952Y16949943D01*
X75464286Y17045181D02*
X76083333Y17045181D01*
X76083333Y17045181D02*
X75750000Y16664229D01*
X75750000Y16664229D02*
X75892857Y16664229D01*
X75892857Y16664229D02*
X75988095Y16616610D01*
X75988095Y16616610D02*
X76035714Y16568991D01*
X76035714Y16568991D02*
X76083333Y16473753D01*
X76083333Y16473753D02*
X76083333Y16235658D01*
X76083333Y16235658D02*
X76035714Y16140420D01*
X76035714Y16140420D02*
X75988095Y16092800D01*
X75988095Y16092800D02*
X75892857Y16045181D01*
X75892857Y16045181D02*
X75607143Y16045181D01*
X75607143Y16045181D02*
X75511905Y16092800D01*
X75511905Y16092800D02*
X75464286Y16140420D01*
X76702381Y17045181D02*
X76797619Y17045181D01*
X76797619Y17045181D02*
X76892857Y16997562D01*
X76892857Y16997562D02*
X76940476Y16949943D01*
X76940476Y16949943D02*
X76988095Y16854705D01*
X76988095Y16854705D02*
X77035714Y16664229D01*
X77035714Y16664229D02*
X77035714Y16426134D01*
X77035714Y16426134D02*
X76988095Y16235658D01*
X76988095Y16235658D02*
X76940476Y16140420D01*
X76940476Y16140420D02*
X76892857Y16092800D01*
X76892857Y16092800D02*
X76797619Y16045181D01*
X76797619Y16045181D02*
X76702381Y16045181D01*
X76702381Y16045181D02*
X76607143Y16092800D01*
X76607143Y16092800D02*
X76559524Y16140420D01*
X76559524Y16140420D02*
X76511905Y16235658D01*
X76511905Y16235658D02*
X76464286Y16426134D01*
X76464286Y16426134D02*
X76464286Y16664229D01*
X76464286Y16664229D02*
X76511905Y16854705D01*
X76511905Y16854705D02*
X76559524Y16949943D01*
X76559524Y16949943D02*
X76607143Y16997562D01*
X76607143Y16997562D02*
X76702381Y17045181D01*
X77988095Y16045181D02*
X77416667Y16045181D01*
X77702381Y16045181D02*
X77702381Y17045181D01*
X77702381Y17045181D02*
X77607143Y16902324D01*
X77607143Y16902324D02*
X77511905Y16807086D01*
X77511905Y16807086D02*
X77416667Y16759467D01*
X8130952Y26390420D02*
X8083333Y26342800D01*
X8083333Y26342800D02*
X7940476Y26295181D01*
X7940476Y26295181D02*
X7845238Y26295181D01*
X7845238Y26295181D02*
X7702381Y26342800D01*
X7702381Y26342800D02*
X7607143Y26438039D01*
X7607143Y26438039D02*
X7559524Y26533277D01*
X7559524Y26533277D02*
X7511905Y26723753D01*
X7511905Y26723753D02*
X7511905Y26866610D01*
X7511905Y26866610D02*
X7559524Y27057086D01*
X7559524Y27057086D02*
X7607143Y27152324D01*
X7607143Y27152324D02*
X7702381Y27247562D01*
X7702381Y27247562D02*
X7845238Y27295181D01*
X7845238Y27295181D02*
X7940476Y27295181D01*
X7940476Y27295181D02*
X8083333Y27247562D01*
X8083333Y27247562D02*
X8130952Y27199943D01*
X8511905Y27199943D02*
X8559524Y27247562D01*
X8559524Y27247562D02*
X8654762Y27295181D01*
X8654762Y27295181D02*
X8892857Y27295181D01*
X8892857Y27295181D02*
X8988095Y27247562D01*
X8988095Y27247562D02*
X9035714Y27199943D01*
X9035714Y27199943D02*
X9083333Y27104705D01*
X9083333Y27104705D02*
X9083333Y27009467D01*
X9083333Y27009467D02*
X9035714Y26866610D01*
X9035714Y26866610D02*
X8464286Y26295181D01*
X8464286Y26295181D02*
X9083333Y26295181D01*
X9702381Y27295181D02*
X9797619Y27295181D01*
X9797619Y27295181D02*
X9892857Y27247562D01*
X9892857Y27247562D02*
X9940476Y27199943D01*
X9940476Y27199943D02*
X9988095Y27104705D01*
X9988095Y27104705D02*
X10035714Y26914229D01*
X10035714Y26914229D02*
X10035714Y26676134D01*
X10035714Y26676134D02*
X9988095Y26485658D01*
X9988095Y26485658D02*
X9940476Y26390420D01*
X9940476Y26390420D02*
X9892857Y26342800D01*
X9892857Y26342800D02*
X9797619Y26295181D01*
X9797619Y26295181D02*
X9702381Y26295181D01*
X9702381Y26295181D02*
X9607143Y26342800D01*
X9607143Y26342800D02*
X9559524Y26390420D01*
X9559524Y26390420D02*
X9511905Y26485658D01*
X9511905Y26485658D02*
X9464286Y26676134D01*
X9464286Y26676134D02*
X9464286Y26914229D01*
X9464286Y26914229D02*
X9511905Y27104705D01*
X9511905Y27104705D02*
X9559524Y27199943D01*
X9559524Y27199943D02*
X9607143Y27247562D01*
X9607143Y27247562D02*
X9702381Y27295181D01*
X10416667Y27199943D02*
X10464286Y27247562D01*
X10464286Y27247562D02*
X10559524Y27295181D01*
X10559524Y27295181D02*
X10797619Y27295181D01*
X10797619Y27295181D02*
X10892857Y27247562D01*
X10892857Y27247562D02*
X10940476Y27199943D01*
X10940476Y27199943D02*
X10988095Y27104705D01*
X10988095Y27104705D02*
X10988095Y27009467D01*
X10988095Y27009467D02*
X10940476Y26866610D01*
X10940476Y26866610D02*
X10369048Y26295181D01*
X10369048Y26295181D02*
X10988095Y26295181D01*
X85535714Y58885181D02*
X85535714Y58075658D01*
X85535714Y58075658D02*
X85583333Y57980420D01*
X85583333Y57980420D02*
X85630952Y57932800D01*
X85630952Y57932800D02*
X85726190Y57885181D01*
X85726190Y57885181D02*
X85916666Y57885181D01*
X85916666Y57885181D02*
X86011904Y57932800D01*
X86011904Y57932800D02*
X86059523Y57980420D01*
X86059523Y57980420D02*
X86107142Y58075658D01*
X86107142Y58075658D02*
X86107142Y58885181D01*
X86488095Y58885181D02*
X87107142Y58885181D01*
X87107142Y58885181D02*
X86773809Y58504229D01*
X86773809Y58504229D02*
X86916666Y58504229D01*
X86916666Y58504229D02*
X87011904Y58456610D01*
X87011904Y58456610D02*
X87059523Y58408991D01*
X87059523Y58408991D02*
X87107142Y58313753D01*
X87107142Y58313753D02*
X87107142Y58075658D01*
X87107142Y58075658D02*
X87059523Y57980420D01*
X87059523Y57980420D02*
X87011904Y57932800D01*
X87011904Y57932800D02*
X86916666Y57885181D01*
X86916666Y57885181D02*
X86630952Y57885181D01*
X86630952Y57885181D02*
X86535714Y57932800D01*
X86535714Y57932800D02*
X86488095Y57980420D01*
X87726190Y58885181D02*
X87821428Y58885181D01*
X87821428Y58885181D02*
X87916666Y58837562D01*
X87916666Y58837562D02*
X87964285Y58789943D01*
X87964285Y58789943D02*
X88011904Y58694705D01*
X88011904Y58694705D02*
X88059523Y58504229D01*
X88059523Y58504229D02*
X88059523Y58266134D01*
X88059523Y58266134D02*
X88011904Y58075658D01*
X88011904Y58075658D02*
X87964285Y57980420D01*
X87964285Y57980420D02*
X87916666Y57932800D01*
X87916666Y57932800D02*
X87821428Y57885181D01*
X87821428Y57885181D02*
X87726190Y57885181D01*
X87726190Y57885181D02*
X87630952Y57932800D01*
X87630952Y57932800D02*
X87583333Y57980420D01*
X87583333Y57980420D02*
X87535714Y58075658D01*
X87535714Y58075658D02*
X87488095Y58266134D01*
X87488095Y58266134D02*
X87488095Y58504229D01*
X87488095Y58504229D02*
X87535714Y58694705D01*
X87535714Y58694705D02*
X87583333Y58789943D01*
X87583333Y58789943D02*
X87630952Y58837562D01*
X87630952Y58837562D02*
X87726190Y58885181D01*
X88440476Y58789943D02*
X88488095Y58837562D01*
X88488095Y58837562D02*
X88583333Y58885181D01*
X88583333Y58885181D02*
X88821428Y58885181D01*
X88821428Y58885181D02*
X88916666Y58837562D01*
X88916666Y58837562D02*
X88964285Y58789943D01*
X88964285Y58789943D02*
X89011904Y58694705D01*
X89011904Y58694705D02*
X89011904Y58599467D01*
X89011904Y58599467D02*
X88964285Y58456610D01*
X88964285Y58456610D02*
X88392857Y57885181D01*
X88392857Y57885181D02*
X89011904Y57885181D01*
X25380952Y8890420D02*
X25333333Y8842800D01*
X25333333Y8842800D02*
X25190476Y8795181D01*
X25190476Y8795181D02*
X25095238Y8795181D01*
X25095238Y8795181D02*
X24952381Y8842800D01*
X24952381Y8842800D02*
X24857143Y8938039D01*
X24857143Y8938039D02*
X24809524Y9033277D01*
X24809524Y9033277D02*
X24761905Y9223753D01*
X24761905Y9223753D02*
X24761905Y9366610D01*
X24761905Y9366610D02*
X24809524Y9557086D01*
X24809524Y9557086D02*
X24857143Y9652324D01*
X24857143Y9652324D02*
X24952381Y9747562D01*
X24952381Y9747562D02*
X25095238Y9795181D01*
X25095238Y9795181D02*
X25190476Y9795181D01*
X25190476Y9795181D02*
X25333333Y9747562D01*
X25333333Y9747562D02*
X25380952Y9699943D01*
X25761905Y9699943D02*
X25809524Y9747562D01*
X25809524Y9747562D02*
X25904762Y9795181D01*
X25904762Y9795181D02*
X26142857Y9795181D01*
X26142857Y9795181D02*
X26238095Y9747562D01*
X26238095Y9747562D02*
X26285714Y9699943D01*
X26285714Y9699943D02*
X26333333Y9604705D01*
X26333333Y9604705D02*
X26333333Y9509467D01*
X26333333Y9509467D02*
X26285714Y9366610D01*
X26285714Y9366610D02*
X25714286Y8795181D01*
X25714286Y8795181D02*
X26333333Y8795181D01*
X26952381Y9795181D02*
X27047619Y9795181D01*
X27047619Y9795181D02*
X27142857Y9747562D01*
X27142857Y9747562D02*
X27190476Y9699943D01*
X27190476Y9699943D02*
X27238095Y9604705D01*
X27238095Y9604705D02*
X27285714Y9414229D01*
X27285714Y9414229D02*
X27285714Y9176134D01*
X27285714Y9176134D02*
X27238095Y8985658D01*
X27238095Y8985658D02*
X27190476Y8890420D01*
X27190476Y8890420D02*
X27142857Y8842800D01*
X27142857Y8842800D02*
X27047619Y8795181D01*
X27047619Y8795181D02*
X26952381Y8795181D01*
X26952381Y8795181D02*
X26857143Y8842800D01*
X26857143Y8842800D02*
X26809524Y8890420D01*
X26809524Y8890420D02*
X26761905Y8985658D01*
X26761905Y8985658D02*
X26714286Y9176134D01*
X26714286Y9176134D02*
X26714286Y9414229D01*
X26714286Y9414229D02*
X26761905Y9604705D01*
X26761905Y9604705D02*
X26809524Y9699943D01*
X26809524Y9699943D02*
X26857143Y9747562D01*
X26857143Y9747562D02*
X26952381Y9795181D01*
X28142857Y9461848D02*
X28142857Y8795181D01*
X27904762Y9842800D02*
X27666667Y9128515D01*
X27666667Y9128515D02*
X28285714Y9128515D01*
X63130952Y16175181D02*
X62797619Y16651372D01*
X62559524Y16175181D02*
X62559524Y17175181D01*
X62559524Y17175181D02*
X62940476Y17175181D01*
X62940476Y17175181D02*
X63035714Y17127562D01*
X63035714Y17127562D02*
X63083333Y17079943D01*
X63083333Y17079943D02*
X63130952Y16984705D01*
X63130952Y16984705D02*
X63130952Y16841848D01*
X63130952Y16841848D02*
X63083333Y16746610D01*
X63083333Y16746610D02*
X63035714Y16698991D01*
X63035714Y16698991D02*
X62940476Y16651372D01*
X62940476Y16651372D02*
X62559524Y16651372D01*
X63511905Y17079943D02*
X63559524Y17127562D01*
X63559524Y17127562D02*
X63654762Y17175181D01*
X63654762Y17175181D02*
X63892857Y17175181D01*
X63892857Y17175181D02*
X63988095Y17127562D01*
X63988095Y17127562D02*
X64035714Y17079943D01*
X64035714Y17079943D02*
X64083333Y16984705D01*
X64083333Y16984705D02*
X64083333Y16889467D01*
X64083333Y16889467D02*
X64035714Y16746610D01*
X64035714Y16746610D02*
X63464286Y16175181D01*
X63464286Y16175181D02*
X64083333Y16175181D01*
X64702381Y17175181D02*
X64797619Y17175181D01*
X64797619Y17175181D02*
X64892857Y17127562D01*
X64892857Y17127562D02*
X64940476Y17079943D01*
X64940476Y17079943D02*
X64988095Y16984705D01*
X64988095Y16984705D02*
X65035714Y16794229D01*
X65035714Y16794229D02*
X65035714Y16556134D01*
X65035714Y16556134D02*
X64988095Y16365658D01*
X64988095Y16365658D02*
X64940476Y16270420D01*
X64940476Y16270420D02*
X64892857Y16222800D01*
X64892857Y16222800D02*
X64797619Y16175181D01*
X64797619Y16175181D02*
X64702381Y16175181D01*
X64702381Y16175181D02*
X64607143Y16222800D01*
X64607143Y16222800D02*
X64559524Y16270420D01*
X64559524Y16270420D02*
X64511905Y16365658D01*
X64511905Y16365658D02*
X64464286Y16556134D01*
X64464286Y16556134D02*
X64464286Y16794229D01*
X64464286Y16794229D02*
X64511905Y16984705D01*
X64511905Y16984705D02*
X64559524Y17079943D01*
X64559524Y17079943D02*
X64607143Y17127562D01*
X64607143Y17127562D02*
X64702381Y17175181D01*
X65369048Y17175181D02*
X65988095Y17175181D01*
X65988095Y17175181D02*
X65654762Y16794229D01*
X65654762Y16794229D02*
X65797619Y16794229D01*
X65797619Y16794229D02*
X65892857Y16746610D01*
X65892857Y16746610D02*
X65940476Y16698991D01*
X65940476Y16698991D02*
X65988095Y16603753D01*
X65988095Y16603753D02*
X65988095Y16365658D01*
X65988095Y16365658D02*
X65940476Y16270420D01*
X65940476Y16270420D02*
X65892857Y16222800D01*
X65892857Y16222800D02*
X65797619Y16175181D01*
X65797619Y16175181D02*
X65511905Y16175181D01*
X65511905Y16175181D02*
X65416667Y16222800D01*
X65416667Y16222800D02*
X65369048Y16270420D01*
X41370952Y6390420D02*
X41323333Y6342800D01*
X41323333Y6342800D02*
X41180476Y6295181D01*
X41180476Y6295181D02*
X41085238Y6295181D01*
X41085238Y6295181D02*
X40942381Y6342800D01*
X40942381Y6342800D02*
X40847143Y6438039D01*
X40847143Y6438039D02*
X40799524Y6533277D01*
X40799524Y6533277D02*
X40751905Y6723753D01*
X40751905Y6723753D02*
X40751905Y6866610D01*
X40751905Y6866610D02*
X40799524Y7057086D01*
X40799524Y7057086D02*
X40847143Y7152324D01*
X40847143Y7152324D02*
X40942381Y7247562D01*
X40942381Y7247562D02*
X41085238Y7295181D01*
X41085238Y7295181D02*
X41180476Y7295181D01*
X41180476Y7295181D02*
X41323333Y7247562D01*
X41323333Y7247562D02*
X41370952Y7199943D01*
X41751905Y7199943D02*
X41799524Y7247562D01*
X41799524Y7247562D02*
X41894762Y7295181D01*
X41894762Y7295181D02*
X42132857Y7295181D01*
X42132857Y7295181D02*
X42228095Y7247562D01*
X42228095Y7247562D02*
X42275714Y7199943D01*
X42275714Y7199943D02*
X42323333Y7104705D01*
X42323333Y7104705D02*
X42323333Y7009467D01*
X42323333Y7009467D02*
X42275714Y6866610D01*
X42275714Y6866610D02*
X41704286Y6295181D01*
X41704286Y6295181D02*
X42323333Y6295181D01*
X42942381Y7295181D02*
X43037619Y7295181D01*
X43037619Y7295181D02*
X43132857Y7247562D01*
X43132857Y7247562D02*
X43180476Y7199943D01*
X43180476Y7199943D02*
X43228095Y7104705D01*
X43228095Y7104705D02*
X43275714Y6914229D01*
X43275714Y6914229D02*
X43275714Y6676134D01*
X43275714Y6676134D02*
X43228095Y6485658D01*
X43228095Y6485658D02*
X43180476Y6390420D01*
X43180476Y6390420D02*
X43132857Y6342800D01*
X43132857Y6342800D02*
X43037619Y6295181D01*
X43037619Y6295181D02*
X42942381Y6295181D01*
X42942381Y6295181D02*
X42847143Y6342800D01*
X42847143Y6342800D02*
X42799524Y6390420D01*
X42799524Y6390420D02*
X42751905Y6485658D01*
X42751905Y6485658D02*
X42704286Y6676134D01*
X42704286Y6676134D02*
X42704286Y6914229D01*
X42704286Y6914229D02*
X42751905Y7104705D01*
X42751905Y7104705D02*
X42799524Y7199943D01*
X42799524Y7199943D02*
X42847143Y7247562D01*
X42847143Y7247562D02*
X42942381Y7295181D01*
X43609048Y7295181D02*
X44228095Y7295181D01*
X44228095Y7295181D02*
X43894762Y6914229D01*
X43894762Y6914229D02*
X44037619Y6914229D01*
X44037619Y6914229D02*
X44132857Y6866610D01*
X44132857Y6866610D02*
X44180476Y6818991D01*
X44180476Y6818991D02*
X44228095Y6723753D01*
X44228095Y6723753D02*
X44228095Y6485658D01*
X44228095Y6485658D02*
X44180476Y6390420D01*
X44180476Y6390420D02*
X44132857Y6342800D01*
X44132857Y6342800D02*
X44037619Y6295181D01*
X44037619Y6295181D02*
X43751905Y6295181D01*
X43751905Y6295181D02*
X43656667Y6342800D01*
X43656667Y6342800D02*
X43609048Y6390420D01*
X13380952Y32640420D02*
X13333333Y32592800D01*
X13333333Y32592800D02*
X13190476Y32545181D01*
X13190476Y32545181D02*
X13095238Y32545181D01*
X13095238Y32545181D02*
X12952381Y32592800D01*
X12952381Y32592800D02*
X12857143Y32688039D01*
X12857143Y32688039D02*
X12809524Y32783277D01*
X12809524Y32783277D02*
X12761905Y32973753D01*
X12761905Y32973753D02*
X12761905Y33116610D01*
X12761905Y33116610D02*
X12809524Y33307086D01*
X12809524Y33307086D02*
X12857143Y33402324D01*
X12857143Y33402324D02*
X12952381Y33497562D01*
X12952381Y33497562D02*
X13095238Y33545181D01*
X13095238Y33545181D02*
X13190476Y33545181D01*
X13190476Y33545181D02*
X13333333Y33497562D01*
X13333333Y33497562D02*
X13380952Y33449943D01*
X14238095Y33211848D02*
X14238095Y32545181D01*
X14000000Y33592800D02*
X13761905Y32878515D01*
X13761905Y32878515D02*
X14380952Y32878515D01*
X14952381Y33545181D02*
X15047619Y33545181D01*
X15047619Y33545181D02*
X15142857Y33497562D01*
X15142857Y33497562D02*
X15190476Y33449943D01*
X15190476Y33449943D02*
X15238095Y33354705D01*
X15238095Y33354705D02*
X15285714Y33164229D01*
X15285714Y33164229D02*
X15285714Y32926134D01*
X15285714Y32926134D02*
X15238095Y32735658D01*
X15238095Y32735658D02*
X15190476Y32640420D01*
X15190476Y32640420D02*
X15142857Y32592800D01*
X15142857Y32592800D02*
X15047619Y32545181D01*
X15047619Y32545181D02*
X14952381Y32545181D01*
X14952381Y32545181D02*
X14857143Y32592800D01*
X14857143Y32592800D02*
X14809524Y32640420D01*
X14809524Y32640420D02*
X14761905Y32735658D01*
X14761905Y32735658D02*
X14714286Y32926134D01*
X14714286Y32926134D02*
X14714286Y33164229D01*
X14714286Y33164229D02*
X14761905Y33354705D01*
X14761905Y33354705D02*
X14809524Y33449943D01*
X14809524Y33449943D02*
X14857143Y33497562D01*
X14857143Y33497562D02*
X14952381Y33545181D01*
X16238095Y32545181D02*
X15666667Y32545181D01*
X15952381Y32545181D02*
X15952381Y33545181D01*
X15952381Y33545181D02*
X15857143Y33402324D01*
X15857143Y33402324D02*
X15761905Y33307086D01*
X15761905Y33307086D02*
X15666667Y33259467D01*
X21630952Y26640420D02*
X21583333Y26592800D01*
X21583333Y26592800D02*
X21440476Y26545181D01*
X21440476Y26545181D02*
X21345238Y26545181D01*
X21345238Y26545181D02*
X21202381Y26592800D01*
X21202381Y26592800D02*
X21107143Y26688039D01*
X21107143Y26688039D02*
X21059524Y26783277D01*
X21059524Y26783277D02*
X21011905Y26973753D01*
X21011905Y26973753D02*
X21011905Y27116610D01*
X21011905Y27116610D02*
X21059524Y27307086D01*
X21059524Y27307086D02*
X21107143Y27402324D01*
X21107143Y27402324D02*
X21202381Y27497562D01*
X21202381Y27497562D02*
X21345238Y27545181D01*
X21345238Y27545181D02*
X21440476Y27545181D01*
X21440476Y27545181D02*
X21583333Y27497562D01*
X21583333Y27497562D02*
X21630952Y27449943D01*
X22488095Y27211848D02*
X22488095Y26545181D01*
X22250000Y27592800D02*
X22011905Y26878515D01*
X22011905Y26878515D02*
X22630952Y26878515D01*
X23202381Y27545181D02*
X23297619Y27545181D01*
X23297619Y27545181D02*
X23392857Y27497562D01*
X23392857Y27497562D02*
X23440476Y27449943D01*
X23440476Y27449943D02*
X23488095Y27354705D01*
X23488095Y27354705D02*
X23535714Y27164229D01*
X23535714Y27164229D02*
X23535714Y26926134D01*
X23535714Y26926134D02*
X23488095Y26735658D01*
X23488095Y26735658D02*
X23440476Y26640420D01*
X23440476Y26640420D02*
X23392857Y26592800D01*
X23392857Y26592800D02*
X23297619Y26545181D01*
X23297619Y26545181D02*
X23202381Y26545181D01*
X23202381Y26545181D02*
X23107143Y26592800D01*
X23107143Y26592800D02*
X23059524Y26640420D01*
X23059524Y26640420D02*
X23011905Y26735658D01*
X23011905Y26735658D02*
X22964286Y26926134D01*
X22964286Y26926134D02*
X22964286Y27164229D01*
X22964286Y27164229D02*
X23011905Y27354705D01*
X23011905Y27354705D02*
X23059524Y27449943D01*
X23059524Y27449943D02*
X23107143Y27497562D01*
X23107143Y27497562D02*
X23202381Y27545181D01*
X23869048Y27545181D02*
X24488095Y27545181D01*
X24488095Y27545181D02*
X24154762Y27164229D01*
X24154762Y27164229D02*
X24297619Y27164229D01*
X24297619Y27164229D02*
X24392857Y27116610D01*
X24392857Y27116610D02*
X24440476Y27068991D01*
X24440476Y27068991D02*
X24488095Y26973753D01*
X24488095Y26973753D02*
X24488095Y26735658D01*
X24488095Y26735658D02*
X24440476Y26640420D01*
X24440476Y26640420D02*
X24392857Y26592800D01*
X24392857Y26592800D02*
X24297619Y26545181D01*
X24297619Y26545181D02*
X24011905Y26545181D01*
X24011905Y26545181D02*
X23916667Y26592800D01*
X23916667Y26592800D02*
X23869048Y26640420D01*
X61964286Y7092800D02*
X62107143Y7045181D01*
X62107143Y7045181D02*
X62345238Y7045181D01*
X62345238Y7045181D02*
X62440476Y7092800D01*
X62440476Y7092800D02*
X62488095Y7140420D01*
X62488095Y7140420D02*
X62535714Y7235658D01*
X62535714Y7235658D02*
X62535714Y7330896D01*
X62535714Y7330896D02*
X62488095Y7426134D01*
X62488095Y7426134D02*
X62440476Y7473753D01*
X62440476Y7473753D02*
X62345238Y7521372D01*
X62345238Y7521372D02*
X62154762Y7568991D01*
X62154762Y7568991D02*
X62059524Y7616610D01*
X62059524Y7616610D02*
X62011905Y7664229D01*
X62011905Y7664229D02*
X61964286Y7759467D01*
X61964286Y7759467D02*
X61964286Y7854705D01*
X61964286Y7854705D02*
X62011905Y7949943D01*
X62011905Y7949943D02*
X62059524Y7997562D01*
X62059524Y7997562D02*
X62154762Y8045181D01*
X62154762Y8045181D02*
X62392857Y8045181D01*
X62392857Y8045181D02*
X62535714Y7997562D01*
X62869048Y8045181D02*
X63107143Y7045181D01*
X63107143Y7045181D02*
X63297619Y7759467D01*
X63297619Y7759467D02*
X63488095Y7045181D01*
X63488095Y7045181D02*
X63726191Y8045181D01*
X64059524Y7949943D02*
X64107143Y7997562D01*
X64107143Y7997562D02*
X64202381Y8045181D01*
X64202381Y8045181D02*
X64440476Y8045181D01*
X64440476Y8045181D02*
X64535714Y7997562D01*
X64535714Y7997562D02*
X64583333Y7949943D01*
X64583333Y7949943D02*
X64630952Y7854705D01*
X64630952Y7854705D02*
X64630952Y7759467D01*
X64630952Y7759467D02*
X64583333Y7616610D01*
X64583333Y7616610D02*
X64011905Y7045181D01*
X64011905Y7045181D02*
X64630952Y7045181D01*
X65250000Y8045181D02*
X65345238Y8045181D01*
X65345238Y8045181D02*
X65440476Y7997562D01*
X65440476Y7997562D02*
X65488095Y7949943D01*
X65488095Y7949943D02*
X65535714Y7854705D01*
X65535714Y7854705D02*
X65583333Y7664229D01*
X65583333Y7664229D02*
X65583333Y7426134D01*
X65583333Y7426134D02*
X65535714Y7235658D01*
X65535714Y7235658D02*
X65488095Y7140420D01*
X65488095Y7140420D02*
X65440476Y7092800D01*
X65440476Y7092800D02*
X65345238Y7045181D01*
X65345238Y7045181D02*
X65250000Y7045181D01*
X65250000Y7045181D02*
X65154762Y7092800D01*
X65154762Y7092800D02*
X65107143Y7140420D01*
X65107143Y7140420D02*
X65059524Y7235658D01*
X65059524Y7235658D02*
X65011905Y7426134D01*
X65011905Y7426134D02*
X65011905Y7664229D01*
X65011905Y7664229D02*
X65059524Y7854705D01*
X65059524Y7854705D02*
X65107143Y7949943D01*
X65107143Y7949943D02*
X65154762Y7997562D01*
X65154762Y7997562D02*
X65250000Y8045181D01*
X66535714Y7045181D02*
X65964286Y7045181D01*
X66250000Y7045181D02*
X66250000Y8045181D01*
X66250000Y8045181D02*
X66154762Y7902324D01*
X66154762Y7902324D02*
X66059524Y7807086D01*
X66059524Y7807086D02*
X65964286Y7759467D01*
X8130952Y9640420D02*
X8083333Y9592800D01*
X8083333Y9592800D02*
X7940476Y9545181D01*
X7940476Y9545181D02*
X7845238Y9545181D01*
X7845238Y9545181D02*
X7702381Y9592800D01*
X7702381Y9592800D02*
X7607143Y9688039D01*
X7607143Y9688039D02*
X7559524Y9783277D01*
X7559524Y9783277D02*
X7511905Y9973753D01*
X7511905Y9973753D02*
X7511905Y10116610D01*
X7511905Y10116610D02*
X7559524Y10307086D01*
X7559524Y10307086D02*
X7607143Y10402324D01*
X7607143Y10402324D02*
X7702381Y10497562D01*
X7702381Y10497562D02*
X7845238Y10545181D01*
X7845238Y10545181D02*
X7940476Y10545181D01*
X7940476Y10545181D02*
X8083333Y10497562D01*
X8083333Y10497562D02*
X8130952Y10449943D01*
X8511905Y10449943D02*
X8559524Y10497562D01*
X8559524Y10497562D02*
X8654762Y10545181D01*
X8654762Y10545181D02*
X8892857Y10545181D01*
X8892857Y10545181D02*
X8988095Y10497562D01*
X8988095Y10497562D02*
X9035714Y10449943D01*
X9035714Y10449943D02*
X9083333Y10354705D01*
X9083333Y10354705D02*
X9083333Y10259467D01*
X9083333Y10259467D02*
X9035714Y10116610D01*
X9035714Y10116610D02*
X8464286Y9545181D01*
X8464286Y9545181D02*
X9083333Y9545181D01*
X9702381Y10545181D02*
X9797619Y10545181D01*
X9797619Y10545181D02*
X9892857Y10497562D01*
X9892857Y10497562D02*
X9940476Y10449943D01*
X9940476Y10449943D02*
X9988095Y10354705D01*
X9988095Y10354705D02*
X10035714Y10164229D01*
X10035714Y10164229D02*
X10035714Y9926134D01*
X10035714Y9926134D02*
X9988095Y9735658D01*
X9988095Y9735658D02*
X9940476Y9640420D01*
X9940476Y9640420D02*
X9892857Y9592800D01*
X9892857Y9592800D02*
X9797619Y9545181D01*
X9797619Y9545181D02*
X9702381Y9545181D01*
X9702381Y9545181D02*
X9607143Y9592800D01*
X9607143Y9592800D02*
X9559524Y9640420D01*
X9559524Y9640420D02*
X9511905Y9735658D01*
X9511905Y9735658D02*
X9464286Y9926134D01*
X9464286Y9926134D02*
X9464286Y10164229D01*
X9464286Y10164229D02*
X9511905Y10354705D01*
X9511905Y10354705D02*
X9559524Y10449943D01*
X9559524Y10449943D02*
X9607143Y10497562D01*
X9607143Y10497562D02*
X9702381Y10545181D01*
X10988095Y9545181D02*
X10416667Y9545181D01*
X10702381Y9545181D02*
X10702381Y10545181D01*
X10702381Y10545181D02*
X10607143Y10402324D01*
X10607143Y10402324D02*
X10511905Y10307086D01*
X10511905Y10307086D02*
X10416667Y10259467D01*
X13880952Y48640420D02*
X13833333Y48592800D01*
X13833333Y48592800D02*
X13690476Y48545181D01*
X13690476Y48545181D02*
X13595238Y48545181D01*
X13595238Y48545181D02*
X13452381Y48592800D01*
X13452381Y48592800D02*
X13357143Y48688039D01*
X13357143Y48688039D02*
X13309524Y48783277D01*
X13309524Y48783277D02*
X13261905Y48973753D01*
X13261905Y48973753D02*
X13261905Y49116610D01*
X13261905Y49116610D02*
X13309524Y49307086D01*
X13309524Y49307086D02*
X13357143Y49402324D01*
X13357143Y49402324D02*
X13452381Y49497562D01*
X13452381Y49497562D02*
X13595238Y49545181D01*
X13595238Y49545181D02*
X13690476Y49545181D01*
X13690476Y49545181D02*
X13833333Y49497562D01*
X13833333Y49497562D02*
X13880952Y49449943D01*
X14738095Y49211848D02*
X14738095Y48545181D01*
X14500000Y49592800D02*
X14261905Y48878515D01*
X14261905Y48878515D02*
X14880952Y48878515D01*
X15452381Y49545181D02*
X15547619Y49545181D01*
X15547619Y49545181D02*
X15642857Y49497562D01*
X15642857Y49497562D02*
X15690476Y49449943D01*
X15690476Y49449943D02*
X15738095Y49354705D01*
X15738095Y49354705D02*
X15785714Y49164229D01*
X15785714Y49164229D02*
X15785714Y48926134D01*
X15785714Y48926134D02*
X15738095Y48735658D01*
X15738095Y48735658D02*
X15690476Y48640420D01*
X15690476Y48640420D02*
X15642857Y48592800D01*
X15642857Y48592800D02*
X15547619Y48545181D01*
X15547619Y48545181D02*
X15452381Y48545181D01*
X15452381Y48545181D02*
X15357143Y48592800D01*
X15357143Y48592800D02*
X15309524Y48640420D01*
X15309524Y48640420D02*
X15261905Y48735658D01*
X15261905Y48735658D02*
X15214286Y48926134D01*
X15214286Y48926134D02*
X15214286Y49164229D01*
X15214286Y49164229D02*
X15261905Y49354705D01*
X15261905Y49354705D02*
X15309524Y49449943D01*
X15309524Y49449943D02*
X15357143Y49497562D01*
X15357143Y49497562D02*
X15452381Y49545181D01*
X16166667Y49449943D02*
X16214286Y49497562D01*
X16214286Y49497562D02*
X16309524Y49545181D01*
X16309524Y49545181D02*
X16547619Y49545181D01*
X16547619Y49545181D02*
X16642857Y49497562D01*
X16642857Y49497562D02*
X16690476Y49449943D01*
X16690476Y49449943D02*
X16738095Y49354705D01*
X16738095Y49354705D02*
X16738095Y49259467D01*
X16738095Y49259467D02*
X16690476Y49116610D01*
X16690476Y49116610D02*
X16119048Y48545181D01*
X16119048Y48545181D02*
X16738095Y48545181D01*
X7821428Y18521372D02*
X7821428Y18045181D01*
X7488095Y19045181D02*
X7821428Y18521372D01*
X7821428Y18521372D02*
X8154761Y19045181D01*
X8440476Y18949943D02*
X8488095Y18997562D01*
X8488095Y18997562D02*
X8583333Y19045181D01*
X8583333Y19045181D02*
X8821428Y19045181D01*
X8821428Y19045181D02*
X8916666Y18997562D01*
X8916666Y18997562D02*
X8964285Y18949943D01*
X8964285Y18949943D02*
X9011904Y18854705D01*
X9011904Y18854705D02*
X9011904Y18759467D01*
X9011904Y18759467D02*
X8964285Y18616610D01*
X8964285Y18616610D02*
X8392857Y18045181D01*
X8392857Y18045181D02*
X9011904Y18045181D01*
X9630952Y19045181D02*
X9726190Y19045181D01*
X9726190Y19045181D02*
X9821428Y18997562D01*
X9821428Y18997562D02*
X9869047Y18949943D01*
X9869047Y18949943D02*
X9916666Y18854705D01*
X9916666Y18854705D02*
X9964285Y18664229D01*
X9964285Y18664229D02*
X9964285Y18426134D01*
X9964285Y18426134D02*
X9916666Y18235658D01*
X9916666Y18235658D02*
X9869047Y18140420D01*
X9869047Y18140420D02*
X9821428Y18092800D01*
X9821428Y18092800D02*
X9726190Y18045181D01*
X9726190Y18045181D02*
X9630952Y18045181D01*
X9630952Y18045181D02*
X9535714Y18092800D01*
X9535714Y18092800D02*
X9488095Y18140420D01*
X9488095Y18140420D02*
X9440476Y18235658D01*
X9440476Y18235658D02*
X9392857Y18426134D01*
X9392857Y18426134D02*
X9392857Y18664229D01*
X9392857Y18664229D02*
X9440476Y18854705D01*
X9440476Y18854705D02*
X9488095Y18949943D01*
X9488095Y18949943D02*
X9535714Y18997562D01*
X9535714Y18997562D02*
X9630952Y19045181D01*
X10916666Y18045181D02*
X10345238Y18045181D01*
X10630952Y18045181D02*
X10630952Y19045181D01*
X10630952Y19045181D02*
X10535714Y18902324D01*
X10535714Y18902324D02*
X10440476Y18807086D01*
X10440476Y18807086D02*
X10345238Y18759467D01*
X79630952Y63140420D02*
X79583333Y63092800D01*
X79583333Y63092800D02*
X79440476Y63045181D01*
X79440476Y63045181D02*
X79345238Y63045181D01*
X79345238Y63045181D02*
X79202381Y63092800D01*
X79202381Y63092800D02*
X79107143Y63188039D01*
X79107143Y63188039D02*
X79059524Y63283277D01*
X79059524Y63283277D02*
X79011905Y63473753D01*
X79011905Y63473753D02*
X79011905Y63616610D01*
X79011905Y63616610D02*
X79059524Y63807086D01*
X79059524Y63807086D02*
X79107143Y63902324D01*
X79107143Y63902324D02*
X79202381Y63997562D01*
X79202381Y63997562D02*
X79345238Y64045181D01*
X79345238Y64045181D02*
X79440476Y64045181D01*
X79440476Y64045181D02*
X79583333Y63997562D01*
X79583333Y63997562D02*
X79630952Y63949943D01*
X79964286Y64045181D02*
X80583333Y64045181D01*
X80583333Y64045181D02*
X80250000Y63664229D01*
X80250000Y63664229D02*
X80392857Y63664229D01*
X80392857Y63664229D02*
X80488095Y63616610D01*
X80488095Y63616610D02*
X80535714Y63568991D01*
X80535714Y63568991D02*
X80583333Y63473753D01*
X80583333Y63473753D02*
X80583333Y63235658D01*
X80583333Y63235658D02*
X80535714Y63140420D01*
X80535714Y63140420D02*
X80488095Y63092800D01*
X80488095Y63092800D02*
X80392857Y63045181D01*
X80392857Y63045181D02*
X80107143Y63045181D01*
X80107143Y63045181D02*
X80011905Y63092800D01*
X80011905Y63092800D02*
X79964286Y63140420D01*
X81202381Y64045181D02*
X81297619Y64045181D01*
X81297619Y64045181D02*
X81392857Y63997562D01*
X81392857Y63997562D02*
X81440476Y63949943D01*
X81440476Y63949943D02*
X81488095Y63854705D01*
X81488095Y63854705D02*
X81535714Y63664229D01*
X81535714Y63664229D02*
X81535714Y63426134D01*
X81535714Y63426134D02*
X81488095Y63235658D01*
X81488095Y63235658D02*
X81440476Y63140420D01*
X81440476Y63140420D02*
X81392857Y63092800D01*
X81392857Y63092800D02*
X81297619Y63045181D01*
X81297619Y63045181D02*
X81202381Y63045181D01*
X81202381Y63045181D02*
X81107143Y63092800D01*
X81107143Y63092800D02*
X81059524Y63140420D01*
X81059524Y63140420D02*
X81011905Y63235658D01*
X81011905Y63235658D02*
X80964286Y63426134D01*
X80964286Y63426134D02*
X80964286Y63664229D01*
X80964286Y63664229D02*
X81011905Y63854705D01*
X81011905Y63854705D02*
X81059524Y63949943D01*
X81059524Y63949943D02*
X81107143Y63997562D01*
X81107143Y63997562D02*
X81202381Y64045181D01*
X81869048Y64045181D02*
X82488095Y64045181D01*
X82488095Y64045181D02*
X82154762Y63664229D01*
X82154762Y63664229D02*
X82297619Y63664229D01*
X82297619Y63664229D02*
X82392857Y63616610D01*
X82392857Y63616610D02*
X82440476Y63568991D01*
X82440476Y63568991D02*
X82488095Y63473753D01*
X82488095Y63473753D02*
X82488095Y63235658D01*
X82488095Y63235658D02*
X82440476Y63140420D01*
X82440476Y63140420D02*
X82392857Y63092800D01*
X82392857Y63092800D02*
X82297619Y63045181D01*
X82297619Y63045181D02*
X82011905Y63045181D01*
X82011905Y63045181D02*
X81916667Y63092800D01*
X81916667Y63092800D02*
X81869048Y63140420D01*
D14*
%TO.C,U301*%
X72805000Y12500000D02*
X72805000Y11250000D01*
X72805000Y9250000D02*
X72805000Y8000000D01*
X72805000Y8000000D02*
X90705000Y8000000D01*
X90705000Y12500000D02*
X72805000Y12500000D01*
X90705000Y8000000D02*
X90705000Y12500000D01*
X72745000Y5000000D02*
X90765000Y5000000D01*
X90765000Y15500000D01*
X72745000Y15500000D01*
X72745000Y5000000D01*
X72805000Y11250000D02*
G75*
G02*
X72805000Y9250000I0J-1000000D01*
G01*
%TO.C,D401*%
X2455000Y28435000D02*
X5545000Y28435000D01*
X2455170Y28435000D02*
G75*
G02*
X4000000Y33985000I1544830J2560000D01*
G01*
X4000000Y33985000D02*
G75*
G02*
X5544830Y28435000I0J-2990000D01*
G01*
X6500000Y30995000D02*
G75*
G02*
X1500000Y30995000I-2500000J0D01*
G01*
X1500000Y30995000D02*
G75*
G02*
X6500000Y30995000I2500000J0D01*
G01*
%TO.C,R202*%
X12730000Y24620000D02*
X12730000Y24290000D01*
X12730000Y21880000D02*
X12730000Y22210000D01*
X19270000Y24620000D02*
X12730000Y24620000D01*
X19270000Y24290000D02*
X19270000Y24620000D01*
X19270000Y22210000D02*
X19270000Y21880000D01*
X19270000Y21880000D02*
X12730000Y21880000D01*
%TO.C,J401*%
X4340000Y45950000D02*
X2340000Y45950000D01*
X4340000Y36550000D02*
X2340000Y36550000D01*
%TO.C,C302*%
X85630000Y62370000D02*
X90870000Y62370000D01*
X85630000Y62033000D02*
X85630000Y62370000D01*
X85630000Y59630000D02*
X85630000Y59967000D01*
X90870000Y62370000D02*
X90870000Y62033000D01*
X90870000Y59967000D02*
X90870000Y59630000D01*
X90870000Y59630000D02*
X85630000Y59630000D01*
%TO.C,R205*%
X33380000Y18770000D02*
X33710000Y18770000D01*
X33380000Y12230000D02*
X33380000Y18770000D01*
X33710000Y12230000D02*
X33380000Y12230000D01*
X35790000Y12230000D02*
X36120000Y12230000D01*
X36120000Y18770000D02*
X35790000Y18770000D01*
X36120000Y12230000D02*
X36120000Y18770000D01*
%TO.C,R402*%
X2380000Y56020000D02*
X2710000Y56020000D01*
X2380000Y49480000D02*
X2380000Y56020000D01*
X2710000Y49480000D02*
X2380000Y49480000D01*
X4790000Y49480000D02*
X5120000Y49480000D01*
X5120000Y56020000D02*
X4790000Y56020000D01*
X5120000Y49480000D02*
X5120000Y56020000D01*
%TO.C,R204*%
X29980000Y29120000D02*
X36520000Y29120000D01*
X29980000Y28790000D02*
X29980000Y29120000D01*
X29980000Y26710000D02*
X29980000Y26380000D01*
X29980000Y26380000D02*
X36520000Y26380000D01*
X36520000Y29120000D02*
X36520000Y28790000D01*
X36520000Y26380000D02*
X36520000Y26710000D01*
%TO.C,U202*%
X42190000Y62455000D02*
X42190000Y11535000D01*
X42190000Y11535000D02*
X54310000Y11535000D01*
X47250000Y62455000D02*
X42190000Y62455000D01*
X54310000Y62455000D02*
X49250000Y62455000D01*
X54310000Y11535000D02*
X54310000Y62455000D01*
X39190000Y62515000D02*
X57310000Y62515000D01*
X57310000Y11475000D01*
X39190000Y11475000D01*
X39190000Y62515000D01*
X49250000Y62455000D02*
G75*
G02*
X47250000Y62455000I-1000000J0D01*
G01*
%TO.C,R201*%
X22980000Y24620000D02*
X22980000Y24290000D01*
X22980000Y21880000D02*
X22980000Y22210000D01*
X29520000Y24620000D02*
X22980000Y24620000D01*
X29520000Y24290000D02*
X29520000Y24620000D01*
X29520000Y22210000D02*
X29520000Y21880000D01*
X29520000Y21880000D02*
X22980000Y21880000D01*
%TO.C,R401*%
X7630000Y56020000D02*
X7960000Y56020000D01*
X7630000Y49480000D02*
X7630000Y56020000D01*
X7960000Y49480000D02*
X7630000Y49480000D01*
X10040000Y49480000D02*
X10370000Y49480000D01*
X10370000Y56020000D02*
X10040000Y56020000D01*
X10370000Y49480000D02*
X10370000Y56020000D01*
%TO.C,U402*%
X22310000Y62305000D02*
X22310000Y31705000D01*
X22310000Y31705000D02*
X34430000Y31705000D01*
X27370000Y62305000D02*
X22310000Y62305000D01*
X34430000Y62305000D02*
X29370000Y62305000D01*
X34430000Y31705000D02*
X34430000Y62305000D01*
X19310000Y62365000D02*
X37430000Y62365000D01*
X37430000Y31645000D01*
X19310000Y31645000D01*
X19310000Y62365000D01*
X29370000Y62305000D02*
G75*
G02*
X27370000Y62305000I-1000000J0D01*
G01*
%TO.C,R403*%
X10230000Y30620000D02*
X16770000Y30620000D01*
X10230000Y30290000D02*
X10230000Y30620000D01*
X10230000Y28210000D02*
X10230000Y27880000D01*
X10230000Y27880000D02*
X16770000Y27880000D01*
X16770000Y30620000D02*
X16770000Y30290000D01*
X16770000Y27880000D02*
X16770000Y28210000D01*
%TO.C,U201*%
X12045000Y17750000D02*
X12045000Y13250000D01*
X12045000Y13250000D02*
X29945000Y13250000D01*
X29945000Y17750000D02*
X12045000Y17750000D01*
X29945000Y16500000D02*
X29945000Y17750000D01*
X29945000Y13250000D02*
X29945000Y14500000D01*
X30005000Y20750000D02*
X11985000Y20750000D01*
X11985000Y10250000D01*
X30005000Y10250000D01*
X30005000Y20750000D01*
X29945000Y14500000D02*
G75*
G02*
X29945000Y16500000I0J1000000D01*
G01*
%TO.C,U401*%
X8440000Y43060000D02*
X8495000Y43060000D01*
X8440000Y38940000D02*
X8440000Y43060000D01*
X8495000Y38940000D02*
X8440000Y38940000D01*
X18505000Y43060000D02*
X18560000Y43060000D01*
X18560000Y43060000D02*
X18560000Y38940000D01*
X18560000Y38940000D02*
X18505000Y38940000D01*
X18840000Y43360000D02*
X18510000Y43600000D01*
X18840000Y43840000D01*
X18840000Y43360000D01*
G36*
X18840000Y43360000D02*
G01*
X18510000Y43600000D01*
X18840000Y43840000D01*
X18840000Y43360000D01*
G37*
%TO.C,U303*%
X61690000Y62380000D02*
X61690000Y21620000D01*
X61690000Y21620000D02*
X73810000Y21620000D01*
X66750000Y62380000D02*
X61690000Y62380000D01*
X73810000Y62380000D02*
X68750000Y62380000D01*
X73810000Y21620000D02*
X73810000Y62380000D01*
X58690000Y62440000D02*
X76810000Y62440000D01*
X76810000Y21560000D01*
X58690000Y21560000D01*
X58690000Y62440000D01*
X68750000Y62380000D02*
G75*
G02*
X66750000Y62380000I-1000000J0D01*
G01*
%TO.C,C301*%
X73630000Y20370000D02*
X78870000Y20370000D01*
X73630000Y20033000D02*
X73630000Y20370000D01*
X73630000Y17630000D02*
X73630000Y17967000D01*
X78870000Y20370000D02*
X78870000Y20033000D01*
X78870000Y17967000D02*
X78870000Y17630000D01*
X78870000Y17630000D02*
X73630000Y17630000D01*
%TO.C,C202*%
X7880000Y25120000D02*
X8217000Y25120000D01*
X7880000Y19880000D02*
X7880000Y25120000D01*
X8217000Y19880000D02*
X7880000Y19880000D01*
X10283000Y25120000D02*
X10620000Y25120000D01*
X10620000Y25120000D02*
X10620000Y19880000D01*
X10620000Y19880000D02*
X10283000Y19880000D01*
%TO.C,U302*%
X81190000Y57340000D02*
X81190000Y21660000D01*
X81190000Y21660000D02*
X93310000Y21660000D01*
X86250000Y57340000D02*
X81190000Y57340000D01*
X93310000Y57340000D02*
X88250000Y57340000D01*
X93310000Y21660000D02*
X93310000Y57340000D01*
X78190000Y57400000D02*
X96310000Y57400000D01*
X96310000Y21600000D01*
X78190000Y21600000D01*
X78190000Y57400000D01*
X88250000Y57340000D02*
G75*
G02*
X86250000Y57340000I-1000000J0D01*
G01*
%TO.C,C204*%
X23880000Y8120000D02*
X29120000Y8120000D01*
X23880000Y7783000D02*
X23880000Y8120000D01*
X23880000Y5380000D02*
X23880000Y5717000D01*
X29120000Y8120000D02*
X29120000Y7783000D01*
X29120000Y5717000D02*
X29120000Y5380000D01*
X29120000Y5380000D02*
X23880000Y5380000D01*
%TO.C,R203*%
X60980000Y20370000D02*
X60980000Y20040000D01*
X60980000Y17630000D02*
X60980000Y17960000D01*
X67520000Y20370000D02*
X60980000Y20370000D01*
X67520000Y20040000D02*
X67520000Y20370000D01*
X67520000Y17960000D02*
X67520000Y17630000D01*
X67520000Y17630000D02*
X60980000Y17630000D01*
D15*
%TO.C,G\u002A\u002A\u002A*%
G36*
X10567863Y64159182D02*
G01*
X10567863Y64007652D01*
X10416332Y64007652D01*
X10264802Y64007652D01*
X10264802Y64159182D01*
X10264802Y64310712D01*
X10416332Y64310712D01*
X10567863Y64310712D01*
X10567863Y64159182D01*
G37*
G36*
X10567863Y62340818D02*
G01*
X10567863Y62189288D01*
X10416332Y62189288D01*
X10264802Y62189288D01*
X10264802Y62340818D01*
X10264802Y62492348D01*
X10416332Y62492348D01*
X10567863Y62492348D01*
X10567863Y62340818D01*
G37*
G36*
X10870923Y66583668D02*
G01*
X10870923Y66129077D01*
X10416332Y66129077D01*
X9961741Y66129077D01*
X9961741Y66583668D01*
X9961741Y67038259D01*
X10416332Y67038259D01*
X10870923Y67038259D01*
X10870923Y66583668D01*
G37*
G36*
X10870923Y63704591D02*
G01*
X10870923Y63401530D01*
X10719393Y63401530D01*
X10567863Y63401530D01*
X10567863Y63704591D01*
X10567863Y64007652D01*
X10719393Y64007652D01*
X10870923Y64007652D01*
X10870923Y63704591D01*
G37*
G36*
X10870923Y59916332D02*
G01*
X10870923Y59461741D01*
X10416332Y59461741D01*
X9961741Y59461741D01*
X9961741Y59916332D01*
X9961741Y60370923D01*
X10416332Y60370923D01*
X10870923Y60370923D01*
X10870923Y59916332D01*
G37*
G36*
X12083166Y65674486D02*
G01*
X12083166Y65522955D01*
X11931636Y65522955D01*
X11780105Y65522955D01*
X11780105Y65674486D01*
X11780105Y65826016D01*
X11931636Y65826016D01*
X12083166Y65826016D01*
X12083166Y65674486D01*
G37*
G36*
X12992348Y59613272D02*
G01*
X12992348Y59461741D01*
X12840818Y59461741D01*
X12689288Y59461741D01*
X12689288Y59613272D01*
X12689288Y59764802D01*
X12840818Y59764802D01*
X12992348Y59764802D01*
X12992348Y59613272D01*
G37*
G36*
X13295409Y65674486D02*
G01*
X13295409Y65522955D01*
X13143879Y65522955D01*
X12992348Y65522955D01*
X12992348Y65674486D01*
X12992348Y65826016D01*
X13143879Y65826016D01*
X13295409Y65826016D01*
X13295409Y65674486D01*
G37*
G36*
X14507652Y60219393D02*
G01*
X14507652Y60067863D01*
X14356121Y60067863D01*
X14204591Y60067863D01*
X14204591Y60219393D01*
X14204591Y60370923D01*
X14356121Y60370923D01*
X14507652Y60370923D01*
X14507652Y60219393D01*
G37*
G36*
X14810712Y61431636D02*
G01*
X14810712Y61280106D01*
X14659182Y61280106D01*
X14507652Y61280106D01*
X14507652Y61431636D01*
X14507652Y61583166D01*
X14659182Y61583166D01*
X14810712Y61583166D01*
X14810712Y61431636D01*
G37*
G36*
X15719894Y65674486D02*
G01*
X15719894Y65522955D01*
X15568364Y65522955D01*
X15416834Y65522955D01*
X15416834Y65674486D01*
X15416834Y65826016D01*
X15568364Y65826016D01*
X15719894Y65826016D01*
X15719894Y65674486D01*
G37*
G36*
X15719894Y59007150D02*
G01*
X15719894Y58855620D01*
X15416834Y58855620D01*
X15113773Y58855620D01*
X15113773Y59007150D01*
X15113773Y59158681D01*
X15416834Y59158681D01*
X15719894Y59158681D01*
X15719894Y59007150D01*
G37*
G36*
X16022955Y64916834D02*
G01*
X16022955Y64613773D01*
X15871425Y64613773D01*
X15719894Y64613773D01*
X15719894Y64916834D01*
X15719894Y65219895D01*
X15871425Y65219895D01*
X16022955Y65219895D01*
X16022955Y64916834D01*
G37*
G36*
X16326016Y60825514D02*
G01*
X16326016Y60673984D01*
X16174486Y60673984D01*
X16022955Y60673984D01*
X16022955Y60825514D01*
X16022955Y60977045D01*
X16174486Y60977045D01*
X16326016Y60977045D01*
X16326016Y60825514D01*
G37*
G36*
X17538259Y66583668D02*
G01*
X17538259Y66129077D01*
X17083668Y66129077D01*
X16629077Y66129077D01*
X16629077Y66583668D01*
X16629077Y67038259D01*
X17083668Y67038259D01*
X17538259Y67038259D01*
X17538259Y66583668D01*
G37*
G36*
X18144380Y62037757D02*
G01*
X18144380Y61886227D01*
X17992850Y61886227D01*
X17841319Y61886227D01*
X17841319Y62037757D01*
X17841319Y62189288D01*
X17992850Y62189288D01*
X18144380Y62189288D01*
X18144380Y62037757D01*
G37*
G36*
X11780105Y62795409D02*
G01*
X11780105Y62492348D01*
X11477045Y62492348D01*
X11173984Y62492348D01*
X11173984Y62643879D01*
X11173984Y62795409D01*
X11325514Y62795409D01*
X11477045Y62795409D01*
X11477045Y62946939D01*
X11477045Y63098470D01*
X11628575Y63098470D01*
X11780105Y63098470D01*
X11780105Y62795409D01*
G37*
G36*
X11477045Y63250000D02*
G01*
X11477045Y63098470D01*
X11173984Y63098470D01*
X10870923Y63098470D01*
X10870923Y62946939D01*
X10870923Y62795409D01*
X10719393Y62795409D01*
X10567863Y62795409D01*
X10567863Y62946939D01*
X10567863Y63098470D01*
X10719393Y63098470D01*
X10870923Y63098470D01*
X10870923Y63250000D01*
X10870923Y63401530D01*
X11173984Y63401530D01*
X11477045Y63401530D01*
X11477045Y63250000D01*
G37*
G36*
X13295409Y59310211D02*
G01*
X13295409Y59158681D01*
X13446939Y59158681D01*
X13598470Y59158681D01*
X13598470Y59007150D01*
X13598470Y58855620D01*
X12689288Y58855620D01*
X11780105Y58855620D01*
X11780105Y59007150D01*
X11780105Y59158681D01*
X12386227Y59158681D01*
X12992348Y59158681D01*
X12992348Y59310211D01*
X12992348Y59461741D01*
X13143879Y59461741D01*
X13295409Y59461741D01*
X13295409Y59310211D01*
G37*
G36*
X13295409Y64462243D02*
G01*
X13295409Y64310712D01*
X13143879Y64310712D01*
X12992348Y64310712D01*
X12992348Y64159182D01*
X12992348Y64007652D01*
X12840818Y64007652D01*
X12689288Y64007652D01*
X12689288Y63856121D01*
X12689288Y63704591D01*
X12537757Y63704591D01*
X12386227Y63704591D01*
X12386227Y63856121D01*
X12386227Y64007652D01*
X12537757Y64007652D01*
X12689288Y64007652D01*
X12689288Y64159182D01*
X12689288Y64310712D01*
X12840818Y64310712D01*
X12992348Y64310712D01*
X12992348Y64462243D01*
X12992348Y64613773D01*
X13143879Y64613773D01*
X13295409Y64613773D01*
X13295409Y64462243D01*
G37*
G36*
X11477045Y66583668D02*
G01*
X11477045Y65522955D01*
X10416332Y65522955D01*
X9355620Y65522955D01*
X9355620Y66216668D01*
X9672644Y66216668D01*
X9672665Y66153099D01*
X9672711Y66094168D01*
X9672780Y66040335D01*
X9672872Y65992057D01*
X9672987Y65949793D01*
X9673124Y65914000D01*
X9673283Y65885137D01*
X9673462Y65863662D01*
X9673661Y65850033D01*
X9673880Y65844708D01*
X9673891Y65844670D01*
X9675727Y65843945D01*
X9680880Y65843289D01*
X9689686Y65842698D01*
X9702480Y65842171D01*
X9719595Y65841706D01*
X9741367Y65841300D01*
X9768130Y65840953D01*
X9800220Y65840661D01*
X9837970Y65840424D01*
X9881716Y65840238D01*
X9931792Y65840103D01*
X9988533Y65840015D01*
X10052275Y65839974D01*
X10123350Y65839977D01*
X10202095Y65840021D01*
X10288844Y65840106D01*
X10383932Y65840229D01*
X10417297Y65840278D01*
X11158611Y65841389D01*
X11158611Y66583668D01*
X11158611Y67325947D01*
X10416332Y67325947D01*
X9674053Y67325947D01*
X9672926Y66588060D01*
X9672816Y66508169D01*
X9672734Y66430627D01*
X9672678Y66355890D01*
X9672648Y66284418D01*
X9672644Y66216668D01*
X9355620Y66216668D01*
X9355620Y66583668D01*
X9355620Y67644380D01*
X10416332Y67644380D01*
X11477045Y67644380D01*
X11477045Y66583668D01*
G37*
G36*
X11477045Y59916332D02*
G01*
X11477045Y58855620D01*
X10416332Y58855620D01*
X9355620Y58855620D01*
X9355620Y59549332D01*
X9672644Y59549332D01*
X9672665Y59485763D01*
X9672711Y59426833D01*
X9672780Y59373000D01*
X9672872Y59324722D01*
X9672987Y59282457D01*
X9673124Y59246664D01*
X9673283Y59217801D01*
X9673462Y59196326D01*
X9673661Y59182698D01*
X9673880Y59177373D01*
X9673891Y59177335D01*
X9675727Y59176610D01*
X9680880Y59175953D01*
X9689686Y59175363D01*
X9702480Y59174835D01*
X9719595Y59174370D01*
X9741367Y59173965D01*
X9768130Y59173618D01*
X9800220Y59173326D01*
X9837970Y59173089D01*
X9881716Y59172903D01*
X9931792Y59172768D01*
X9988533Y59172680D01*
X10052275Y59172639D01*
X10123350Y59172641D01*
X10202095Y59172686D01*
X10288844Y59172771D01*
X10383932Y59172894D01*
X10417297Y59172943D01*
X11158611Y59174053D01*
X11158611Y59916332D01*
X11158611Y60658611D01*
X10416332Y60658611D01*
X9674053Y60658611D01*
X9672926Y59920725D01*
X9672816Y59840834D01*
X9672734Y59763291D01*
X9672678Y59688555D01*
X9672648Y59617082D01*
X9672644Y59549332D01*
X9355620Y59549332D01*
X9355620Y59916332D01*
X9355620Y60977045D01*
X10416332Y60977045D01*
X11477045Y60977045D01*
X11477045Y59916332D01*
G37*
G36*
X18144380Y66583668D02*
G01*
X18144380Y65522955D01*
X17083668Y65522955D01*
X16022955Y65522955D01*
X16022955Y66216668D01*
X16339980Y66216668D01*
X16340001Y66153099D01*
X16340046Y66094168D01*
X16340115Y66040335D01*
X16340208Y65992057D01*
X16340323Y65949793D01*
X16340459Y65914000D01*
X16340618Y65885137D01*
X16340797Y65863662D01*
X16340996Y65850033D01*
X16341215Y65844708D01*
X16341226Y65844670D01*
X16343062Y65843945D01*
X16348216Y65843289D01*
X16357022Y65842698D01*
X16369815Y65842171D01*
X16386930Y65841706D01*
X16408702Y65841300D01*
X16435465Y65840953D01*
X16467555Y65840661D01*
X16505305Y65840424D01*
X16549051Y65840238D01*
X16599127Y65840103D01*
X16655869Y65840015D01*
X16719610Y65839974D01*
X16790686Y65839977D01*
X16869431Y65840021D01*
X16956180Y65840106D01*
X17051267Y65840229D01*
X17084633Y65840278D01*
X17825947Y65841389D01*
X17825947Y66583668D01*
X17825947Y67325947D01*
X17083668Y67325947D01*
X16341389Y67325947D01*
X16340261Y66588060D01*
X16340151Y66508169D01*
X16340069Y66430627D01*
X16340013Y66355890D01*
X16339984Y66284418D01*
X16339980Y66216668D01*
X16022955Y66216668D01*
X16022955Y66583668D01*
X16022955Y67644380D01*
X17083668Y67644380D01*
X18144380Y67644380D01*
X18144380Y66583668D01*
G37*
G36*
X13598470Y67492850D02*
G01*
X13598470Y67341319D01*
X13750000Y67341319D01*
X13901530Y67341319D01*
X13901530Y67189789D01*
X13901530Y67038259D01*
X14204591Y67038259D01*
X14507652Y67038259D01*
X14507652Y67189789D01*
X14507652Y67341319D01*
X14356121Y67341319D01*
X14204591Y67341319D01*
X14204591Y67492850D01*
X14204591Y67644380D01*
X14507652Y67644380D01*
X14810712Y67644380D01*
X14810712Y67492850D01*
X14810712Y67341319D01*
X15113773Y67341319D01*
X15416834Y67341319D01*
X15416834Y67038259D01*
X15416834Y66735198D01*
X15113773Y66735198D01*
X14810712Y66735198D01*
X14810712Y66583668D01*
X14810712Y66432137D01*
X15113773Y66432137D01*
X15416834Y66432137D01*
X15416834Y66583668D01*
X15416834Y66735198D01*
X15568364Y66735198D01*
X15719894Y66735198D01*
X15719894Y66583668D01*
X15719894Y66432137D01*
X15568364Y66432137D01*
X15416834Y66432137D01*
X15416834Y66280607D01*
X15416834Y66129077D01*
X15113773Y66129077D01*
X14810712Y66129077D01*
X14810712Y65977546D01*
X14810712Y65826016D01*
X14659182Y65826016D01*
X14507652Y65826016D01*
X14507652Y65522955D01*
X14507652Y65219895D01*
X14659182Y65219895D01*
X14810712Y65219895D01*
X14810712Y65522955D01*
X14810712Y65826016D01*
X14962243Y65826016D01*
X15113773Y65826016D01*
X15113773Y65522955D01*
X15113773Y65219895D01*
X14962243Y65219895D01*
X14810712Y65219895D01*
X14810712Y65068364D01*
X14810712Y64916834D01*
X15113773Y64916834D01*
X15416834Y64916834D01*
X15416834Y64765304D01*
X15416834Y64613773D01*
X15265303Y64613773D01*
X15113773Y64613773D01*
X15113773Y64462243D01*
X15113773Y64310712D01*
X15719894Y64310712D01*
X16326016Y64310712D01*
X16326016Y64613773D01*
X16326016Y64916834D01*
X16477546Y64916834D01*
X16629077Y64916834D01*
X16629077Y65068364D01*
X16629077Y65219895D01*
X16780607Y65219895D01*
X16932137Y65219895D01*
X16932137Y64765304D01*
X16932137Y64310712D01*
X17083668Y64310712D01*
X17235198Y64310712D01*
X17235198Y64765304D01*
X17235198Y65219895D01*
X17689789Y65219895D01*
X18144380Y65219895D01*
X18144380Y65068364D01*
X18144380Y64916834D01*
X17992850Y64916834D01*
X17841319Y64916834D01*
X17841319Y64765304D01*
X17841319Y64613773D01*
X17689789Y64613773D01*
X17538259Y64613773D01*
X17538259Y64462243D01*
X17538259Y64310712D01*
X17386728Y64310712D01*
X17235198Y64310712D01*
X17235198Y64159182D01*
X17235198Y64007652D01*
X17083668Y64007652D01*
X16932137Y64007652D01*
X16932137Y64159182D01*
X16932137Y64310712D01*
X16780607Y64310712D01*
X16629077Y64310712D01*
X16629077Y64007652D01*
X16629077Y63704591D01*
X17235198Y63704591D01*
X17841319Y63704591D01*
X17841319Y64007652D01*
X17841319Y64310712D01*
X17992850Y64310712D01*
X18144380Y64310712D01*
X18144380Y63553061D01*
X18144380Y62795409D01*
X17992850Y62795409D01*
X17841319Y62795409D01*
X17841319Y63098470D01*
X17841319Y63401530D01*
X17689789Y63401530D01*
X17538259Y63401530D01*
X17538259Y63098470D01*
X17538259Y62795409D01*
X17386728Y62795409D01*
X17235198Y62795409D01*
X17235198Y62643879D01*
X17235198Y62492348D01*
X17083668Y62492348D01*
X16932137Y62492348D01*
X16932137Y62340818D01*
X16932137Y62189288D01*
X17083668Y62189288D01*
X17235198Y62189288D01*
X17235198Y62340818D01*
X17235198Y62492348D01*
X17538259Y62492348D01*
X17841319Y62492348D01*
X17841319Y62340818D01*
X17841319Y62189288D01*
X17538259Y62189288D01*
X17235198Y62189288D01*
X17235198Y62037757D01*
X17235198Y61886227D01*
X17386728Y61886227D01*
X17538259Y61886227D01*
X17538259Y61734697D01*
X17538259Y61583166D01*
X17689789Y61583166D01*
X17841319Y61583166D01*
X17841319Y61431636D01*
X17841319Y61280106D01*
X17538259Y61280106D01*
X17235198Y61280106D01*
X17235198Y60977045D01*
X17235198Y60673984D01*
X17083668Y60673984D01*
X16932137Y60673984D01*
X16932137Y60522454D01*
X16932137Y60370923D01*
X17083668Y60370923D01*
X17235198Y60370923D01*
X17235198Y60219393D01*
X17235198Y60067863D01*
X16629077Y60067863D01*
X16022955Y60067863D01*
X16022955Y59764802D01*
X16022955Y59461741D01*
X16174486Y59461741D01*
X16326016Y59461741D01*
X16326016Y59613272D01*
X16326016Y59764802D01*
X16629077Y59764802D01*
X16932137Y59764802D01*
X16932137Y59613272D01*
X16932137Y59461741D01*
X17083668Y59461741D01*
X17235198Y59461741D01*
X17235198Y59613272D01*
X17235198Y59764802D01*
X17538259Y59764802D01*
X17841319Y59764802D01*
X17841319Y60067863D01*
X17841319Y60370923D01*
X17689789Y60370923D01*
X17538259Y60370923D01*
X17538259Y60522454D01*
X17538259Y60673984D01*
X17841319Y60673984D01*
X18144380Y60673984D01*
X18144380Y59916332D01*
X18144380Y59158681D01*
X17992850Y59158681D01*
X17841319Y59158681D01*
X17841319Y59310211D01*
X17841319Y59461741D01*
X17689789Y59461741D01*
X17538259Y59461741D01*
X17538259Y59310211D01*
X17538259Y59158681D01*
X17235198Y59158681D01*
X16932137Y59158681D01*
X16932137Y59007150D01*
X16932137Y58855620D01*
X16780607Y58855620D01*
X16629077Y58855620D01*
X16629077Y59007150D01*
X16629077Y59158681D01*
X16780607Y59158681D01*
X16932137Y59158681D01*
X16932137Y59310211D01*
X16932137Y59461741D01*
X16780607Y59461741D01*
X16629077Y59461741D01*
X16629077Y59310211D01*
X16629077Y59158681D01*
X16477546Y59158681D01*
X16326016Y59158681D01*
X16326016Y59007150D01*
X16326016Y58855620D01*
X16174486Y58855620D01*
X16022955Y58855620D01*
X16022955Y59158681D01*
X16022955Y59310211D01*
X16022955Y59461741D01*
X15719894Y59461741D01*
X15416834Y59461741D01*
X15416834Y59613272D01*
X15416834Y59764802D01*
X15568364Y59764802D01*
X15719894Y59764802D01*
X15719894Y59916332D01*
X15719894Y60067863D01*
X15416834Y60067863D01*
X15113773Y60067863D01*
X15113773Y59916332D01*
X15113773Y59764802D01*
X14962243Y59764802D01*
X14810712Y59764802D01*
X14810712Y59613272D01*
X14810712Y59461741D01*
X14659182Y59461741D01*
X14507652Y59461741D01*
X14507652Y59158681D01*
X14507652Y58855620D01*
X14204591Y58855620D01*
X13901530Y58855620D01*
X13901530Y59310211D01*
X13901530Y59764802D01*
X13598470Y59764802D01*
X13295409Y59764802D01*
X13295409Y60219393D01*
X13295409Y60673984D01*
X13143879Y60673984D01*
X12992348Y60673984D01*
X12992348Y60370923D01*
X12992348Y60067863D01*
X12840818Y60067863D01*
X12689288Y60067863D01*
X12689288Y59916332D01*
X12689288Y59764802D01*
X12537757Y59764802D01*
X12386227Y59764802D01*
X12386227Y59613272D01*
X12386227Y59461741D01*
X12234696Y59461741D01*
X12083166Y59461741D01*
X12083166Y59613272D01*
X12083166Y59764802D01*
X12234696Y59764802D01*
X12386227Y59764802D01*
X12386227Y59916332D01*
X12386227Y60067863D01*
X12234696Y60067863D01*
X12083166Y60067863D01*
X12083166Y59916332D01*
X12083166Y59764802D01*
X11931636Y59764802D01*
X11780105Y59764802D01*
X11780105Y59916332D01*
X11780105Y60370923D01*
X12083166Y60370923D01*
X12234696Y60370923D01*
X12386227Y60370923D01*
X12386227Y60522454D01*
X12386227Y60673984D01*
X12689288Y60673984D01*
X12840818Y60673984D01*
X12992348Y60673984D01*
X12992348Y60825514D01*
X12992348Y60977045D01*
X12840818Y60977045D01*
X12689288Y60977045D01*
X12689288Y60825514D01*
X12689288Y60673984D01*
X12386227Y60673984D01*
X12234696Y60673984D01*
X12083166Y60673984D01*
X12083166Y60522454D01*
X12083166Y60370923D01*
X11780105Y60370923D01*
X11780105Y60522454D01*
X11780105Y60825514D01*
X11780105Y60977045D01*
X12386227Y60977045D01*
X12537757Y60977045D01*
X12689288Y60977045D01*
X12689288Y61128575D01*
X12689288Y61280106D01*
X12537757Y61280106D01*
X12386227Y61280106D01*
X12386227Y61128575D01*
X12386227Y60977045D01*
X11780105Y60977045D01*
X11780105Y61128575D01*
X11780105Y61280106D01*
X11022454Y61280106D01*
X10264802Y61280106D01*
X10264802Y61431636D01*
X10264802Y61583166D01*
X10113272Y61583166D01*
X9961741Y61583166D01*
X9961741Y61431636D01*
X9961741Y61280106D01*
X9658681Y61280106D01*
X9355620Y61280106D01*
X9355620Y62037757D01*
X9355620Y62795409D01*
X9507150Y62795409D01*
X9658681Y62795409D01*
X9658681Y62946939D01*
X9658681Y63098470D01*
X9810211Y63098470D01*
X9961741Y63098470D01*
X9961741Y63250000D01*
X9961741Y63401530D01*
X9810211Y63401530D01*
X9658681Y63401530D01*
X9658681Y63553061D01*
X9658681Y63704591D01*
X9507150Y63704591D01*
X9355620Y63704591D01*
X9355620Y64007652D01*
X9658681Y64007652D01*
X9658681Y63704591D01*
X9810211Y63704591D01*
X9961741Y63704591D01*
X9961741Y63856121D01*
X9961741Y64007652D01*
X10113272Y64007652D01*
X10264802Y64007652D01*
X10264802Y63704591D01*
X10264802Y63401530D01*
X10416332Y63401530D01*
X10567863Y63401530D01*
X10567863Y63250000D01*
X10567863Y63098470D01*
X10416332Y63098470D01*
X10264802Y63098470D01*
X10264802Y62946939D01*
X10264802Y62795409D01*
X10113272Y62795409D01*
X9961741Y62795409D01*
X9961741Y62492348D01*
X9961741Y62189288D01*
X10113272Y62189288D01*
X10264802Y62189288D01*
X10264802Y62037757D01*
X10264802Y61886227D01*
X10416332Y61886227D01*
X10567863Y61886227D01*
X10567863Y62037757D01*
X10567863Y62189288D01*
X10719393Y62189288D01*
X10870923Y62189288D01*
X10870923Y62340818D01*
X10870923Y62492348D01*
X11022454Y62492348D01*
X11173984Y62492348D01*
X11173984Y62340818D01*
X11173984Y62189288D01*
X11325514Y62189288D01*
X11477045Y62189288D01*
X11477045Y62037757D01*
X11477045Y61886227D01*
X11173984Y61886227D01*
X10870923Y61886227D01*
X10870923Y61734697D01*
X10870923Y61583166D01*
X11325514Y61583166D01*
X11780105Y61583166D01*
X11780105Y61431636D01*
X11780105Y61280106D01*
X12083166Y61280106D01*
X12386227Y61280106D01*
X12386227Y61431636D01*
X12386227Y61583166D01*
X12234696Y61583166D01*
X12083166Y61583166D01*
X12083166Y61734697D01*
X12083166Y61886227D01*
X11931636Y61886227D01*
X11780105Y61886227D01*
X11780105Y62037757D01*
X11780105Y62189288D01*
X11931636Y62189288D01*
X12083166Y62189288D01*
X12083166Y62643879D01*
X12386227Y62643879D01*
X12386227Y62492348D01*
X12840818Y62492348D01*
X13295409Y62492348D01*
X13295409Y62340818D01*
X13295409Y62189288D01*
X13143879Y62189288D01*
X12992348Y62189288D01*
X12992348Y62037757D01*
X12992348Y61886227D01*
X12840818Y61886227D01*
X12689288Y61886227D01*
X12689288Y62037757D01*
X12689288Y62189288D01*
X12537757Y62189288D01*
X12386227Y62189288D01*
X12386227Y62037757D01*
X12386227Y61886227D01*
X12537757Y61886227D01*
X12689288Y61886227D01*
X12689288Y61734697D01*
X12689288Y61583166D01*
X12840818Y61583166D01*
X12992348Y61583166D01*
X12992348Y61431636D01*
X12992348Y61280106D01*
X13143879Y61280106D01*
X13295409Y61280106D01*
X13295409Y61734697D01*
X13295409Y61886227D01*
X13598470Y61886227D01*
X13598470Y60977045D01*
X13598470Y60067863D01*
X13901530Y60067863D01*
X14204591Y60067863D01*
X14204591Y59916332D01*
X14204591Y59764802D01*
X14356121Y59764802D01*
X14507652Y59764802D01*
X14507652Y59916332D01*
X14507652Y60067863D01*
X14810712Y60067863D01*
X15113773Y60067863D01*
X15113773Y60219393D01*
X15113773Y60370923D01*
X15719894Y60370923D01*
X16174486Y60370923D01*
X16629077Y60370923D01*
X16629077Y60825514D01*
X16629077Y61280106D01*
X16174486Y61280106D01*
X15719894Y61280106D01*
X15719894Y60825514D01*
X15719894Y60370923D01*
X15113773Y60370923D01*
X14810712Y60370923D01*
X14507652Y60370923D01*
X14507652Y60522454D01*
X14507652Y60673984D01*
X14356121Y60673984D01*
X14204591Y60673984D01*
X14204591Y60522454D01*
X14204591Y60370923D01*
X14053061Y60370923D01*
X13901530Y60370923D01*
X13901530Y60825514D01*
X13901530Y61280106D01*
X14053061Y61280106D01*
X14204591Y61280106D01*
X14204591Y61128575D01*
X14204591Y60977045D01*
X14507652Y60977045D01*
X14810712Y60977045D01*
X14810712Y60825514D01*
X14810712Y60673984D01*
X14962243Y60673984D01*
X15113773Y60673984D01*
X15113773Y60825514D01*
X15113773Y60977045D01*
X15265303Y60977045D01*
X15416834Y60977045D01*
X15416834Y61280106D01*
X15416834Y61583166D01*
X15719894Y61583166D01*
X16022955Y61583166D01*
X16022955Y61734697D01*
X16022955Y61886227D01*
X16174486Y61886227D01*
X16326016Y61886227D01*
X16326016Y61734697D01*
X16326016Y61583166D01*
X16629077Y61583166D01*
X16932137Y61583166D01*
X16932137Y61734697D01*
X16932137Y61886227D01*
X16780607Y61886227D01*
X16629077Y61886227D01*
X16629077Y62189288D01*
X16629077Y62492348D01*
X16780607Y62492348D01*
X16932137Y62492348D01*
X16932137Y62643879D01*
X16932137Y62795409D01*
X17083668Y62795409D01*
X17235198Y62795409D01*
X17235198Y63098470D01*
X17235198Y63401530D01*
X17083668Y63401530D01*
X16932137Y63401530D01*
X16932137Y63098470D01*
X16932137Y62795409D01*
X16629077Y62795409D01*
X16326016Y62795409D01*
X16326016Y62946939D01*
X16326016Y63098470D01*
X16477546Y63098470D01*
X16629077Y63098470D01*
X16629077Y63250000D01*
X16629077Y63401530D01*
X16477546Y63401530D01*
X16326016Y63401530D01*
X16326016Y63250000D01*
X16326016Y63098470D01*
X15871425Y63098470D01*
X15416834Y63098470D01*
X15416834Y62946939D01*
X15416834Y62795409D01*
X15719894Y62795409D01*
X16022955Y62795409D01*
X16022955Y62643879D01*
X16022955Y62492348D01*
X15719894Y62492348D01*
X15416834Y62492348D01*
X15416834Y62037757D01*
X15416834Y61583166D01*
X15265303Y61583166D01*
X15113773Y61583166D01*
X15113773Y61734697D01*
X15113773Y61886227D01*
X14659182Y61886227D01*
X14204591Y61886227D01*
X14204591Y61734697D01*
X14204591Y61583166D01*
X14053061Y61583166D01*
X13901530Y61583166D01*
X13901530Y61734697D01*
X13901530Y61886227D01*
X13750000Y61886227D01*
X13598470Y61886227D01*
X13295409Y61886227D01*
X13295409Y62189288D01*
X13598470Y62189288D01*
X13901530Y62189288D01*
X13901530Y62492348D01*
X13901530Y62795409D01*
X14053061Y62795409D01*
X14204591Y62795409D01*
X14204591Y62492348D01*
X14204591Y62189288D01*
X14507652Y62189288D01*
X14810712Y62189288D01*
X14810712Y62340818D01*
X14810712Y62492348D01*
X14962243Y62492348D01*
X15113773Y62492348D01*
X15113773Y62795409D01*
X15113773Y63098470D01*
X14810712Y63098470D01*
X14507652Y63098470D01*
X14507652Y63250000D01*
X14507652Y63401530D01*
X14810712Y63401530D01*
X15113773Y63401530D01*
X15113773Y63553061D01*
X15416834Y63553061D01*
X15416834Y63401530D01*
X15719894Y63401530D01*
X16022955Y63401530D01*
X16022955Y63704591D01*
X16022955Y64007652D01*
X15871425Y64007652D01*
X15719894Y64007652D01*
X15719894Y63856121D01*
X15719894Y63704591D01*
X15568364Y63704591D01*
X15416834Y63704591D01*
X15416834Y63553061D01*
X15113773Y63553061D01*
X15113773Y63704591D01*
X15113773Y63856121D01*
X15113773Y64310712D01*
X14962243Y64310712D01*
X14810712Y64310712D01*
X14810712Y64159182D01*
X14810712Y64007652D01*
X14659182Y64007652D01*
X14507652Y64007652D01*
X14507652Y64310712D01*
X14507652Y64613773D01*
X14356121Y64613773D01*
X14204591Y64613773D01*
X14204591Y64462243D01*
X14204591Y64310712D01*
X14053061Y64310712D01*
X13901530Y64310712D01*
X13901530Y64159182D01*
X13901530Y64007652D01*
X14204591Y64007652D01*
X14507652Y64007652D01*
X14507652Y63704591D01*
X14507652Y63401530D01*
X14356121Y63401530D01*
X14204591Y63401530D01*
X14204591Y63250000D01*
X14204591Y63098470D01*
X14053061Y63098470D01*
X13901530Y63098470D01*
X13901530Y62946939D01*
X13901530Y62795409D01*
X13143879Y62795409D01*
X12386227Y62795409D01*
X12386227Y62643879D01*
X12083166Y62643879D01*
X12083166Y62795409D01*
X12083166Y63098470D01*
X11931636Y63098470D01*
X11780105Y63098470D01*
X11780105Y63401530D01*
X11780105Y63704591D01*
X11931636Y63704591D01*
X12083166Y63704591D01*
X12083166Y63553061D01*
X12083166Y63401530D01*
X12234696Y63401530D01*
X12386227Y63401530D01*
X12386227Y63250000D01*
X12386227Y63098470D01*
X12537757Y63098470D01*
X12689288Y63098470D01*
X12689288Y63401530D01*
X12689288Y63704591D01*
X12840818Y63704591D01*
X12992348Y63704591D01*
X12992348Y63401530D01*
X12992348Y63098470D01*
X13295409Y63098470D01*
X13598470Y63098470D01*
X13598470Y63250000D01*
X13598470Y63401530D01*
X13750000Y63401530D01*
X13901530Y63401530D01*
X13901530Y63553061D01*
X13901530Y63704591D01*
X13598470Y63704591D01*
X13295409Y63704591D01*
X13295409Y63856121D01*
X13295409Y64007652D01*
X13446939Y64007652D01*
X13598470Y64007652D01*
X13598470Y64462243D01*
X13598470Y64916834D01*
X13446939Y64916834D01*
X13295409Y64916834D01*
X13295409Y65068364D01*
X13295409Y65219895D01*
X13446939Y65219895D01*
X13598470Y65219895D01*
X13598470Y65522955D01*
X13598470Y65674486D01*
X13901530Y65674486D01*
X13901530Y64916834D01*
X14053061Y64916834D01*
X14204591Y64916834D01*
X14204591Y65371425D01*
X14204591Y65826016D01*
X14356121Y65826016D01*
X14507652Y65826016D01*
X14507652Y66280607D01*
X14507652Y66735198D01*
X14659182Y66735198D01*
X14810712Y66735198D01*
X14810712Y66886728D01*
X14810712Y67038259D01*
X14659182Y67038259D01*
X14507652Y67038259D01*
X14507652Y66886728D01*
X14507652Y66735198D01*
X14356121Y66735198D01*
X14204591Y66735198D01*
X14204591Y66583668D01*
X14204591Y66432137D01*
X14053061Y66432137D01*
X13901530Y66432137D01*
X13901530Y65674486D01*
X13598470Y65674486D01*
X13598470Y65826016D01*
X13446939Y65826016D01*
X13295409Y65826016D01*
X13295409Y65977546D01*
X13295409Y66129077D01*
X13143879Y66129077D01*
X12992348Y66129077D01*
X12992348Y65977546D01*
X12992348Y65826016D01*
X12840818Y65826016D01*
X12689288Y65826016D01*
X12689288Y65219895D01*
X12689288Y64613773D01*
X12537757Y64613773D01*
X12386227Y64613773D01*
X12386227Y64310712D01*
X12386227Y64007652D01*
X12083166Y64007652D01*
X11780105Y64007652D01*
X11780105Y63856121D01*
X11780105Y63704591D01*
X11477045Y63704591D01*
X11173984Y63704591D01*
X11173984Y63856121D01*
X11173984Y64007652D01*
X11325514Y64007652D01*
X11477045Y64007652D01*
X11477045Y64159182D01*
X11477045Y64310712D01*
X11325514Y64310712D01*
X11173984Y64310712D01*
X11173984Y64462243D01*
X11173984Y64613773D01*
X11628575Y64613773D01*
X12083166Y64613773D01*
X12083166Y64765304D01*
X12083166Y64916834D01*
X11477045Y64916834D01*
X10870923Y64916834D01*
X10870923Y64613773D01*
X10870923Y64310712D01*
X10719393Y64310712D01*
X10567863Y64310712D01*
X10567863Y64613773D01*
X10567863Y64916834D01*
X10416332Y64916834D01*
X10264802Y64916834D01*
X10264802Y64765304D01*
X10264802Y64613773D01*
X10113272Y64613773D01*
X9961741Y64613773D01*
X9961741Y64462243D01*
X9961741Y64310712D01*
X9810211Y64310712D01*
X9658681Y64310712D01*
X9658681Y64007652D01*
X9355620Y64007652D01*
X9355620Y64310712D01*
X9355620Y64462243D01*
X9355620Y65219895D01*
X9507150Y65219895D01*
X9658681Y65219895D01*
X9658681Y65068364D01*
X9658681Y64916834D01*
X9961741Y64916834D01*
X10264802Y64916834D01*
X10264802Y65068364D01*
X10264802Y65219895D01*
X11173984Y65219895D01*
X12083166Y65219895D01*
X12083166Y65068364D01*
X12083166Y64916834D01*
X12234696Y64916834D01*
X12386227Y64916834D01*
X12386227Y65371425D01*
X12386227Y65826016D01*
X12537757Y65826016D01*
X12689288Y65826016D01*
X12689288Y66280607D01*
X12689288Y66583668D01*
X13295409Y66583668D01*
X13295409Y66432137D01*
X13446939Y66432137D01*
X13598470Y66432137D01*
X13598470Y66583668D01*
X13598470Y66735198D01*
X13750000Y66735198D01*
X13901530Y66735198D01*
X13901530Y66886728D01*
X13901530Y67038259D01*
X13750000Y67038259D01*
X13598470Y67038259D01*
X13598470Y66886728D01*
X13598470Y66735198D01*
X13446939Y66735198D01*
X13295409Y66735198D01*
X13295409Y66583668D01*
X12689288Y66583668D01*
X12689288Y66735198D01*
X12840818Y66735198D01*
X12992348Y66735198D01*
X12992348Y67189789D01*
X12992348Y67644380D01*
X13295409Y67644380D01*
X13598470Y67644380D01*
X13598470Y67492850D01*
G37*
G36*
X12083166Y67492850D02*
G01*
X12083166Y67341319D01*
X12386227Y67341319D01*
X12689288Y67341319D01*
X12689288Y67038259D01*
X12689288Y66735198D01*
X12537757Y66735198D01*
X12386227Y66735198D01*
X12386227Y66432137D01*
X12386227Y66129077D01*
X12083166Y66129077D01*
X11780105Y66129077D01*
X11780105Y66280607D01*
X11780105Y66432137D01*
X11931636Y66432137D01*
X12083166Y66432137D01*
X12083166Y66583668D01*
X12083166Y66735198D01*
X11931636Y66735198D01*
X11780105Y66735198D01*
X11780105Y67189789D01*
X11780105Y67644380D01*
X11931636Y67644380D01*
X12083166Y67644380D01*
X12083166Y67492850D01*
G37*
D14*
%TO.C,C203*%
X40120000Y10620000D02*
X45360000Y10620000D01*
X40120000Y10283000D02*
X40120000Y10620000D01*
X40120000Y7880000D02*
X40120000Y8217000D01*
X45360000Y10620000D02*
X45360000Y10283000D01*
X45360000Y8217000D02*
X45360000Y7880000D01*
X45360000Y7880000D02*
X40120000Y7880000D01*
%TO.C,C401*%
X11880000Y36620000D02*
X17120000Y36620000D01*
X11880000Y36283000D02*
X11880000Y36620000D01*
X11880000Y33880000D02*
X11880000Y34217000D01*
X17120000Y36620000D02*
X17120000Y36283000D01*
X17120000Y34217000D02*
X17120000Y33880000D01*
X17120000Y33880000D02*
X11880000Y33880000D01*
%TO.C,C403*%
X20130000Y30870000D02*
X25370000Y30870000D01*
X20130000Y30533000D02*
X20130000Y30870000D01*
X20130000Y28130000D02*
X20130000Y28467000D01*
X25370000Y30870000D02*
X25370000Y30533000D01*
X25370000Y28467000D02*
X25370000Y28130000D01*
X25370000Y28130000D02*
X20130000Y28130000D01*
%TO.C,SW201*%
X60750000Y12500000D02*
X60750000Y11000000D01*
X62000000Y8500000D02*
X66500000Y8500000D01*
X66500000Y15000000D02*
X62000000Y15000000D01*
X67750000Y11000000D02*
X67750000Y12500000D01*
%TO.C,C201*%
X7880000Y17120000D02*
X8217000Y17120000D01*
X7880000Y11880000D02*
X7880000Y17120000D01*
X8217000Y11880000D02*
X7880000Y11880000D01*
X10283000Y17120000D02*
X10620000Y17120000D01*
X10620000Y17120000D02*
X10620000Y11880000D01*
X10620000Y11880000D02*
X10283000Y11880000D01*
%TO.C,C402*%
X12380000Y47870000D02*
X17620000Y47870000D01*
X12380000Y47533000D02*
X12380000Y47870000D01*
X12380000Y45130000D02*
X12380000Y45467000D01*
X17620000Y47870000D02*
X17620000Y47533000D01*
X17620000Y45467000D02*
X17620000Y45130000D01*
X17620000Y45130000D02*
X12380000Y45130000D01*
%TO.C,Y201*%
X1815000Y15300000D02*
X1815000Y21700000D01*
X6685000Y21700000D02*
X6685000Y15300000D01*
X1815000Y21700000D02*
G75*
G02*
X6685000Y21700000I2435000J0D01*
G01*
X6685000Y15300000D02*
G75*
G02*
X1815000Y15300000I-2435000J0D01*
G01*
%TO.C,C303*%
X78130000Y62370000D02*
X83370000Y62370000D01*
X78130000Y62033000D02*
X78130000Y62370000D01*
X78130000Y59630000D02*
X78130000Y59967000D01*
X83370000Y62370000D02*
X83370000Y62033000D01*
X83370000Y59967000D02*
X83370000Y59630000D01*
X83370000Y59630000D02*
X78130000Y59630000D01*
%TD*%
M02*
