%TF.GenerationSoftware,KiCad,Pcbnew,9.0.7*%
%TF.CreationDate,2026-02-16T17:56:09-05:00*%
%TF.ProjectId,prom-shield,70726f6d-2d73-4686-9965-6c642e6b6963,B*%
%TF.SameCoordinates,PX5f5e100PY5f5e100*%
%TF.FileFunction,Copper,L2,Bot*%
%TF.FilePolarity,Positive*%
%FSLAX46Y46*%
G04 Gerber Fmt 4.6, Leading zero omitted, Abs format (unit mm)*
G04 Created by KiCad (PCBNEW 9.0.7) date 2026-02-16 17:56:09*
%MOMM*%
%LPD*%
G01*
G04 APERTURE LIST*
G04 Aperture macros list*
%AMRoundRect*
0 Rectangle with rounded corners*
0 $1 Rounding radius*
0 $2 $3 $4 $5 $6 $7 $8 $9 X,Y pos of 4 corners*
0 Add a 4 corners polygon primitive as box body*
4,1,4,$2,$3,$4,$5,$6,$7,$8,$9,$2,$3,0*
0 Add four circle primitives for the rounded corners*
1,1,$1+$1,$2,$3*
1,1,$1+$1,$4,$5*
1,1,$1+$1,$6,$7*
1,1,$1+$1,$8,$9*
0 Add four rect primitives between the rounded corners*
20,1,$1+$1,$2,$3,$4,$5,0*
20,1,$1+$1,$4,$5,$6,$7,0*
20,1,$1+$1,$6,$7,$8,$9,0*
20,1,$1+$1,$8,$9,$2,$3,0*%
G04 Aperture macros list end*
%TA.AperFunction,ComponentPad*%
%ADD10R,1.700000X1.700000*%
%TD*%
%TA.AperFunction,ComponentPad*%
%ADD11O,1.700000X1.700000*%
%TD*%
%TA.AperFunction,ComponentPad*%
%ADD12C,1.600000*%
%TD*%
%TA.AperFunction,ComponentPad*%
%ADD13R,1.440000X2.000000*%
%TD*%
%TA.AperFunction,ComponentPad*%
%ADD14O,1.440000X2.000000*%
%TD*%
%TA.AperFunction,ComponentPad*%
%ADD15RoundRect,0.250000X-0.550000X0.950000X-0.550000X-0.950000X0.550000X-0.950000X0.550000X0.950000X0*%
%TD*%
%TA.AperFunction,ComponentPad*%
%ADD16O,1.600000X2.400000*%
%TD*%
%TA.AperFunction,ComponentPad*%
%ADD17RoundRect,0.250000X-0.950000X-0.550000X0.950000X-0.550000X0.950000X0.550000X-0.950000X0.550000X0*%
%TD*%
%TA.AperFunction,ComponentPad*%
%ADD18O,2.400000X1.600000*%
%TD*%
%TA.AperFunction,ViaPad*%
%ADD19C,0.800000*%
%TD*%
%TA.AperFunction,ViaPad*%
%ADD20C,0.600000*%
%TD*%
%TA.AperFunction,Conductor*%
%ADD21C,0.300000*%
%TD*%
%TA.AperFunction,Conductor*%
%ADD22C,0.800000*%
%TD*%
G04 APERTURE END LIST*
D10*
%TO.P,J2,1*%
%TO.N,unconnected-(J2-Pad1)*%
X27940000Y2540000D03*
D11*
%TO.P,J2,2,IOREF*%
%TO.N,unconnected-(J2-IOREF-Pad2)*%
X30480000Y2540000D03*
%TO.P,J2,3,~{RESET}*%
%TO.N,unconnected-(J2-~{RESET}-Pad3)*%
X33020000Y2540000D03*
%TO.P,J2,4,3.3V*%
%TO.N,unconnected-(J2-3.3V-Pad4)*%
X35560000Y2540000D03*
%TO.P,J2,5,5V*%
%TO.N,VCC*%
X38100000Y2540000D03*
%TO.P,J2,6,GND*%
%TO.N,GND*%
X40640000Y2540000D03*
%TO.P,J2,7,GND*%
X43180000Y2540000D03*
%TO.P,J2,8,Vin*%
%TO.N,unconnected-(J2-Vin-Pad8)*%
X45720000Y2540000D03*
%TD*%
D10*
%TO.P,J1,1,A0*%
%TO.N,/~{WE}*%
X50800000Y2540000D03*
D11*
%TO.P,J1,2,A1*%
%TO.N,/~{CE}*%
X53340000Y2540000D03*
%TO.P,J1,3,A2*%
%TO.N,/~{OE}*%
X55880000Y2540000D03*
%TO.P,J1,4,A3*%
%TO.N,/USR_SRCLK*%
X58420000Y2540000D03*
%TO.P,J1,5,A4*%
%TO.N,/LSR_SRCLK*%
X60960000Y2540000D03*
%TO.P,J1,6,A5*%
%TO.N,/SER*%
X63500000Y2540000D03*
%TD*%
D10*
%TO.P,J3,1,SCL*%
%TO.N,unconnected-(J3-SCL-Pad1)*%
X18796000Y50800000D03*
D11*
%TO.P,J3,2,SDA*%
%TO.N,unconnected-(J3-SDA-Pad2)*%
X21336000Y50800000D03*
%TO.P,J3,3,AREF*%
%TO.N,unconnected-(J3-AREF-Pad3)*%
X23876000Y50800000D03*
%TO.P,J3,4,GND*%
%TO.N,GND*%
X26416000Y50800000D03*
%TO.P,J3,5,13*%
%TO.N,/RCLK*%
X28956000Y50800000D03*
%TO.P,J3,6,12*%
%TO.N,unconnected-(J3-12-Pad6)*%
X31496000Y50800000D03*
%TO.P,J3,7,~11*%
%TO.N,unconnected-(J3-~11-Pad7)*%
X34036000Y50800000D03*
%TO.P,J3,8,~10*%
%TO.N,unconnected-(J3-~10-Pad8)*%
X36576000Y50800000D03*
%TO.P,J3,9,~9*%
%TO.N,/D7*%
X39116000Y50800000D03*
%TO.P,J3,10,8*%
%TO.N,/D6*%
X41656000Y50800000D03*
%TD*%
D10*
%TO.P,J4,1,7*%
%TO.N,/D5*%
X45720000Y50800000D03*
D11*
%TO.P,J4,2,~6*%
%TO.N,/D4*%
X48260000Y50800000D03*
%TO.P,J4,3,~5*%
%TO.N,/D3*%
X50800000Y50800000D03*
%TO.P,J4,4,4*%
%TO.N,/D2*%
X53340000Y50800000D03*
%TO.P,J4,5,~3*%
%TO.N,/D1*%
X55880000Y50800000D03*
%TO.P,J4,6,2*%
%TO.N,/D0*%
X58420000Y50800000D03*
%TO.P,J4,7,TX/1*%
%TO.N,unconnected-(J4-TX{slash}1-Pad7)*%
X60960000Y50800000D03*
%TO.P,J4,8,RX/0*%
%TO.N,unconnected-(J4-RX{slash}0-Pad8)*%
X63500000Y50800000D03*
%TD*%
D12*
%TO.P,R1,1*%
%TO.N,VCC*%
X23810000Y45250000D03*
%TO.P,R1,2*%
%TO.N,/~{WE}*%
X16190000Y45250000D03*
%TD*%
D13*
%TO.P,U1,1,A14*%
%TO.N,/A14*%
X12970000Y23760000D03*
D14*
%TO.P,U1,2,A12*%
%TO.N,/A12*%
X15510000Y23760000D03*
%TO.P,U1,3,A7*%
%TO.N,/A7*%
X18050000Y23760000D03*
%TO.P,U1,4,A6*%
%TO.N,/A6*%
X20590000Y23760000D03*
%TO.P,U1,5,A5*%
%TO.N,/A5*%
X23130000Y23760000D03*
%TO.P,U1,6,A4*%
%TO.N,/A4*%
X25670000Y23760000D03*
%TO.P,U1,7,A3*%
%TO.N,/A3*%
X28210000Y23760000D03*
%TO.P,U1,8,A2*%
%TO.N,/A2*%
X30750000Y23760000D03*
%TO.P,U1,9,A1*%
%TO.N,/A1*%
X33290000Y23760000D03*
%TO.P,U1,10,A0*%
%TO.N,/A0*%
X35830000Y23760000D03*
%TO.P,U1,11,D0*%
%TO.N,/D0*%
X38370000Y23760000D03*
%TO.P,U1,12,D1*%
%TO.N,/D1*%
X40910000Y23760000D03*
%TO.P,U1,13,D2*%
%TO.N,/D2*%
X43450000Y23760000D03*
%TO.P,U1,14,GND*%
%TO.N,GND*%
X45990000Y23760000D03*
%TO.P,U1,15,D3*%
%TO.N,/D3*%
X45990000Y39000000D03*
%TO.P,U1,16,D4*%
%TO.N,/D4*%
X43450000Y39000000D03*
%TO.P,U1,17,D5*%
%TO.N,/D5*%
X40910000Y39000000D03*
%TO.P,U1,18,D6*%
%TO.N,/D6*%
X38370000Y39000000D03*
%TO.P,U1,19,D7*%
%TO.N,/D7*%
X35830000Y39000000D03*
%TO.P,U1,20,~{CS}*%
%TO.N,/~{CE}*%
X33290000Y39000000D03*
%TO.P,U1,21,A10*%
%TO.N,/A10*%
X30750000Y39000000D03*
%TO.P,U1,22,~{OE}*%
%TO.N,/~{OE}*%
X28210000Y39000000D03*
%TO.P,U1,23,A11*%
%TO.N,/A11*%
X25670000Y39000000D03*
%TO.P,U1,24,A9*%
%TO.N,/A9*%
X23130000Y39000000D03*
%TO.P,U1,25,A8*%
%TO.N,/A8*%
X20590000Y39000000D03*
%TO.P,U1,26,A13*%
%TO.N,/A13*%
X18050000Y39000000D03*
%TO.P,U1,27,~{WE}*%
%TO.N,/~{WE}*%
X15510000Y39000000D03*
%TO.P,U1,28,VCC*%
%TO.N,VCC*%
X12970000Y39000000D03*
%TD*%
D12*
%TO.P,R3,1*%
%TO.N,VCC*%
X45560000Y45250000D03*
%TO.P,R3,2*%
%TO.N,/~{CE}*%
X37940000Y45250000D03*
%TD*%
%TO.P,C3,1*%
%TO.N,GND*%
X63750000Y47250000D03*
%TO.P,C3,2*%
%TO.N,VCC*%
X63750000Y42250000D03*
%TD*%
%TO.P,R2,1*%
%TO.N,VCC*%
X34560000Y45250000D03*
%TO.P,R2,2*%
%TO.N,/~{OE}*%
X26940000Y45250000D03*
%TD*%
D15*
%TO.P,U2,1,QB*%
%TO.N,/A1*%
X37890000Y14810000D03*
D16*
%TO.P,U2,2,QC*%
%TO.N,/A2*%
X35350000Y14810000D03*
%TO.P,U2,3,QD*%
%TO.N,/A3*%
X32810000Y14810000D03*
%TO.P,U2,4,QE*%
%TO.N,/A4*%
X30270000Y14810000D03*
%TO.P,U2,5,QF*%
%TO.N,/A5*%
X27730000Y14810000D03*
%TO.P,U2,6,QG*%
%TO.N,/A6*%
X25190000Y14810000D03*
%TO.P,U2,7,QH*%
%TO.N,/A7*%
X22650000Y14810000D03*
%TO.P,U2,8,GND*%
%TO.N,GND*%
X20110000Y14810000D03*
%TO.P,U2,9,QH'*%
%TO.N,unconnected-(U2-QH&apos;-Pad9)*%
X20110000Y7190000D03*
%TO.P,U2,10,~{SRCLR}*%
%TO.N,VCC*%
X22650000Y7190000D03*
%TO.P,U2,11,SRCLK*%
%TO.N,/LSR_SRCLK*%
X25190000Y7190000D03*
%TO.P,U2,12,RCLK*%
%TO.N,/RCLK*%
X27730000Y7190000D03*
%TO.P,U2,13,~{OE}*%
%TO.N,GND*%
X30270000Y7190000D03*
%TO.P,U2,14,SER*%
%TO.N,/SER*%
X32810000Y7190000D03*
%TO.P,U2,15,QA*%
%TO.N,/A0*%
X35350000Y7190000D03*
%TO.P,U2,16,VCC*%
%TO.N,VCC*%
X37890000Y7190000D03*
%TD*%
D17*
%TO.P,U3,1,QB*%
%TO.N,/A9*%
X56190000Y38890000D03*
D18*
%TO.P,U3,2,QC*%
%TO.N,/A10*%
X56190000Y36350000D03*
%TO.P,U3,3,QD*%
%TO.N,/A11*%
X56190000Y33810000D03*
%TO.P,U3,4,QE*%
%TO.N,/A12*%
X56190000Y31270000D03*
%TO.P,U3,5,QF*%
%TO.N,/A13*%
X56190000Y28730000D03*
%TO.P,U3,6,QG*%
%TO.N,/A14*%
X56190000Y26190000D03*
%TO.P,U3,7,QH*%
%TO.N,unconnected-(U3-QH-Pad7)*%
X56190000Y23650000D03*
%TO.P,U3,8,GND*%
%TO.N,GND*%
X56190000Y21110000D03*
%TO.P,U3,9,QH'*%
%TO.N,unconnected-(U3-QH&apos;-Pad9)*%
X63810000Y21110000D03*
%TO.P,U3,10,~{SRCLR}*%
%TO.N,VCC*%
X63810000Y23650000D03*
%TO.P,U3,11,SRCLK*%
%TO.N,/USR_SRCLK*%
X63810000Y26190000D03*
%TO.P,U3,12,RCLK*%
%TO.N,/RCLK*%
X63810000Y28730000D03*
%TO.P,U3,13,~{OE}*%
%TO.N,GND*%
X63810000Y31270000D03*
%TO.P,U3,14,SER*%
%TO.N,/SER*%
X63810000Y33810000D03*
%TO.P,U3,15,QA*%
%TO.N,/A8*%
X63810000Y36350000D03*
%TO.P,U3,16,VCC*%
%TO.N,VCC*%
X63810000Y38890000D03*
%TD*%
D12*
%TO.P,C1,1*%
%TO.N,GND*%
X8000000Y45250000D03*
%TO.P,C1,2*%
%TO.N,VCC*%
X13000000Y45250000D03*
%TD*%
%TO.P,C2,1*%
%TO.N,GND*%
X46250000Y7250000D03*
%TO.P,C2,2*%
%TO.N,VCC*%
X41250000Y7250000D03*
%TD*%
D19*
%TO.N,GND*%
X60000000Y30000000D03*
X57750000Y42500000D03*
X17500000Y27500000D03*
X42750000Y27500000D03*
X56250000Y5750000D03*
X7500000Y25000000D03*
X53750000Y39000000D03*
X47750000Y39000000D03*
X62500000Y7500000D03*
X15000000Y10000000D03*
X7500000Y37500000D03*
X48750000Y27500000D03*
X62500000Y17500000D03*
D20*
%TO.N,/~{CE}*%
X37000000Y37250000D03*
X52000000Y37250000D03*
%TO.N,/~{WE}*%
X52000000Y27250000D03*
X20250000Y29250000D03*
%TO.N,/RCLK*%
X61000000Y46250000D03*
%TO.N,/D0*%
X50000000Y23000000D03*
D19*
%TO.N,VCC*%
X56250000Y8250000D03*
X58000000Y18250000D03*
D20*
%TO.N,/D1*%
X50250000Y25000000D03*
%TO.N,/A12*%
X15510000Y29510000D03*
%TO.N,/A11*%
X28000000Y33810000D03*
%TD*%
D21*
%TO.N,/~{CE}*%
X52000000Y37250000D02*
X53340000Y35910000D01*
X37940000Y45250000D02*
X37000000Y44310000D01*
X53340000Y35910000D02*
X53340000Y2540000D01*
X37000000Y44310000D02*
X37000000Y37250000D01*
%TO.N,/~{OE}*%
X54590000Y1250000D02*
X55880000Y2540000D01*
X28250000Y39040000D02*
X28210000Y39000000D01*
X42250000Y8500000D02*
X49500000Y1250000D01*
X26940000Y45250000D02*
X28250000Y43940000D01*
X28250000Y43940000D02*
X28250000Y39040000D01*
X49500000Y1250000D02*
X54590000Y1250000D01*
X42250000Y24960000D02*
X42250000Y8500000D01*
X28210000Y39000000D02*
X42250000Y24960000D01*
%TO.N,/~{WE}*%
X52000000Y27250000D02*
X52000000Y3740000D01*
X15510000Y33990000D02*
X15510000Y39000000D01*
X15500000Y44560000D02*
X15500000Y39010000D01*
X20250000Y29250000D02*
X15510000Y33990000D01*
X15500000Y39010000D02*
X15510000Y39000000D01*
X52000000Y3740000D02*
X50800000Y2540000D01*
X16190000Y45250000D02*
X15500000Y44560000D01*
%TO.N,/A0*%
X35350000Y7190000D02*
X35350000Y8350000D01*
X35830000Y23420000D02*
X35830000Y23760000D01*
X39500000Y12500000D02*
X39500000Y19750000D01*
X39500000Y19750000D02*
X35830000Y23420000D01*
X35350000Y8350000D02*
X39500000Y12500000D01*
%TO.N,/A1*%
X33290000Y19410000D02*
X37890000Y14810000D01*
X33290000Y23760000D02*
X33290000Y19410000D01*
%TO.N,/A2*%
X30750000Y23760000D02*
X30750000Y19410000D01*
X30750000Y19410000D02*
X35350000Y14810000D01*
%TO.N,/A3*%
X28210000Y19410000D02*
X32810000Y14810000D01*
X28210000Y23760000D02*
X28210000Y19410000D01*
%TO.N,/SER*%
X65750000Y4790000D02*
X63500000Y2540000D01*
X63810000Y33810000D02*
X65750000Y31870000D01*
X65750000Y31870000D02*
X65750000Y4790000D01*
%TO.N,/LSR_SRCLK*%
X25190000Y2310000D02*
X25190000Y7190000D01*
X59500000Y750000D02*
X26750000Y750000D01*
X26750000Y750000D02*
X25190000Y2310000D01*
X60960000Y2540000D02*
X60960000Y2210000D01*
X60960000Y2210000D02*
X59500000Y750000D01*
%TO.N,/USR_SRCLK*%
X63810000Y26190000D02*
X59250000Y21630000D01*
X59250000Y3370000D02*
X58420000Y2540000D01*
X59250000Y21630000D02*
X59250000Y3370000D01*
%TO.N,/RCLK*%
X61000000Y46250000D02*
X61000000Y31000000D01*
X61000000Y31000000D02*
X63270000Y28730000D01*
X63270000Y28730000D02*
X63810000Y28730000D01*
%TO.N,/D6*%
X39500000Y40130000D02*
X38370000Y39000000D01*
X39500000Y48644000D02*
X39500000Y40130000D01*
X41656000Y50800000D02*
X39500000Y48644000D01*
%TO.N,/D7*%
X39116000Y50800000D02*
X36250000Y47934000D01*
X36250000Y40250000D02*
X35830000Y39830000D01*
X35830000Y39830000D02*
X35830000Y39000000D01*
X36250000Y47934000D02*
X36250000Y40250000D01*
%TO.N,/D0*%
X51250000Y43630000D02*
X51250000Y24250000D01*
X58420000Y50800000D02*
X51250000Y43630000D01*
X51250000Y24250000D02*
X50000000Y23000000D01*
D22*
%TO.N,VCC*%
X58000000Y10000000D02*
X58000000Y18250000D01*
X56250000Y8250000D02*
X58000000Y10000000D01*
D21*
%TO.N,/D5*%
X45720000Y49970000D02*
X40910000Y45160000D01*
X40910000Y45160000D02*
X40910000Y39000000D01*
X45720000Y50800000D02*
X45720000Y49970000D01*
%TO.N,/D1*%
X55880000Y50800000D02*
X50250000Y45170000D01*
X50250000Y45170000D02*
X50250000Y25000000D01*
%TO.N,/D4*%
X48260000Y50800000D02*
X43450000Y45990000D01*
X43450000Y45990000D02*
X43450000Y39000000D01*
%TO.N,/D2*%
X48750000Y46210000D02*
X48750000Y29060000D01*
X48750000Y29060000D02*
X43450000Y23760000D01*
X53340000Y50800000D02*
X48750000Y46210000D01*
%TO.N,/D3*%
X50800000Y50800000D02*
X47250000Y47250000D01*
X47250000Y47250000D02*
X47250000Y40260000D01*
X47250000Y40260000D02*
X45990000Y39000000D01*
%TO.N,/A5*%
X23130000Y23760000D02*
X23130000Y19410000D01*
X23130000Y19410000D02*
X27730000Y14810000D01*
%TO.N,/A6*%
X20590000Y23760000D02*
X20590000Y19410000D01*
X20590000Y19410000D02*
X25190000Y14810000D01*
%TO.N,/A12*%
X15510000Y29510000D02*
X15510000Y23760000D01*
%TO.N,/A7*%
X18050000Y23760000D02*
X18050000Y19410000D01*
X18050000Y19410000D02*
X22650000Y14810000D01*
%TO.N,/A4*%
X25670000Y19410000D02*
X30270000Y14810000D01*
X25670000Y23760000D02*
X25670000Y19410000D01*
%TO.N,/A11*%
X25670000Y35330000D02*
X25670000Y39000000D01*
X28000000Y33810000D02*
X27190000Y33810000D01*
X27190000Y33810000D02*
X25670000Y35330000D01*
%TD*%
%TA.AperFunction,Conductor*%
%TO.N,GND*%
G36*
X63309869Y52820593D02*
G01*
X63321682Y52810504D01*
X63974739Y52157447D01*
X64002516Y52102930D01*
X63992945Y52042498D01*
X63949680Y51999233D01*
X63889248Y51989662D01*
X63874143Y51993288D01*
X63792823Y52019710D01*
X63598420Y52050500D01*
X63598417Y52050500D01*
X63401583Y52050500D01*
X63401580Y52050500D01*
X63207178Y52019711D01*
X63019974Y51958884D01*
X62844597Y51869526D01*
X62685355Y51753829D01*
X62546171Y51614645D01*
X62430474Y51455403D01*
X62341114Y51280022D01*
X62341112Y51280019D01*
X62324154Y51227825D01*
X62288190Y51178325D01*
X62229999Y51159418D01*
X62171809Y51178326D01*
X62135846Y51227825D01*
X62118887Y51280019D01*
X62118885Y51280022D01*
X62118884Y51280023D01*
X62118884Y51280025D01*
X62029524Y51455405D01*
X61913828Y51614646D01*
X61774646Y51753828D01*
X61615405Y51869524D01*
X61615404Y51869525D01*
X61615402Y51869526D01*
X61440025Y51958884D01*
X61252821Y52019711D01*
X61058420Y52050500D01*
X61058417Y52050500D01*
X60861583Y52050500D01*
X60861580Y52050500D01*
X60667178Y52019711D01*
X60479974Y51958884D01*
X60304597Y51869526D01*
X60145355Y51753829D01*
X60006171Y51614645D01*
X59890474Y51455403D01*
X59801114Y51280022D01*
X59801112Y51280019D01*
X59784154Y51227825D01*
X59748190Y51178325D01*
X59689999Y51159418D01*
X59631809Y51178326D01*
X59595846Y51227825D01*
X59578887Y51280019D01*
X59578885Y51280022D01*
X59578884Y51280023D01*
X59578884Y51280025D01*
X59489524Y51455405D01*
X59373828Y51614646D01*
X59234646Y51753828D01*
X59075405Y51869524D01*
X59075404Y51869525D01*
X59075402Y51869526D01*
X58900025Y51958884D01*
X58712821Y52019711D01*
X58518420Y52050500D01*
X58518417Y52050500D01*
X58321583Y52050500D01*
X58321580Y52050500D01*
X58127178Y52019711D01*
X57939974Y51958884D01*
X57764597Y51869526D01*
X57605355Y51753829D01*
X57466171Y51614645D01*
X57350474Y51455403D01*
X57261114Y51280022D01*
X57261112Y51280019D01*
X57244154Y51227825D01*
X57208190Y51178325D01*
X57149999Y51159418D01*
X57091809Y51178326D01*
X57055846Y51227825D01*
X57038887Y51280019D01*
X57038885Y51280022D01*
X57038884Y51280023D01*
X57038884Y51280025D01*
X56949524Y51455405D01*
X56833828Y51614646D01*
X56694646Y51753828D01*
X56535405Y51869524D01*
X56535404Y51869525D01*
X56535402Y51869526D01*
X56360025Y51958884D01*
X56172821Y52019711D01*
X55978420Y52050500D01*
X55978417Y52050500D01*
X55781583Y52050500D01*
X55781580Y52050500D01*
X55587178Y52019711D01*
X55399974Y51958884D01*
X55224597Y51869526D01*
X55065355Y51753829D01*
X54926171Y51614645D01*
X54810474Y51455403D01*
X54721114Y51280022D01*
X54721112Y51280019D01*
X54704154Y51227825D01*
X54668190Y51178325D01*
X54609999Y51159418D01*
X54551809Y51178326D01*
X54515846Y51227825D01*
X54498887Y51280019D01*
X54498885Y51280022D01*
X54498884Y51280023D01*
X54498884Y51280025D01*
X54409524Y51455405D01*
X54293828Y51614646D01*
X54154646Y51753828D01*
X53995405Y51869524D01*
X53995404Y51869525D01*
X53995402Y51869526D01*
X53820025Y51958884D01*
X53632821Y52019711D01*
X53438420Y52050500D01*
X53438417Y52050500D01*
X53241583Y52050500D01*
X53241580Y52050500D01*
X53047178Y52019711D01*
X52859974Y51958884D01*
X52684597Y51869526D01*
X52525355Y51753829D01*
X52386171Y51614645D01*
X52270474Y51455403D01*
X52181114Y51280022D01*
X52181112Y51280019D01*
X52164154Y51227825D01*
X52128190Y51178325D01*
X52069999Y51159418D01*
X52011809Y51178326D01*
X51975846Y51227825D01*
X51958887Y51280019D01*
X51958885Y51280022D01*
X51958884Y51280023D01*
X51958884Y51280025D01*
X51869524Y51455405D01*
X51753828Y51614646D01*
X51614646Y51753828D01*
X51455405Y51869524D01*
X51455404Y51869525D01*
X51455402Y51869526D01*
X51280025Y51958884D01*
X51092821Y52019711D01*
X50898420Y52050500D01*
X50898417Y52050500D01*
X50701583Y52050500D01*
X50701580Y52050500D01*
X50507178Y52019711D01*
X50319974Y51958884D01*
X50144597Y51869526D01*
X49985355Y51753829D01*
X49846171Y51614645D01*
X49730474Y51455403D01*
X49641114Y51280022D01*
X49641112Y51280019D01*
X49624154Y51227825D01*
X49588190Y51178325D01*
X49529999Y51159418D01*
X49471809Y51178326D01*
X49435846Y51227825D01*
X49418887Y51280019D01*
X49418885Y51280022D01*
X49418884Y51280023D01*
X49418884Y51280025D01*
X49329524Y51455405D01*
X49213828Y51614646D01*
X49074646Y51753828D01*
X48915405Y51869524D01*
X48915404Y51869525D01*
X48915402Y51869526D01*
X48740025Y51958884D01*
X48552821Y52019711D01*
X48358420Y52050500D01*
X48358417Y52050500D01*
X48161583Y52050500D01*
X48161580Y52050500D01*
X47967178Y52019711D01*
X47779974Y51958884D01*
X47604597Y51869526D01*
X47445355Y51753829D01*
X47306171Y51614645D01*
X47190474Y51455403D01*
X47157709Y51391096D01*
X47114444Y51347831D01*
X47054012Y51338260D01*
X46999496Y51366037D01*
X46971718Y51420554D01*
X46970499Y51436041D01*
X46970499Y51681522D01*
X46970498Y51681524D01*
X46955647Y51775300D01*
X46955646Y51775302D01*
X46955646Y51775304D01*
X46898050Y51888342D01*
X46808342Y51978050D01*
X46695304Y52035646D01*
X46695305Y52035646D01*
X46601521Y52050500D01*
X44838478Y52050500D01*
X44838476Y52050499D01*
X44744700Y52035648D01*
X44744695Y52035646D01*
X44631659Y51978051D01*
X44541949Y51888341D01*
X44484354Y51775305D01*
X44469500Y51681522D01*
X44469500Y49918479D01*
X44469501Y49918477D01*
X44484352Y49824701D01*
X44484354Y49824696D01*
X44541950Y49711658D01*
X44542538Y49711070D01*
X44542914Y49710331D01*
X44546531Y49705353D01*
X44545742Y49704781D01*
X44570314Y49656555D01*
X44560743Y49596123D01*
X44542537Y49571064D01*
X40469490Y45498015D01*
X40397016Y45372485D01*
X40359500Y45232475D01*
X40359500Y40315497D01*
X40354654Y40300585D01*
X40354655Y40284905D01*
X40345438Y40272220D01*
X40340593Y40257306D01*
X40318691Y40235405D01*
X40207691Y40154758D01*
X40149500Y40135850D01*
X40091310Y40154757D01*
X40055346Y40204257D01*
X40050500Y40234850D01*
X40050500Y48374968D01*
X40069407Y48433159D01*
X40079490Y48444966D01*
X41208302Y49573779D01*
X41262817Y49601554D01*
X41308897Y49597927D01*
X41330068Y49591048D01*
X41363174Y49580291D01*
X41363175Y49580291D01*
X41363177Y49580290D01*
X41557580Y49549500D01*
X41557583Y49549500D01*
X41754420Y49549500D01*
X41948821Y49580290D01*
X41948822Y49580291D01*
X41948826Y49580291D01*
X42136025Y49641116D01*
X42311405Y49730476D01*
X42470646Y49846172D01*
X42609828Y49985354D01*
X42725524Y50144595D01*
X42814884Y50319975D01*
X42875709Y50507174D01*
X42879095Y50528551D01*
X42906500Y50701580D01*
X42906500Y50898421D01*
X42875710Y51092822D01*
X42875709Y51092826D01*
X42814884Y51280025D01*
X42725524Y51455405D01*
X42609828Y51614646D01*
X42470646Y51753828D01*
X42311405Y51869524D01*
X42311404Y51869525D01*
X42311402Y51869526D01*
X42136025Y51958884D01*
X41948821Y52019711D01*
X41754420Y52050500D01*
X41754417Y52050500D01*
X41557583Y52050500D01*
X41557580Y52050500D01*
X41363178Y52019711D01*
X41175974Y51958884D01*
X41000597Y51869526D01*
X40841355Y51753829D01*
X40702171Y51614645D01*
X40586474Y51455403D01*
X40497114Y51280022D01*
X40497112Y51280019D01*
X40480154Y51227825D01*
X40444190Y51178325D01*
X40385999Y51159418D01*
X40327809Y51178326D01*
X40291846Y51227825D01*
X40274887Y51280019D01*
X40274885Y51280022D01*
X40274884Y51280023D01*
X40274884Y51280025D01*
X40185524Y51455405D01*
X40069828Y51614646D01*
X39930646Y51753828D01*
X39771405Y51869524D01*
X39771404Y51869525D01*
X39771402Y51869526D01*
X39596025Y51958884D01*
X39408821Y52019711D01*
X39214420Y52050500D01*
X39214417Y52050500D01*
X39017583Y52050500D01*
X39017580Y52050500D01*
X38823178Y52019711D01*
X38635974Y51958884D01*
X38460597Y51869526D01*
X38301355Y51753829D01*
X38162171Y51614645D01*
X38046474Y51455403D01*
X37957114Y51280022D01*
X37957112Y51280019D01*
X37940154Y51227825D01*
X37904190Y51178325D01*
X37845999Y51159418D01*
X37787809Y51178326D01*
X37751846Y51227825D01*
X37734887Y51280019D01*
X37734885Y51280022D01*
X37734884Y51280023D01*
X37734884Y51280025D01*
X37645524Y51455405D01*
X37529828Y51614646D01*
X37390646Y51753828D01*
X37231405Y51869524D01*
X37231404Y51869525D01*
X37231402Y51869526D01*
X37056025Y51958884D01*
X36868821Y52019711D01*
X36674420Y52050500D01*
X36674417Y52050500D01*
X36477583Y52050500D01*
X36477580Y52050500D01*
X36283178Y52019711D01*
X36095974Y51958884D01*
X35920597Y51869526D01*
X35761355Y51753829D01*
X35622171Y51614645D01*
X35506474Y51455403D01*
X35417114Y51280022D01*
X35417112Y51280019D01*
X35400154Y51227825D01*
X35364190Y51178325D01*
X35305999Y51159418D01*
X35247809Y51178326D01*
X35211846Y51227825D01*
X35194887Y51280019D01*
X35194885Y51280022D01*
X35194884Y51280023D01*
X35194884Y51280025D01*
X35105524Y51455405D01*
X34989828Y51614646D01*
X34850646Y51753828D01*
X34691405Y51869524D01*
X34691404Y51869525D01*
X34691402Y51869526D01*
X34516025Y51958884D01*
X34328821Y52019711D01*
X34134420Y52050500D01*
X34134417Y52050500D01*
X33937583Y52050500D01*
X33937580Y52050500D01*
X33743178Y52019711D01*
X33555974Y51958884D01*
X33380597Y51869526D01*
X33221355Y51753829D01*
X33082171Y51614645D01*
X32966474Y51455403D01*
X32877114Y51280022D01*
X32877112Y51280019D01*
X32860154Y51227825D01*
X32824190Y51178325D01*
X32765999Y51159418D01*
X32707809Y51178326D01*
X32671846Y51227825D01*
X32654887Y51280019D01*
X32654885Y51280022D01*
X32654884Y51280023D01*
X32654884Y51280025D01*
X32565524Y51455405D01*
X32449828Y51614646D01*
X32310646Y51753828D01*
X32151405Y51869524D01*
X32151404Y51869525D01*
X32151402Y51869526D01*
X31976025Y51958884D01*
X31788821Y52019711D01*
X31594420Y52050500D01*
X31594417Y52050500D01*
X31397583Y52050500D01*
X31397580Y52050500D01*
X31203178Y52019711D01*
X31015974Y51958884D01*
X30840597Y51869526D01*
X30681355Y51753829D01*
X30542171Y51614645D01*
X30426474Y51455403D01*
X30337114Y51280022D01*
X30337112Y51280019D01*
X30320154Y51227825D01*
X30284190Y51178325D01*
X30225999Y51159418D01*
X30167809Y51178326D01*
X30131846Y51227825D01*
X30114887Y51280019D01*
X30114885Y51280022D01*
X30114884Y51280023D01*
X30114884Y51280025D01*
X30025524Y51455405D01*
X29909828Y51614646D01*
X29770646Y51753828D01*
X29611405Y51869524D01*
X29611404Y51869525D01*
X29611402Y51869526D01*
X29436025Y51958884D01*
X29248821Y52019711D01*
X29054420Y52050500D01*
X29054417Y52050500D01*
X28857583Y52050500D01*
X28857580Y52050500D01*
X28663178Y52019711D01*
X28475974Y51958884D01*
X28300597Y51869526D01*
X28141355Y51753829D01*
X28002171Y51614645D01*
X27886474Y51455403D01*
X27797116Y51280026D01*
X27736289Y51092823D01*
X27732904Y51071446D01*
X27705126Y51016929D01*
X27650609Y50989153D01*
X27590177Y50998725D01*
X27546913Y51041990D01*
X27539223Y51065661D01*
X27538592Y51065509D01*
X27537685Y51069285D01*
X27481749Y51241441D01*
X27399568Y51402731D01*
X27399566Y51402735D01*
X27293175Y51549170D01*
X27165169Y51677176D01*
X27018734Y51783567D01*
X27018730Y51783569D01*
X26857440Y51865750D01*
X26685290Y51921684D01*
X26566000Y51940578D01*
X26566000Y51277446D01*
X26481826Y51300000D01*
X26350174Y51300000D01*
X26266000Y51277446D01*
X26266000Y51940578D01*
X26265999Y51940578D01*
X26146709Y51921684D01*
X25974559Y51865750D01*
X25813269Y51783569D01*
X25813265Y51783567D01*
X25666830Y51677176D01*
X25538824Y51549170D01*
X25432433Y51402735D01*
X25432431Y51402731D01*
X25350250Y51241441D01*
X25294314Y51069285D01*
X25293408Y51065509D01*
X25291836Y51065887D01*
X25266847Y51016898D01*
X25212317Y50989146D01*
X25151890Y50998745D01*
X25108645Y51042030D01*
X25099095Y51071446D01*
X25095709Y51092826D01*
X25034884Y51280025D01*
X24945524Y51455405D01*
X24829828Y51614646D01*
X24690646Y51753828D01*
X24531405Y51869524D01*
X24531404Y51869525D01*
X24531402Y51869526D01*
X24356025Y51958884D01*
X24168821Y52019711D01*
X23974420Y52050500D01*
X23974417Y52050500D01*
X23777583Y52050500D01*
X23777580Y52050500D01*
X23583178Y52019711D01*
X23395974Y51958884D01*
X23220597Y51869526D01*
X23061355Y51753829D01*
X22922171Y51614645D01*
X22806474Y51455403D01*
X22717114Y51280022D01*
X22717112Y51280019D01*
X22700154Y51227825D01*
X22664190Y51178325D01*
X22605999Y51159418D01*
X22547809Y51178326D01*
X22511846Y51227825D01*
X22494887Y51280019D01*
X22494885Y51280022D01*
X22494884Y51280023D01*
X22494884Y51280025D01*
X22405524Y51455405D01*
X22289828Y51614646D01*
X22150646Y51753828D01*
X21991405Y51869524D01*
X21991404Y51869525D01*
X21991402Y51869526D01*
X21816025Y51958884D01*
X21628821Y52019711D01*
X21434420Y52050500D01*
X21434417Y52050500D01*
X21237583Y52050500D01*
X21237580Y52050500D01*
X21043178Y52019711D01*
X20855974Y51958884D01*
X20680597Y51869526D01*
X20521355Y51753829D01*
X20382171Y51614645D01*
X20266473Y51455402D01*
X20266469Y51455395D01*
X20233708Y51391097D01*
X20190444Y51347832D01*
X20130012Y51338261D01*
X20075495Y51366039D01*
X20047718Y51420555D01*
X20046499Y51436042D01*
X20046499Y51681522D01*
X20046498Y51681524D01*
X20031647Y51775300D01*
X20031646Y51775302D01*
X20031646Y51775304D01*
X19974050Y51888342D01*
X19884342Y51978050D01*
X19771304Y52035646D01*
X19771305Y52035646D01*
X19677521Y52050500D01*
X17914478Y52050500D01*
X17914476Y52050499D01*
X17820700Y52035648D01*
X17820695Y52035646D01*
X17707659Y51978051D01*
X17617949Y51888341D01*
X17560354Y51775305D01*
X17545500Y51681522D01*
X17545500Y49918479D01*
X17545501Y49918477D01*
X17560352Y49824701D01*
X17560354Y49824696D01*
X17617950Y49711658D01*
X17707658Y49621950D01*
X17820696Y49564354D01*
X17914481Y49549500D01*
X19677518Y49549501D01*
X19677521Y49549501D01*
X19677522Y49549502D01*
X19724411Y49556928D01*
X19771299Y49564353D01*
X19771299Y49564354D01*
X19771304Y49564354D01*
X19884342Y49621950D01*
X19974050Y49711658D01*
X20031646Y49824696D01*
X20046500Y49918481D01*
X20046499Y50163961D01*
X20065406Y50222148D01*
X20114906Y50258112D01*
X20176091Y50258113D01*
X20225591Y50222149D01*
X20233708Y50208903D01*
X20266469Y50144606D01*
X20266473Y50144599D01*
X20266474Y50144598D01*
X20266476Y50144595D01*
X20382172Y49985354D01*
X20521354Y49846172D01*
X20680595Y49730476D01*
X20855975Y49641116D01*
X21043174Y49580291D01*
X21043175Y49580291D01*
X21043178Y49580290D01*
X21237580Y49549500D01*
X21237583Y49549500D01*
X21434420Y49549500D01*
X21628821Y49580290D01*
X21628822Y49580291D01*
X21628826Y49580291D01*
X21816025Y49641116D01*
X21991405Y49730476D01*
X22150646Y49846172D01*
X22289828Y49985354D01*
X22405524Y50144595D01*
X22494884Y50319975D01*
X22511845Y50372177D01*
X22547809Y50421676D01*
X22606000Y50440583D01*
X22664191Y50421676D01*
X22700155Y50372176D01*
X22717116Y50319975D01*
X22806473Y50144599D01*
X22806476Y50144595D01*
X22922172Y49985354D01*
X23061354Y49846172D01*
X23220595Y49730476D01*
X23395975Y49641116D01*
X23583174Y49580291D01*
X23583175Y49580291D01*
X23583178Y49580290D01*
X23777580Y49549500D01*
X23777583Y49549500D01*
X23974420Y49549500D01*
X24168821Y49580290D01*
X24168822Y49580291D01*
X24168826Y49580291D01*
X24356025Y49641116D01*
X24531405Y49730476D01*
X24690646Y49846172D01*
X24829828Y49985354D01*
X24945524Y50144595D01*
X25034884Y50319975D01*
X25095709Y50507174D01*
X25099095Y50528554D01*
X25126870Y50583068D01*
X25181386Y50610848D01*
X25241818Y50601278D01*
X25285084Y50558015D01*
X25292781Y50534341D01*
X25293408Y50534491D01*
X25294314Y50530716D01*
X25350250Y50358560D01*
X25432431Y50197270D01*
X25432433Y50197266D01*
X25538824Y50050831D01*
X25666830Y49922825D01*
X25813265Y49816434D01*
X25813269Y49816432D01*
X25974559Y49734251D01*
X26146710Y49678317D01*
X26266000Y49659423D01*
X26266000Y50322555D01*
X26350174Y50300000D01*
X26481826Y50300000D01*
X26566000Y50322555D01*
X26566000Y49659424D01*
X26685289Y49678317D01*
X26857440Y49734251D01*
X27018730Y49816432D01*
X27018734Y49816434D01*
X27165169Y49922825D01*
X27293175Y50050831D01*
X27399566Y50197266D01*
X27399568Y50197270D01*
X27481749Y50358560D01*
X27537685Y50530716D01*
X27538592Y50534491D01*
X27540178Y50534111D01*
X27565105Y50583056D01*
X27619616Y50610845D01*
X27680050Y50601286D01*
X27723323Y50558030D01*
X27732904Y50528555D01*
X27736290Y50507178D01*
X27797116Y50319975D01*
X27886473Y50144599D01*
X27886476Y50144595D01*
X28002172Y49985354D01*
X28141354Y49846172D01*
X28300595Y49730476D01*
X28475975Y49641116D01*
X28663174Y49580291D01*
X28663175Y49580291D01*
X28663178Y49580290D01*
X28857580Y49549500D01*
X28857583Y49549500D01*
X29054420Y49549500D01*
X29248821Y49580290D01*
X29248822Y49580291D01*
X29248826Y49580291D01*
X29436025Y49641116D01*
X29611405Y49730476D01*
X29770646Y49846172D01*
X29909828Y49985354D01*
X30025524Y50144595D01*
X30114884Y50319975D01*
X30131845Y50372177D01*
X30167809Y50421676D01*
X30226000Y50440583D01*
X30284191Y50421676D01*
X30320155Y50372176D01*
X30337116Y50319975D01*
X30426473Y50144599D01*
X30426476Y50144595D01*
X30542172Y49985354D01*
X30681354Y49846172D01*
X30840595Y49730476D01*
X31015975Y49641116D01*
X31203174Y49580291D01*
X31203175Y49580291D01*
X31203178Y49580290D01*
X31397580Y49549500D01*
X31397583Y49549500D01*
X31594420Y49549500D01*
X31788821Y49580290D01*
X31788822Y49580291D01*
X31788826Y49580291D01*
X31976025Y49641116D01*
X32151405Y49730476D01*
X32310646Y49846172D01*
X32449828Y49985354D01*
X32565524Y50144595D01*
X32654884Y50319975D01*
X32671845Y50372177D01*
X32707809Y50421676D01*
X32766000Y50440583D01*
X32824191Y50421676D01*
X32860155Y50372176D01*
X32877116Y50319975D01*
X32966473Y50144599D01*
X32966476Y50144595D01*
X33082172Y49985354D01*
X33221354Y49846172D01*
X33380595Y49730476D01*
X33555975Y49641116D01*
X33743174Y49580291D01*
X33743175Y49580291D01*
X33743178Y49580290D01*
X33937580Y49549500D01*
X33937583Y49549500D01*
X34134420Y49549500D01*
X34328821Y49580290D01*
X34328822Y49580291D01*
X34328826Y49580291D01*
X34516025Y49641116D01*
X34691405Y49730476D01*
X34850646Y49846172D01*
X34989828Y49985354D01*
X35105524Y50144595D01*
X35194884Y50319975D01*
X35211845Y50372177D01*
X35247809Y50421676D01*
X35306000Y50440583D01*
X35364191Y50421676D01*
X35400155Y50372176D01*
X35417116Y50319975D01*
X35506473Y50144599D01*
X35506476Y50144595D01*
X35622172Y49985354D01*
X35761354Y49846172D01*
X35920595Y49730476D01*
X36095975Y49641116D01*
X36283174Y49580291D01*
X36283175Y49580291D01*
X36283178Y49580290D01*
X36477580Y49549500D01*
X36477583Y49549500D01*
X36674420Y49549500D01*
X36810568Y49571064D01*
X36863672Y49579475D01*
X36924104Y49569904D01*
X36967369Y49526639D01*
X36976940Y49466207D01*
X36949163Y49411691D01*
X35809492Y48272018D01*
X35737016Y48146485D01*
X35699500Y48006475D01*
X35699500Y46028716D01*
X35680593Y45970525D01*
X35631093Y45934561D01*
X35569907Y45934561D01*
X35520408Y45970525D01*
X35475694Y46032068D01*
X35475692Y46032070D01*
X35475690Y46032073D01*
X35342073Y46165690D01*
X35189199Y46276760D01*
X35189198Y46276761D01*
X35189196Y46276762D01*
X35020832Y46362547D01*
X34841113Y46420942D01*
X34654484Y46450500D01*
X34654481Y46450500D01*
X34465519Y46450500D01*
X34465516Y46450500D01*
X34278886Y46420942D01*
X34099167Y46362547D01*
X33930803Y46276762D01*
X33777928Y46165691D01*
X33644309Y46032072D01*
X33533238Y45879197D01*
X33447453Y45710833D01*
X33389058Y45531114D01*
X33359500Y45344485D01*
X33359500Y45155516D01*
X33389058Y44968887D01*
X33447453Y44789168D01*
X33527291Y44632475D01*
X33533240Y44620801D01*
X33644310Y44467927D01*
X33777927Y44334310D01*
X33930801Y44223240D01*
X34099168Y44137453D01*
X34278882Y44079060D01*
X34278883Y44079060D01*
X34278886Y44079059D01*
X34465516Y44049500D01*
X34465519Y44049500D01*
X34654484Y44049500D01*
X34841113Y44079059D01*
X34841114Y44079060D01*
X34841118Y44079060D01*
X35020832Y44137453D01*
X35189199Y44223240D01*
X35342073Y44334310D01*
X35475690Y44467927D01*
X35520407Y44529476D01*
X35569907Y44565439D01*
X35631092Y44565440D01*
X35680592Y44529476D01*
X35699500Y44471285D01*
X35699500Y40519033D01*
X35697031Y40511436D01*
X35698281Y40503545D01*
X35687757Y40482892D01*
X35680593Y40460842D01*
X35670503Y40449029D01*
X35622166Y40400693D01*
X35571183Y40374710D01*
X35571398Y40373818D01*
X35567686Y40372927D01*
X35567673Y40372920D01*
X35567649Y40372917D01*
X35567649Y40372916D01*
X35567648Y40372917D01*
X35567627Y40372913D01*
X35567622Y40372912D01*
X35399878Y40318409D01*
X35242732Y40238340D01*
X35100044Y40134671D01*
X34975329Y40009956D01*
X34871660Y39867268D01*
X34791592Y39710124D01*
X34737088Y39542380D01*
X34709500Y39368189D01*
X34709500Y38631812D01*
X34737088Y38457621D01*
X34737090Y38457616D01*
X34791592Y38289877D01*
X34871662Y38132730D01*
X34975330Y37990043D01*
X35100043Y37865330D01*
X35242730Y37761662D01*
X35399877Y37681592D01*
X35567616Y37627090D01*
X35567617Y37627090D01*
X35567620Y37627089D01*
X35741812Y37599500D01*
X35741815Y37599500D01*
X35918188Y37599500D01*
X36092379Y37627089D01*
X36092380Y37627090D01*
X36092384Y37627090D01*
X36241269Y37675466D01*
X36302453Y37675466D01*
X36351954Y37639502D01*
X36370861Y37581311D01*
X36363325Y37543426D01*
X36326420Y37454330D01*
X36326420Y37454328D01*
X36299500Y37318996D01*
X36299500Y37181005D01*
X36326420Y37045673D01*
X36326420Y37045671D01*
X36379222Y36918194D01*
X36379228Y36918183D01*
X36455885Y36803459D01*
X36553458Y36705886D01*
X36668182Y36629229D01*
X36668193Y36629223D01*
X36715283Y36609718D01*
X36795672Y36576420D01*
X36931007Y36549500D01*
X36931008Y36549500D01*
X37068992Y36549500D01*
X37068993Y36549500D01*
X37204328Y36576420D01*
X37331811Y36629225D01*
X37446542Y36705886D01*
X37544114Y36803458D01*
X37620775Y36918189D01*
X37673580Y37045672D01*
X37700500Y37181007D01*
X37700500Y37318993D01*
X37673580Y37454328D01*
X37633953Y37549996D01*
X37620777Y37581807D01*
X37620771Y37581818D01*
X37567185Y37662014D01*
X37550500Y37717016D01*
X37550500Y37736089D01*
X37569407Y37794280D01*
X37618907Y37830244D01*
X37680093Y37830244D01*
X37707691Y37816181D01*
X37760995Y37777453D01*
X37782730Y37761662D01*
X37939877Y37681592D01*
X38107616Y37627090D01*
X38107617Y37627090D01*
X38107620Y37627089D01*
X38281812Y37599500D01*
X38281815Y37599500D01*
X38458188Y37599500D01*
X38632379Y37627089D01*
X38632380Y37627090D01*
X38632384Y37627090D01*
X38800123Y37681592D01*
X38957270Y37761662D01*
X39099957Y37865330D01*
X39224670Y37990043D01*
X39328338Y38132730D01*
X39408408Y38289877D01*
X39462910Y38457616D01*
X39462911Y38457621D01*
X39490500Y38631812D01*
X39490500Y39300969D01*
X39509407Y39359160D01*
X39519490Y39370966D01*
X39625389Y39476865D01*
X39679903Y39504641D01*
X39740335Y39495070D01*
X39783599Y39451805D01*
X39793172Y39391377D01*
X39789500Y39368187D01*
X39789500Y38631812D01*
X39817088Y38457621D01*
X39817090Y38457616D01*
X39871592Y38289877D01*
X39951662Y38132730D01*
X40055330Y37990043D01*
X40180043Y37865330D01*
X40322730Y37761662D01*
X40479877Y37681592D01*
X40647616Y37627090D01*
X40647617Y37627090D01*
X40647620Y37627089D01*
X40821812Y37599500D01*
X40821815Y37599500D01*
X40998188Y37599500D01*
X41172379Y37627089D01*
X41172380Y37627090D01*
X41172384Y37627090D01*
X41340123Y37681592D01*
X41497270Y37761662D01*
X41639957Y37865330D01*
X41764670Y37990043D01*
X41868338Y38132730D01*
X41948408Y38289877D01*
X42002910Y38457616D01*
X42002911Y38457621D01*
X42030500Y38631812D01*
X42030500Y39368189D01*
X42002911Y39542380D01*
X42002850Y39542569D01*
X41948408Y39710123D01*
X41868338Y39867270D01*
X41764670Y40009957D01*
X41639957Y40134670D01*
X41639953Y40134673D01*
X41639951Y40134675D01*
X41501309Y40235405D01*
X41465345Y40284905D01*
X41460500Y40315497D01*
X41460500Y44890968D01*
X41479407Y44949159D01*
X41489490Y44960966D01*
X42751162Y46222638D01*
X42805678Y46250414D01*
X42866110Y46240843D01*
X42909375Y46197578D01*
X42918946Y46137146D01*
X42916792Y46127010D01*
X42899500Y46062475D01*
X42899500Y40315497D01*
X42880593Y40257306D01*
X42858691Y40235405D01*
X42720048Y40134675D01*
X42595329Y40009956D01*
X42491660Y39867268D01*
X42411592Y39710124D01*
X42357088Y39542380D01*
X42329500Y39368189D01*
X42329500Y38631812D01*
X42357088Y38457621D01*
X42357090Y38457616D01*
X42411592Y38289877D01*
X42491662Y38132730D01*
X42595330Y37990043D01*
X42720043Y37865330D01*
X42862730Y37761662D01*
X43019877Y37681592D01*
X43187616Y37627090D01*
X43187617Y37627090D01*
X43187620Y37627089D01*
X43361812Y37599500D01*
X43361815Y37599500D01*
X43538188Y37599500D01*
X43712379Y37627089D01*
X43712380Y37627090D01*
X43712384Y37627090D01*
X43880123Y37681592D01*
X44037270Y37761662D01*
X44179957Y37865330D01*
X44304670Y37990043D01*
X44408338Y38132730D01*
X44488408Y38289877D01*
X44542910Y38457616D01*
X44542911Y38457621D01*
X44570500Y38631812D01*
X44570500Y39368189D01*
X44542911Y39542380D01*
X44542850Y39542569D01*
X44488408Y39710123D01*
X44408338Y39867270D01*
X44304670Y40009957D01*
X44179957Y40134670D01*
X44179953Y40134673D01*
X44179951Y40134675D01*
X44041309Y40235405D01*
X44005345Y40284905D01*
X44000500Y40315497D01*
X44000500Y45720968D01*
X44019407Y45779159D01*
X44029490Y45790966D01*
X47812302Y49573779D01*
X47866817Y49601554D01*
X47912897Y49597927D01*
X47934068Y49591048D01*
X47967174Y49580291D01*
X47967175Y49580291D01*
X47967177Y49580290D01*
X48161580Y49549500D01*
X48161583Y49549500D01*
X48358420Y49549500D01*
X48494568Y49571064D01*
X48547672Y49579475D01*
X48608104Y49569904D01*
X48651369Y49526639D01*
X48660940Y49466207D01*
X48633163Y49411691D01*
X48633163Y49411690D01*
X46809490Y47588015D01*
X46754918Y47493491D01*
X46754917Y47493490D01*
X46737017Y47462488D01*
X46737016Y47462486D01*
X46737016Y47462485D01*
X46721450Y47404394D01*
X46699500Y47322475D01*
X46699500Y46028716D01*
X46680593Y45970525D01*
X46631093Y45934561D01*
X46569907Y45934561D01*
X46520408Y45970525D01*
X46475694Y46032068D01*
X46475692Y46032070D01*
X46475690Y46032073D01*
X46342073Y46165690D01*
X46189199Y46276760D01*
X46189198Y46276761D01*
X46189196Y46276762D01*
X46020832Y46362547D01*
X45841113Y46420942D01*
X45654484Y46450500D01*
X45654481Y46450500D01*
X45465519Y46450500D01*
X45465516Y46450500D01*
X45278886Y46420942D01*
X45099167Y46362547D01*
X44930803Y46276762D01*
X44777928Y46165691D01*
X44644309Y46032072D01*
X44533238Y45879197D01*
X44447453Y45710833D01*
X44389058Y45531114D01*
X44359500Y45344485D01*
X44359500Y45155516D01*
X44389058Y44968887D01*
X44447453Y44789168D01*
X44527291Y44632475D01*
X44533240Y44620801D01*
X44644310Y44467927D01*
X44777927Y44334310D01*
X44930801Y44223240D01*
X45099168Y44137453D01*
X45278882Y44079060D01*
X45278883Y44079060D01*
X45278886Y44079059D01*
X45465516Y44049500D01*
X45465519Y44049500D01*
X45654484Y44049500D01*
X45841113Y44079059D01*
X45841114Y44079060D01*
X45841118Y44079060D01*
X46020832Y44137453D01*
X46189199Y44223240D01*
X46342073Y44334310D01*
X46475690Y44467927D01*
X46520407Y44529476D01*
X46569907Y44565439D01*
X46631092Y44565440D01*
X46680592Y44529476D01*
X46699500Y44471285D01*
X46699500Y40529033D01*
X46697031Y40521436D01*
X46698281Y40513546D01*
X46687757Y40492893D01*
X46680593Y40470842D01*
X46670503Y40459029D01*
X46543694Y40332221D01*
X46489178Y40304444D01*
X46428750Y40314013D01*
X46420124Y40318408D01*
X46252379Y40372912D01*
X46078188Y40400500D01*
X46078185Y40400500D01*
X45901815Y40400500D01*
X45901812Y40400500D01*
X45727620Y40372912D01*
X45559876Y40318408D01*
X45402732Y40238340D01*
X45260044Y40134671D01*
X45135329Y40009956D01*
X45031660Y39867268D01*
X44951592Y39710124D01*
X44897088Y39542380D01*
X44869500Y39368189D01*
X44869500Y38631812D01*
X44897088Y38457621D01*
X44897090Y38457616D01*
X44951592Y38289877D01*
X45031662Y38132730D01*
X45135330Y37990043D01*
X45260043Y37865330D01*
X45402730Y37761662D01*
X45559877Y37681592D01*
X45727616Y37627090D01*
X45727617Y37627090D01*
X45727620Y37627089D01*
X45901812Y37599500D01*
X45901815Y37599500D01*
X46078188Y37599500D01*
X46252379Y37627089D01*
X46252380Y37627090D01*
X46252384Y37627090D01*
X46420123Y37681592D01*
X46577270Y37761662D01*
X46719957Y37865330D01*
X46844670Y37990043D01*
X46948338Y38132730D01*
X47028408Y38289877D01*
X47082910Y38457616D01*
X47082911Y38457621D01*
X47110500Y38631812D01*
X47110500Y39300968D01*
X47129407Y39359159D01*
X47139490Y39370966D01*
X47690510Y39921985D01*
X47762984Y40047515D01*
X47786337Y40134670D01*
X47800500Y40187525D01*
X47800500Y46980968D01*
X47819407Y47039159D01*
X47829490Y47050966D01*
X50352302Y49573779D01*
X50406817Y49601554D01*
X50452897Y49597927D01*
X50474068Y49591048D01*
X50507174Y49580291D01*
X50507175Y49580291D01*
X50507177Y49580290D01*
X50701580Y49549500D01*
X50701583Y49549500D01*
X50898420Y49549500D01*
X51034568Y49571064D01*
X51087672Y49579475D01*
X51148104Y49569904D01*
X51191369Y49526639D01*
X51200940Y49466207D01*
X51173163Y49411691D01*
X51173163Y49411690D01*
X48309490Y46548015D01*
X48241651Y46430512D01*
X48241649Y46430509D01*
X48237017Y46422487D01*
X48237016Y46422485D01*
X48199500Y46282475D01*
X48199500Y29329034D01*
X48180593Y29270843D01*
X48170504Y29259030D01*
X44003694Y25092221D01*
X43949177Y25064444D01*
X43888746Y25074015D01*
X43880126Y25078407D01*
X43712379Y25132912D01*
X43538188Y25160500D01*
X43538185Y25160500D01*
X43361815Y25160500D01*
X43361812Y25160500D01*
X43187620Y25132912D01*
X43019873Y25078407D01*
X42924952Y25030043D01*
X42864520Y25020472D01*
X42810004Y25048250D01*
X42784382Y25092628D01*
X42762984Y25172485D01*
X42690510Y25298015D01*
X30553138Y37435387D01*
X30525361Y37489904D01*
X30534932Y37550336D01*
X30578197Y37593601D01*
X30638629Y37603172D01*
X30638630Y37603172D01*
X30661813Y37599500D01*
X30661815Y37599500D01*
X30838188Y37599500D01*
X31012379Y37627089D01*
X31012380Y37627090D01*
X31012384Y37627090D01*
X31180123Y37681592D01*
X31337270Y37761662D01*
X31479957Y37865330D01*
X31604670Y37990043D01*
X31708338Y38132730D01*
X31788408Y38289877D01*
X31842910Y38457616D01*
X31842911Y38457621D01*
X31870500Y38631812D01*
X31870500Y39368189D01*
X32169500Y39368189D01*
X32169500Y38631812D01*
X32197088Y38457621D01*
X32197090Y38457616D01*
X32251592Y38289877D01*
X32331662Y38132730D01*
X32435330Y37990043D01*
X32560043Y37865330D01*
X32702730Y37761662D01*
X32859877Y37681592D01*
X33027616Y37627090D01*
X33027617Y37627090D01*
X33027620Y37627089D01*
X33201812Y37599500D01*
X33201815Y37599500D01*
X33378188Y37599500D01*
X33552379Y37627089D01*
X33552380Y37627090D01*
X33552384Y37627090D01*
X33720123Y37681592D01*
X33877270Y37761662D01*
X34019957Y37865330D01*
X34144670Y37990043D01*
X34248338Y38132730D01*
X34328408Y38289877D01*
X34382910Y38457616D01*
X34382911Y38457621D01*
X34410500Y38631812D01*
X34410500Y39368189D01*
X34382911Y39542380D01*
X34382850Y39542569D01*
X34328408Y39710123D01*
X34248338Y39867270D01*
X34144670Y40009957D01*
X34019957Y40134670D01*
X33877270Y40238338D01*
X33877269Y40238339D01*
X33877267Y40238340D01*
X33720123Y40318408D01*
X33552379Y40372912D01*
X33378188Y40400500D01*
X33378185Y40400500D01*
X33201815Y40400500D01*
X33201812Y40400500D01*
X33027620Y40372912D01*
X32859876Y40318408D01*
X32702732Y40238340D01*
X32560044Y40134671D01*
X32435329Y40009956D01*
X32331660Y39867268D01*
X32251592Y39710124D01*
X32197088Y39542380D01*
X32169500Y39368189D01*
X31870500Y39368189D01*
X31842911Y39542380D01*
X31842850Y39542569D01*
X31788408Y39710123D01*
X31708338Y39867270D01*
X31604670Y40009957D01*
X31479957Y40134670D01*
X31337270Y40238338D01*
X31337269Y40238339D01*
X31337267Y40238340D01*
X31180123Y40318408D01*
X31012379Y40372912D01*
X30838188Y40400500D01*
X30838185Y40400500D01*
X30661815Y40400500D01*
X30661812Y40400500D01*
X30487620Y40372912D01*
X30319876Y40318408D01*
X30162732Y40238340D01*
X30020044Y40134671D01*
X29895329Y40009956D01*
X29791660Y39867268D01*
X29711592Y39710124D01*
X29657088Y39542380D01*
X29629500Y39368189D01*
X29629500Y39368187D01*
X29629500Y39368185D01*
X29629500Y38631815D01*
X29629941Y38629029D01*
X29633172Y38608628D01*
X29623599Y38548196D01*
X29580333Y38504932D01*
X29519901Y38495362D01*
X29465386Y38523139D01*
X29359496Y38629029D01*
X29331719Y38683546D01*
X29330500Y38699033D01*
X29330500Y39368189D01*
X29302911Y39542380D01*
X29302850Y39542569D01*
X29248408Y39710123D01*
X29168338Y39867270D01*
X29064670Y40009957D01*
X28939957Y40134670D01*
X28912310Y40154757D01*
X28841308Y40206344D01*
X28805345Y40255844D01*
X28800500Y40286436D01*
X28800500Y44012475D01*
X28783889Y44074467D01*
X28762984Y44152485D01*
X28690510Y44278015D01*
X28126543Y44841982D01*
X28098766Y44896499D01*
X28102392Y44942578D01*
X28110940Y44968882D01*
X28140500Y45155519D01*
X28140500Y45344481D01*
X28140500Y45344485D01*
X28110941Y45531114D01*
X28098280Y45570080D01*
X28052547Y45710832D01*
X27966760Y45879199D01*
X27855690Y46032073D01*
X27722073Y46165690D01*
X27569199Y46276760D01*
X27569198Y46276761D01*
X27569196Y46276762D01*
X27400832Y46362547D01*
X27221113Y46420942D01*
X27034484Y46450500D01*
X27034481Y46450500D01*
X26845519Y46450500D01*
X26845516Y46450500D01*
X26658886Y46420942D01*
X26479167Y46362547D01*
X26310803Y46276762D01*
X26157928Y46165691D01*
X26024309Y46032072D01*
X25913238Y45879197D01*
X25827453Y45710833D01*
X25769058Y45531114D01*
X25739500Y45344485D01*
X25739500Y45155516D01*
X25769058Y44968887D01*
X25827453Y44789168D01*
X25907291Y44632475D01*
X25913240Y44620801D01*
X26024310Y44467927D01*
X26157927Y44334310D01*
X26310801Y44223240D01*
X26479168Y44137453D01*
X26658882Y44079060D01*
X26658883Y44079060D01*
X26658886Y44079059D01*
X26845516Y44049500D01*
X26845519Y44049500D01*
X27034484Y44049500D01*
X27186371Y44073557D01*
X27221118Y44079060D01*
X27247421Y44087608D01*
X27308605Y44087608D01*
X27348018Y44063457D01*
X27670504Y43740971D01*
X27698281Y43686454D01*
X27699500Y43670967D01*
X27699500Y40338122D01*
X27680593Y40279931D01*
X27645448Y40249914D01*
X27622730Y40238338D01*
X27480044Y40134671D01*
X27355329Y40009956D01*
X27251660Y39867268D01*
X27171592Y39710124D01*
X27117088Y39542380D01*
X27089500Y39368189D01*
X27089500Y38631812D01*
X27117088Y38457621D01*
X27117090Y38457616D01*
X27171592Y38289877D01*
X27251662Y38132730D01*
X27355330Y37990043D01*
X27480043Y37865330D01*
X27622730Y37761662D01*
X27779877Y37681592D01*
X27947616Y37627090D01*
X27947617Y37627090D01*
X27947620Y37627089D01*
X28121812Y37599500D01*
X28121815Y37599500D01*
X28298188Y37599500D01*
X28472385Y37627090D01*
X28516011Y37641266D01*
X28640123Y37681592D01*
X28648742Y37685984D01*
X28709168Y37695560D01*
X28763687Y37667787D01*
X28763694Y37667781D01*
X41106861Y25324614D01*
X41134638Y25270097D01*
X41125067Y25209665D01*
X41081802Y25166400D01*
X41021372Y25156828D01*
X41004699Y25159469D01*
X40998185Y25160500D01*
X40821815Y25160500D01*
X40821812Y25160500D01*
X40647620Y25132912D01*
X40479876Y25078408D01*
X40322732Y24998340D01*
X40180044Y24894671D01*
X40055329Y24769956D01*
X39951660Y24627268D01*
X39871592Y24470124D01*
X39817088Y24302380D01*
X39789500Y24128189D01*
X39789500Y23391812D01*
X39817088Y23217621D01*
X39844557Y23133082D01*
X39871592Y23049877D01*
X39951662Y22892730D01*
X40055330Y22750043D01*
X40180043Y22625330D01*
X40322730Y22521662D01*
X40479877Y22441592D01*
X40647616Y22387090D01*
X40647617Y22387090D01*
X40647620Y22387089D01*
X40821812Y22359500D01*
X40821815Y22359500D01*
X40998188Y22359500D01*
X41172379Y22387089D01*
X41172380Y22387090D01*
X41172384Y22387090D01*
X41340123Y22441592D01*
X41497270Y22521662D01*
X41542310Y22554386D01*
X41600499Y22573293D01*
X41658690Y22554386D01*
X41694654Y22504887D01*
X41699500Y22474293D01*
X41699500Y8502492D01*
X41680593Y8444301D01*
X41631093Y8408337D01*
X41569908Y8408337D01*
X41531115Y8420941D01*
X41344484Y8450500D01*
X41344481Y8450500D01*
X41155519Y8450500D01*
X41155516Y8450500D01*
X40968886Y8420942D01*
X40789167Y8362547D01*
X40620803Y8276762D01*
X40467928Y8165691D01*
X40334309Y8032072D01*
X40223238Y7879197D01*
X40137453Y7710833D01*
X40079058Y7531114D01*
X40049500Y7344485D01*
X40049500Y7155516D01*
X40079058Y6968887D01*
X40108830Y6877259D01*
X40137453Y6789168D01*
X40223240Y6620801D01*
X40334310Y6467927D01*
X40467927Y6334310D01*
X40620801Y6223240D01*
X40789168Y6137453D01*
X40968882Y6079060D01*
X40968883Y6079060D01*
X40968886Y6079059D01*
X41155516Y6049500D01*
X41155519Y6049500D01*
X41344484Y6049500D01*
X41531113Y6079059D01*
X41531114Y6079060D01*
X41531118Y6079060D01*
X41710832Y6137453D01*
X41879199Y6223240D01*
X42032073Y6334310D01*
X42165690Y6467927D01*
X42276760Y6620801D01*
X42362547Y6789168D01*
X42420940Y6968882D01*
X42424668Y6992421D01*
X42450500Y7155516D01*
X42450500Y7281967D01*
X42469407Y7340158D01*
X42518907Y7376122D01*
X42580093Y7376122D01*
X42619504Y7351971D01*
X46033755Y3937720D01*
X46061532Y3883203D01*
X46051961Y3822771D01*
X46008696Y3779506D01*
X45948264Y3769935D01*
X45818420Y3790500D01*
X45818417Y3790500D01*
X45621583Y3790500D01*
X45621580Y3790500D01*
X45427178Y3759711D01*
X45239974Y3698884D01*
X45064597Y3609526D01*
X44905355Y3493829D01*
X44766171Y3354645D01*
X44650474Y3195403D01*
X44561116Y3020026D01*
X44500289Y2832823D01*
X44496904Y2811446D01*
X44469126Y2756929D01*
X44414609Y2729153D01*
X44354177Y2738725D01*
X44310913Y2781990D01*
X44303223Y2805661D01*
X44302592Y2805509D01*
X44301685Y2809285D01*
X44245749Y2981441D01*
X44163568Y3142731D01*
X44163566Y3142735D01*
X44057175Y3289170D01*
X43929169Y3417176D01*
X43782734Y3523567D01*
X43782730Y3523569D01*
X43621440Y3605750D01*
X43449290Y3661684D01*
X43330000Y3680578D01*
X43330000Y3017446D01*
X43245826Y3040000D01*
X43114174Y3040000D01*
X43030000Y3017446D01*
X43030000Y3680578D01*
X43029999Y3680578D01*
X42910709Y3661684D01*
X42738559Y3605750D01*
X42577269Y3523569D01*
X42577265Y3523567D01*
X42430830Y3417176D01*
X42302824Y3289170D01*
X42196433Y3142735D01*
X42196431Y3142731D01*
X42114250Y2981441D01*
X42058316Y2809290D01*
X42039423Y2690000D01*
X42702555Y2690000D01*
X42680000Y2605826D01*
X42680000Y2474174D01*
X42702555Y2390000D01*
X42039423Y2390000D01*
X42058316Y2270711D01*
X42114250Y2098560D01*
X42196431Y1937270D01*
X42196433Y1937266D01*
X42302824Y1790831D01*
X42430830Y1662825D01*
X42577265Y1556434D01*
X42577269Y1556432D01*
X42712144Y1487710D01*
X42755409Y1444445D01*
X42764980Y1384013D01*
X42737203Y1329497D01*
X42682686Y1301719D01*
X42667199Y1300500D01*
X41152801Y1300500D01*
X41094610Y1319407D01*
X41058646Y1368907D01*
X41058646Y1430093D01*
X41094610Y1479593D01*
X41107856Y1487710D01*
X41242730Y1556432D01*
X41242734Y1556434D01*
X41389169Y1662825D01*
X41517175Y1790831D01*
X41623566Y1937266D01*
X41623568Y1937270D01*
X41705749Y2098560D01*
X41761683Y2270711D01*
X41780577Y2390000D01*
X41117445Y2390000D01*
X41140000Y2474174D01*
X41140000Y2605826D01*
X41117445Y2690000D01*
X41780577Y2690000D01*
X41761683Y2809290D01*
X41705749Y2981441D01*
X41623568Y3142731D01*
X41623566Y3142735D01*
X41517175Y3289170D01*
X41389169Y3417176D01*
X41242734Y3523567D01*
X41242730Y3523569D01*
X41081440Y3605750D01*
X40909290Y3661684D01*
X40790000Y3680578D01*
X40790000Y3017446D01*
X40705826Y3040000D01*
X40574174Y3040000D01*
X40490000Y3017446D01*
X40490000Y3680578D01*
X40489999Y3680578D01*
X40370709Y3661684D01*
X40198559Y3605750D01*
X40037269Y3523569D01*
X40037265Y3523567D01*
X39890830Y3417176D01*
X39762824Y3289170D01*
X39656433Y3142735D01*
X39656431Y3142731D01*
X39574250Y2981441D01*
X39518314Y2809285D01*
X39517408Y2805509D01*
X39515836Y2805887D01*
X39490847Y2756898D01*
X39436317Y2729146D01*
X39375890Y2738745D01*
X39332645Y2782030D01*
X39323095Y2811446D01*
X39319709Y2832826D01*
X39258884Y3020025D01*
X39169524Y3195405D01*
X39053828Y3354646D01*
X38914646Y3493828D01*
X38755405Y3609524D01*
X38755404Y3609525D01*
X38755402Y3609526D01*
X38580025Y3698884D01*
X38392821Y3759711D01*
X38198420Y3790500D01*
X38198417Y3790500D01*
X38001583Y3790500D01*
X38001580Y3790500D01*
X37807178Y3759711D01*
X37619974Y3698884D01*
X37444597Y3609526D01*
X37285355Y3493829D01*
X37146171Y3354645D01*
X37030474Y3195403D01*
X36941114Y3020022D01*
X36941112Y3020019D01*
X36924154Y2967825D01*
X36888190Y2918325D01*
X36829999Y2899418D01*
X36771809Y2918326D01*
X36735846Y2967825D01*
X36718887Y3020019D01*
X36718885Y3020022D01*
X36718884Y3020023D01*
X36718884Y3020025D01*
X36629524Y3195405D01*
X36513828Y3354646D01*
X36374646Y3493828D01*
X36215405Y3609524D01*
X36215404Y3609525D01*
X36215402Y3609526D01*
X36040025Y3698884D01*
X35852821Y3759711D01*
X35658420Y3790500D01*
X35658417Y3790500D01*
X35461583Y3790500D01*
X35461580Y3790500D01*
X35267178Y3759711D01*
X35079974Y3698884D01*
X34904597Y3609526D01*
X34745355Y3493829D01*
X34606171Y3354645D01*
X34490474Y3195403D01*
X34401114Y3020022D01*
X34401112Y3020019D01*
X34384154Y2967825D01*
X34348190Y2918325D01*
X34289999Y2899418D01*
X34231809Y2918326D01*
X34195846Y2967825D01*
X34178887Y3020019D01*
X34178885Y3020022D01*
X34178884Y3020023D01*
X34178884Y3020025D01*
X34089524Y3195405D01*
X33973828Y3354646D01*
X33834646Y3493828D01*
X33675405Y3609524D01*
X33675404Y3609525D01*
X33675402Y3609526D01*
X33500025Y3698884D01*
X33312821Y3759711D01*
X33118420Y3790500D01*
X33118417Y3790500D01*
X32921583Y3790500D01*
X32921580Y3790500D01*
X32727178Y3759711D01*
X32539974Y3698884D01*
X32364597Y3609526D01*
X32205355Y3493829D01*
X32066171Y3354645D01*
X31950474Y3195403D01*
X31861114Y3020022D01*
X31861112Y3020019D01*
X31844154Y2967825D01*
X31808190Y2918325D01*
X31749999Y2899418D01*
X31691809Y2918326D01*
X31655846Y2967825D01*
X31638887Y3020019D01*
X31638885Y3020022D01*
X31638884Y3020023D01*
X31638884Y3020025D01*
X31549524Y3195405D01*
X31433828Y3354646D01*
X31294646Y3493828D01*
X31135405Y3609524D01*
X31135404Y3609525D01*
X31135402Y3609526D01*
X30960025Y3698884D01*
X30772821Y3759711D01*
X30578420Y3790500D01*
X30578417Y3790500D01*
X30381583Y3790500D01*
X30381580Y3790500D01*
X30187178Y3759711D01*
X29999974Y3698884D01*
X29824597Y3609526D01*
X29665355Y3493829D01*
X29526171Y3354645D01*
X29410473Y3195402D01*
X29410469Y3195395D01*
X29377708Y3131097D01*
X29334444Y3087832D01*
X29274012Y3078261D01*
X29219495Y3106039D01*
X29191718Y3160555D01*
X29190499Y3176042D01*
X29190499Y3421522D01*
X29190498Y3421524D01*
X29175647Y3515300D01*
X29175646Y3515302D01*
X29175646Y3515304D01*
X29118050Y3628342D01*
X29028342Y3718050D01*
X28915304Y3775646D01*
X28915305Y3775646D01*
X28821521Y3790500D01*
X27058478Y3790500D01*
X27058476Y3790499D01*
X26964700Y3775648D01*
X26964695Y3775646D01*
X26851659Y3718051D01*
X26761949Y3628341D01*
X26704354Y3515305D01*
X26689500Y3421522D01*
X26689500Y1828033D01*
X26670593Y1769842D01*
X26621093Y1733878D01*
X26559907Y1733878D01*
X26520496Y1758029D01*
X25769496Y2509029D01*
X25741719Y2563546D01*
X25740500Y2579033D01*
X25740500Y5662474D01*
X25759407Y5720665D01*
X25794555Y5750684D01*
X25819199Y5763240D01*
X25972073Y5874310D01*
X26105690Y6007927D01*
X26216760Y6160801D01*
X26302547Y6329168D01*
X26360940Y6508882D01*
X26360941Y6508887D01*
X26362219Y6516954D01*
X26389996Y6571471D01*
X26444512Y6599249D01*
X26504944Y6589678D01*
X26548209Y6546414D01*
X26557781Y6516954D01*
X26559058Y6508887D01*
X26617453Y6329168D01*
X26694942Y6177085D01*
X26703240Y6160801D01*
X26814310Y6007927D01*
X26947927Y5874310D01*
X27100801Y5763240D01*
X27269168Y5677453D01*
X27448882Y5619060D01*
X27448883Y5619060D01*
X27448886Y5619059D01*
X27635516Y5589500D01*
X27635519Y5589500D01*
X27824484Y5589500D01*
X28011113Y5619059D01*
X28011114Y5619060D01*
X28011118Y5619060D01*
X28190832Y5677453D01*
X28359199Y5763240D01*
X28512073Y5874310D01*
X28645690Y6007927D01*
X28756760Y6160801D01*
X28842547Y6329168D01*
X28900940Y6508882D01*
X28900941Y6508887D01*
X28930500Y6695516D01*
X28930500Y7676576D01*
X29170000Y7676576D01*
X29170000Y7340001D01*
X29170001Y7340000D01*
X29896082Y7340000D01*
X29870000Y7242661D01*
X29870000Y7137339D01*
X29896082Y7040000D01*
X29170001Y7040000D01*
X29170000Y7039999D01*
X29170000Y6703425D01*
X29197084Y6532421D01*
X29250588Y6367752D01*
X29329195Y6213476D01*
X29329197Y6213472D01*
X29430962Y6073404D01*
X29553403Y5950963D01*
X29693471Y5849198D01*
X29693475Y5849196D01*
X29847751Y5770589D01*
X30012419Y5717086D01*
X30119999Y5700047D01*
X30120000Y5700048D01*
X30120000Y6816082D01*
X30217339Y6790000D01*
X30322661Y6790000D01*
X30420000Y6816082D01*
X30420000Y5700047D01*
X30527580Y5717086D01*
X30692248Y5770589D01*
X30846524Y5849196D01*
X30846528Y5849198D01*
X30986596Y5950963D01*
X31109037Y6073404D01*
X31210802Y6213472D01*
X31210804Y6213476D01*
X31289411Y6367752D01*
X31342915Y6532421D01*
X31370000Y6703425D01*
X31370000Y7039999D01*
X31369999Y7040000D01*
X30643918Y7040000D01*
X30670000Y7137339D01*
X30670000Y7242661D01*
X30643918Y7340000D01*
X31369999Y7340000D01*
X31370000Y7340001D01*
X31370000Y7676576D01*
X31342915Y7847580D01*
X31289411Y8012249D01*
X31210804Y8166525D01*
X31210802Y8166529D01*
X31109037Y8306597D01*
X30986596Y8429038D01*
X30846528Y8530803D01*
X30846524Y8530805D01*
X30692248Y8609412D01*
X30527579Y8662916D01*
X30420000Y8679955D01*
X30420000Y7563919D01*
X30322661Y7590000D01*
X30217339Y7590000D01*
X30120000Y7563919D01*
X30120000Y8679954D01*
X30119999Y8679955D01*
X30012420Y8662916D01*
X29847751Y8609412D01*
X29693475Y8530805D01*
X29693471Y8530803D01*
X29553403Y8429038D01*
X29430962Y8306597D01*
X29329197Y8166529D01*
X29329195Y8166525D01*
X29250588Y8012249D01*
X29197084Y7847580D01*
X29170000Y7676576D01*
X28930500Y7676576D01*
X28930500Y7684485D01*
X28900941Y7871114D01*
X28855083Y8012249D01*
X28842547Y8050832D01*
X28756760Y8219199D01*
X28645690Y8372073D01*
X28512073Y8505690D01*
X28359199Y8616760D01*
X28359198Y8616761D01*
X28359196Y8616762D01*
X28190832Y8702547D01*
X28011113Y8760942D01*
X27824484Y8790500D01*
X27824481Y8790500D01*
X27635519Y8790500D01*
X27635516Y8790500D01*
X27448886Y8760942D01*
X27269167Y8702547D01*
X27100803Y8616762D01*
X26947928Y8505691D01*
X26814309Y8372072D01*
X26703238Y8219197D01*
X26617453Y8050833D01*
X26559058Y7871114D01*
X26557781Y7863046D01*
X26530004Y7808529D01*
X26475487Y7780752D01*
X26415055Y7790323D01*
X26371790Y7833588D01*
X26362219Y7863046D01*
X26360941Y7871114D01*
X26315083Y8012249D01*
X26302547Y8050832D01*
X26216760Y8219199D01*
X26105690Y8372073D01*
X25972073Y8505690D01*
X25819199Y8616760D01*
X25819198Y8616761D01*
X25819196Y8616762D01*
X25650832Y8702547D01*
X25471113Y8760942D01*
X25284484Y8790500D01*
X25284481Y8790500D01*
X25095519Y8790500D01*
X25095516Y8790500D01*
X24908886Y8760942D01*
X24729167Y8702547D01*
X24560803Y8616762D01*
X24407928Y8505691D01*
X24274309Y8372072D01*
X24163238Y8219197D01*
X24077453Y8050833D01*
X24019058Y7871114D01*
X24017781Y7863046D01*
X23990004Y7808529D01*
X23935487Y7780752D01*
X23875055Y7790323D01*
X23831790Y7833588D01*
X23822219Y7863046D01*
X23820941Y7871114D01*
X23775083Y8012249D01*
X23762547Y8050832D01*
X23676760Y8219199D01*
X23565690Y8372073D01*
X23432073Y8505690D01*
X23279199Y8616760D01*
X23279198Y8616761D01*
X23279196Y8616762D01*
X23110832Y8702547D01*
X22931113Y8760942D01*
X22744484Y8790500D01*
X22744481Y8790500D01*
X22555519Y8790500D01*
X22555516Y8790500D01*
X22368886Y8760942D01*
X22189167Y8702547D01*
X22020803Y8616762D01*
X21867928Y8505691D01*
X21734309Y8372072D01*
X21623238Y8219197D01*
X21537453Y8050833D01*
X21479058Y7871114D01*
X21477781Y7863046D01*
X21450004Y7808529D01*
X21395487Y7780752D01*
X21335055Y7790323D01*
X21291790Y7833588D01*
X21282219Y7863046D01*
X21280941Y7871114D01*
X21235083Y8012249D01*
X21222547Y8050832D01*
X21136760Y8219199D01*
X21025690Y8372073D01*
X20892073Y8505690D01*
X20739199Y8616760D01*
X20739198Y8616761D01*
X20739196Y8616762D01*
X20570832Y8702547D01*
X20391113Y8760942D01*
X20204484Y8790500D01*
X20204481Y8790500D01*
X20015519Y8790500D01*
X20015516Y8790500D01*
X19828886Y8760942D01*
X19649167Y8702547D01*
X19480803Y8616762D01*
X19327928Y8505691D01*
X19194309Y8372072D01*
X19083238Y8219197D01*
X18997453Y8050833D01*
X18939058Y7871114D01*
X18909500Y7684485D01*
X18909500Y6695516D01*
X18939058Y6508887D01*
X18997453Y6329168D01*
X19074942Y6177085D01*
X19083240Y6160801D01*
X19194310Y6007927D01*
X19327927Y5874310D01*
X19480801Y5763240D01*
X19649168Y5677453D01*
X19828882Y5619060D01*
X19828883Y5619060D01*
X19828886Y5619059D01*
X20015516Y5589500D01*
X20015519Y5589500D01*
X20204484Y5589500D01*
X20391113Y5619059D01*
X20391114Y5619060D01*
X20391118Y5619060D01*
X20570832Y5677453D01*
X20739199Y5763240D01*
X20892073Y5874310D01*
X21025690Y6007927D01*
X21136760Y6160801D01*
X21222547Y6329168D01*
X21280940Y6508882D01*
X21280941Y6508887D01*
X21282219Y6516954D01*
X21309996Y6571471D01*
X21364512Y6599249D01*
X21424944Y6589678D01*
X21468209Y6546414D01*
X21477781Y6516954D01*
X21479058Y6508887D01*
X21537453Y6329168D01*
X21614942Y6177085D01*
X21623240Y6160801D01*
X21734310Y6007927D01*
X21867927Y5874310D01*
X22020801Y5763240D01*
X22189168Y5677453D01*
X22368882Y5619060D01*
X22368883Y5619060D01*
X22368886Y5619059D01*
X22555516Y5589500D01*
X22555519Y5589500D01*
X22744484Y5589500D01*
X22931113Y5619059D01*
X22931114Y5619060D01*
X22931118Y5619060D01*
X23110832Y5677453D01*
X23279199Y5763240D01*
X23432073Y5874310D01*
X23565690Y6007927D01*
X23676760Y6160801D01*
X23762547Y6329168D01*
X23820940Y6508882D01*
X23820941Y6508887D01*
X23822219Y6516954D01*
X23849996Y6571471D01*
X23904512Y6599249D01*
X23964944Y6589678D01*
X24008209Y6546414D01*
X24017781Y6516954D01*
X24019058Y6508887D01*
X24077453Y6329168D01*
X24154942Y6177085D01*
X24163240Y6160801D01*
X24274310Y6007927D01*
X24407927Y5874310D01*
X24560801Y5763240D01*
X24585444Y5750684D01*
X24628709Y5707421D01*
X24639500Y5662474D01*
X24639500Y2382474D01*
X24639500Y2237526D01*
X24677016Y2097515D01*
X24749490Y1971985D01*
X25401184Y1320291D01*
X26051971Y669504D01*
X26079748Y614987D01*
X26070177Y554555D01*
X26026912Y511290D01*
X25981967Y500500D01*
X769791Y500500D01*
X754304Y501719D01*
X696680Y510846D01*
X667222Y520417D01*
X622266Y543323D01*
X597207Y561529D01*
X561528Y597208D01*
X543322Y622267D01*
X520415Y667226D01*
X510846Y696680D01*
X501719Y754305D01*
X500500Y769791D01*
X500500Y24791522D01*
X11849500Y24791522D01*
X11849500Y22728479D01*
X11849501Y22728477D01*
X11864352Y22634701D01*
X11864354Y22634696D01*
X11921950Y22521658D01*
X12011658Y22431950D01*
X12124696Y22374354D01*
X12218481Y22359500D01*
X13721518Y22359501D01*
X13721521Y22359501D01*
X13721522Y22359502D01*
X13778561Y22368535D01*
X13815299Y22374353D01*
X13815299Y22374354D01*
X13815304Y22374354D01*
X13928342Y22431950D01*
X14018050Y22521658D01*
X14075646Y22634696D01*
X14090500Y22728481D01*
X14090499Y24128189D01*
X14389500Y24128189D01*
X14389500Y23391812D01*
X14417088Y23217621D01*
X14444557Y23133082D01*
X14471592Y23049877D01*
X14551662Y22892730D01*
X14655330Y22750043D01*
X14780043Y22625330D01*
X14922730Y22521662D01*
X15079877Y22441592D01*
X15247616Y22387090D01*
X15247617Y22387090D01*
X15247620Y22387089D01*
X15421812Y22359500D01*
X15421815Y22359500D01*
X15598188Y22359500D01*
X15772379Y22387089D01*
X15772380Y22387090D01*
X15772384Y22387090D01*
X15940123Y22441592D01*
X16097270Y22521662D01*
X16239957Y22625330D01*
X16364670Y22750043D01*
X16468338Y22892730D01*
X16548408Y23049877D01*
X16602910Y23217616D01*
X16620996Y23331807D01*
X16630500Y23391812D01*
X16630500Y24128189D01*
X16929500Y24128189D01*
X16929500Y23391812D01*
X16957088Y23217621D01*
X16984557Y23133082D01*
X17011592Y23049877D01*
X17091662Y22892730D01*
X17195330Y22750043D01*
X17320043Y22625330D01*
X17458691Y22524596D01*
X17494655Y22475097D01*
X17499500Y22444504D01*
X17499500Y19482474D01*
X17499500Y19337526D01*
X17537016Y19197515D01*
X17609490Y19071985D01*
X20101971Y16579504D01*
X20249812Y16431663D01*
X20277589Y16377146D01*
X20268018Y16316714D01*
X20260000Y16306543D01*
X20260000Y15183919D01*
X20162661Y15210000D01*
X20057339Y15210000D01*
X19960000Y15183919D01*
X19960000Y16299954D01*
X19959999Y16299955D01*
X19852420Y16282916D01*
X19687751Y16229412D01*
X19533475Y16150805D01*
X19533471Y16150803D01*
X19393403Y16049038D01*
X19270962Y15926597D01*
X19169197Y15786529D01*
X19169195Y15786525D01*
X19090588Y15632249D01*
X19037084Y15467580D01*
X19010000Y15296576D01*
X19010000Y14960001D01*
X19010001Y14960000D01*
X19736082Y14960000D01*
X19710000Y14862661D01*
X19710000Y14757339D01*
X19736082Y14660000D01*
X19010001Y14660000D01*
X19010000Y14659999D01*
X19010000Y14323425D01*
X19037084Y14152421D01*
X19090588Y13987752D01*
X19169195Y13833476D01*
X19169197Y13833472D01*
X19270962Y13693404D01*
X19393403Y13570963D01*
X19533471Y13469198D01*
X19533475Y13469196D01*
X19687751Y13390589D01*
X19852419Y13337086D01*
X19959999Y13320047D01*
X19960000Y13320048D01*
X19960000Y14436082D01*
X20057339Y14410000D01*
X20162661Y14410000D01*
X20260000Y14436082D01*
X20260000Y13320047D01*
X20367580Y13337086D01*
X20532248Y13390589D01*
X20686524Y13469196D01*
X20686528Y13469198D01*
X20826596Y13570963D01*
X20949037Y13693404D01*
X21050802Y13833472D01*
X21050804Y13833476D01*
X21129411Y13987752D01*
X21182915Y14152421D01*
X21210000Y14323425D01*
X21210000Y14659999D01*
X21209999Y14660000D01*
X20483918Y14660000D01*
X20510000Y14757339D01*
X20510000Y14862661D01*
X20483918Y14960000D01*
X21209999Y14960000D01*
X21210000Y14960001D01*
X21210000Y15232467D01*
X21217163Y15254515D01*
X21220790Y15277412D01*
X21226438Y15283061D01*
X21228907Y15290658D01*
X21247663Y15304286D01*
X21264055Y15320677D01*
X21271944Y15321927D01*
X21278407Y15326622D01*
X21301592Y15326622D01*
X21324487Y15330248D01*
X21331604Y15326622D01*
X21339593Y15326622D01*
X21379004Y15302471D01*
X21420504Y15260971D01*
X21448281Y15206454D01*
X21449500Y15190967D01*
X21449500Y14315516D01*
X21479058Y14128887D01*
X21537453Y13949168D01*
X21616358Y13794306D01*
X21623240Y13780801D01*
X21734310Y13627927D01*
X21867927Y13494310D01*
X22020801Y13383240D01*
X22189168Y13297453D01*
X22368882Y13239060D01*
X22368883Y13239060D01*
X22368886Y13239059D01*
X22555516Y13209500D01*
X22555519Y13209500D01*
X22744484Y13209500D01*
X22931113Y13239059D01*
X22931114Y13239060D01*
X22931118Y13239060D01*
X23110832Y13297453D01*
X23279199Y13383240D01*
X23432073Y13494310D01*
X23565690Y13627927D01*
X23676760Y13780801D01*
X23762547Y13949168D01*
X23820940Y14128882D01*
X23820941Y14128887D01*
X23822219Y14136954D01*
X23849996Y14191471D01*
X23904512Y14219249D01*
X23964944Y14209678D01*
X24008209Y14166414D01*
X24017781Y14136954D01*
X24019058Y14128887D01*
X24077453Y13949168D01*
X24156358Y13794306D01*
X24163240Y13780801D01*
X24274310Y13627927D01*
X24407927Y13494310D01*
X24560801Y13383240D01*
X24729168Y13297453D01*
X24908882Y13239060D01*
X24908883Y13239060D01*
X24908886Y13239059D01*
X25095516Y13209500D01*
X25095519Y13209500D01*
X25284484Y13209500D01*
X25471113Y13239059D01*
X25471114Y13239060D01*
X25471118Y13239060D01*
X25650832Y13297453D01*
X25819199Y13383240D01*
X25972073Y13494310D01*
X26105690Y13627927D01*
X26216760Y13780801D01*
X26302547Y13949168D01*
X26360940Y14128882D01*
X26360941Y14128887D01*
X26362219Y14136954D01*
X26389996Y14191471D01*
X26444512Y14219249D01*
X26504944Y14209678D01*
X26548209Y14166414D01*
X26557781Y14136954D01*
X26559058Y14128887D01*
X26617453Y13949168D01*
X26696358Y13794306D01*
X26703240Y13780801D01*
X26814310Y13627927D01*
X26947927Y13494310D01*
X27100801Y13383240D01*
X27269168Y13297453D01*
X27448882Y13239060D01*
X27448883Y13239060D01*
X27448886Y13239059D01*
X27635516Y13209500D01*
X27635519Y13209500D01*
X27824484Y13209500D01*
X28011113Y13239059D01*
X28011114Y13239060D01*
X28011118Y13239060D01*
X28190832Y13297453D01*
X28359199Y13383240D01*
X28512073Y13494310D01*
X28645690Y13627927D01*
X28756760Y13780801D01*
X28842547Y13949168D01*
X28900940Y14128882D01*
X28900941Y14128887D01*
X28902219Y14136954D01*
X28929996Y14191471D01*
X28984512Y14219249D01*
X29044944Y14209678D01*
X29088209Y14166414D01*
X29097781Y14136954D01*
X29099058Y14128887D01*
X29157453Y13949168D01*
X29236358Y13794306D01*
X29243240Y13780801D01*
X29354310Y13627927D01*
X29487927Y13494310D01*
X29640801Y13383240D01*
X29809168Y13297453D01*
X29988882Y13239060D01*
X29988883Y13239060D01*
X29988886Y13239059D01*
X30175516Y13209500D01*
X30175519Y13209500D01*
X30364484Y13209500D01*
X30551113Y13239059D01*
X30551114Y13239060D01*
X30551118Y13239060D01*
X30730832Y13297453D01*
X30899199Y13383240D01*
X31052073Y13494310D01*
X31185690Y13627927D01*
X31296760Y13780801D01*
X31382547Y13949168D01*
X31440940Y14128882D01*
X31440941Y14128887D01*
X31442219Y14136954D01*
X31469996Y14191471D01*
X31524512Y14219249D01*
X31584944Y14209678D01*
X31628209Y14166414D01*
X31637781Y14136954D01*
X31639058Y14128887D01*
X31697453Y13949168D01*
X31776358Y13794306D01*
X31783240Y13780801D01*
X31894310Y13627927D01*
X32027927Y13494310D01*
X32180801Y13383240D01*
X32349168Y13297453D01*
X32528882Y13239060D01*
X32528883Y13239060D01*
X32528886Y13239059D01*
X32715516Y13209500D01*
X32715519Y13209500D01*
X32904484Y13209500D01*
X33091113Y13239059D01*
X33091114Y13239060D01*
X33091118Y13239060D01*
X33270832Y13297453D01*
X33439199Y13383240D01*
X33592073Y13494310D01*
X33725690Y13627927D01*
X33836760Y13780801D01*
X33922547Y13949168D01*
X33980940Y14128882D01*
X33980941Y14128887D01*
X33982219Y14136954D01*
X34009996Y14191471D01*
X34064512Y14219249D01*
X34124944Y14209678D01*
X34168209Y14166414D01*
X34177781Y14136954D01*
X34179058Y14128887D01*
X34237453Y13949168D01*
X34316358Y13794306D01*
X34323240Y13780801D01*
X34434310Y13627927D01*
X34567927Y13494310D01*
X34720801Y13383240D01*
X34889168Y13297453D01*
X35068882Y13239060D01*
X35068883Y13239060D01*
X35068886Y13239059D01*
X35255516Y13209500D01*
X35255519Y13209500D01*
X35444484Y13209500D01*
X35631113Y13239059D01*
X35631114Y13239060D01*
X35631118Y13239060D01*
X35810832Y13297453D01*
X35979199Y13383240D01*
X36132073Y13494310D01*
X36265690Y13627927D01*
X36376760Y13780801D01*
X36462547Y13949168D01*
X36496345Y14053189D01*
X36532309Y14102688D01*
X36590500Y14121595D01*
X36648691Y14102688D01*
X36684655Y14053188D01*
X36689500Y14022595D01*
X36689500Y13794312D01*
X36692401Y13757435D01*
X36692401Y13757432D01*
X36692402Y13757431D01*
X36738256Y13599602D01*
X36821919Y13458135D01*
X36938135Y13341919D01*
X37079602Y13258256D01*
X37237431Y13212402D01*
X37274306Y13209500D01*
X37274311Y13209500D01*
X38505689Y13209500D01*
X38505694Y13209500D01*
X38542569Y13212402D01*
X38700398Y13258256D01*
X38700401Y13258258D01*
X38800105Y13317222D01*
X38859817Y13330570D01*
X38915970Y13306270D01*
X38947116Y13253605D01*
X38949500Y13232009D01*
X38949500Y12769034D01*
X38930593Y12710843D01*
X38920504Y12699030D01*
X34957601Y8736128D01*
X34918191Y8711978D01*
X34889168Y8702547D01*
X34882264Y8699029D01*
X34720802Y8616762D01*
X34567928Y8505691D01*
X34434309Y8372072D01*
X34323238Y8219197D01*
X34237453Y8050833D01*
X34179058Y7871114D01*
X34177781Y7863046D01*
X34150004Y7808529D01*
X34095487Y7780752D01*
X34035055Y7790323D01*
X33991790Y7833588D01*
X33982219Y7863046D01*
X33980941Y7871114D01*
X33935083Y8012249D01*
X33922547Y8050832D01*
X33836760Y8219199D01*
X33725690Y8372073D01*
X33592073Y8505690D01*
X33439199Y8616760D01*
X33439198Y8616761D01*
X33439196Y8616762D01*
X33270832Y8702547D01*
X33091113Y8760942D01*
X32904484Y8790500D01*
X32904481Y8790500D01*
X32715519Y8790500D01*
X32715516Y8790500D01*
X32528886Y8760942D01*
X32349167Y8702547D01*
X32180803Y8616762D01*
X32027928Y8505691D01*
X31894309Y8372072D01*
X31783238Y8219197D01*
X31697453Y8050833D01*
X31639058Y7871114D01*
X31609500Y7684485D01*
X31609500Y6695516D01*
X31639058Y6508887D01*
X31697453Y6329168D01*
X31774942Y6177085D01*
X31783240Y6160801D01*
X31894310Y6007927D01*
X32027927Y5874310D01*
X32180801Y5763240D01*
X32349168Y5677453D01*
X32528882Y5619060D01*
X32528883Y5619060D01*
X32528886Y5619059D01*
X32715516Y5589500D01*
X32715519Y5589500D01*
X32904484Y5589500D01*
X33091113Y5619059D01*
X33091114Y5619060D01*
X33091118Y5619060D01*
X33270832Y5677453D01*
X33439199Y5763240D01*
X33592073Y5874310D01*
X33725690Y6007927D01*
X33836760Y6160801D01*
X33922547Y6329168D01*
X33980940Y6508882D01*
X33980941Y6508887D01*
X33982219Y6516954D01*
X34009996Y6571471D01*
X34064512Y6599249D01*
X34124944Y6589678D01*
X34168209Y6546414D01*
X34177781Y6516954D01*
X34179058Y6508887D01*
X34237453Y6329168D01*
X34314942Y6177085D01*
X34323240Y6160801D01*
X34434310Y6007927D01*
X34567927Y5874310D01*
X34720801Y5763240D01*
X34889168Y5677453D01*
X35068882Y5619060D01*
X35068883Y5619060D01*
X35068886Y5619059D01*
X35255516Y5589500D01*
X35255519Y5589500D01*
X35444484Y5589500D01*
X35631113Y5619059D01*
X35631114Y5619060D01*
X35631118Y5619060D01*
X35810832Y5677453D01*
X35979199Y5763240D01*
X36132073Y5874310D01*
X36265690Y6007927D01*
X36376760Y6160801D01*
X36462547Y6329168D01*
X36520940Y6508882D01*
X36520941Y6508887D01*
X36522219Y6516954D01*
X36549996Y6571471D01*
X36604512Y6599249D01*
X36664944Y6589678D01*
X36708209Y6546414D01*
X36717781Y6516954D01*
X36719058Y6508887D01*
X36777453Y6329168D01*
X36854942Y6177085D01*
X36863240Y6160801D01*
X36974310Y6007927D01*
X37107927Y5874310D01*
X37260801Y5763240D01*
X37429168Y5677453D01*
X37608882Y5619060D01*
X37608883Y5619060D01*
X37608886Y5619059D01*
X37795516Y5589500D01*
X37795519Y5589500D01*
X37984484Y5589500D01*
X38171113Y5619059D01*
X38171114Y5619060D01*
X38171118Y5619060D01*
X38350832Y5677453D01*
X38519199Y5763240D01*
X38672073Y5874310D01*
X38805690Y6007927D01*
X38916760Y6160801D01*
X39002547Y6329168D01*
X39060940Y6508882D01*
X39060941Y6508887D01*
X39090500Y6695516D01*
X39090500Y7684485D01*
X39060941Y7871114D01*
X39015083Y8012249D01*
X39002547Y8050832D01*
X38916760Y8219199D01*
X38805690Y8372073D01*
X38672073Y8505690D01*
X38519199Y8616760D01*
X38519198Y8616761D01*
X38519196Y8616762D01*
X38350832Y8702547D01*
X38171113Y8760942D01*
X37984484Y8790500D01*
X37984481Y8790500D01*
X37795519Y8790500D01*
X37795516Y8790500D01*
X37608886Y8760942D01*
X37429167Y8702547D01*
X37260803Y8616762D01*
X37107928Y8505691D01*
X36974309Y8372072D01*
X36863238Y8219197D01*
X36777453Y8050833D01*
X36719058Y7871114D01*
X36717781Y7863046D01*
X36690004Y7808529D01*
X36635487Y7780752D01*
X36575055Y7790323D01*
X36531790Y7833588D01*
X36522219Y7863046D01*
X36520941Y7871114D01*
X36475083Y8012249D01*
X36462547Y8050832D01*
X36376760Y8219199D01*
X36334939Y8276760D01*
X36266958Y8370328D01*
X36248050Y8428519D01*
X36266957Y8486709D01*
X36277034Y8498510D01*
X39940510Y12161985D01*
X40012984Y12287515D01*
X40050500Y12427525D01*
X40050500Y19822475D01*
X40012984Y19962485D01*
X39992795Y19997453D01*
X39940510Y20088015D01*
X37661721Y22366804D01*
X37633944Y22421321D01*
X37643515Y22481753D01*
X37686780Y22525018D01*
X37747212Y22534589D01*
X37778978Y22522869D01*
X37779264Y22523428D01*
X37782729Y22521663D01*
X37782730Y22521662D01*
X37939877Y22441592D01*
X38107616Y22387090D01*
X38107617Y22387090D01*
X38107620Y22387089D01*
X38281812Y22359500D01*
X38281815Y22359500D01*
X38458188Y22359500D01*
X38632379Y22387089D01*
X38632380Y22387090D01*
X38632384Y22387090D01*
X38800123Y22441592D01*
X38957270Y22521662D01*
X39099957Y22625330D01*
X39224670Y22750043D01*
X39328338Y22892730D01*
X39408408Y23049877D01*
X39462910Y23217616D01*
X39480996Y23331807D01*
X39490500Y23391812D01*
X39490500Y24128189D01*
X39462911Y24302380D01*
X39444077Y24360345D01*
X39408408Y24470123D01*
X39328338Y24627270D01*
X39224670Y24769957D01*
X39099957Y24894670D01*
X38957270Y24998338D01*
X38957269Y24998339D01*
X38957267Y24998340D01*
X38800123Y25078408D01*
X38632379Y25132912D01*
X38458188Y25160500D01*
X38458185Y25160500D01*
X38281815Y25160500D01*
X38281812Y25160500D01*
X38107620Y25132912D01*
X37939876Y25078408D01*
X37782732Y24998340D01*
X37640044Y24894671D01*
X37515329Y24769956D01*
X37411660Y24627268D01*
X37331592Y24470124D01*
X37277088Y24302380D01*
X37249500Y24128189D01*
X37249500Y23391812D01*
X37277088Y23217621D01*
X37331592Y23049877D01*
X37413428Y22889264D01*
X37412355Y22888718D01*
X37425502Y22833959D01*
X37402087Y22777431D01*
X37349918Y22745461D01*
X37288922Y22750262D01*
X37256803Y22771722D01*
X36938341Y23090184D01*
X36910564Y23144701D01*
X36914191Y23190782D01*
X36922910Y23217617D01*
X36950500Y23391812D01*
X36950500Y24128189D01*
X36922911Y24302380D01*
X36904077Y24360345D01*
X36868408Y24470123D01*
X36788338Y24627270D01*
X36684670Y24769957D01*
X36559957Y24894670D01*
X36417270Y24998338D01*
X36417269Y24998339D01*
X36417267Y24998340D01*
X36260123Y25078408D01*
X36092379Y25132912D01*
X35918188Y25160500D01*
X35918185Y25160500D01*
X35741815Y25160500D01*
X35741812Y25160500D01*
X35567620Y25132912D01*
X35399876Y25078408D01*
X35242732Y24998340D01*
X35100044Y24894671D01*
X34975329Y24769956D01*
X34871660Y24627268D01*
X34791592Y24470124D01*
X34737088Y24302380D01*
X34709500Y24128189D01*
X34709500Y23391812D01*
X34737088Y23217621D01*
X34764557Y23133082D01*
X34791592Y23049877D01*
X34871662Y22892730D01*
X34975330Y22750043D01*
X35100043Y22625330D01*
X35242730Y22521662D01*
X35399877Y22441592D01*
X35567616Y22387090D01*
X35567617Y22387090D01*
X35567620Y22387089D01*
X35741812Y22359500D01*
X35741815Y22359500D01*
X35918187Y22359500D01*
X35975229Y22368535D01*
X36035655Y22378106D01*
X36096086Y22368535D01*
X36121146Y22350329D01*
X38920504Y19550971D01*
X38948281Y19496454D01*
X38949500Y19480967D01*
X38949500Y16387992D01*
X38930593Y16329801D01*
X38881093Y16293837D01*
X38819907Y16293837D01*
X38800106Y16302778D01*
X38700399Y16361744D01*
X38542572Y16407597D01*
X38542569Y16407598D01*
X38542568Y16407599D01*
X38542565Y16407599D01*
X38519140Y16409442D01*
X38505694Y16410500D01*
X37274306Y16410500D01*
X37261773Y16409514D01*
X37237434Y16407599D01*
X37237427Y16407597D01*
X37164635Y16386449D01*
X37103480Y16388371D01*
X37067011Y16411514D01*
X33869496Y19609029D01*
X33841719Y19663546D01*
X33840500Y19679033D01*
X33840500Y22444504D01*
X33859407Y22502695D01*
X33881307Y22524596D01*
X34019957Y22625330D01*
X34144670Y22750043D01*
X34248338Y22892730D01*
X34328408Y23049877D01*
X34382910Y23217616D01*
X34400996Y23331807D01*
X34410500Y23391812D01*
X34410500Y24128189D01*
X34382911Y24302380D01*
X34364077Y24360345D01*
X34328408Y24470123D01*
X34248338Y24627270D01*
X34144670Y24769957D01*
X34019957Y24894670D01*
X33877270Y24998338D01*
X33877269Y24998339D01*
X33877267Y24998340D01*
X33720123Y25078408D01*
X33552379Y25132912D01*
X33378188Y25160500D01*
X33378185Y25160500D01*
X33201815Y25160500D01*
X33201812Y25160500D01*
X33027620Y25132912D01*
X32859876Y25078408D01*
X32702732Y24998340D01*
X32560044Y24894671D01*
X32435329Y24769956D01*
X32331660Y24627268D01*
X32251592Y24470124D01*
X32197088Y24302380D01*
X32169500Y24128189D01*
X32169500Y23391812D01*
X32197088Y23217621D01*
X32224557Y23133082D01*
X32251592Y23049877D01*
X32331662Y22892730D01*
X32435330Y22750043D01*
X32560043Y22625330D01*
X32698691Y22524596D01*
X32734655Y22475097D01*
X32739500Y22444504D01*
X32739500Y19482474D01*
X32739500Y19337526D01*
X32777016Y19197515D01*
X32849490Y19071985D01*
X35341971Y16579504D01*
X35369748Y16524987D01*
X35360177Y16464555D01*
X35316912Y16421290D01*
X35271967Y16410500D01*
X35255516Y16410500D01*
X35068886Y16380942D01*
X34889167Y16322547D01*
X34832821Y16293837D01*
X34772278Y16262989D01*
X34711847Y16253418D01*
X34657330Y16281195D01*
X31329496Y19609029D01*
X31301719Y19663546D01*
X31300500Y19679033D01*
X31300500Y22444504D01*
X31319407Y22502695D01*
X31341307Y22524596D01*
X31479957Y22625330D01*
X31604670Y22750043D01*
X31708338Y22892730D01*
X31788408Y23049877D01*
X31842910Y23217616D01*
X31860996Y23331807D01*
X31870500Y23391812D01*
X31870500Y24128189D01*
X31842911Y24302380D01*
X31824077Y24360345D01*
X31788408Y24470123D01*
X31708338Y24627270D01*
X31604670Y24769957D01*
X31479957Y24894670D01*
X31337270Y24998338D01*
X31337269Y24998339D01*
X31337267Y24998340D01*
X31180123Y25078408D01*
X31012379Y25132912D01*
X30838188Y25160500D01*
X30838185Y25160500D01*
X30661815Y25160500D01*
X30661812Y25160500D01*
X30487620Y25132912D01*
X30319876Y25078408D01*
X30162732Y24998340D01*
X30020044Y24894671D01*
X29895329Y24769956D01*
X29791660Y24627268D01*
X29711592Y24470124D01*
X29657088Y24302380D01*
X29629500Y24128189D01*
X29629500Y23391812D01*
X29657088Y23217621D01*
X29684557Y23133082D01*
X29711592Y23049877D01*
X29791662Y22892730D01*
X29895330Y22750043D01*
X30020043Y22625330D01*
X30158691Y22524596D01*
X30194655Y22475097D01*
X30199500Y22444504D01*
X30199500Y19482474D01*
X30199500Y19337526D01*
X30237016Y19197515D01*
X30309490Y19071985D01*
X32801971Y16579504D01*
X32829748Y16524987D01*
X32820177Y16464555D01*
X32776912Y16421290D01*
X32731967Y16410500D01*
X32715516Y16410500D01*
X32528886Y16380942D01*
X32349167Y16322547D01*
X32292821Y16293837D01*
X32232278Y16262989D01*
X32171847Y16253418D01*
X32117330Y16281195D01*
X28789496Y19609029D01*
X28761719Y19663546D01*
X28760500Y19679033D01*
X28760500Y22444504D01*
X28779407Y22502695D01*
X28801307Y22524596D01*
X28939957Y22625330D01*
X29064670Y22750043D01*
X29168338Y22892730D01*
X29248408Y23049877D01*
X29302910Y23217616D01*
X29320996Y23331807D01*
X29330500Y23391812D01*
X29330500Y24128189D01*
X29302911Y24302380D01*
X29284077Y24360345D01*
X29248408Y24470123D01*
X29168338Y24627270D01*
X29064670Y24769957D01*
X28939957Y24894670D01*
X28797270Y24998338D01*
X28797269Y24998339D01*
X28797267Y24998340D01*
X28640123Y25078408D01*
X28472379Y25132912D01*
X28298188Y25160500D01*
X28298185Y25160500D01*
X28121815Y25160500D01*
X28121812Y25160500D01*
X27947620Y25132912D01*
X27779876Y25078408D01*
X27622732Y24998340D01*
X27480044Y24894671D01*
X27355329Y24769956D01*
X27251660Y24627268D01*
X27171592Y24470124D01*
X27117088Y24302380D01*
X27089500Y24128189D01*
X27089500Y23391812D01*
X27117088Y23217621D01*
X27144557Y23133082D01*
X27171592Y23049877D01*
X27251662Y22892730D01*
X27355330Y22750043D01*
X27480043Y22625330D01*
X27618691Y22524596D01*
X27654655Y22475097D01*
X27659500Y22444504D01*
X27659500Y19482474D01*
X27659500Y19337526D01*
X27697016Y19197515D01*
X27769490Y19071985D01*
X30261971Y16579504D01*
X30289748Y16524987D01*
X30280177Y16464555D01*
X30236912Y16421290D01*
X30191967Y16410500D01*
X30175516Y16410500D01*
X29988886Y16380942D01*
X29809167Y16322547D01*
X29752821Y16293837D01*
X29692278Y16262989D01*
X29631847Y16253418D01*
X29577330Y16281195D01*
X26249496Y19609029D01*
X26221719Y19663546D01*
X26220500Y19679033D01*
X26220500Y22444504D01*
X26239407Y22502695D01*
X26261307Y22524596D01*
X26399957Y22625330D01*
X26524670Y22750043D01*
X26628338Y22892730D01*
X26708408Y23049877D01*
X26762910Y23217616D01*
X26780996Y23331807D01*
X26790500Y23391812D01*
X26790500Y24128189D01*
X26762911Y24302380D01*
X26744077Y24360345D01*
X26708408Y24470123D01*
X26628338Y24627270D01*
X26524670Y24769957D01*
X26399957Y24894670D01*
X26257270Y24998338D01*
X26257269Y24998339D01*
X26257267Y24998340D01*
X26100123Y25078408D01*
X25932379Y25132912D01*
X25758188Y25160500D01*
X25758185Y25160500D01*
X25581815Y25160500D01*
X25581812Y25160500D01*
X25407620Y25132912D01*
X25239876Y25078408D01*
X25082732Y24998340D01*
X24940044Y24894671D01*
X24815329Y24769956D01*
X24711660Y24627268D01*
X24631592Y24470124D01*
X24577088Y24302380D01*
X24549500Y24128189D01*
X24549500Y23391812D01*
X24577088Y23217621D01*
X24604557Y23133082D01*
X24631592Y23049877D01*
X24711662Y22892730D01*
X24815330Y22750043D01*
X24940043Y22625330D01*
X25078691Y22524596D01*
X25114655Y22475097D01*
X25119500Y22444504D01*
X25119500Y19482474D01*
X25119500Y19337526D01*
X25157016Y19197515D01*
X25229490Y19071985D01*
X27721971Y16579504D01*
X27749748Y16524987D01*
X27740177Y16464555D01*
X27696912Y16421290D01*
X27651967Y16410500D01*
X27635516Y16410500D01*
X27448886Y16380942D01*
X27269167Y16322547D01*
X27212821Y16293837D01*
X27152278Y16262989D01*
X27091847Y16253418D01*
X27037330Y16281195D01*
X23709496Y19609029D01*
X23681719Y19663546D01*
X23680500Y19679033D01*
X23680500Y22444504D01*
X23699407Y22502695D01*
X23721307Y22524596D01*
X23859957Y22625330D01*
X23984670Y22750043D01*
X24088338Y22892730D01*
X24168408Y23049877D01*
X24222910Y23217616D01*
X24240996Y23331807D01*
X24250500Y23391812D01*
X24250500Y24128189D01*
X24222911Y24302380D01*
X24204077Y24360345D01*
X24168408Y24470123D01*
X24088338Y24627270D01*
X23984670Y24769957D01*
X23859957Y24894670D01*
X23717270Y24998338D01*
X23717269Y24998339D01*
X23717267Y24998340D01*
X23560123Y25078408D01*
X23392379Y25132912D01*
X23218188Y25160500D01*
X23218185Y25160500D01*
X23041815Y25160500D01*
X23041812Y25160500D01*
X22867620Y25132912D01*
X22699876Y25078408D01*
X22542732Y24998340D01*
X22400044Y24894671D01*
X22275329Y24769956D01*
X22171660Y24627268D01*
X22091592Y24470124D01*
X22037088Y24302380D01*
X22009500Y24128189D01*
X22009500Y23391812D01*
X22037088Y23217621D01*
X22064557Y23133082D01*
X22091592Y23049877D01*
X22171662Y22892730D01*
X22275330Y22750043D01*
X22400043Y22625330D01*
X22538691Y22524596D01*
X22574655Y22475097D01*
X22579500Y22444504D01*
X22579500Y19482474D01*
X22579500Y19337526D01*
X22617016Y19197515D01*
X22689490Y19071985D01*
X25181971Y16579504D01*
X25209748Y16524987D01*
X25200177Y16464555D01*
X25156912Y16421290D01*
X25111967Y16410500D01*
X25095516Y16410500D01*
X24908886Y16380942D01*
X24729167Y16322547D01*
X24672821Y16293837D01*
X24612278Y16262989D01*
X24551847Y16253418D01*
X24497330Y16281195D01*
X21169496Y19609029D01*
X21141719Y19663546D01*
X21140500Y19679033D01*
X21140500Y22444504D01*
X21159407Y22502695D01*
X21181307Y22524596D01*
X21319957Y22625330D01*
X21444670Y22750043D01*
X21548338Y22892730D01*
X21628408Y23049877D01*
X21682910Y23217616D01*
X21700996Y23331807D01*
X21710500Y23391812D01*
X21710500Y24128189D01*
X21682911Y24302380D01*
X21664077Y24360345D01*
X21628408Y24470123D01*
X21548338Y24627270D01*
X21444670Y24769957D01*
X21319957Y24894670D01*
X21177270Y24998338D01*
X21177269Y24998339D01*
X21177267Y24998340D01*
X21020123Y25078408D01*
X20852379Y25132912D01*
X20678188Y25160500D01*
X20678185Y25160500D01*
X20501815Y25160500D01*
X20501812Y25160500D01*
X20327620Y25132912D01*
X20159876Y25078408D01*
X20002732Y24998340D01*
X19860044Y24894671D01*
X19735329Y24769956D01*
X19631660Y24627268D01*
X19551592Y24470124D01*
X19497088Y24302380D01*
X19469500Y24128189D01*
X19469500Y23391812D01*
X19497088Y23217621D01*
X19524557Y23133082D01*
X19551592Y23049877D01*
X19631662Y22892730D01*
X19735330Y22750043D01*
X19860043Y22625330D01*
X19998691Y22524596D01*
X20034655Y22475097D01*
X20039500Y22444504D01*
X20039500Y19482474D01*
X20039500Y19337526D01*
X20077016Y19197515D01*
X20149490Y19071985D01*
X22641971Y16579504D01*
X22669748Y16524987D01*
X22660177Y16464555D01*
X22616912Y16421290D01*
X22571967Y16410500D01*
X22555516Y16410500D01*
X22368886Y16380942D01*
X22189167Y16322547D01*
X22132821Y16293837D01*
X22072278Y16262989D01*
X22011847Y16253418D01*
X21957330Y16281195D01*
X18629496Y19609029D01*
X18601719Y19663546D01*
X18600500Y19679033D01*
X18600500Y22444504D01*
X18619407Y22502695D01*
X18641307Y22524596D01*
X18779957Y22625330D01*
X18904670Y22750043D01*
X19008338Y22892730D01*
X19088408Y23049877D01*
X19142910Y23217616D01*
X19160996Y23331807D01*
X19170500Y23391812D01*
X19170500Y24128189D01*
X19142911Y24302380D01*
X19124077Y24360345D01*
X19088408Y24470123D01*
X19008338Y24627270D01*
X18904670Y24769957D01*
X18779957Y24894670D01*
X18637270Y24998338D01*
X18637269Y24998339D01*
X18637267Y24998340D01*
X18480123Y25078408D01*
X18312379Y25132912D01*
X18138188Y25160500D01*
X18138185Y25160500D01*
X17961815Y25160500D01*
X17961812Y25160500D01*
X17787620Y25132912D01*
X17619876Y25078408D01*
X17462732Y24998340D01*
X17320044Y24894671D01*
X17195329Y24769956D01*
X17091660Y24627268D01*
X17011592Y24470124D01*
X16957088Y24302380D01*
X16929500Y24128189D01*
X16630500Y24128189D01*
X16602911Y24302380D01*
X16584077Y24360345D01*
X16548408Y24470123D01*
X16468338Y24627270D01*
X16364670Y24769957D01*
X16239957Y24894670D01*
X16239953Y24894673D01*
X16239951Y24894675D01*
X16101309Y24995405D01*
X16065345Y25044905D01*
X16060500Y25075497D01*
X16060500Y29042985D01*
X16077185Y29097987D01*
X16130775Y29178189D01*
X16183580Y29305672D01*
X16210500Y29441007D01*
X16210500Y29578993D01*
X16183580Y29714328D01*
X16150531Y29794115D01*
X16130777Y29841807D01*
X16130771Y29841818D01*
X16054114Y29956542D01*
X15956541Y30054115D01*
X15841817Y30130772D01*
X15841806Y30130778D01*
X15714328Y30183580D01*
X15578995Y30210500D01*
X15578993Y30210500D01*
X15441007Y30210500D01*
X15441004Y30210500D01*
X15305672Y30183580D01*
X15305670Y30183580D01*
X15178193Y30130778D01*
X15178182Y30130772D01*
X15063458Y30054115D01*
X14965885Y29956542D01*
X14889228Y29841818D01*
X14889222Y29841807D01*
X14836420Y29714330D01*
X14836420Y29714328D01*
X14809500Y29578996D01*
X14809500Y29441005D01*
X14825773Y29359199D01*
X14833770Y29318992D01*
X14836420Y29305673D01*
X14836420Y29305671D01*
X14889223Y29178192D01*
X14942815Y29097987D01*
X14959500Y29042985D01*
X14959500Y25075497D01*
X14940593Y25017306D01*
X14918691Y24995405D01*
X14780048Y24894675D01*
X14655329Y24769956D01*
X14551660Y24627268D01*
X14471592Y24470124D01*
X14417088Y24302380D01*
X14389500Y24128189D01*
X14090499Y24128189D01*
X14090499Y24791518D01*
X14090499Y24791519D01*
X14090499Y24791522D01*
X14090498Y24791524D01*
X14075647Y24885300D01*
X14075646Y24885302D01*
X14075646Y24885304D01*
X14018050Y24998342D01*
X13928342Y25088050D01*
X13815304Y25145646D01*
X13815305Y25145646D01*
X13721521Y25160500D01*
X12218478Y25160500D01*
X12218476Y25160499D01*
X12124700Y25145648D01*
X12124695Y25145646D01*
X12011659Y25088051D01*
X11921949Y24998341D01*
X11864354Y24885305D01*
X11849500Y24791522D01*
X500500Y24791522D01*
X500500Y39368189D01*
X11849500Y39368189D01*
X11849500Y38631812D01*
X11877088Y38457621D01*
X11877090Y38457616D01*
X11931592Y38289877D01*
X12011662Y38132730D01*
X12115330Y37990043D01*
X12240043Y37865330D01*
X12382730Y37761662D01*
X12539877Y37681592D01*
X12707616Y37627090D01*
X12707617Y37627090D01*
X12707620Y37627089D01*
X12881812Y37599500D01*
X12881815Y37599500D01*
X13058188Y37599500D01*
X13232379Y37627089D01*
X13232380Y37627090D01*
X13232384Y37627090D01*
X13400123Y37681592D01*
X13557270Y37761662D01*
X13699957Y37865330D01*
X13824670Y37990043D01*
X13928338Y38132730D01*
X14008408Y38289877D01*
X14062910Y38457616D01*
X14062911Y38457621D01*
X14090500Y38631812D01*
X14090500Y39368189D01*
X14389500Y39368189D01*
X14389500Y38631812D01*
X14417088Y38457621D01*
X14417090Y38457616D01*
X14471592Y38289877D01*
X14551662Y38132730D01*
X14655330Y37990043D01*
X14780043Y37865330D01*
X14918691Y37764596D01*
X14954655Y37715097D01*
X14959500Y37684504D01*
X14959500Y34062474D01*
X14959500Y33917526D01*
X14997016Y33777515D01*
X15069490Y33651985D01*
X17301474Y31420001D01*
X19530507Y29190968D01*
X19557601Y29140279D01*
X19576420Y29045671D01*
X19629222Y28918194D01*
X19629228Y28918183D01*
X19705885Y28803459D01*
X19803458Y28705886D01*
X19918182Y28629229D01*
X19918193Y28629223D01*
X19965283Y28609718D01*
X20045672Y28576420D01*
X20181007Y28549500D01*
X20181008Y28549500D01*
X20318992Y28549500D01*
X20318993Y28549500D01*
X20454328Y28576420D01*
X20581811Y28629225D01*
X20696542Y28705886D01*
X20794114Y28803458D01*
X20870775Y28918189D01*
X20923580Y29045672D01*
X20950500Y29181007D01*
X20950500Y29318993D01*
X20923580Y29454328D01*
X20871943Y29578992D01*
X20870777Y29581807D01*
X20870771Y29581818D01*
X20794114Y29696542D01*
X20696541Y29794115D01*
X20581817Y29870772D01*
X20581806Y29870778D01*
X20454329Y29923580D01*
X20359721Y29942399D01*
X20309032Y29969493D01*
X16089496Y34189029D01*
X16061719Y34243546D01*
X16060500Y34259033D01*
X16060500Y37684504D01*
X16079407Y37742695D01*
X16101307Y37764596D01*
X16239957Y37865330D01*
X16364670Y37990043D01*
X16468338Y38132730D01*
X16548408Y38289877D01*
X16602910Y38457616D01*
X16602911Y38457621D01*
X16630500Y38631812D01*
X16630500Y39368189D01*
X16929500Y39368189D01*
X16929500Y38631812D01*
X16957088Y38457621D01*
X16957090Y38457616D01*
X17011592Y38289877D01*
X17091662Y38132730D01*
X17195330Y37990043D01*
X17320043Y37865330D01*
X17462730Y37761662D01*
X17619877Y37681592D01*
X17787616Y37627090D01*
X17787617Y37627090D01*
X17787620Y37627089D01*
X17961812Y37599500D01*
X17961815Y37599500D01*
X18138188Y37599500D01*
X18312379Y37627089D01*
X18312380Y37627090D01*
X18312384Y37627090D01*
X18480123Y37681592D01*
X18637270Y37761662D01*
X18779957Y37865330D01*
X18904670Y37990043D01*
X19008338Y38132730D01*
X19088408Y38289877D01*
X19142910Y38457616D01*
X19142911Y38457621D01*
X19170500Y38631812D01*
X19170500Y39368189D01*
X19469500Y39368189D01*
X19469500Y38631812D01*
X19497088Y38457621D01*
X19497090Y38457616D01*
X19551592Y38289877D01*
X19631662Y38132730D01*
X19735330Y37990043D01*
X19860043Y37865330D01*
X20002730Y37761662D01*
X20159877Y37681592D01*
X20327616Y37627090D01*
X20327617Y37627090D01*
X20327620Y37627089D01*
X20501812Y37599500D01*
X20501815Y37599500D01*
X20678188Y37599500D01*
X20852379Y37627089D01*
X20852380Y37627090D01*
X20852384Y37627090D01*
X21020123Y37681592D01*
X21177270Y37761662D01*
X21319957Y37865330D01*
X21444670Y37990043D01*
X21548338Y38132730D01*
X21628408Y38289877D01*
X21682910Y38457616D01*
X21682911Y38457621D01*
X21710500Y38631812D01*
X21710500Y39368189D01*
X22009500Y39368189D01*
X22009500Y38631812D01*
X22037088Y38457621D01*
X22037090Y38457616D01*
X22091592Y38289877D01*
X22171662Y38132730D01*
X22275330Y37990043D01*
X22400043Y37865330D01*
X22542730Y37761662D01*
X22699877Y37681592D01*
X22867616Y37627090D01*
X22867617Y37627090D01*
X22867620Y37627089D01*
X23041812Y37599500D01*
X23041815Y37599500D01*
X23218188Y37599500D01*
X23392379Y37627089D01*
X23392380Y37627090D01*
X23392384Y37627090D01*
X23560123Y37681592D01*
X23717270Y37761662D01*
X23859957Y37865330D01*
X23984670Y37990043D01*
X24088338Y38132730D01*
X24168408Y38289877D01*
X24222910Y38457616D01*
X24222911Y38457621D01*
X24250500Y38631812D01*
X24250500Y39368189D01*
X24549500Y39368189D01*
X24549500Y38631812D01*
X24577088Y38457621D01*
X24577090Y38457616D01*
X24631592Y38289877D01*
X24711662Y38132730D01*
X24815330Y37990043D01*
X24940043Y37865330D01*
X25078691Y37764596D01*
X25114655Y37715097D01*
X25119500Y37684504D01*
X25119500Y35257525D01*
X25130012Y35218293D01*
X25140525Y35179059D01*
X25140524Y35179059D01*
X25157014Y35117519D01*
X25157014Y35117518D01*
X25157016Y35117515D01*
X25229490Y34991985D01*
X26851986Y33369490D01*
X26851988Y33369489D01*
X26851989Y33369488D01*
X26862429Y33363461D01*
X26862433Y33363457D01*
X26862434Y33363458D01*
X26977515Y33297016D01*
X27117525Y33259500D01*
X27117526Y33259500D01*
X27262474Y33259500D01*
X27532984Y33259500D01*
X27587986Y33242815D01*
X27668182Y33189229D01*
X27668193Y33189223D01*
X27688519Y33180804D01*
X27795672Y33136420D01*
X27931007Y33109500D01*
X27931008Y33109500D01*
X28068992Y33109500D01*
X28068993Y33109500D01*
X28204328Y33136420D01*
X28331811Y33189225D01*
X28446542Y33265886D01*
X28544114Y33363458D01*
X28620775Y33478189D01*
X28673580Y33605672D01*
X28700500Y33741007D01*
X28700500Y33878993D01*
X28673580Y34014328D01*
X28620775Y34141811D01*
X28620774Y34141813D01*
X28620771Y34141818D01*
X28544114Y34256542D01*
X28446541Y34354115D01*
X28331817Y34430772D01*
X28331806Y34430778D01*
X28204328Y34483580D01*
X28068995Y34510500D01*
X28068993Y34510500D01*
X27931007Y34510500D01*
X27931004Y34510500D01*
X27795672Y34483580D01*
X27795670Y34483580D01*
X27668193Y34430778D01*
X27668182Y34430772D01*
X27587986Y34377185D01*
X27532984Y34360500D01*
X27459032Y34360500D01*
X27400841Y34379407D01*
X27389028Y34389496D01*
X26249496Y35529029D01*
X26221719Y35583546D01*
X26220500Y35599033D01*
X26220500Y37684504D01*
X26239407Y37742695D01*
X26261307Y37764596D01*
X26399957Y37865330D01*
X26524670Y37990043D01*
X26628338Y38132730D01*
X26708408Y38289877D01*
X26762910Y38457616D01*
X26762911Y38457621D01*
X26790500Y38631812D01*
X26790500Y39368189D01*
X26762911Y39542380D01*
X26762850Y39542569D01*
X26708408Y39710123D01*
X26628338Y39867270D01*
X26524670Y40009957D01*
X26399957Y40134670D01*
X26257270Y40238338D01*
X26257269Y40238339D01*
X26257267Y40238340D01*
X26100123Y40318408D01*
X25932379Y40372912D01*
X25758188Y40400500D01*
X25758185Y40400500D01*
X25581815Y40400500D01*
X25581812Y40400500D01*
X25407620Y40372912D01*
X25239876Y40318408D01*
X25082732Y40238340D01*
X24940044Y40134671D01*
X24815329Y40009956D01*
X24711660Y39867268D01*
X24631592Y39710124D01*
X24577088Y39542380D01*
X24549500Y39368189D01*
X24250500Y39368189D01*
X24222911Y39542380D01*
X24222850Y39542569D01*
X24168408Y39710123D01*
X24088338Y39867270D01*
X23984670Y40009957D01*
X23859957Y40134670D01*
X23717270Y40238338D01*
X23717269Y40238339D01*
X23717267Y40238340D01*
X23560123Y40318408D01*
X23392379Y40372912D01*
X23218188Y40400500D01*
X23218185Y40400500D01*
X23041815Y40400500D01*
X23041812Y40400500D01*
X22867620Y40372912D01*
X22699876Y40318408D01*
X22542732Y40238340D01*
X22400044Y40134671D01*
X22275329Y40009956D01*
X22171660Y39867268D01*
X22091592Y39710124D01*
X22037088Y39542380D01*
X22009500Y39368189D01*
X21710500Y39368189D01*
X21682911Y39542380D01*
X21682850Y39542569D01*
X21628408Y39710123D01*
X21548338Y39867270D01*
X21444670Y40009957D01*
X21319957Y40134670D01*
X21177270Y40238338D01*
X21177269Y40238339D01*
X21177267Y40238340D01*
X21020123Y40318408D01*
X20852379Y40372912D01*
X20678188Y40400500D01*
X20678185Y40400500D01*
X20501815Y40400500D01*
X20501812Y40400500D01*
X20327620Y40372912D01*
X20159876Y40318408D01*
X20002732Y40238340D01*
X19860044Y40134671D01*
X19735329Y40009956D01*
X19631660Y39867268D01*
X19551592Y39710124D01*
X19497088Y39542380D01*
X19469500Y39368189D01*
X19170500Y39368189D01*
X19142911Y39542380D01*
X19142850Y39542569D01*
X19088408Y39710123D01*
X19008338Y39867270D01*
X18904670Y40009957D01*
X18779957Y40134670D01*
X18637270Y40238338D01*
X18637269Y40238339D01*
X18637267Y40238340D01*
X18480123Y40318408D01*
X18312379Y40372912D01*
X18138188Y40400500D01*
X18138185Y40400500D01*
X17961815Y40400500D01*
X17961812Y40400500D01*
X17787620Y40372912D01*
X17619876Y40318408D01*
X17462732Y40238340D01*
X17320044Y40134671D01*
X17195329Y40009956D01*
X17091660Y39867268D01*
X17011592Y39710124D01*
X16957088Y39542380D01*
X16929500Y39368189D01*
X16630500Y39368189D01*
X16602911Y39542380D01*
X16602850Y39542569D01*
X16548408Y39710123D01*
X16468338Y39867270D01*
X16364670Y40009957D01*
X16239957Y40134670D01*
X16097270Y40238338D01*
X16097268Y40238340D01*
X16094123Y40240624D01*
X16094779Y40241529D01*
X16058030Y40284570D01*
X16050500Y40322442D01*
X16050500Y43950500D01*
X16069407Y44008691D01*
X16118907Y44044655D01*
X16149500Y44049500D01*
X16284484Y44049500D01*
X16471113Y44079059D01*
X16471114Y44079060D01*
X16471118Y44079060D01*
X16650832Y44137453D01*
X16819199Y44223240D01*
X16972073Y44334310D01*
X17105690Y44467927D01*
X17216760Y44620801D01*
X17302547Y44789168D01*
X17360940Y44968882D01*
X17364668Y44992421D01*
X17390500Y45155516D01*
X17390500Y45344485D01*
X22609500Y45344485D01*
X22609500Y45155516D01*
X22639058Y44968887D01*
X22697453Y44789168D01*
X22777291Y44632475D01*
X22783240Y44620801D01*
X22894310Y44467927D01*
X23027927Y44334310D01*
X23180801Y44223240D01*
X23349168Y44137453D01*
X23528882Y44079060D01*
X23528883Y44079060D01*
X23528886Y44079059D01*
X23715516Y44049500D01*
X23715519Y44049500D01*
X23904484Y44049500D01*
X24091113Y44079059D01*
X24091114Y44079060D01*
X24091118Y44079060D01*
X24270832Y44137453D01*
X24439199Y44223240D01*
X24592073Y44334310D01*
X24725690Y44467927D01*
X24836760Y44620801D01*
X24922547Y44789168D01*
X24980940Y44968882D01*
X24984668Y44992421D01*
X25010500Y45155516D01*
X25010500Y45344485D01*
X24980941Y45531114D01*
X24968280Y45570080D01*
X24922547Y45710832D01*
X24836760Y45879199D01*
X24725690Y46032073D01*
X24592073Y46165690D01*
X24439199Y46276760D01*
X24439198Y46276761D01*
X24439196Y46276762D01*
X24270832Y46362547D01*
X24091113Y46420942D01*
X23904484Y46450500D01*
X23904481Y46450500D01*
X23715519Y46450500D01*
X23715516Y46450500D01*
X23528886Y46420942D01*
X23349167Y46362547D01*
X23180803Y46276762D01*
X23027928Y46165691D01*
X22894309Y46032072D01*
X22783238Y45879197D01*
X22697453Y45710833D01*
X22639058Y45531114D01*
X22609500Y45344485D01*
X17390500Y45344485D01*
X17360941Y45531114D01*
X17348280Y45570080D01*
X17302547Y45710832D01*
X17216760Y45879199D01*
X17105690Y46032073D01*
X16972073Y46165690D01*
X16819199Y46276760D01*
X16819198Y46276761D01*
X16819196Y46276762D01*
X16650832Y46362547D01*
X16471113Y46420942D01*
X16284484Y46450500D01*
X16284481Y46450500D01*
X16095519Y46450500D01*
X16095516Y46450500D01*
X15908886Y46420942D01*
X15729167Y46362547D01*
X15560803Y46276762D01*
X15407928Y46165691D01*
X15274309Y46032072D01*
X15163238Y45879197D01*
X15077453Y45710833D01*
X15019058Y45531114D01*
X14989500Y45344485D01*
X14989500Y45155516D01*
X15019059Y44968884D01*
X15034732Y44920646D01*
X15034731Y44910071D01*
X15039034Y44900410D01*
X15034731Y44880161D01*
X15034731Y44859460D01*
X15026317Y44840561D01*
X15015597Y44821990D01*
X15015593Y44821983D01*
X14987017Y44772490D01*
X14949500Y44632475D01*
X14949500Y40308231D01*
X14930593Y40250040D01*
X14908691Y40228138D01*
X14780044Y40134671D01*
X14655329Y40009956D01*
X14551660Y39867268D01*
X14471592Y39710124D01*
X14417088Y39542380D01*
X14389500Y39368189D01*
X14090500Y39368189D01*
X14062911Y39542380D01*
X14062850Y39542569D01*
X14008408Y39710123D01*
X13928338Y39867270D01*
X13824670Y40009957D01*
X13699957Y40134670D01*
X13557270Y40238338D01*
X13557269Y40238339D01*
X13557267Y40238340D01*
X13400123Y40318408D01*
X13232379Y40372912D01*
X13058188Y40400500D01*
X13058185Y40400500D01*
X12881815Y40400500D01*
X12881812Y40400500D01*
X12707620Y40372912D01*
X12539876Y40318408D01*
X12382732Y40238340D01*
X12240044Y40134671D01*
X12115329Y40009956D01*
X12011660Y39867268D01*
X11931592Y39710124D01*
X11877088Y39542380D01*
X11849500Y39368189D01*
X500500Y39368189D01*
X500500Y45336576D01*
X6900000Y45336576D01*
X6900000Y45163425D01*
X6927084Y44992421D01*
X6980588Y44827752D01*
X7059195Y44673476D01*
X7059197Y44673472D01*
X7123219Y44585354D01*
X7629532Y45091668D01*
X7679920Y45004394D01*
X7754394Y44929920D01*
X7841665Y44879535D01*
X7335352Y44373222D01*
X7423477Y44309195D01*
X7577751Y44230589D01*
X7742420Y44177085D01*
X7913425Y44150000D01*
X8086575Y44150000D01*
X8257579Y44177085D01*
X8422248Y44230589D01*
X8576524Y44309196D01*
X8576530Y44309200D01*
X8664646Y44373221D01*
X8664646Y44373222D01*
X8158333Y44879534D01*
X8245606Y44929920D01*
X8320080Y45004394D01*
X8370466Y45091667D01*
X8876778Y44585354D01*
X8876779Y44585354D01*
X8940800Y44673470D01*
X8940804Y44673476D01*
X9019411Y44827752D01*
X9072915Y44992421D01*
X9100000Y45163425D01*
X9100000Y45336577D01*
X9099999Y45336579D01*
X9098747Y45344485D01*
X11799500Y45344485D01*
X11799500Y45155516D01*
X11829058Y44968887D01*
X11887453Y44789168D01*
X11967291Y44632475D01*
X11973240Y44620801D01*
X12084310Y44467927D01*
X12217927Y44334310D01*
X12370801Y44223240D01*
X12539168Y44137453D01*
X12718882Y44079060D01*
X12718883Y44079060D01*
X12718886Y44079059D01*
X12905516Y44049500D01*
X12905519Y44049500D01*
X13094484Y44049500D01*
X13281113Y44079059D01*
X13281114Y44079060D01*
X13281118Y44079060D01*
X13460832Y44137453D01*
X13629199Y44223240D01*
X13782073Y44334310D01*
X13915690Y44467927D01*
X14026760Y44620801D01*
X14112547Y44789168D01*
X14170940Y44968882D01*
X14174668Y44992421D01*
X14200500Y45155516D01*
X14200500Y45344485D01*
X14170941Y45531114D01*
X14158280Y45570080D01*
X14112547Y45710832D01*
X14026760Y45879199D01*
X13915690Y46032073D01*
X13782073Y46165690D01*
X13629199Y46276760D01*
X13629198Y46276761D01*
X13629196Y46276762D01*
X13460832Y46362547D01*
X13281113Y46420942D01*
X13094484Y46450500D01*
X13094481Y46450500D01*
X12905519Y46450500D01*
X12905516Y46450500D01*
X12718886Y46420942D01*
X12539167Y46362547D01*
X12370803Y46276762D01*
X12217928Y46165691D01*
X12084309Y46032072D01*
X11973238Y45879197D01*
X11887453Y45710833D01*
X11829058Y45531114D01*
X11799500Y45344485D01*
X9098747Y45344485D01*
X9072915Y45507580D01*
X9019411Y45672249D01*
X8940805Y45826523D01*
X8876778Y45914648D01*
X8370465Y45408335D01*
X8320080Y45495606D01*
X8245606Y45570080D01*
X8158332Y45620468D01*
X8664646Y46126781D01*
X8576528Y46190803D01*
X8576524Y46190805D01*
X8422248Y46269412D01*
X8257579Y46322916D01*
X8086575Y46350000D01*
X7913425Y46350000D01*
X7742420Y46322916D01*
X7577751Y46269412D01*
X7423476Y46190805D01*
X7335352Y46126781D01*
X7841666Y45620467D01*
X7754394Y45570080D01*
X7679920Y45495606D01*
X7629533Y45408334D01*
X7123219Y45914648D01*
X7059195Y45826524D01*
X6980588Y45672249D01*
X6927084Y45507580D01*
X6900000Y45336576D01*
X500500Y45336576D01*
X500500Y52570210D01*
X501719Y52585696D01*
X502276Y52589218D01*
X510846Y52643324D01*
X520414Y52672773D01*
X543325Y52717739D01*
X561525Y52742790D01*
X597210Y52778475D01*
X622261Y52796675D01*
X667227Y52819586D01*
X696676Y52829154D01*
X741644Y52836276D01*
X754305Y52838281D01*
X769791Y52839500D01*
X827892Y52839500D01*
X63251678Y52839500D01*
X63309869Y52820593D01*
G37*
%TD.AperFunction*%
%TA.AperFunction,Conductor*%
G36*
X64845632Y51284829D02*
G01*
X64857446Y51274740D01*
X65510504Y50621682D01*
X65538281Y50567165D01*
X65539500Y50551678D01*
X65539500Y40705892D01*
X65539500Y40574108D01*
X65556293Y40511436D01*
X65573609Y40446810D01*
X65639496Y40332691D01*
X65639498Y40332689D01*
X65639500Y40332686D01*
X68050505Y37921681D01*
X68078281Y37867166D01*
X68079500Y37851679D01*
X68079500Y4058322D01*
X68060593Y4000131D01*
X68050504Y3988318D01*
X65732686Y1670500D01*
X65732685Y1670501D01*
X65639500Y1577315D01*
X65639496Y1577310D01*
X65573609Y1463191D01*
X65539500Y1335891D01*
X65539500Y769791D01*
X65538281Y754305D01*
X65538281Y754303D01*
X65529154Y696680D01*
X65519583Y667223D01*
X65496677Y622267D01*
X65478471Y597208D01*
X65442792Y561529D01*
X65417733Y543323D01*
X65372777Y520417D01*
X65343320Y510846D01*
X65314610Y506299D01*
X65285695Y501719D01*
X65270209Y500500D01*
X60268033Y500500D01*
X60209842Y519407D01*
X60173878Y568907D01*
X60173878Y630093D01*
X60198029Y669504D01*
X60789028Y1260504D01*
X60843545Y1288281D01*
X60859032Y1289500D01*
X61058420Y1289500D01*
X61252821Y1320290D01*
X61252822Y1320291D01*
X61252826Y1320291D01*
X61440025Y1381116D01*
X61615405Y1470476D01*
X61774646Y1586172D01*
X61913828Y1725354D01*
X62029524Y1884595D01*
X62118884Y2059975D01*
X62135845Y2112177D01*
X62171809Y2161676D01*
X62230000Y2180583D01*
X62288191Y2161676D01*
X62324154Y2112177D01*
X62336535Y2074075D01*
X62341116Y2059975D01*
X62430473Y1884599D01*
X62430476Y1884595D01*
X62546172Y1725354D01*
X62685354Y1586172D01*
X62844595Y1470476D01*
X63019975Y1381116D01*
X63207174Y1320291D01*
X63207175Y1320291D01*
X63207178Y1320290D01*
X63401580Y1289500D01*
X63401583Y1289500D01*
X63598420Y1289500D01*
X63792821Y1320290D01*
X63792822Y1320291D01*
X63792826Y1320291D01*
X63980025Y1381116D01*
X64155405Y1470476D01*
X64314646Y1586172D01*
X64453828Y1725354D01*
X64569524Y1884595D01*
X64658884Y2059975D01*
X64719709Y2247174D01*
X64723095Y2268551D01*
X64750500Y2441580D01*
X64750500Y2638421D01*
X64719710Y2832820D01*
X64719709Y2832823D01*
X64719709Y2832826D01*
X64702071Y2887106D01*
X64702071Y2948287D01*
X64726220Y2987698D01*
X66190510Y4451986D01*
X66262984Y4577515D01*
X66300500Y4717526D01*
X66300500Y4862475D01*
X66300500Y31942475D01*
X66262984Y32082485D01*
X66190510Y32208015D01*
X65281194Y33117331D01*
X65253417Y33171848D01*
X65262987Y33232275D01*
X65322547Y33349168D01*
X65380940Y33528882D01*
X65393102Y33605672D01*
X65410500Y33715516D01*
X65410500Y33904485D01*
X65380941Y34091114D01*
X65364470Y34141807D01*
X65322547Y34270832D01*
X65236760Y34439199D01*
X65125690Y34592073D01*
X64992073Y34725690D01*
X64839199Y34836760D01*
X64839198Y34836761D01*
X64839196Y34836762D01*
X64670832Y34922547D01*
X64491113Y34980942D01*
X64483046Y34982219D01*
X64428529Y35009996D01*
X64400751Y35064512D01*
X64410322Y35124944D01*
X64453586Y35168209D01*
X64483046Y35177781D01*
X64491113Y35179059D01*
X64491114Y35179060D01*
X64491118Y35179060D01*
X64670832Y35237453D01*
X64839199Y35323240D01*
X64992073Y35434310D01*
X65125690Y35567927D01*
X65236760Y35720801D01*
X65322547Y35889168D01*
X65380940Y36068882D01*
X65389430Y36122485D01*
X65410500Y36255516D01*
X65410500Y36444485D01*
X65380941Y36631114D01*
X65356646Y36705886D01*
X65322547Y36810832D01*
X65236760Y36979199D01*
X65125690Y37132073D01*
X64992073Y37265690D01*
X64839199Y37376760D01*
X64839198Y37376761D01*
X64839196Y37376762D01*
X64670832Y37462547D01*
X64491113Y37520942D01*
X64483046Y37522219D01*
X64428529Y37549996D01*
X64400751Y37604512D01*
X64410322Y37664944D01*
X64453586Y37708209D01*
X64483046Y37717781D01*
X64491113Y37719059D01*
X64491114Y37719060D01*
X64491118Y37719060D01*
X64670832Y37777453D01*
X64839199Y37863240D01*
X64992073Y37974310D01*
X65125690Y38107927D01*
X65236760Y38260801D01*
X65322547Y38429168D01*
X65380940Y38608882D01*
X65384572Y38631815D01*
X65410500Y38795516D01*
X65410500Y38984485D01*
X65380941Y39171114D01*
X65380940Y39171118D01*
X65322547Y39350832D01*
X65236760Y39519199D01*
X65125690Y39672073D01*
X64992073Y39805690D01*
X64839199Y39916760D01*
X64839198Y39916761D01*
X64839196Y39916762D01*
X64670832Y40002547D01*
X64491113Y40060942D01*
X64304484Y40090500D01*
X64304481Y40090500D01*
X63315519Y40090500D01*
X63315516Y40090500D01*
X63128886Y40060942D01*
X62949167Y40002547D01*
X62780803Y39916762D01*
X62627928Y39805691D01*
X62494309Y39672072D01*
X62383238Y39519197D01*
X62297453Y39350833D01*
X62239058Y39171114D01*
X62209500Y38984485D01*
X62209500Y38795516D01*
X62239058Y38608887D01*
X62297453Y38429168D01*
X62376358Y38274306D01*
X62383240Y38260801D01*
X62494310Y38107927D01*
X62627927Y37974310D01*
X62780801Y37863240D01*
X62949168Y37777453D01*
X63128882Y37719060D01*
X63128883Y37719060D01*
X63128886Y37719059D01*
X63136954Y37717781D01*
X63191471Y37690004D01*
X63219248Y37635487D01*
X63209677Y37575055D01*
X63166412Y37531790D01*
X63136954Y37522219D01*
X63128886Y37520942D01*
X62949167Y37462547D01*
X62780803Y37376762D01*
X62627928Y37265691D01*
X62494309Y37132072D01*
X62383238Y36979197D01*
X62297453Y36810833D01*
X62239058Y36631114D01*
X62209500Y36444485D01*
X62209500Y36255516D01*
X62239058Y36068887D01*
X62297453Y35889168D01*
X62383240Y35720801D01*
X62494310Y35567927D01*
X62627927Y35434310D01*
X62780801Y35323240D01*
X62949168Y35237453D01*
X63128882Y35179060D01*
X63128883Y35179060D01*
X63128886Y35179059D01*
X63136954Y35177781D01*
X63191471Y35150004D01*
X63219248Y35095487D01*
X63209677Y35035055D01*
X63166412Y34991790D01*
X63136954Y34982219D01*
X63128886Y34980942D01*
X62949167Y34922547D01*
X62780803Y34836762D01*
X62627928Y34725691D01*
X62494309Y34592072D01*
X62383238Y34439197D01*
X62297453Y34270833D01*
X62239058Y34091114D01*
X62209500Y33904485D01*
X62209500Y33715516D01*
X62239058Y33528887D01*
X62297453Y33349168D01*
X62378948Y33189223D01*
X62383240Y33180801D01*
X62494310Y33027927D01*
X62627927Y32894310D01*
X62780801Y32783240D01*
X62949168Y32697453D01*
X63128882Y32639060D01*
X63128883Y32639060D01*
X63128886Y32639059D01*
X63315516Y32609500D01*
X63315519Y32609500D01*
X64190967Y32609500D01*
X64198564Y32607032D01*
X64206454Y32608281D01*
X64227109Y32597757D01*
X64249158Y32590593D01*
X64260971Y32580504D01*
X64302471Y32539004D01*
X64330248Y32484487D01*
X64320677Y32424055D01*
X64277412Y32380790D01*
X64232467Y32370000D01*
X63960001Y32370000D01*
X63960000Y32369999D01*
X63960000Y31643919D01*
X63862661Y31670000D01*
X63757339Y31670000D01*
X63660000Y31643919D01*
X63660000Y32369999D01*
X63659999Y32370000D01*
X63323425Y32370000D01*
X63152420Y32342916D01*
X62987751Y32289412D01*
X62833475Y32210805D01*
X62833471Y32210803D01*
X62693403Y32109038D01*
X62570962Y31986597D01*
X62469197Y31846529D01*
X62469195Y31846525D01*
X62390588Y31692249D01*
X62337084Y31527580D01*
X62320045Y31420001D01*
X62320046Y31420000D01*
X63436082Y31420000D01*
X63410000Y31322661D01*
X63410000Y31217339D01*
X63436082Y31120000D01*
X62320045Y31120000D01*
X62337084Y31012421D01*
X62390588Y30847752D01*
X62469195Y30693476D01*
X62469197Y30693472D01*
X62570962Y30553404D01*
X62693403Y30430963D01*
X62833471Y30329198D01*
X62833475Y30329196D01*
X62987751Y30250589D01*
X63152420Y30197085D01*
X63323425Y30170000D01*
X63659999Y30170000D01*
X63660000Y30170001D01*
X63660000Y30896082D01*
X63757339Y30870000D01*
X63862661Y30870000D01*
X63960000Y30896082D01*
X63960000Y30170001D01*
X63960001Y30170000D01*
X64296575Y30170000D01*
X64467579Y30197085D01*
X64632248Y30250589D01*
X64786524Y30329196D01*
X64786528Y30329198D01*
X64926596Y30430963D01*
X65030496Y30534862D01*
X65085013Y30562639D01*
X65145445Y30553068D01*
X65188710Y30509803D01*
X65199500Y30464858D01*
X65199500Y29677270D01*
X65180593Y29619079D01*
X65131093Y29583115D01*
X65069907Y29583115D01*
X65030498Y29607265D01*
X64992073Y29645690D01*
X64839199Y29756760D01*
X64839198Y29756761D01*
X64839196Y29756762D01*
X64670832Y29842547D01*
X64491113Y29900942D01*
X64304484Y29930500D01*
X64304481Y29930500D01*
X63315519Y29930500D01*
X63315516Y29930500D01*
X63128886Y29900942D01*
X62996911Y29858060D01*
X62935725Y29858060D01*
X62896314Y29882211D01*
X61579496Y31199029D01*
X61551719Y31253546D01*
X61550500Y31269033D01*
X61550500Y42344485D01*
X62549500Y42344485D01*
X62549500Y42155516D01*
X62579058Y41968887D01*
X62579060Y41968882D01*
X62637453Y41789168D01*
X62723240Y41620801D01*
X62834310Y41467927D01*
X62967927Y41334310D01*
X63120801Y41223240D01*
X63289168Y41137453D01*
X63468882Y41079060D01*
X63468883Y41079060D01*
X63468886Y41079059D01*
X63655516Y41049500D01*
X63655519Y41049500D01*
X63844484Y41049500D01*
X64031113Y41079059D01*
X64031114Y41079060D01*
X64031118Y41079060D01*
X64210832Y41137453D01*
X64379199Y41223240D01*
X64532073Y41334310D01*
X64665690Y41467927D01*
X64776760Y41620801D01*
X64862547Y41789168D01*
X64920940Y41968882D01*
X64950500Y42155519D01*
X64950500Y42344481D01*
X64950500Y42344485D01*
X64920941Y42531114D01*
X64920940Y42531118D01*
X64862547Y42710832D01*
X64776760Y42879199D01*
X64665690Y43032073D01*
X64532073Y43165690D01*
X64379199Y43276760D01*
X64379198Y43276761D01*
X64379196Y43276762D01*
X64210832Y43362547D01*
X64031113Y43420942D01*
X63844484Y43450500D01*
X63844481Y43450500D01*
X63655519Y43450500D01*
X63655516Y43450500D01*
X63468886Y43420942D01*
X63289167Y43362547D01*
X63120803Y43276762D01*
X62967928Y43165691D01*
X62834309Y43032072D01*
X62723238Y42879197D01*
X62637453Y42710833D01*
X62579058Y42531114D01*
X62549500Y42344485D01*
X61550500Y42344485D01*
X61550500Y45782985D01*
X61567185Y45837987D01*
X61594722Y45879199D01*
X61620775Y45918189D01*
X61673580Y46045672D01*
X61700500Y46181007D01*
X61700500Y46318993D01*
X61673580Y46454328D01*
X61620775Y46581811D01*
X61620774Y46581813D01*
X61620771Y46581818D01*
X61544114Y46696542D01*
X61446541Y46794115D01*
X61331817Y46870772D01*
X61331806Y46870778D01*
X61204328Y46923580D01*
X61068995Y46950500D01*
X61068993Y46950500D01*
X60931007Y46950500D01*
X60931004Y46950500D01*
X60795672Y46923580D01*
X60795670Y46923580D01*
X60668193Y46870778D01*
X60668182Y46870772D01*
X60553458Y46794115D01*
X60455885Y46696542D01*
X60379228Y46581818D01*
X60379222Y46581807D01*
X60326420Y46454330D01*
X60326420Y46454328D01*
X60299500Y46318996D01*
X60299500Y46181005D01*
X60326420Y46045673D01*
X60326420Y46045671D01*
X60379223Y45918192D01*
X60379224Y45918190D01*
X60379225Y45918189D01*
X60389403Y45902956D01*
X60432815Y45837987D01*
X60449500Y45782985D01*
X60449500Y31072474D01*
X60449500Y30927526D01*
X60487016Y30787515D01*
X60559490Y30661985D01*
X61379657Y29841818D01*
X62199467Y29022008D01*
X62227244Y28967491D01*
X62227244Y28936517D01*
X62209500Y28824485D01*
X62209500Y28635516D01*
X62239058Y28448887D01*
X62239060Y28448882D01*
X62297453Y28269168D01*
X62383240Y28100801D01*
X62494310Y27947927D01*
X62627927Y27814310D01*
X62780801Y27703240D01*
X62949168Y27617453D01*
X63128882Y27559060D01*
X63128883Y27559060D01*
X63128886Y27559059D01*
X63136954Y27557781D01*
X63191471Y27530004D01*
X63219248Y27475487D01*
X63209677Y27415055D01*
X63166412Y27371790D01*
X63136954Y27362219D01*
X63128886Y27360942D01*
X62949167Y27302547D01*
X62780803Y27216762D01*
X62627928Y27105691D01*
X62494309Y26972072D01*
X62383238Y26819197D01*
X62297453Y26650833D01*
X62239058Y26471114D01*
X62209500Y26284485D01*
X62209500Y26095516D01*
X62239058Y25908887D01*
X62297453Y25729168D01*
X62357010Y25612280D01*
X62366581Y25551848D01*
X62338804Y25497331D01*
X58809490Y21968015D01*
X58737016Y21842485D01*
X58699500Y21702475D01*
X58699500Y18921586D01*
X58680593Y18863395D01*
X58631093Y18827431D01*
X58569907Y18827431D01*
X58530496Y18851582D01*
X58510292Y18871786D01*
X58510289Y18871789D01*
X58435763Y18921586D01*
X58379185Y18959391D01*
X58379174Y18959397D01*
X58233497Y19019737D01*
X58078844Y19050500D01*
X58078842Y19050500D01*
X57921158Y19050500D01*
X57921155Y19050500D01*
X57766503Y19019737D01*
X57766501Y19019737D01*
X57620825Y18959397D01*
X57620814Y18959391D01*
X57489711Y18871789D01*
X57489707Y18871786D01*
X57378214Y18760293D01*
X57378211Y18760289D01*
X57290609Y18629186D01*
X57290603Y18629175D01*
X57230263Y18483499D01*
X57230263Y18483497D01*
X57199500Y18328845D01*
X57199500Y10372586D01*
X57180593Y10314395D01*
X57170504Y10302582D01*
X55628214Y8760293D01*
X55628211Y8760289D01*
X55540609Y8629186D01*
X55540603Y8629175D01*
X55480263Y8483499D01*
X55480263Y8483497D01*
X55449500Y8328845D01*
X55449500Y8171156D01*
X55458327Y8126781D01*
X55473434Y8050832D01*
X55480263Y8016504D01*
X55480263Y8016502D01*
X55540603Y7870826D01*
X55540609Y7870815D01*
X55565484Y7833588D01*
X55628211Y7739711D01*
X55739711Y7628211D01*
X55796898Y7590000D01*
X55870814Y7540610D01*
X55870825Y7540604D01*
X55924638Y7518315D01*
X56016503Y7480263D01*
X56171158Y7449500D01*
X56171159Y7449500D01*
X56328841Y7449500D01*
X56328842Y7449500D01*
X56483497Y7480263D01*
X56629179Y7540606D01*
X56760289Y7628211D01*
X58530498Y9398421D01*
X58585013Y9426196D01*
X58645445Y9416625D01*
X58688710Y9373360D01*
X58699500Y9328415D01*
X58699500Y3877734D01*
X58680593Y3819543D01*
X58631093Y3783579D01*
X58585013Y3779953D01*
X58518420Y3790500D01*
X58518417Y3790500D01*
X58321583Y3790500D01*
X58321580Y3790500D01*
X58127178Y3759711D01*
X57939974Y3698884D01*
X57764597Y3609526D01*
X57605355Y3493829D01*
X57466171Y3354645D01*
X57350474Y3195403D01*
X57261114Y3020022D01*
X57261112Y3020019D01*
X57244154Y2967825D01*
X57208190Y2918325D01*
X57149999Y2899418D01*
X57091809Y2918326D01*
X57055846Y2967825D01*
X57038887Y3020019D01*
X57038885Y3020022D01*
X57038884Y3020023D01*
X57038884Y3020025D01*
X56949524Y3195405D01*
X56833828Y3354646D01*
X56694646Y3493828D01*
X56535405Y3609524D01*
X56535404Y3609525D01*
X56535402Y3609526D01*
X56360025Y3698884D01*
X56172821Y3759711D01*
X55978420Y3790500D01*
X55978417Y3790500D01*
X55781583Y3790500D01*
X55781580Y3790500D01*
X55587178Y3759711D01*
X55399974Y3698884D01*
X55224597Y3609526D01*
X55065355Y3493829D01*
X54926171Y3354645D01*
X54810474Y3195403D01*
X54721114Y3020022D01*
X54721112Y3020019D01*
X54704154Y2967825D01*
X54668190Y2918325D01*
X54609999Y2899418D01*
X54551809Y2918326D01*
X54515846Y2967825D01*
X54498887Y3020019D01*
X54498885Y3020022D01*
X54498884Y3020023D01*
X54498884Y3020025D01*
X54409524Y3195405D01*
X54293828Y3354646D01*
X54154646Y3493828D01*
X54001670Y3604972D01*
X53995401Y3609527D01*
X53995399Y3609528D01*
X53944554Y3635435D01*
X53901290Y3678700D01*
X53890500Y3723644D01*
X53890500Y21260001D01*
X54700045Y21260001D01*
X54700046Y21260000D01*
X55816082Y21260000D01*
X55790000Y21162661D01*
X55790000Y21057339D01*
X55816082Y20960000D01*
X54700045Y20960000D01*
X54717084Y20852421D01*
X54770588Y20687752D01*
X54849195Y20533476D01*
X54849197Y20533472D01*
X54950962Y20393404D01*
X55073403Y20270963D01*
X55213471Y20169198D01*
X55213475Y20169196D01*
X55367751Y20090589D01*
X55532420Y20037085D01*
X55703425Y20010000D01*
X56039999Y20010000D01*
X56040000Y20010001D01*
X56040000Y20736082D01*
X56137339Y20710000D01*
X56242661Y20710000D01*
X56340000Y20736082D01*
X56340000Y20010001D01*
X56340001Y20010000D01*
X56676575Y20010000D01*
X56847579Y20037085D01*
X57012248Y20090589D01*
X57166524Y20169196D01*
X57166528Y20169198D01*
X57306596Y20270963D01*
X57429037Y20393404D01*
X57530802Y20533472D01*
X57530804Y20533476D01*
X57609411Y20687752D01*
X57662915Y20852421D01*
X57679954Y20960000D01*
X56563918Y20960000D01*
X56590000Y21057339D01*
X56590000Y21162661D01*
X56563918Y21260000D01*
X57679954Y21260000D01*
X57679954Y21260001D01*
X57662915Y21367580D01*
X57609411Y21532249D01*
X57530804Y21686525D01*
X57530802Y21686529D01*
X57429037Y21826597D01*
X57306596Y21949038D01*
X57166528Y22050803D01*
X57166524Y22050805D01*
X57012248Y22129412D01*
X56847579Y22182916D01*
X56676575Y22210000D01*
X56340001Y22210000D01*
X56340000Y22209999D01*
X56340000Y21483919D01*
X56242661Y21510000D01*
X56137339Y21510000D01*
X56040000Y21483919D01*
X56040000Y22209999D01*
X56039999Y22210000D01*
X55703425Y22210000D01*
X55532420Y22182916D01*
X55367751Y22129412D01*
X55213475Y22050805D01*
X55213471Y22050803D01*
X55073403Y21949038D01*
X54950962Y21826597D01*
X54849197Y21686529D01*
X54849195Y21686525D01*
X54770588Y21532249D01*
X54717084Y21367580D01*
X54700045Y21260001D01*
X53890500Y21260001D01*
X53890500Y35982475D01*
X53852984Y36122485D01*
X53780510Y36248015D01*
X52719492Y37309033D01*
X52692398Y37359723D01*
X52689009Y37376762D01*
X52673580Y37454328D01*
X52633953Y37549996D01*
X52620777Y37581807D01*
X52620771Y37581818D01*
X52544114Y37696542D01*
X52446541Y37794115D01*
X52331817Y37870772D01*
X52331806Y37870778D01*
X52204328Y37923580D01*
X52068995Y37950500D01*
X52068993Y37950500D01*
X51931007Y37950500D01*
X51931002Y37950500D01*
X51918813Y37948075D01*
X51858052Y37955267D01*
X51813122Y37996800D01*
X51800500Y38045173D01*
X51800500Y39505694D01*
X54589500Y39505694D01*
X54589500Y38274306D01*
X54590563Y38260804D01*
X54592401Y38237435D01*
X54592401Y38237432D01*
X54592402Y38237431D01*
X54638256Y38079602D01*
X54721919Y37938135D01*
X54838135Y37821919D01*
X54979602Y37738256D01*
X55137431Y37692402D01*
X55174306Y37689500D01*
X55174311Y37689500D01*
X55402594Y37689500D01*
X55460785Y37670593D01*
X55496749Y37621093D01*
X55496749Y37559907D01*
X55460785Y37510407D01*
X55433187Y37496345D01*
X55329167Y37462547D01*
X55160803Y37376762D01*
X55007928Y37265691D01*
X54874309Y37132072D01*
X54763238Y36979197D01*
X54677453Y36810833D01*
X54619058Y36631114D01*
X54589500Y36444485D01*
X54589500Y36255516D01*
X54619058Y36068887D01*
X54677453Y35889168D01*
X54763240Y35720801D01*
X54874310Y35567927D01*
X55007927Y35434310D01*
X55160801Y35323240D01*
X55329168Y35237453D01*
X55508882Y35179060D01*
X55508883Y35179060D01*
X55508886Y35179059D01*
X55516954Y35177781D01*
X55571471Y35150004D01*
X55599248Y35095487D01*
X55589677Y35035055D01*
X55546412Y34991790D01*
X55516954Y34982219D01*
X55508886Y34980942D01*
X55329167Y34922547D01*
X55160803Y34836762D01*
X55007928Y34725691D01*
X54874309Y34592072D01*
X54763238Y34439197D01*
X54677453Y34270833D01*
X54619058Y34091114D01*
X54589500Y33904485D01*
X54589500Y33715516D01*
X54619058Y33528887D01*
X54677453Y33349168D01*
X54758948Y33189223D01*
X54763240Y33180801D01*
X54874310Y33027927D01*
X55007927Y32894310D01*
X55160801Y32783240D01*
X55329168Y32697453D01*
X55508882Y32639060D01*
X55508883Y32639060D01*
X55508886Y32639059D01*
X55516954Y32637781D01*
X55571471Y32610004D01*
X55599248Y32555487D01*
X55589677Y32495055D01*
X55546412Y32451790D01*
X55516954Y32442219D01*
X55508886Y32440942D01*
X55329167Y32382547D01*
X55160803Y32296762D01*
X55007928Y32185691D01*
X54874309Y32052072D01*
X54763238Y31899197D01*
X54677453Y31730833D01*
X54619058Y31551114D01*
X54589500Y31364485D01*
X54589500Y31175516D01*
X54619058Y30988887D01*
X54677453Y30809168D01*
X54752445Y30661986D01*
X54763240Y30640801D01*
X54874310Y30487927D01*
X55007927Y30354310D01*
X55160801Y30243240D01*
X55329168Y30157453D01*
X55508882Y30099060D01*
X55508883Y30099060D01*
X55508886Y30099059D01*
X55516954Y30097781D01*
X55571471Y30070004D01*
X55599248Y30015487D01*
X55589677Y29955055D01*
X55546412Y29911790D01*
X55516954Y29902219D01*
X55508886Y29900942D01*
X55329167Y29842547D01*
X55160803Y29756762D01*
X55007928Y29645691D01*
X54874309Y29512072D01*
X54763238Y29359197D01*
X54677453Y29190833D01*
X54619058Y29011114D01*
X54589500Y28824485D01*
X54589500Y28635516D01*
X54619058Y28448887D01*
X54619060Y28448882D01*
X54677453Y28269168D01*
X54763240Y28100801D01*
X54874310Y27947927D01*
X55007927Y27814310D01*
X55160801Y27703240D01*
X55329168Y27617453D01*
X55508882Y27559060D01*
X55508883Y27559060D01*
X55508886Y27559059D01*
X55516954Y27557781D01*
X55571471Y27530004D01*
X55599248Y27475487D01*
X55589677Y27415055D01*
X55546412Y27371790D01*
X55516954Y27362219D01*
X55508886Y27360942D01*
X55329167Y27302547D01*
X55160803Y27216762D01*
X55007928Y27105691D01*
X54874309Y26972072D01*
X54763238Y26819197D01*
X54677453Y26650833D01*
X54619058Y26471114D01*
X54589500Y26284485D01*
X54589500Y26095516D01*
X54619058Y25908887D01*
X54619060Y25908882D01*
X54677453Y25729168D01*
X54763240Y25560801D01*
X54874310Y25407927D01*
X55007927Y25274310D01*
X55160801Y25163240D01*
X55329168Y25077453D01*
X55508882Y25019060D01*
X55508883Y25019060D01*
X55508886Y25019059D01*
X55516954Y25017781D01*
X55571471Y24990004D01*
X55599248Y24935487D01*
X55589677Y24875055D01*
X55546412Y24831790D01*
X55516954Y24822219D01*
X55508886Y24820942D01*
X55329167Y24762547D01*
X55160803Y24676762D01*
X55007928Y24565691D01*
X54874309Y24432072D01*
X54763238Y24279197D01*
X54677453Y24110833D01*
X54619058Y23931114D01*
X54589500Y23744485D01*
X54589500Y23555516D01*
X54619058Y23368887D01*
X54677453Y23189168D01*
X54727887Y23090184D01*
X54763240Y23020801D01*
X54874310Y22867927D01*
X55007927Y22734310D01*
X55160801Y22623240D01*
X55329168Y22537453D01*
X55508882Y22479060D01*
X55508883Y22479060D01*
X55508886Y22479059D01*
X55695516Y22449500D01*
X55695519Y22449500D01*
X56684484Y22449500D01*
X56871113Y22479059D01*
X56871114Y22479060D01*
X56871118Y22479060D01*
X57050832Y22537453D01*
X57219199Y22623240D01*
X57372073Y22734310D01*
X57505690Y22867927D01*
X57616760Y23020801D01*
X57702547Y23189168D01*
X57760940Y23368882D01*
X57774262Y23452993D01*
X57790500Y23555516D01*
X57790500Y23744485D01*
X57760941Y23931114D01*
X57753832Y23952993D01*
X57702547Y24110832D01*
X57616760Y24279199D01*
X57505690Y24432073D01*
X57372073Y24565690D01*
X57219199Y24676760D01*
X57219198Y24676761D01*
X57219196Y24676762D01*
X57050832Y24762547D01*
X56871113Y24820942D01*
X56863046Y24822219D01*
X56808529Y24849996D01*
X56780751Y24904512D01*
X56790322Y24964944D01*
X56833586Y25008209D01*
X56863046Y25017781D01*
X56871113Y25019059D01*
X56871114Y25019060D01*
X56871118Y25019060D01*
X57050832Y25077453D01*
X57219199Y25163240D01*
X57372073Y25274310D01*
X57505690Y25407927D01*
X57616760Y25560801D01*
X57702547Y25729168D01*
X57760940Y25908882D01*
X57790500Y26095519D01*
X57790500Y26284481D01*
X57790500Y26284485D01*
X57760941Y26471114D01*
X57760940Y26471118D01*
X57702547Y26650832D01*
X57616760Y26819199D01*
X57505690Y26972073D01*
X57372073Y27105690D01*
X57219199Y27216760D01*
X57219198Y27216761D01*
X57219196Y27216762D01*
X57050832Y27302547D01*
X56871113Y27360942D01*
X56863046Y27362219D01*
X56808529Y27389996D01*
X56780751Y27444512D01*
X56790322Y27504944D01*
X56833586Y27548209D01*
X56863046Y27557781D01*
X56871113Y27559059D01*
X56871114Y27559060D01*
X56871118Y27559060D01*
X57050832Y27617453D01*
X57219199Y27703240D01*
X57372073Y27814310D01*
X57505690Y27947927D01*
X57616760Y28100801D01*
X57702547Y28269168D01*
X57760940Y28448882D01*
X57776876Y28549500D01*
X57790500Y28635516D01*
X57790500Y28824485D01*
X57760941Y29011114D01*
X57760940Y29011118D01*
X57702547Y29190832D01*
X57616760Y29359199D01*
X57505690Y29512073D01*
X57372073Y29645690D01*
X57219199Y29756760D01*
X57219198Y29756761D01*
X57219196Y29756762D01*
X57050832Y29842547D01*
X56871113Y29900942D01*
X56863046Y29902219D01*
X56808529Y29929996D01*
X56780751Y29984512D01*
X56790322Y30044944D01*
X56833586Y30088209D01*
X56863046Y30097781D01*
X56871113Y30099059D01*
X56871114Y30099060D01*
X56871118Y30099060D01*
X57050832Y30157453D01*
X57219199Y30243240D01*
X57372073Y30354310D01*
X57505690Y30487927D01*
X57616760Y30640801D01*
X57702547Y30809168D01*
X57760940Y30988882D01*
X57764668Y31012421D01*
X57790500Y31175516D01*
X57790500Y31364485D01*
X57760941Y31551114D01*
X57748280Y31590080D01*
X57702547Y31730832D01*
X57616760Y31899199D01*
X57505690Y32052073D01*
X57372073Y32185690D01*
X57219199Y32296760D01*
X57219198Y32296761D01*
X57219196Y32296762D01*
X57050832Y32382547D01*
X56871113Y32440942D01*
X56863046Y32442219D01*
X56808529Y32469996D01*
X56780751Y32524512D01*
X56790322Y32584944D01*
X56833586Y32628209D01*
X56863046Y32637781D01*
X56871113Y32639059D01*
X56871114Y32639060D01*
X56871118Y32639060D01*
X57050832Y32697453D01*
X57219199Y32783240D01*
X57372073Y32894310D01*
X57505690Y33027927D01*
X57616760Y33180801D01*
X57702547Y33349168D01*
X57760940Y33528882D01*
X57773102Y33605672D01*
X57790500Y33715516D01*
X57790500Y33904485D01*
X57760941Y34091114D01*
X57744470Y34141807D01*
X57702547Y34270832D01*
X57616760Y34439199D01*
X57505690Y34592073D01*
X57372073Y34725690D01*
X57219199Y34836760D01*
X57219198Y34836761D01*
X57219196Y34836762D01*
X57050832Y34922547D01*
X56871113Y34980942D01*
X56863046Y34982219D01*
X56808529Y35009996D01*
X56780751Y35064512D01*
X56790322Y35124944D01*
X56833586Y35168209D01*
X56863046Y35177781D01*
X56871113Y35179059D01*
X56871114Y35179060D01*
X56871118Y35179060D01*
X57050832Y35237453D01*
X57219199Y35323240D01*
X57372073Y35434310D01*
X57505690Y35567927D01*
X57616760Y35720801D01*
X57702547Y35889168D01*
X57760940Y36068882D01*
X57769430Y36122485D01*
X57790500Y36255516D01*
X57790500Y36444485D01*
X57760941Y36631114D01*
X57736646Y36705886D01*
X57702547Y36810832D01*
X57616760Y36979199D01*
X57505690Y37132073D01*
X57372073Y37265690D01*
X57219199Y37376760D01*
X57219198Y37376761D01*
X57219196Y37376762D01*
X57050832Y37462547D01*
X56946813Y37496345D01*
X56897313Y37532309D01*
X56878406Y37590500D01*
X56897313Y37648691D01*
X56946814Y37684655D01*
X56977406Y37689500D01*
X57205689Y37689500D01*
X57205694Y37689500D01*
X57242569Y37692402D01*
X57400398Y37738256D01*
X57541865Y37821919D01*
X57658081Y37938135D01*
X57741744Y38079602D01*
X57787598Y38237431D01*
X57790500Y38274306D01*
X57790500Y39505694D01*
X57787598Y39542569D01*
X57741744Y39700398D01*
X57658081Y39841865D01*
X57541865Y39958081D01*
X57400398Y40041744D01*
X57242569Y40087598D01*
X57242568Y40087599D01*
X57242565Y40087599D01*
X57219140Y40089442D01*
X57205694Y40090500D01*
X55174306Y40090500D01*
X55161773Y40089514D01*
X55137434Y40087599D01*
X55137427Y40087597D01*
X54979602Y40041744D01*
X54838136Y39958082D01*
X54721918Y39841864D01*
X54638256Y39700398D01*
X54592403Y39542573D01*
X54592401Y39542566D01*
X54590563Y39519199D01*
X54589500Y39505694D01*
X51800500Y39505694D01*
X51800500Y43360968D01*
X51819407Y43419159D01*
X51829490Y43430966D01*
X55735099Y47336576D01*
X62650000Y47336576D01*
X62650000Y47163425D01*
X62677084Y46992421D01*
X62730588Y46827752D01*
X62809195Y46673476D01*
X62809197Y46673472D01*
X62873219Y46585354D01*
X63379532Y47091668D01*
X63429920Y47004394D01*
X63504394Y46929920D01*
X63591665Y46879535D01*
X63085352Y46373222D01*
X63173477Y46309195D01*
X63327751Y46230589D01*
X63492420Y46177085D01*
X63663425Y46150000D01*
X63836575Y46150000D01*
X64007579Y46177085D01*
X64172248Y46230589D01*
X64326524Y46309196D01*
X64326530Y46309200D01*
X64414646Y46373221D01*
X64414646Y46373222D01*
X63908333Y46879534D01*
X63995606Y46929920D01*
X64070080Y47004394D01*
X64120466Y47091667D01*
X64626778Y46585354D01*
X64626779Y46585354D01*
X64690800Y46673470D01*
X64690804Y46673476D01*
X64769411Y46827752D01*
X64822915Y46992421D01*
X64850000Y47163425D01*
X64850000Y47336576D01*
X64822915Y47507580D01*
X64769411Y47672249D01*
X64690805Y47826523D01*
X64626778Y47914648D01*
X64120465Y47408335D01*
X64070080Y47495606D01*
X63995606Y47570080D01*
X63908332Y47620468D01*
X64414646Y48126781D01*
X64326528Y48190803D01*
X64326524Y48190805D01*
X64172248Y48269412D01*
X64007579Y48322916D01*
X63836575Y48350000D01*
X63663425Y48350000D01*
X63492420Y48322916D01*
X63327751Y48269412D01*
X63173476Y48190805D01*
X63085352Y48126781D01*
X63591666Y47620467D01*
X63504394Y47570080D01*
X63429920Y47495606D01*
X63379533Y47408334D01*
X62873219Y47914648D01*
X62809195Y47826524D01*
X62730588Y47672249D01*
X62677084Y47507580D01*
X62650000Y47336576D01*
X55735099Y47336576D01*
X57972302Y49573779D01*
X58026817Y49601554D01*
X58072897Y49597927D01*
X58094068Y49591048D01*
X58127174Y49580291D01*
X58127175Y49580291D01*
X58127177Y49580290D01*
X58321580Y49549500D01*
X58321583Y49549500D01*
X58518420Y49549500D01*
X58712821Y49580290D01*
X58712822Y49580291D01*
X58712826Y49580291D01*
X58900025Y49641116D01*
X59075405Y49730476D01*
X59234646Y49846172D01*
X59373828Y49985354D01*
X59489524Y50144595D01*
X59578884Y50319975D01*
X59595845Y50372177D01*
X59631809Y50421676D01*
X59690000Y50440583D01*
X59748191Y50421676D01*
X59784155Y50372176D01*
X59801116Y50319975D01*
X59890473Y50144599D01*
X59890476Y50144595D01*
X60006172Y49985354D01*
X60145354Y49846172D01*
X60304595Y49730476D01*
X60479975Y49641116D01*
X60667174Y49580291D01*
X60667175Y49580291D01*
X60667178Y49580290D01*
X60861580Y49549500D01*
X60861583Y49549500D01*
X61058420Y49549500D01*
X61252821Y49580290D01*
X61252822Y49580291D01*
X61252826Y49580291D01*
X61440025Y49641116D01*
X61615405Y49730476D01*
X61774646Y49846172D01*
X61913828Y49985354D01*
X62029524Y50144595D01*
X62118884Y50319975D01*
X62135845Y50372177D01*
X62171809Y50421676D01*
X62230000Y50440583D01*
X62288191Y50421676D01*
X62324155Y50372176D01*
X62341116Y50319975D01*
X62430473Y50144599D01*
X62430476Y50144595D01*
X62546172Y49985354D01*
X62685354Y49846172D01*
X62844595Y49730476D01*
X63019975Y49641116D01*
X63207174Y49580291D01*
X63207175Y49580291D01*
X63207178Y49580290D01*
X63401580Y49549500D01*
X63401583Y49549500D01*
X63598420Y49549500D01*
X63792821Y49580290D01*
X63792822Y49580291D01*
X63792826Y49580291D01*
X63980025Y49641116D01*
X64155405Y49730476D01*
X64314646Y49846172D01*
X64453828Y49985354D01*
X64569524Y50144595D01*
X64658884Y50319975D01*
X64719709Y50507174D01*
X64723095Y50528551D01*
X64750500Y50701580D01*
X64750500Y50898421D01*
X64719709Y51092828D01*
X64693288Y51174143D01*
X64693287Y51235328D01*
X64729251Y51284828D01*
X64787442Y51303736D01*
X64845632Y51284829D01*
G37*
%TD.AperFunction*%
%TA.AperFunction,Conductor*%
G36*
X52992897Y49597927D02*
G01*
X53014068Y49591048D01*
X53047174Y49580291D01*
X53047175Y49580291D01*
X53047177Y49580290D01*
X53241580Y49549500D01*
X53241583Y49549500D01*
X53438420Y49549500D01*
X53574568Y49571064D01*
X53627672Y49579475D01*
X53688104Y49569904D01*
X53731369Y49526639D01*
X53740940Y49466207D01*
X53713163Y49411691D01*
X53713163Y49411690D01*
X49809490Y45508015D01*
X49737016Y45382485D01*
X49699500Y45242475D01*
X49699500Y25467016D01*
X49682815Y25412014D01*
X49629228Y25331818D01*
X49629222Y25331807D01*
X49576420Y25204330D01*
X49576420Y25204328D01*
X49549500Y25068996D01*
X49549500Y24931005D01*
X49565514Y24850500D01*
X49571393Y24820942D01*
X49576420Y24795673D01*
X49576420Y24795671D01*
X49629222Y24668194D01*
X49629228Y24668183D01*
X49705885Y24553459D01*
X49803458Y24455886D01*
X49918182Y24379229D01*
X49918193Y24379223D01*
X49965283Y24359718D01*
X50045672Y24326420D01*
X50181007Y24299500D01*
X50181008Y24299500D01*
X50281966Y24299500D01*
X50340157Y24280593D01*
X50376121Y24231093D01*
X50376121Y24169907D01*
X50351969Y24130496D01*
X49940965Y23719493D01*
X49890277Y23692399D01*
X49795671Y23673580D01*
X49668193Y23620778D01*
X49668182Y23620772D01*
X49553458Y23544115D01*
X49455885Y23446542D01*
X49379228Y23331818D01*
X49379222Y23331807D01*
X49326420Y23204330D01*
X49326420Y23204328D01*
X49299500Y23068996D01*
X49299500Y22931005D01*
X49307113Y22892733D01*
X49325457Y22800511D01*
X49326420Y22795673D01*
X49326420Y22795671D01*
X49379222Y22668194D01*
X49379228Y22668183D01*
X49455885Y22553459D01*
X49553458Y22455886D01*
X49668182Y22379229D01*
X49668193Y22379223D01*
X49693997Y22368535D01*
X49795672Y22326420D01*
X49931007Y22299500D01*
X49931008Y22299500D01*
X50068992Y22299500D01*
X50068993Y22299500D01*
X50204328Y22326420D01*
X50331811Y22379225D01*
X50446542Y22455886D01*
X50544114Y22553458D01*
X50620775Y22668189D01*
X50673580Y22795672D01*
X50692398Y22890280D01*
X50719490Y22940967D01*
X51280497Y23501973D01*
X51335013Y23529749D01*
X51395445Y23520178D01*
X51438710Y23476913D01*
X51449500Y23431968D01*
X51449500Y4009033D01*
X51447031Y4001436D01*
X51448281Y3993546D01*
X51437756Y3972891D01*
X51430593Y3950842D01*
X51420504Y3939031D01*
X51300969Y3819496D01*
X51246454Y3791719D01*
X51230967Y3790500D01*
X49918478Y3790500D01*
X49918476Y3790499D01*
X49824700Y3775648D01*
X49824695Y3775646D01*
X49711659Y3718051D01*
X49621949Y3628341D01*
X49564354Y3515305D01*
X49549500Y3421522D01*
X49549500Y2218033D01*
X49530593Y2159842D01*
X49481093Y2123878D01*
X49419907Y2123878D01*
X49380496Y2148029D01*
X44191949Y7336576D01*
X45150000Y7336576D01*
X45150000Y7163425D01*
X45177084Y6992421D01*
X45230588Y6827752D01*
X45309195Y6673476D01*
X45309197Y6673472D01*
X45373219Y6585354D01*
X45879532Y7091668D01*
X45929920Y7004394D01*
X46004394Y6929920D01*
X46091665Y6879535D01*
X45585352Y6373222D01*
X45673477Y6309195D01*
X45827751Y6230589D01*
X45992420Y6177085D01*
X46163425Y6150000D01*
X46336575Y6150000D01*
X46507579Y6177085D01*
X46672248Y6230589D01*
X46826524Y6309196D01*
X46826530Y6309200D01*
X46914646Y6373221D01*
X46914646Y6373222D01*
X46408333Y6879534D01*
X46495606Y6929920D01*
X46570080Y7004394D01*
X46620466Y7091667D01*
X47126778Y6585354D01*
X47126779Y6585354D01*
X47190800Y6673470D01*
X47190804Y6673476D01*
X47269411Y6827752D01*
X47322915Y6992421D01*
X47350000Y7163425D01*
X47350000Y7336576D01*
X47322915Y7507580D01*
X47269411Y7672249D01*
X47190805Y7826523D01*
X47126778Y7914648D01*
X46620465Y7408335D01*
X46570080Y7495606D01*
X46495606Y7570080D01*
X46408332Y7620468D01*
X46914646Y8126781D01*
X46826528Y8190803D01*
X46826524Y8190805D01*
X46672248Y8269412D01*
X46507579Y8322916D01*
X46336575Y8350000D01*
X46163425Y8350000D01*
X45992420Y8322916D01*
X45827751Y8269412D01*
X45673476Y8190805D01*
X45585352Y8126781D01*
X46091666Y7620467D01*
X46004394Y7570080D01*
X45929920Y7495606D01*
X45879533Y7408334D01*
X45373219Y7914648D01*
X45309195Y7826524D01*
X45230588Y7672249D01*
X45177084Y7507580D01*
X45150000Y7336576D01*
X44191949Y7336576D01*
X42829496Y8699029D01*
X42801719Y8753546D01*
X42800500Y8769033D01*
X42800500Y22391817D01*
X42819407Y22450008D01*
X42868907Y22485972D01*
X42930093Y22485972D01*
X42944445Y22480026D01*
X43019869Y22441595D01*
X43019872Y22441594D01*
X43019874Y22441594D01*
X43019877Y22441592D01*
X43187616Y22387090D01*
X43187617Y22387090D01*
X43187620Y22387089D01*
X43361812Y22359500D01*
X43361815Y22359500D01*
X43538188Y22359500D01*
X43712379Y22387089D01*
X43712380Y22387090D01*
X43712384Y22387090D01*
X43880123Y22441592D01*
X44037270Y22521662D01*
X44179957Y22625330D01*
X44304670Y22750043D01*
X44408338Y22892730D01*
X44488408Y23049877D01*
X44542910Y23217616D01*
X44560996Y23331807D01*
X44570500Y23391812D01*
X44570500Y24060968D01*
X44589407Y24119159D01*
X44599490Y24130966D01*
X44828871Y24360347D01*
X44883386Y24388122D01*
X44943818Y24378551D01*
X44987083Y24335286D01*
X44996654Y24274854D01*
X44995971Y24271027D01*
X44970000Y24140464D01*
X44970000Y23910001D01*
X44970001Y23910000D01*
X45512555Y23910000D01*
X45490000Y23825826D01*
X45490000Y23694174D01*
X45512555Y23610000D01*
X44970001Y23610000D01*
X44970000Y23609999D01*
X44970000Y23379537D01*
X45009197Y23182479D01*
X45086087Y22996850D01*
X45197715Y22829789D01*
X45197718Y22829785D01*
X45339784Y22687719D01*
X45339788Y22687716D01*
X45506849Y22576088D01*
X45692478Y22499198D01*
X45840000Y22469854D01*
X45840000Y23282555D01*
X45924174Y23260000D01*
X46055826Y23260000D01*
X46140000Y23282555D01*
X46140000Y22469855D01*
X46287521Y22499198D01*
X46473150Y22576088D01*
X46640211Y22687716D01*
X46640215Y22687719D01*
X46782281Y22829785D01*
X46782284Y22829789D01*
X46893912Y22996850D01*
X46970802Y23182479D01*
X47009999Y23379537D01*
X47010000Y23379541D01*
X47010000Y23609999D01*
X47009999Y23610000D01*
X46467445Y23610000D01*
X46490000Y23694174D01*
X46490000Y23825826D01*
X46467445Y23910000D01*
X47009999Y23910000D01*
X47010000Y23910001D01*
X47010000Y24140460D01*
X47009999Y24140464D01*
X46970802Y24337522D01*
X46893912Y24523151D01*
X46782284Y24690212D01*
X46782281Y24690216D01*
X46640215Y24832282D01*
X46640211Y24832285D01*
X46473150Y24943913D01*
X46287526Y25020801D01*
X46287522Y25020802D01*
X46140000Y25050147D01*
X46140000Y24237446D01*
X46055826Y24260000D01*
X45924174Y24260000D01*
X45840000Y24237446D01*
X45840000Y25050148D01*
X45758974Y25034030D01*
X45698213Y25041222D01*
X45653283Y25082754D01*
X45641346Y25142764D01*
X45666962Y25198329D01*
X45669631Y25201107D01*
X49190510Y28721985D01*
X49262984Y28847515D01*
X49288431Y28942485D01*
X49300500Y28987525D01*
X49300500Y45940968D01*
X49319407Y45999159D01*
X49329490Y46010966D01*
X52892302Y49573779D01*
X52912958Y49584303D01*
X52931712Y49597928D01*
X52939700Y49597928D01*
X52946817Y49601554D01*
X52992897Y49597927D01*
G37*
%TD.AperFunction*%
%TA.AperFunction,Conductor*%
G36*
X62155445Y23660178D02*
G01*
X62198710Y23616913D01*
X62209500Y23571968D01*
X62209500Y23555516D01*
X62239058Y23368887D01*
X62297453Y23189168D01*
X62347887Y23090184D01*
X62383240Y23020801D01*
X62494310Y22867927D01*
X62627927Y22734310D01*
X62780801Y22623240D01*
X62949168Y22537453D01*
X63128882Y22479060D01*
X63128883Y22479060D01*
X63128886Y22479059D01*
X63136954Y22477781D01*
X63191471Y22450004D01*
X63219248Y22395487D01*
X63209677Y22335055D01*
X63166412Y22291790D01*
X63136954Y22282219D01*
X63128886Y22280942D01*
X62949167Y22222547D01*
X62780803Y22136762D01*
X62627928Y22025691D01*
X62494309Y21892072D01*
X62383238Y21739197D01*
X62297453Y21570833D01*
X62239058Y21391114D01*
X62209500Y21204485D01*
X62209500Y21015516D01*
X62239058Y20828887D01*
X62268830Y20737259D01*
X62297453Y20649168D01*
X62383240Y20480801D01*
X62494310Y20327927D01*
X62627927Y20194310D01*
X62780801Y20083240D01*
X62949168Y19997453D01*
X63128882Y19939060D01*
X63128883Y19939060D01*
X63128886Y19939059D01*
X63315516Y19909500D01*
X63315519Y19909500D01*
X64304484Y19909500D01*
X64491113Y19939059D01*
X64491114Y19939060D01*
X64491118Y19939060D01*
X64670832Y19997453D01*
X64839199Y20083240D01*
X64992073Y20194310D01*
X65030498Y20232736D01*
X65085013Y20260511D01*
X65145445Y20250940D01*
X65188710Y20207675D01*
X65199500Y20162730D01*
X65199500Y5059033D01*
X65180593Y5000842D01*
X65170504Y4989029D01*
X63947699Y3766225D01*
X63893182Y3738448D01*
X63847103Y3742074D01*
X63792823Y3759710D01*
X63598420Y3790500D01*
X63598417Y3790500D01*
X63401583Y3790500D01*
X63401580Y3790500D01*
X63207178Y3759711D01*
X63019974Y3698884D01*
X62844597Y3609526D01*
X62685355Y3493829D01*
X62546171Y3354645D01*
X62430474Y3195403D01*
X62341114Y3020022D01*
X62341112Y3020019D01*
X62324154Y2967825D01*
X62288190Y2918325D01*
X62229999Y2899418D01*
X62171809Y2918326D01*
X62135846Y2967825D01*
X62118887Y3020019D01*
X62118885Y3020022D01*
X62118884Y3020023D01*
X62118884Y3020025D01*
X62029524Y3195405D01*
X61913828Y3354646D01*
X61774646Y3493828D01*
X61615405Y3609524D01*
X61615404Y3609525D01*
X61615402Y3609526D01*
X61440025Y3698884D01*
X61252821Y3759711D01*
X61058420Y3790500D01*
X61058417Y3790500D01*
X60861583Y3790500D01*
X60861580Y3790500D01*
X60667178Y3759711D01*
X60479974Y3698884D01*
X60304597Y3609526D01*
X60145355Y3493829D01*
X60006167Y3354641D01*
X59979592Y3318063D01*
X59930092Y3282099D01*
X59868907Y3282100D01*
X59819407Y3318064D01*
X59800500Y3376254D01*
X59800500Y21360968D01*
X59819407Y21419159D01*
X59829490Y21430966D01*
X62040496Y23641973D01*
X62095013Y23669749D01*
X62155445Y23660178D01*
G37*
%TD.AperFunction*%
%TD*%
M02*
