%TF.GenerationSoftware,KiCad,Pcbnew,9.0.7*%
%TF.CreationDate,2026-02-16T17:56:09-05:00*%
%TF.ProjectId,prom-shield,70726f6d-2d73-4686-9965-6c642e6b6963,B*%
%TF.SameCoordinates,PX5f5e100PY5f5e100*%
%TF.FileFunction,Soldermask,Top*%
%TF.FilePolarity,Negative*%
%FSLAX46Y46*%
G04 Gerber Fmt 4.6, Leading zero omitted, Abs format (unit mm)*
G04 Created by KiCad (PCBNEW 9.0.7) date 2026-02-16 17:56:09*
%MOMM*%
%LPD*%
G01*
G04 APERTURE LIST*
G04 APERTURE END LIST*
G36*
X28828268Y3482388D02*
G01*
X28860711Y3460711D01*
X28882388Y3428268D01*
X28890000Y3390000D01*
X28890000Y1690000D01*
X28882388Y1651732D01*
X28860711Y1619289D01*
X28828268Y1597612D01*
X28790000Y1590000D01*
X27090000Y1590000D01*
X27051732Y1597612D01*
X27019289Y1619289D01*
X26997612Y1651732D01*
X26990000Y1690000D01*
X26990000Y3390000D01*
X26997612Y3428268D01*
X27019289Y3460711D01*
X27051732Y3482388D01*
X27090000Y3490000D01*
X28790000Y3490000D01*
X28828268Y3482388D01*
G37*
G36*
X51688268Y3482388D02*
G01*
X51720711Y3460711D01*
X51742388Y3428268D01*
X51750000Y3390000D01*
X51750000Y1690000D01*
X51742388Y1651732D01*
X51720711Y1619289D01*
X51688268Y1597612D01*
X51650000Y1590000D01*
X49950000Y1590000D01*
X49911732Y1597612D01*
X49879289Y1619289D01*
X49857612Y1651732D01*
X49850000Y1690000D01*
X49850000Y3390000D01*
X49857612Y3428268D01*
X49879289Y3460711D01*
X49911732Y3482388D01*
X49950000Y3490000D01*
X51650000Y3490000D01*
X51688268Y3482388D01*
G37*
G36*
X30755770Y3449093D02*
G01*
X30927827Y3377825D01*
X31082674Y3274360D01*
X31214360Y3142674D01*
X31317825Y2987827D01*
X31389093Y2815770D01*
X31425425Y2633116D01*
X31425425Y2446884D01*
X31389093Y2264230D01*
X31317825Y2092173D01*
X31214360Y1937326D01*
X31082674Y1805640D01*
X30927827Y1702175D01*
X30755770Y1630907D01*
X30573116Y1594575D01*
X30386884Y1594575D01*
X30204230Y1630907D01*
X30032173Y1702175D01*
X29877326Y1805640D01*
X29745640Y1937326D01*
X29642175Y2092173D01*
X29570907Y2264230D01*
X29534575Y2446884D01*
X29534575Y2633116D01*
X29570907Y2815770D01*
X29642175Y2987827D01*
X29745640Y3142674D01*
X29877326Y3274360D01*
X30032173Y3377825D01*
X30204230Y3449093D01*
X30386884Y3485425D01*
X30573116Y3485425D01*
X30755770Y3449093D01*
G37*
G36*
X33295770Y3449093D02*
G01*
X33467827Y3377825D01*
X33622674Y3274360D01*
X33754360Y3142674D01*
X33857825Y2987827D01*
X33929093Y2815770D01*
X33965425Y2633116D01*
X33965425Y2446884D01*
X33929093Y2264230D01*
X33857825Y2092173D01*
X33754360Y1937326D01*
X33622674Y1805640D01*
X33467827Y1702175D01*
X33295770Y1630907D01*
X33113116Y1594575D01*
X32926884Y1594575D01*
X32744230Y1630907D01*
X32572173Y1702175D01*
X32417326Y1805640D01*
X32285640Y1937326D01*
X32182175Y2092173D01*
X32110907Y2264230D01*
X32074575Y2446884D01*
X32074575Y2633116D01*
X32110907Y2815770D01*
X32182175Y2987827D01*
X32285640Y3142674D01*
X32417326Y3274360D01*
X32572173Y3377825D01*
X32744230Y3449093D01*
X32926884Y3485425D01*
X33113116Y3485425D01*
X33295770Y3449093D01*
G37*
G36*
X35835770Y3449093D02*
G01*
X36007827Y3377825D01*
X36162674Y3274360D01*
X36294360Y3142674D01*
X36397825Y2987827D01*
X36469093Y2815770D01*
X36505425Y2633116D01*
X36505425Y2446884D01*
X36469093Y2264230D01*
X36397825Y2092173D01*
X36294360Y1937326D01*
X36162674Y1805640D01*
X36007827Y1702175D01*
X35835770Y1630907D01*
X35653116Y1594575D01*
X35466884Y1594575D01*
X35284230Y1630907D01*
X35112173Y1702175D01*
X34957326Y1805640D01*
X34825640Y1937326D01*
X34722175Y2092173D01*
X34650907Y2264230D01*
X34614575Y2446884D01*
X34614575Y2633116D01*
X34650907Y2815770D01*
X34722175Y2987827D01*
X34825640Y3142674D01*
X34957326Y3274360D01*
X35112173Y3377825D01*
X35284230Y3449093D01*
X35466884Y3485425D01*
X35653116Y3485425D01*
X35835770Y3449093D01*
G37*
G36*
X38375770Y3449093D02*
G01*
X38547827Y3377825D01*
X38702674Y3274360D01*
X38834360Y3142674D01*
X38937825Y2987827D01*
X39009093Y2815770D01*
X39045425Y2633116D01*
X39045425Y2446884D01*
X39009093Y2264230D01*
X38937825Y2092173D01*
X38834360Y1937326D01*
X38702674Y1805640D01*
X38547827Y1702175D01*
X38375770Y1630907D01*
X38193116Y1594575D01*
X38006884Y1594575D01*
X37824230Y1630907D01*
X37652173Y1702175D01*
X37497326Y1805640D01*
X37365640Y1937326D01*
X37262175Y2092173D01*
X37190907Y2264230D01*
X37154575Y2446884D01*
X37154575Y2633116D01*
X37190907Y2815770D01*
X37262175Y2987827D01*
X37365640Y3142674D01*
X37497326Y3274360D01*
X37652173Y3377825D01*
X37824230Y3449093D01*
X38006884Y3485425D01*
X38193116Y3485425D01*
X38375770Y3449093D01*
G37*
G36*
X40915770Y3449093D02*
G01*
X41087827Y3377825D01*
X41242674Y3274360D01*
X41374360Y3142674D01*
X41477825Y2987827D01*
X41549093Y2815770D01*
X41585425Y2633116D01*
X41585425Y2446884D01*
X41549093Y2264230D01*
X41477825Y2092173D01*
X41374360Y1937326D01*
X41242674Y1805640D01*
X41087827Y1702175D01*
X40915770Y1630907D01*
X40733116Y1594575D01*
X40546884Y1594575D01*
X40364230Y1630907D01*
X40192173Y1702175D01*
X40037326Y1805640D01*
X39905640Y1937326D01*
X39802175Y2092173D01*
X39730907Y2264230D01*
X39694575Y2446884D01*
X39694575Y2633116D01*
X39730907Y2815770D01*
X39802175Y2987827D01*
X39905640Y3142674D01*
X40037326Y3274360D01*
X40192173Y3377825D01*
X40364230Y3449093D01*
X40546884Y3485425D01*
X40733116Y3485425D01*
X40915770Y3449093D01*
G37*
G36*
X43455770Y3449093D02*
G01*
X43627827Y3377825D01*
X43782674Y3274360D01*
X43914360Y3142674D01*
X44017825Y2987827D01*
X44089093Y2815770D01*
X44125425Y2633116D01*
X44125425Y2446884D01*
X44089093Y2264230D01*
X44017825Y2092173D01*
X43914360Y1937326D01*
X43782674Y1805640D01*
X43627827Y1702175D01*
X43455770Y1630907D01*
X43273116Y1594575D01*
X43086884Y1594575D01*
X42904230Y1630907D01*
X42732173Y1702175D01*
X42577326Y1805640D01*
X42445640Y1937326D01*
X42342175Y2092173D01*
X42270907Y2264230D01*
X42234575Y2446884D01*
X42234575Y2633116D01*
X42270907Y2815770D01*
X42342175Y2987827D01*
X42445640Y3142674D01*
X42577326Y3274360D01*
X42732173Y3377825D01*
X42904230Y3449093D01*
X43086884Y3485425D01*
X43273116Y3485425D01*
X43455770Y3449093D01*
G37*
G36*
X45995770Y3449093D02*
G01*
X46167827Y3377825D01*
X46322674Y3274360D01*
X46454360Y3142674D01*
X46557825Y2987827D01*
X46629093Y2815770D01*
X46665425Y2633116D01*
X46665425Y2446884D01*
X46629093Y2264230D01*
X46557825Y2092173D01*
X46454360Y1937326D01*
X46322674Y1805640D01*
X46167827Y1702175D01*
X45995770Y1630907D01*
X45813116Y1594575D01*
X45626884Y1594575D01*
X45444230Y1630907D01*
X45272173Y1702175D01*
X45117326Y1805640D01*
X44985640Y1937326D01*
X44882175Y2092173D01*
X44810907Y2264230D01*
X44774575Y2446884D01*
X44774575Y2633116D01*
X44810907Y2815770D01*
X44882175Y2987827D01*
X44985640Y3142674D01*
X45117326Y3274360D01*
X45272173Y3377825D01*
X45444230Y3449093D01*
X45626884Y3485425D01*
X45813116Y3485425D01*
X45995770Y3449093D01*
G37*
G36*
X53615770Y3449093D02*
G01*
X53787827Y3377825D01*
X53942674Y3274360D01*
X54074360Y3142674D01*
X54177825Y2987827D01*
X54249093Y2815770D01*
X54285425Y2633116D01*
X54285425Y2446884D01*
X54249093Y2264230D01*
X54177825Y2092173D01*
X54074360Y1937326D01*
X53942674Y1805640D01*
X53787827Y1702175D01*
X53615770Y1630907D01*
X53433116Y1594575D01*
X53246884Y1594575D01*
X53064230Y1630907D01*
X52892173Y1702175D01*
X52737326Y1805640D01*
X52605640Y1937326D01*
X52502175Y2092173D01*
X52430907Y2264230D01*
X52394575Y2446884D01*
X52394575Y2633116D01*
X52430907Y2815770D01*
X52502175Y2987827D01*
X52605640Y3142674D01*
X52737326Y3274360D01*
X52892173Y3377825D01*
X53064230Y3449093D01*
X53246884Y3485425D01*
X53433116Y3485425D01*
X53615770Y3449093D01*
G37*
G36*
X56155770Y3449093D02*
G01*
X56327827Y3377825D01*
X56482674Y3274360D01*
X56614360Y3142674D01*
X56717825Y2987827D01*
X56789093Y2815770D01*
X56825425Y2633116D01*
X56825425Y2446884D01*
X56789093Y2264230D01*
X56717825Y2092173D01*
X56614360Y1937326D01*
X56482674Y1805640D01*
X56327827Y1702175D01*
X56155770Y1630907D01*
X55973116Y1594575D01*
X55786884Y1594575D01*
X55604230Y1630907D01*
X55432173Y1702175D01*
X55277326Y1805640D01*
X55145640Y1937326D01*
X55042175Y2092173D01*
X54970907Y2264230D01*
X54934575Y2446884D01*
X54934575Y2633116D01*
X54970907Y2815770D01*
X55042175Y2987827D01*
X55145640Y3142674D01*
X55277326Y3274360D01*
X55432173Y3377825D01*
X55604230Y3449093D01*
X55786884Y3485425D01*
X55973116Y3485425D01*
X56155770Y3449093D01*
G37*
G36*
X58695770Y3449093D02*
G01*
X58867827Y3377825D01*
X59022674Y3274360D01*
X59154360Y3142674D01*
X59257825Y2987827D01*
X59329093Y2815770D01*
X59365425Y2633116D01*
X59365425Y2446884D01*
X59329093Y2264230D01*
X59257825Y2092173D01*
X59154360Y1937326D01*
X59022674Y1805640D01*
X58867827Y1702175D01*
X58695770Y1630907D01*
X58513116Y1594575D01*
X58326884Y1594575D01*
X58144230Y1630907D01*
X57972173Y1702175D01*
X57817326Y1805640D01*
X57685640Y1937326D01*
X57582175Y2092173D01*
X57510907Y2264230D01*
X57474575Y2446884D01*
X57474575Y2633116D01*
X57510907Y2815770D01*
X57582175Y2987827D01*
X57685640Y3142674D01*
X57817326Y3274360D01*
X57972173Y3377825D01*
X58144230Y3449093D01*
X58326884Y3485425D01*
X58513116Y3485425D01*
X58695770Y3449093D01*
G37*
G36*
X61235770Y3449093D02*
G01*
X61407827Y3377825D01*
X61562674Y3274360D01*
X61694360Y3142674D01*
X61797825Y2987827D01*
X61869093Y2815770D01*
X61905425Y2633116D01*
X61905425Y2446884D01*
X61869093Y2264230D01*
X61797825Y2092173D01*
X61694360Y1937326D01*
X61562674Y1805640D01*
X61407827Y1702175D01*
X61235770Y1630907D01*
X61053116Y1594575D01*
X60866884Y1594575D01*
X60684230Y1630907D01*
X60512173Y1702175D01*
X60357326Y1805640D01*
X60225640Y1937326D01*
X60122175Y2092173D01*
X60050907Y2264230D01*
X60014575Y2446884D01*
X60014575Y2633116D01*
X60050907Y2815770D01*
X60122175Y2987827D01*
X60225640Y3142674D01*
X60357326Y3274360D01*
X60512173Y3377825D01*
X60684230Y3449093D01*
X60866884Y3485425D01*
X61053116Y3485425D01*
X61235770Y3449093D01*
G37*
G36*
X63775770Y3449093D02*
G01*
X63947827Y3377825D01*
X64102674Y3274360D01*
X64234360Y3142674D01*
X64337825Y2987827D01*
X64409093Y2815770D01*
X64445425Y2633116D01*
X64445425Y2446884D01*
X64409093Y2264230D01*
X64337825Y2092173D01*
X64234360Y1937326D01*
X64102674Y1805640D01*
X63947827Y1702175D01*
X63775770Y1630907D01*
X63593116Y1594575D01*
X63406884Y1594575D01*
X63224230Y1630907D01*
X63052173Y1702175D01*
X62897326Y1805640D01*
X62765640Y1937326D01*
X62662175Y2092173D01*
X62590907Y2264230D01*
X62554575Y2446884D01*
X62554575Y2633116D01*
X62590907Y2815770D01*
X62662175Y2987827D01*
X62765640Y3142674D01*
X62897326Y3274360D01*
X63052173Y3377825D01*
X63224230Y3449093D01*
X63406884Y3485425D01*
X63593116Y3485425D01*
X63775770Y3449093D01*
G37*
G36*
X20371256Y8451246D02*
G01*
X20534257Y8383729D01*
X20680954Y8285709D01*
X20805709Y8160954D01*
X20903729Y8014257D01*
X20971246Y7851256D01*
X21005666Y7678215D01*
X21010000Y7590000D01*
X21010000Y6790000D01*
X21005666Y6701785D01*
X20971246Y6528744D01*
X20903729Y6365743D01*
X20805709Y6219046D01*
X20680954Y6094291D01*
X20534257Y5996271D01*
X20371256Y5928754D01*
X20198215Y5894334D01*
X20021785Y5894334D01*
X19848744Y5928754D01*
X19685743Y5996271D01*
X19539046Y6094291D01*
X19414291Y6219046D01*
X19316271Y6365743D01*
X19248754Y6528744D01*
X19214334Y6701785D01*
X19210000Y6790000D01*
X19210000Y7590000D01*
X19214334Y7678215D01*
X19248754Y7851256D01*
X19316271Y8014257D01*
X19414291Y8160954D01*
X19539046Y8285709D01*
X19685743Y8383729D01*
X19848744Y8451246D01*
X20021785Y8485666D01*
X20198215Y8485666D01*
X20371256Y8451246D01*
G37*
G36*
X22911256Y8451246D02*
G01*
X23074257Y8383729D01*
X23220954Y8285709D01*
X23345709Y8160954D01*
X23443729Y8014257D01*
X23511246Y7851256D01*
X23545666Y7678215D01*
X23550000Y7590000D01*
X23550000Y6790000D01*
X23545666Y6701785D01*
X23511246Y6528744D01*
X23443729Y6365743D01*
X23345709Y6219046D01*
X23220954Y6094291D01*
X23074257Y5996271D01*
X22911256Y5928754D01*
X22738215Y5894334D01*
X22561785Y5894334D01*
X22388744Y5928754D01*
X22225743Y5996271D01*
X22079046Y6094291D01*
X21954291Y6219046D01*
X21856271Y6365743D01*
X21788754Y6528744D01*
X21754334Y6701785D01*
X21750000Y6790000D01*
X21750000Y7590000D01*
X21754334Y7678215D01*
X21788754Y7851256D01*
X21856271Y8014257D01*
X21954291Y8160954D01*
X22079046Y8285709D01*
X22225743Y8383729D01*
X22388744Y8451246D01*
X22561785Y8485666D01*
X22738215Y8485666D01*
X22911256Y8451246D01*
G37*
G36*
X25451256Y8451246D02*
G01*
X25614257Y8383729D01*
X25760954Y8285709D01*
X25885709Y8160954D01*
X25983729Y8014257D01*
X26051246Y7851256D01*
X26085666Y7678215D01*
X26090000Y7590000D01*
X26090000Y6790000D01*
X26085666Y6701785D01*
X26051246Y6528744D01*
X25983729Y6365743D01*
X25885709Y6219046D01*
X25760954Y6094291D01*
X25614257Y5996271D01*
X25451256Y5928754D01*
X25278215Y5894334D01*
X25101785Y5894334D01*
X24928744Y5928754D01*
X24765743Y5996271D01*
X24619046Y6094291D01*
X24494291Y6219046D01*
X24396271Y6365743D01*
X24328754Y6528744D01*
X24294334Y6701785D01*
X24290000Y6790000D01*
X24290000Y7590000D01*
X24294334Y7678215D01*
X24328754Y7851256D01*
X24396271Y8014257D01*
X24494291Y8160954D01*
X24619046Y8285709D01*
X24765743Y8383729D01*
X24928744Y8451246D01*
X25101785Y8485666D01*
X25278215Y8485666D01*
X25451256Y8451246D01*
G37*
G36*
X27991256Y8451246D02*
G01*
X28154257Y8383729D01*
X28300954Y8285709D01*
X28425709Y8160954D01*
X28523729Y8014257D01*
X28591246Y7851256D01*
X28625666Y7678215D01*
X28630000Y7590000D01*
X28630000Y6790000D01*
X28625666Y6701785D01*
X28591246Y6528744D01*
X28523729Y6365743D01*
X28425709Y6219046D01*
X28300954Y6094291D01*
X28154257Y5996271D01*
X27991256Y5928754D01*
X27818215Y5894334D01*
X27641785Y5894334D01*
X27468744Y5928754D01*
X27305743Y5996271D01*
X27159046Y6094291D01*
X27034291Y6219046D01*
X26936271Y6365743D01*
X26868754Y6528744D01*
X26834334Y6701785D01*
X26830000Y6790000D01*
X26830000Y7590000D01*
X26834334Y7678215D01*
X26868754Y7851256D01*
X26936271Y8014257D01*
X27034291Y8160954D01*
X27159046Y8285709D01*
X27305743Y8383729D01*
X27468744Y8451246D01*
X27641785Y8485666D01*
X27818215Y8485666D01*
X27991256Y8451246D01*
G37*
G36*
X30531256Y8451246D02*
G01*
X30694257Y8383729D01*
X30840954Y8285709D01*
X30965709Y8160954D01*
X31063729Y8014257D01*
X31131246Y7851256D01*
X31165666Y7678215D01*
X31170000Y7590000D01*
X31170000Y6790000D01*
X31165666Y6701785D01*
X31131246Y6528744D01*
X31063729Y6365743D01*
X30965709Y6219046D01*
X30840954Y6094291D01*
X30694257Y5996271D01*
X30531256Y5928754D01*
X30358215Y5894334D01*
X30181785Y5894334D01*
X30008744Y5928754D01*
X29845743Y5996271D01*
X29699046Y6094291D01*
X29574291Y6219046D01*
X29476271Y6365743D01*
X29408754Y6528744D01*
X29374334Y6701785D01*
X29370000Y6790000D01*
X29370000Y7590000D01*
X29374334Y7678215D01*
X29408754Y7851256D01*
X29476271Y8014257D01*
X29574291Y8160954D01*
X29699046Y8285709D01*
X29845743Y8383729D01*
X30008744Y8451246D01*
X30181785Y8485666D01*
X30358215Y8485666D01*
X30531256Y8451246D01*
G37*
G36*
X33071256Y8451246D02*
G01*
X33234257Y8383729D01*
X33380954Y8285709D01*
X33505709Y8160954D01*
X33603729Y8014257D01*
X33671246Y7851256D01*
X33705666Y7678215D01*
X33710000Y7590000D01*
X33710000Y6790000D01*
X33705666Y6701785D01*
X33671246Y6528744D01*
X33603729Y6365743D01*
X33505709Y6219046D01*
X33380954Y6094291D01*
X33234257Y5996271D01*
X33071256Y5928754D01*
X32898215Y5894334D01*
X32721785Y5894334D01*
X32548744Y5928754D01*
X32385743Y5996271D01*
X32239046Y6094291D01*
X32114291Y6219046D01*
X32016271Y6365743D01*
X31948754Y6528744D01*
X31914334Y6701785D01*
X31910000Y6790000D01*
X31910000Y7590000D01*
X31914334Y7678215D01*
X31948754Y7851256D01*
X32016271Y8014257D01*
X32114291Y8160954D01*
X32239046Y8285709D01*
X32385743Y8383729D01*
X32548744Y8451246D01*
X32721785Y8485666D01*
X32898215Y8485666D01*
X33071256Y8451246D01*
G37*
G36*
X35611256Y8451246D02*
G01*
X35774257Y8383729D01*
X35920954Y8285709D01*
X36045709Y8160954D01*
X36143729Y8014257D01*
X36211246Y7851256D01*
X36245666Y7678215D01*
X36250000Y7590000D01*
X36250000Y6790000D01*
X36245666Y6701785D01*
X36211246Y6528744D01*
X36143729Y6365743D01*
X36045709Y6219046D01*
X35920954Y6094291D01*
X35774257Y5996271D01*
X35611256Y5928754D01*
X35438215Y5894334D01*
X35261785Y5894334D01*
X35088744Y5928754D01*
X34925743Y5996271D01*
X34779046Y6094291D01*
X34654291Y6219046D01*
X34556271Y6365743D01*
X34488754Y6528744D01*
X34454334Y6701785D01*
X34450000Y6790000D01*
X34450000Y7590000D01*
X34454334Y7678215D01*
X34488754Y7851256D01*
X34556271Y8014257D01*
X34654291Y8160954D01*
X34779046Y8285709D01*
X34925743Y8383729D01*
X35088744Y8451246D01*
X35261785Y8485666D01*
X35438215Y8485666D01*
X35611256Y8451246D01*
G37*
G36*
X38151256Y8451246D02*
G01*
X38314257Y8383729D01*
X38460954Y8285709D01*
X38585709Y8160954D01*
X38683729Y8014257D01*
X38751246Y7851256D01*
X38785666Y7678215D01*
X38790000Y7590000D01*
X38790000Y6790000D01*
X38785666Y6701785D01*
X38751246Y6528744D01*
X38683729Y6365743D01*
X38585709Y6219046D01*
X38460954Y6094291D01*
X38314257Y5996271D01*
X38151256Y5928754D01*
X37978215Y5894334D01*
X37801785Y5894334D01*
X37628744Y5928754D01*
X37465743Y5996271D01*
X37319046Y6094291D01*
X37194291Y6219046D01*
X37096271Y6365743D01*
X37028754Y6528744D01*
X36994334Y6701785D01*
X36990000Y6790000D01*
X36990000Y7590000D01*
X36994334Y7678215D01*
X37028754Y7851256D01*
X37096271Y8014257D01*
X37194291Y8160954D01*
X37319046Y8285709D01*
X37465743Y8383729D01*
X37628744Y8451246D01*
X37801785Y8485666D01*
X37978215Y8485666D01*
X38151256Y8451246D01*
G37*
G36*
X41511256Y8111246D02*
G01*
X41674257Y8043729D01*
X41820954Y7945709D01*
X41945709Y7820954D01*
X42043729Y7674257D01*
X42111246Y7511256D01*
X42145666Y7338215D01*
X42145666Y7161785D01*
X42111246Y6988744D01*
X42043729Y6825743D01*
X41945709Y6679046D01*
X41820954Y6554291D01*
X41674257Y6456271D01*
X41511256Y6388754D01*
X41338215Y6354334D01*
X41161785Y6354334D01*
X40988744Y6388754D01*
X40825743Y6456271D01*
X40679046Y6554291D01*
X40554291Y6679046D01*
X40456271Y6825743D01*
X40388754Y6988744D01*
X40354334Y7161785D01*
X40354334Y7338215D01*
X40388754Y7511256D01*
X40456271Y7674257D01*
X40554291Y7820954D01*
X40679046Y7945709D01*
X40825743Y8043729D01*
X40988744Y8111246D01*
X41161785Y8145666D01*
X41338215Y8145666D01*
X41511256Y8111246D01*
G37*
G36*
X46511256Y8111246D02*
G01*
X46674257Y8043729D01*
X46820954Y7945709D01*
X46945709Y7820954D01*
X47043729Y7674257D01*
X47111246Y7511256D01*
X47145666Y7338215D01*
X47145666Y7161785D01*
X47111246Y6988744D01*
X47043729Y6825743D01*
X46945709Y6679046D01*
X46820954Y6554291D01*
X46674257Y6456271D01*
X46511256Y6388754D01*
X46338215Y6354334D01*
X46161785Y6354334D01*
X45988744Y6388754D01*
X45825743Y6456271D01*
X45679046Y6554291D01*
X45554291Y6679046D01*
X45456271Y6825743D01*
X45388754Y6988744D01*
X45354334Y7161785D01*
X45354334Y7338215D01*
X45388754Y7511256D01*
X45456271Y7674257D01*
X45554291Y7820954D01*
X45679046Y7945709D01*
X45825743Y8043729D01*
X45988744Y8111246D01*
X46161785Y8145666D01*
X46338215Y8145666D01*
X46511256Y8111246D01*
G37*
G36*
X38539868Y16095450D02*
G01*
X38545586Y16092655D01*
X38547962Y16092278D01*
X38585987Y16072904D01*
X38643377Y16044847D01*
X38724847Y15963377D01*
X38752907Y15905980D01*
X38772276Y15867966D01*
X38772652Y15865592D01*
X38775450Y15859868D01*
X38790000Y15760000D01*
X38790000Y13860000D01*
X38775450Y13760132D01*
X38772652Y13754411D01*
X38772277Y13752038D01*
X38752926Y13714061D01*
X38724847Y13656623D01*
X38643377Y13575153D01*
X38585955Y13547081D01*
X38547965Y13527724D01*
X38545591Y13527349D01*
X38539868Y13524550D01*
X38440000Y13510000D01*
X37340000Y13510000D01*
X37240132Y13524550D01*
X37234410Y13527348D01*
X37232037Y13527723D01*
X37194035Y13547086D01*
X37136623Y13575153D01*
X37055153Y13656623D01*
X37027104Y13713997D01*
X37007723Y13752035D01*
X37007346Y13754412D01*
X37004550Y13760132D01*
X36990000Y13860000D01*
X36990000Y15760000D01*
X37004550Y15859868D01*
X37007345Y15865587D01*
X37007722Y15867963D01*
X37027108Y15906013D01*
X37055153Y15963377D01*
X37136623Y16044847D01*
X37193971Y16072884D01*
X37232034Y16092277D01*
X37234411Y16092654D01*
X37240132Y16095450D01*
X37340000Y16110000D01*
X38440000Y16110000D01*
X38539868Y16095450D01*
G37*
G36*
X20371256Y16071246D02*
G01*
X20534257Y16003729D01*
X20680954Y15905709D01*
X20805709Y15780954D01*
X20903729Y15634257D01*
X20971246Y15471256D01*
X21005666Y15298215D01*
X21010000Y15210000D01*
X21010000Y14410000D01*
X21005666Y14321785D01*
X20971246Y14148744D01*
X20903729Y13985743D01*
X20805709Y13839046D01*
X20680954Y13714291D01*
X20534257Y13616271D01*
X20371256Y13548754D01*
X20198215Y13514334D01*
X20021785Y13514334D01*
X19848744Y13548754D01*
X19685743Y13616271D01*
X19539046Y13714291D01*
X19414291Y13839046D01*
X19316271Y13985743D01*
X19248754Y14148744D01*
X19214334Y14321785D01*
X19210000Y14410000D01*
X19210000Y15210000D01*
X19214334Y15298215D01*
X19248754Y15471256D01*
X19316271Y15634257D01*
X19414291Y15780954D01*
X19539046Y15905709D01*
X19685743Y16003729D01*
X19848744Y16071246D01*
X20021785Y16105666D01*
X20198215Y16105666D01*
X20371256Y16071246D01*
G37*
G36*
X22911256Y16071246D02*
G01*
X23074257Y16003729D01*
X23220954Y15905709D01*
X23345709Y15780954D01*
X23443729Y15634257D01*
X23511246Y15471256D01*
X23545666Y15298215D01*
X23550000Y15210000D01*
X23550000Y14410000D01*
X23545666Y14321785D01*
X23511246Y14148744D01*
X23443729Y13985743D01*
X23345709Y13839046D01*
X23220954Y13714291D01*
X23074257Y13616271D01*
X22911256Y13548754D01*
X22738215Y13514334D01*
X22561785Y13514334D01*
X22388744Y13548754D01*
X22225743Y13616271D01*
X22079046Y13714291D01*
X21954291Y13839046D01*
X21856271Y13985743D01*
X21788754Y14148744D01*
X21754334Y14321785D01*
X21750000Y14410000D01*
X21750000Y15210000D01*
X21754334Y15298215D01*
X21788754Y15471256D01*
X21856271Y15634257D01*
X21954291Y15780954D01*
X22079046Y15905709D01*
X22225743Y16003729D01*
X22388744Y16071246D01*
X22561785Y16105666D01*
X22738215Y16105666D01*
X22911256Y16071246D01*
G37*
G36*
X25451256Y16071246D02*
G01*
X25614257Y16003729D01*
X25760954Y15905709D01*
X25885709Y15780954D01*
X25983729Y15634257D01*
X26051246Y15471256D01*
X26085666Y15298215D01*
X26090000Y15210000D01*
X26090000Y14410000D01*
X26085666Y14321785D01*
X26051246Y14148744D01*
X25983729Y13985743D01*
X25885709Y13839046D01*
X25760954Y13714291D01*
X25614257Y13616271D01*
X25451256Y13548754D01*
X25278215Y13514334D01*
X25101785Y13514334D01*
X24928744Y13548754D01*
X24765743Y13616271D01*
X24619046Y13714291D01*
X24494291Y13839046D01*
X24396271Y13985743D01*
X24328754Y14148744D01*
X24294334Y14321785D01*
X24290000Y14410000D01*
X24290000Y15210000D01*
X24294334Y15298215D01*
X24328754Y15471256D01*
X24396271Y15634257D01*
X24494291Y15780954D01*
X24619046Y15905709D01*
X24765743Y16003729D01*
X24928744Y16071246D01*
X25101785Y16105666D01*
X25278215Y16105666D01*
X25451256Y16071246D01*
G37*
G36*
X27991256Y16071246D02*
G01*
X28154257Y16003729D01*
X28300954Y15905709D01*
X28425709Y15780954D01*
X28523729Y15634257D01*
X28591246Y15471256D01*
X28625666Y15298215D01*
X28630000Y15210000D01*
X28630000Y14410000D01*
X28625666Y14321785D01*
X28591246Y14148744D01*
X28523729Y13985743D01*
X28425709Y13839046D01*
X28300954Y13714291D01*
X28154257Y13616271D01*
X27991256Y13548754D01*
X27818215Y13514334D01*
X27641785Y13514334D01*
X27468744Y13548754D01*
X27305743Y13616271D01*
X27159046Y13714291D01*
X27034291Y13839046D01*
X26936271Y13985743D01*
X26868754Y14148744D01*
X26834334Y14321785D01*
X26830000Y14410000D01*
X26830000Y15210000D01*
X26834334Y15298215D01*
X26868754Y15471256D01*
X26936271Y15634257D01*
X27034291Y15780954D01*
X27159046Y15905709D01*
X27305743Y16003729D01*
X27468744Y16071246D01*
X27641785Y16105666D01*
X27818215Y16105666D01*
X27991256Y16071246D01*
G37*
G36*
X30531256Y16071246D02*
G01*
X30694257Y16003729D01*
X30840954Y15905709D01*
X30965709Y15780954D01*
X31063729Y15634257D01*
X31131246Y15471256D01*
X31165666Y15298215D01*
X31170000Y15210000D01*
X31170000Y14410000D01*
X31165666Y14321785D01*
X31131246Y14148744D01*
X31063729Y13985743D01*
X30965709Y13839046D01*
X30840954Y13714291D01*
X30694257Y13616271D01*
X30531256Y13548754D01*
X30358215Y13514334D01*
X30181785Y13514334D01*
X30008744Y13548754D01*
X29845743Y13616271D01*
X29699046Y13714291D01*
X29574291Y13839046D01*
X29476271Y13985743D01*
X29408754Y14148744D01*
X29374334Y14321785D01*
X29370000Y14410000D01*
X29370000Y15210000D01*
X29374334Y15298215D01*
X29408754Y15471256D01*
X29476271Y15634257D01*
X29574291Y15780954D01*
X29699046Y15905709D01*
X29845743Y16003729D01*
X30008744Y16071246D01*
X30181785Y16105666D01*
X30358215Y16105666D01*
X30531256Y16071246D01*
G37*
G36*
X33071256Y16071246D02*
G01*
X33234257Y16003729D01*
X33380954Y15905709D01*
X33505709Y15780954D01*
X33603729Y15634257D01*
X33671246Y15471256D01*
X33705666Y15298215D01*
X33710000Y15210000D01*
X33710000Y14410000D01*
X33705666Y14321785D01*
X33671246Y14148744D01*
X33603729Y13985743D01*
X33505709Y13839046D01*
X33380954Y13714291D01*
X33234257Y13616271D01*
X33071256Y13548754D01*
X32898215Y13514334D01*
X32721785Y13514334D01*
X32548744Y13548754D01*
X32385743Y13616271D01*
X32239046Y13714291D01*
X32114291Y13839046D01*
X32016271Y13985743D01*
X31948754Y14148744D01*
X31914334Y14321785D01*
X31910000Y14410000D01*
X31910000Y15210000D01*
X31914334Y15298215D01*
X31948754Y15471256D01*
X32016271Y15634257D01*
X32114291Y15780954D01*
X32239046Y15905709D01*
X32385743Y16003729D01*
X32548744Y16071246D01*
X32721785Y16105666D01*
X32898215Y16105666D01*
X33071256Y16071246D01*
G37*
G36*
X35611256Y16071246D02*
G01*
X35774257Y16003729D01*
X35920954Y15905709D01*
X36045709Y15780954D01*
X36143729Y15634257D01*
X36211246Y15471256D01*
X36245666Y15298215D01*
X36250000Y15210000D01*
X36250000Y14410000D01*
X36245666Y14321785D01*
X36211246Y14148744D01*
X36143729Y13985743D01*
X36045709Y13839046D01*
X35920954Y13714291D01*
X35774257Y13616271D01*
X35611256Y13548754D01*
X35438215Y13514334D01*
X35261785Y13514334D01*
X35088744Y13548754D01*
X34925743Y13616271D01*
X34779046Y13714291D01*
X34654291Y13839046D01*
X34556271Y13985743D01*
X34488754Y14148744D01*
X34454334Y14321785D01*
X34450000Y14410000D01*
X34450000Y15210000D01*
X34454334Y15298215D01*
X34488754Y15471256D01*
X34556271Y15634257D01*
X34654291Y15780954D01*
X34779046Y15905709D01*
X34925743Y16003729D01*
X35088744Y16071246D01*
X35261785Y16105666D01*
X35438215Y16105666D01*
X35611256Y16071246D01*
G37*
G36*
X56678215Y22005666D02*
G01*
X56851256Y21971246D01*
X57014257Y21903729D01*
X57160954Y21805709D01*
X57285709Y21680954D01*
X57383729Y21534257D01*
X57451246Y21371256D01*
X57485666Y21198215D01*
X57485666Y21021785D01*
X57451246Y20848744D01*
X57383729Y20685743D01*
X57285709Y20539046D01*
X57160954Y20414291D01*
X57014257Y20316271D01*
X56851256Y20248754D01*
X56678215Y20214334D01*
X56590000Y20210000D01*
X56588767Y20210000D01*
X55791233Y20210000D01*
X55790000Y20210000D01*
X55701785Y20214334D01*
X55528744Y20248754D01*
X55365743Y20316271D01*
X55219046Y20414291D01*
X55094291Y20539046D01*
X54996271Y20685743D01*
X54928754Y20848744D01*
X54894334Y21021785D01*
X54894334Y21198215D01*
X54928754Y21371256D01*
X54996271Y21534257D01*
X55094291Y21680954D01*
X55219046Y21805709D01*
X55365743Y21903729D01*
X55528744Y21971246D01*
X55701785Y22005666D01*
X55790000Y22010000D01*
X56590000Y22010000D01*
X56678215Y22005666D01*
G37*
G36*
X64298215Y22005666D02*
G01*
X64471256Y21971246D01*
X64634257Y21903729D01*
X64780954Y21805709D01*
X64905709Y21680954D01*
X65003729Y21534257D01*
X65071246Y21371256D01*
X65105666Y21198215D01*
X65105666Y21021785D01*
X65071246Y20848744D01*
X65003729Y20685743D01*
X64905709Y20539046D01*
X64780954Y20414291D01*
X64634257Y20316271D01*
X64471256Y20248754D01*
X64298215Y20214334D01*
X64210000Y20210000D01*
X64208767Y20210000D01*
X63411233Y20210000D01*
X63410000Y20210000D01*
X63321785Y20214334D01*
X63148744Y20248754D01*
X62985743Y20316271D01*
X62839046Y20414291D01*
X62714291Y20539046D01*
X62616271Y20685743D01*
X62548754Y20848744D01*
X62514334Y21021785D01*
X62514334Y21198215D01*
X62548754Y21371256D01*
X62616271Y21534257D01*
X62714291Y21680954D01*
X62839046Y21805709D01*
X62985743Y21903729D01*
X63148744Y21971246D01*
X63321785Y22005666D01*
X63410000Y22010000D01*
X64210000Y22010000D01*
X64298215Y22005666D01*
G37*
G36*
X13728268Y24852388D02*
G01*
X13760711Y24830711D01*
X13782388Y24798268D01*
X13790000Y24760000D01*
X13790000Y22760000D01*
X13782388Y22721732D01*
X13760711Y22689289D01*
X13728268Y22667612D01*
X13690000Y22660000D01*
X12250000Y22660000D01*
X12211732Y22667612D01*
X12179289Y22689289D01*
X12157612Y22721732D01*
X12150000Y22760000D01*
X12150000Y24760000D01*
X12157612Y24798268D01*
X12179289Y24830711D01*
X12211732Y24852388D01*
X12250000Y24860000D01*
X13690000Y24860000D01*
X13728268Y24852388D01*
G37*
G36*
X15748033Y24824691D02*
G01*
X15896545Y24763175D01*
X16030202Y24673869D01*
X16143869Y24560202D01*
X16233175Y24426545D01*
X16294691Y24278033D01*
X16326051Y24120374D01*
X16330000Y24040000D01*
X16330000Y23480000D01*
X16326051Y23399626D01*
X16294691Y23241967D01*
X16233175Y23093455D01*
X16143869Y22959798D01*
X16030202Y22846131D01*
X15896545Y22756825D01*
X15748033Y22695309D01*
X15590374Y22663949D01*
X15429626Y22663949D01*
X15271967Y22695309D01*
X15123455Y22756825D01*
X14989798Y22846131D01*
X14876131Y22959798D01*
X14786825Y23093455D01*
X14725309Y23241967D01*
X14693949Y23399626D01*
X14690000Y23480000D01*
X14690000Y24040000D01*
X14693949Y24120374D01*
X14725309Y24278033D01*
X14786825Y24426545D01*
X14876131Y24560202D01*
X14989798Y24673869D01*
X15123455Y24763175D01*
X15271967Y24824691D01*
X15429626Y24856051D01*
X15590374Y24856051D01*
X15748033Y24824691D01*
G37*
G36*
X18288033Y24824691D02*
G01*
X18436545Y24763175D01*
X18570202Y24673869D01*
X18683869Y24560202D01*
X18773175Y24426545D01*
X18834691Y24278033D01*
X18866051Y24120374D01*
X18870000Y24040000D01*
X18870000Y23480000D01*
X18866051Y23399626D01*
X18834691Y23241967D01*
X18773175Y23093455D01*
X18683869Y22959798D01*
X18570202Y22846131D01*
X18436545Y22756825D01*
X18288033Y22695309D01*
X18130374Y22663949D01*
X17969626Y22663949D01*
X17811967Y22695309D01*
X17663455Y22756825D01*
X17529798Y22846131D01*
X17416131Y22959798D01*
X17326825Y23093455D01*
X17265309Y23241967D01*
X17233949Y23399626D01*
X17230000Y23480000D01*
X17230000Y24040000D01*
X17233949Y24120374D01*
X17265309Y24278033D01*
X17326825Y24426545D01*
X17416131Y24560202D01*
X17529798Y24673869D01*
X17663455Y24763175D01*
X17811967Y24824691D01*
X17969626Y24856051D01*
X18130374Y24856051D01*
X18288033Y24824691D01*
G37*
G36*
X20828033Y24824691D02*
G01*
X20976545Y24763175D01*
X21110202Y24673869D01*
X21223869Y24560202D01*
X21313175Y24426545D01*
X21374691Y24278033D01*
X21406051Y24120374D01*
X21410000Y24040000D01*
X21410000Y23480000D01*
X21406051Y23399626D01*
X21374691Y23241967D01*
X21313175Y23093455D01*
X21223869Y22959798D01*
X21110202Y22846131D01*
X20976545Y22756825D01*
X20828033Y22695309D01*
X20670374Y22663949D01*
X20509626Y22663949D01*
X20351967Y22695309D01*
X20203455Y22756825D01*
X20069798Y22846131D01*
X19956131Y22959798D01*
X19866825Y23093455D01*
X19805309Y23241967D01*
X19773949Y23399626D01*
X19770000Y23480000D01*
X19770000Y24040000D01*
X19773949Y24120374D01*
X19805309Y24278033D01*
X19866825Y24426545D01*
X19956131Y24560202D01*
X20069798Y24673869D01*
X20203455Y24763175D01*
X20351967Y24824691D01*
X20509626Y24856051D01*
X20670374Y24856051D01*
X20828033Y24824691D01*
G37*
G36*
X23368033Y24824691D02*
G01*
X23516545Y24763175D01*
X23650202Y24673869D01*
X23763869Y24560202D01*
X23853175Y24426545D01*
X23914691Y24278033D01*
X23946051Y24120374D01*
X23950000Y24040000D01*
X23950000Y23480000D01*
X23946051Y23399626D01*
X23914691Y23241967D01*
X23853175Y23093455D01*
X23763869Y22959798D01*
X23650202Y22846131D01*
X23516545Y22756825D01*
X23368033Y22695309D01*
X23210374Y22663949D01*
X23049626Y22663949D01*
X22891967Y22695309D01*
X22743455Y22756825D01*
X22609798Y22846131D01*
X22496131Y22959798D01*
X22406825Y23093455D01*
X22345309Y23241967D01*
X22313949Y23399626D01*
X22310000Y23480000D01*
X22310000Y24040000D01*
X22313949Y24120374D01*
X22345309Y24278033D01*
X22406825Y24426545D01*
X22496131Y24560202D01*
X22609798Y24673869D01*
X22743455Y24763175D01*
X22891967Y24824691D01*
X23049626Y24856051D01*
X23210374Y24856051D01*
X23368033Y24824691D01*
G37*
G36*
X25908033Y24824691D02*
G01*
X26056545Y24763175D01*
X26190202Y24673869D01*
X26303869Y24560202D01*
X26393175Y24426545D01*
X26454691Y24278033D01*
X26486051Y24120374D01*
X26490000Y24040000D01*
X26490000Y23480000D01*
X26486051Y23399626D01*
X26454691Y23241967D01*
X26393175Y23093455D01*
X26303869Y22959798D01*
X26190202Y22846131D01*
X26056545Y22756825D01*
X25908033Y22695309D01*
X25750374Y22663949D01*
X25589626Y22663949D01*
X25431967Y22695309D01*
X25283455Y22756825D01*
X25149798Y22846131D01*
X25036131Y22959798D01*
X24946825Y23093455D01*
X24885309Y23241967D01*
X24853949Y23399626D01*
X24850000Y23480000D01*
X24850000Y24040000D01*
X24853949Y24120374D01*
X24885309Y24278033D01*
X24946825Y24426545D01*
X25036131Y24560202D01*
X25149798Y24673869D01*
X25283455Y24763175D01*
X25431967Y24824691D01*
X25589626Y24856051D01*
X25750374Y24856051D01*
X25908033Y24824691D01*
G37*
G36*
X28448033Y24824691D02*
G01*
X28596545Y24763175D01*
X28730202Y24673869D01*
X28843869Y24560202D01*
X28933175Y24426545D01*
X28994691Y24278033D01*
X29026051Y24120374D01*
X29030000Y24040000D01*
X29030000Y23480000D01*
X29026051Y23399626D01*
X28994691Y23241967D01*
X28933175Y23093455D01*
X28843869Y22959798D01*
X28730202Y22846131D01*
X28596545Y22756825D01*
X28448033Y22695309D01*
X28290374Y22663949D01*
X28129626Y22663949D01*
X27971967Y22695309D01*
X27823455Y22756825D01*
X27689798Y22846131D01*
X27576131Y22959798D01*
X27486825Y23093455D01*
X27425309Y23241967D01*
X27393949Y23399626D01*
X27390000Y23480000D01*
X27390000Y24040000D01*
X27393949Y24120374D01*
X27425309Y24278033D01*
X27486825Y24426545D01*
X27576131Y24560202D01*
X27689798Y24673869D01*
X27823455Y24763175D01*
X27971967Y24824691D01*
X28129626Y24856051D01*
X28290374Y24856051D01*
X28448033Y24824691D01*
G37*
G36*
X30988033Y24824691D02*
G01*
X31136545Y24763175D01*
X31270202Y24673869D01*
X31383869Y24560202D01*
X31473175Y24426545D01*
X31534691Y24278033D01*
X31566051Y24120374D01*
X31570000Y24040000D01*
X31570000Y23480000D01*
X31566051Y23399626D01*
X31534691Y23241967D01*
X31473175Y23093455D01*
X31383869Y22959798D01*
X31270202Y22846131D01*
X31136545Y22756825D01*
X30988033Y22695309D01*
X30830374Y22663949D01*
X30669626Y22663949D01*
X30511967Y22695309D01*
X30363455Y22756825D01*
X30229798Y22846131D01*
X30116131Y22959798D01*
X30026825Y23093455D01*
X29965309Y23241967D01*
X29933949Y23399626D01*
X29930000Y23480000D01*
X29930000Y24040000D01*
X29933949Y24120374D01*
X29965309Y24278033D01*
X30026825Y24426545D01*
X30116131Y24560202D01*
X30229798Y24673869D01*
X30363455Y24763175D01*
X30511967Y24824691D01*
X30669626Y24856051D01*
X30830374Y24856051D01*
X30988033Y24824691D01*
G37*
G36*
X33528033Y24824691D02*
G01*
X33676545Y24763175D01*
X33810202Y24673869D01*
X33923869Y24560202D01*
X34013175Y24426545D01*
X34074691Y24278033D01*
X34106051Y24120374D01*
X34110000Y24040000D01*
X34110000Y23480000D01*
X34106051Y23399626D01*
X34074691Y23241967D01*
X34013175Y23093455D01*
X33923869Y22959798D01*
X33810202Y22846131D01*
X33676545Y22756825D01*
X33528033Y22695309D01*
X33370374Y22663949D01*
X33209626Y22663949D01*
X33051967Y22695309D01*
X32903455Y22756825D01*
X32769798Y22846131D01*
X32656131Y22959798D01*
X32566825Y23093455D01*
X32505309Y23241967D01*
X32473949Y23399626D01*
X32470000Y23480000D01*
X32470000Y24040000D01*
X32473949Y24120374D01*
X32505309Y24278033D01*
X32566825Y24426545D01*
X32656131Y24560202D01*
X32769798Y24673869D01*
X32903455Y24763175D01*
X33051967Y24824691D01*
X33209626Y24856051D01*
X33370374Y24856051D01*
X33528033Y24824691D01*
G37*
G36*
X36068033Y24824691D02*
G01*
X36216545Y24763175D01*
X36350202Y24673869D01*
X36463869Y24560202D01*
X36553175Y24426545D01*
X36614691Y24278033D01*
X36646051Y24120374D01*
X36650000Y24040000D01*
X36650000Y23480000D01*
X36646051Y23399626D01*
X36614691Y23241967D01*
X36553175Y23093455D01*
X36463869Y22959798D01*
X36350202Y22846131D01*
X36216545Y22756825D01*
X36068033Y22695309D01*
X35910374Y22663949D01*
X35749626Y22663949D01*
X35591967Y22695309D01*
X35443455Y22756825D01*
X35309798Y22846131D01*
X35196131Y22959798D01*
X35106825Y23093455D01*
X35045309Y23241967D01*
X35013949Y23399626D01*
X35010000Y23480000D01*
X35010000Y24040000D01*
X35013949Y24120374D01*
X35045309Y24278033D01*
X35106825Y24426545D01*
X35196131Y24560202D01*
X35309798Y24673869D01*
X35443455Y24763175D01*
X35591967Y24824691D01*
X35749626Y24856051D01*
X35910374Y24856051D01*
X36068033Y24824691D01*
G37*
G36*
X38608033Y24824691D02*
G01*
X38756545Y24763175D01*
X38890202Y24673869D01*
X39003869Y24560202D01*
X39093175Y24426545D01*
X39154691Y24278033D01*
X39186051Y24120374D01*
X39190000Y24040000D01*
X39190000Y23480000D01*
X39186051Y23399626D01*
X39154691Y23241967D01*
X39093175Y23093455D01*
X39003869Y22959798D01*
X38890202Y22846131D01*
X38756545Y22756825D01*
X38608033Y22695309D01*
X38450374Y22663949D01*
X38289626Y22663949D01*
X38131967Y22695309D01*
X37983455Y22756825D01*
X37849798Y22846131D01*
X37736131Y22959798D01*
X37646825Y23093455D01*
X37585309Y23241967D01*
X37553949Y23399626D01*
X37550000Y23480000D01*
X37550000Y24040000D01*
X37553949Y24120374D01*
X37585309Y24278033D01*
X37646825Y24426545D01*
X37736131Y24560202D01*
X37849798Y24673869D01*
X37983455Y24763175D01*
X38131967Y24824691D01*
X38289626Y24856051D01*
X38450374Y24856051D01*
X38608033Y24824691D01*
G37*
G36*
X41148033Y24824691D02*
G01*
X41296545Y24763175D01*
X41430202Y24673869D01*
X41543869Y24560202D01*
X41633175Y24426545D01*
X41694691Y24278033D01*
X41726051Y24120374D01*
X41730000Y24040000D01*
X41730000Y23480000D01*
X41726051Y23399626D01*
X41694691Y23241967D01*
X41633175Y23093455D01*
X41543869Y22959798D01*
X41430202Y22846131D01*
X41296545Y22756825D01*
X41148033Y22695309D01*
X40990374Y22663949D01*
X40829626Y22663949D01*
X40671967Y22695309D01*
X40523455Y22756825D01*
X40389798Y22846131D01*
X40276131Y22959798D01*
X40186825Y23093455D01*
X40125309Y23241967D01*
X40093949Y23399626D01*
X40090000Y23480000D01*
X40090000Y24040000D01*
X40093949Y24120374D01*
X40125309Y24278033D01*
X40186825Y24426545D01*
X40276131Y24560202D01*
X40389798Y24673869D01*
X40523455Y24763175D01*
X40671967Y24824691D01*
X40829626Y24856051D01*
X40990374Y24856051D01*
X41148033Y24824691D01*
G37*
G36*
X43688033Y24824691D02*
G01*
X43836545Y24763175D01*
X43970202Y24673869D01*
X44083869Y24560202D01*
X44173175Y24426545D01*
X44234691Y24278033D01*
X44266051Y24120374D01*
X44270000Y24040000D01*
X44270000Y23480000D01*
X44266051Y23399626D01*
X44234691Y23241967D01*
X44173175Y23093455D01*
X44083869Y22959798D01*
X43970202Y22846131D01*
X43836545Y22756825D01*
X43688033Y22695309D01*
X43530374Y22663949D01*
X43369626Y22663949D01*
X43211967Y22695309D01*
X43063455Y22756825D01*
X42929798Y22846131D01*
X42816131Y22959798D01*
X42726825Y23093455D01*
X42665309Y23241967D01*
X42633949Y23399626D01*
X42630000Y23480000D01*
X42630000Y24040000D01*
X42633949Y24120374D01*
X42665309Y24278033D01*
X42726825Y24426545D01*
X42816131Y24560202D01*
X42929798Y24673869D01*
X43063455Y24763175D01*
X43211967Y24824691D01*
X43369626Y24856051D01*
X43530374Y24856051D01*
X43688033Y24824691D01*
G37*
G36*
X46228033Y24824691D02*
G01*
X46376545Y24763175D01*
X46510202Y24673869D01*
X46623869Y24560202D01*
X46713175Y24426545D01*
X46774691Y24278033D01*
X46806051Y24120374D01*
X46810000Y24040000D01*
X46810000Y23480000D01*
X46806051Y23399626D01*
X46774691Y23241967D01*
X46713175Y23093455D01*
X46623869Y22959798D01*
X46510202Y22846131D01*
X46376545Y22756825D01*
X46228033Y22695309D01*
X46070374Y22663949D01*
X45909626Y22663949D01*
X45751967Y22695309D01*
X45603455Y22756825D01*
X45469798Y22846131D01*
X45356131Y22959798D01*
X45266825Y23093455D01*
X45205309Y23241967D01*
X45173949Y23399626D01*
X45170000Y23480000D01*
X45170000Y24040000D01*
X45173949Y24120374D01*
X45205309Y24278033D01*
X45266825Y24426545D01*
X45356131Y24560202D01*
X45469798Y24673869D01*
X45603455Y24763175D01*
X45751967Y24824691D01*
X45909626Y24856051D01*
X46070374Y24856051D01*
X46228033Y24824691D01*
G37*
G36*
X56678215Y24545666D02*
G01*
X56851256Y24511246D01*
X57014257Y24443729D01*
X57160954Y24345709D01*
X57285709Y24220954D01*
X57383729Y24074257D01*
X57451246Y23911256D01*
X57485666Y23738215D01*
X57485666Y23561785D01*
X57451246Y23388744D01*
X57383729Y23225743D01*
X57285709Y23079046D01*
X57160954Y22954291D01*
X57014257Y22856271D01*
X56851256Y22788754D01*
X56678215Y22754334D01*
X56590000Y22750000D01*
X56588767Y22750000D01*
X55791233Y22750000D01*
X55790000Y22750000D01*
X55701785Y22754334D01*
X55528744Y22788754D01*
X55365743Y22856271D01*
X55219046Y22954291D01*
X55094291Y23079046D01*
X54996271Y23225743D01*
X54928754Y23388744D01*
X54894334Y23561785D01*
X54894334Y23738215D01*
X54928754Y23911256D01*
X54996271Y24074257D01*
X55094291Y24220954D01*
X55219046Y24345709D01*
X55365743Y24443729D01*
X55528744Y24511246D01*
X55701785Y24545666D01*
X55790000Y24550000D01*
X56590000Y24550000D01*
X56678215Y24545666D01*
G37*
G36*
X64298215Y24545666D02*
G01*
X64471256Y24511246D01*
X64634257Y24443729D01*
X64780954Y24345709D01*
X64905709Y24220954D01*
X65003729Y24074257D01*
X65071246Y23911256D01*
X65105666Y23738215D01*
X65105666Y23561785D01*
X65071246Y23388744D01*
X65003729Y23225743D01*
X64905709Y23079046D01*
X64780954Y22954291D01*
X64634257Y22856271D01*
X64471256Y22788754D01*
X64298215Y22754334D01*
X64210000Y22750000D01*
X64208767Y22750000D01*
X63411233Y22750000D01*
X63410000Y22750000D01*
X63321785Y22754334D01*
X63148744Y22788754D01*
X62985743Y22856271D01*
X62839046Y22954291D01*
X62714291Y23079046D01*
X62616271Y23225743D01*
X62548754Y23388744D01*
X62514334Y23561785D01*
X62514334Y23738215D01*
X62548754Y23911256D01*
X62616271Y24074257D01*
X62714291Y24220954D01*
X62839046Y24345709D01*
X62985743Y24443729D01*
X63148744Y24511246D01*
X63321785Y24545666D01*
X63410000Y24550000D01*
X64210000Y24550000D01*
X64298215Y24545666D01*
G37*
G36*
X56678215Y27085666D02*
G01*
X56851256Y27051246D01*
X57014257Y26983729D01*
X57160954Y26885709D01*
X57285709Y26760954D01*
X57383729Y26614257D01*
X57451246Y26451256D01*
X57485666Y26278215D01*
X57485666Y26101785D01*
X57451246Y25928744D01*
X57383729Y25765743D01*
X57285709Y25619046D01*
X57160954Y25494291D01*
X57014257Y25396271D01*
X56851256Y25328754D01*
X56678215Y25294334D01*
X56590000Y25290000D01*
X56588767Y25290000D01*
X55791233Y25290000D01*
X55790000Y25290000D01*
X55701785Y25294334D01*
X55528744Y25328754D01*
X55365743Y25396271D01*
X55219046Y25494291D01*
X55094291Y25619046D01*
X54996271Y25765743D01*
X54928754Y25928744D01*
X54894334Y26101785D01*
X54894334Y26278215D01*
X54928754Y26451256D01*
X54996271Y26614257D01*
X55094291Y26760954D01*
X55219046Y26885709D01*
X55365743Y26983729D01*
X55528744Y27051246D01*
X55701785Y27085666D01*
X55790000Y27090000D01*
X56590000Y27090000D01*
X56678215Y27085666D01*
G37*
G36*
X64298215Y27085666D02*
G01*
X64471256Y27051246D01*
X64634257Y26983729D01*
X64780954Y26885709D01*
X64905709Y26760954D01*
X65003729Y26614257D01*
X65071246Y26451256D01*
X65105666Y26278215D01*
X65105666Y26101785D01*
X65071246Y25928744D01*
X65003729Y25765743D01*
X64905709Y25619046D01*
X64780954Y25494291D01*
X64634257Y25396271D01*
X64471256Y25328754D01*
X64298215Y25294334D01*
X64210000Y25290000D01*
X64208767Y25290000D01*
X63411233Y25290000D01*
X63410000Y25290000D01*
X63321785Y25294334D01*
X63148744Y25328754D01*
X62985743Y25396271D01*
X62839046Y25494291D01*
X62714291Y25619046D01*
X62616271Y25765743D01*
X62548754Y25928744D01*
X62514334Y26101785D01*
X62514334Y26278215D01*
X62548754Y26451256D01*
X62616271Y26614257D01*
X62714291Y26760954D01*
X62839046Y26885709D01*
X62985743Y26983729D01*
X63148744Y27051246D01*
X63321785Y27085666D01*
X63410000Y27090000D01*
X64210000Y27090000D01*
X64298215Y27085666D01*
G37*
G36*
X56678215Y29625666D02*
G01*
X56851256Y29591246D01*
X57014257Y29523729D01*
X57160954Y29425709D01*
X57285709Y29300954D01*
X57383729Y29154257D01*
X57451246Y28991256D01*
X57485666Y28818215D01*
X57485666Y28641785D01*
X57451246Y28468744D01*
X57383729Y28305743D01*
X57285709Y28159046D01*
X57160954Y28034291D01*
X57014257Y27936271D01*
X56851256Y27868754D01*
X56678215Y27834334D01*
X56590000Y27830000D01*
X56588767Y27830000D01*
X55791233Y27830000D01*
X55790000Y27830000D01*
X55701785Y27834334D01*
X55528744Y27868754D01*
X55365743Y27936271D01*
X55219046Y28034291D01*
X55094291Y28159046D01*
X54996271Y28305743D01*
X54928754Y28468744D01*
X54894334Y28641785D01*
X54894334Y28818215D01*
X54928754Y28991256D01*
X54996271Y29154257D01*
X55094291Y29300954D01*
X55219046Y29425709D01*
X55365743Y29523729D01*
X55528744Y29591246D01*
X55701785Y29625666D01*
X55790000Y29630000D01*
X56590000Y29630000D01*
X56678215Y29625666D01*
G37*
G36*
X64298215Y29625666D02*
G01*
X64471256Y29591246D01*
X64634257Y29523729D01*
X64780954Y29425709D01*
X64905709Y29300954D01*
X65003729Y29154257D01*
X65071246Y28991256D01*
X65105666Y28818215D01*
X65105666Y28641785D01*
X65071246Y28468744D01*
X65003729Y28305743D01*
X64905709Y28159046D01*
X64780954Y28034291D01*
X64634257Y27936271D01*
X64471256Y27868754D01*
X64298215Y27834334D01*
X64210000Y27830000D01*
X64208767Y27830000D01*
X63411233Y27830000D01*
X63410000Y27830000D01*
X63321785Y27834334D01*
X63148744Y27868754D01*
X62985743Y27936271D01*
X62839046Y28034291D01*
X62714291Y28159046D01*
X62616271Y28305743D01*
X62548754Y28468744D01*
X62514334Y28641785D01*
X62514334Y28818215D01*
X62548754Y28991256D01*
X62616271Y29154257D01*
X62714291Y29300954D01*
X62839046Y29425709D01*
X62985743Y29523729D01*
X63148744Y29591246D01*
X63321785Y29625666D01*
X63410000Y29630000D01*
X64210000Y29630000D01*
X64298215Y29625666D01*
G37*
G36*
X56678215Y32165666D02*
G01*
X56851256Y32131246D01*
X57014257Y32063729D01*
X57160954Y31965709D01*
X57285709Y31840954D01*
X57383729Y31694257D01*
X57451246Y31531256D01*
X57485666Y31358215D01*
X57485666Y31181785D01*
X57451246Y31008744D01*
X57383729Y30845743D01*
X57285709Y30699046D01*
X57160954Y30574291D01*
X57014257Y30476271D01*
X56851256Y30408754D01*
X56678215Y30374334D01*
X56590000Y30370000D01*
X56588767Y30370000D01*
X55791233Y30370000D01*
X55790000Y30370000D01*
X55701785Y30374334D01*
X55528744Y30408754D01*
X55365743Y30476271D01*
X55219046Y30574291D01*
X55094291Y30699046D01*
X54996271Y30845743D01*
X54928754Y31008744D01*
X54894334Y31181785D01*
X54894334Y31358215D01*
X54928754Y31531256D01*
X54996271Y31694257D01*
X55094291Y31840954D01*
X55219046Y31965709D01*
X55365743Y32063729D01*
X55528744Y32131246D01*
X55701785Y32165666D01*
X55790000Y32170000D01*
X56590000Y32170000D01*
X56678215Y32165666D01*
G37*
G36*
X64298215Y32165666D02*
G01*
X64471256Y32131246D01*
X64634257Y32063729D01*
X64780954Y31965709D01*
X64905709Y31840954D01*
X65003729Y31694257D01*
X65071246Y31531256D01*
X65105666Y31358215D01*
X65105666Y31181785D01*
X65071246Y31008744D01*
X65003729Y30845743D01*
X64905709Y30699046D01*
X64780954Y30574291D01*
X64634257Y30476271D01*
X64471256Y30408754D01*
X64298215Y30374334D01*
X64210000Y30370000D01*
X64208767Y30370000D01*
X63411233Y30370000D01*
X63410000Y30370000D01*
X63321785Y30374334D01*
X63148744Y30408754D01*
X62985743Y30476271D01*
X62839046Y30574291D01*
X62714291Y30699046D01*
X62616271Y30845743D01*
X62548754Y31008744D01*
X62514334Y31181785D01*
X62514334Y31358215D01*
X62548754Y31531256D01*
X62616271Y31694257D01*
X62714291Y31840954D01*
X62839046Y31965709D01*
X62985743Y32063729D01*
X63148744Y32131246D01*
X63321785Y32165666D01*
X63410000Y32170000D01*
X64210000Y32170000D01*
X64298215Y32165666D01*
G37*
G36*
X56678215Y34705666D02*
G01*
X56851256Y34671246D01*
X57014257Y34603729D01*
X57160954Y34505709D01*
X57285709Y34380954D01*
X57383729Y34234257D01*
X57451246Y34071256D01*
X57485666Y33898215D01*
X57485666Y33721785D01*
X57451246Y33548744D01*
X57383729Y33385743D01*
X57285709Y33239046D01*
X57160954Y33114291D01*
X57014257Y33016271D01*
X56851256Y32948754D01*
X56678215Y32914334D01*
X56590000Y32910000D01*
X56588767Y32910000D01*
X55791233Y32910000D01*
X55790000Y32910000D01*
X55701785Y32914334D01*
X55528744Y32948754D01*
X55365743Y33016271D01*
X55219046Y33114291D01*
X55094291Y33239046D01*
X54996271Y33385743D01*
X54928754Y33548744D01*
X54894334Y33721785D01*
X54894334Y33898215D01*
X54928754Y34071256D01*
X54996271Y34234257D01*
X55094291Y34380954D01*
X55219046Y34505709D01*
X55365743Y34603729D01*
X55528744Y34671246D01*
X55701785Y34705666D01*
X55790000Y34710000D01*
X56590000Y34710000D01*
X56678215Y34705666D01*
G37*
G36*
X64298215Y34705666D02*
G01*
X64471256Y34671246D01*
X64634257Y34603729D01*
X64780954Y34505709D01*
X64905709Y34380954D01*
X65003729Y34234257D01*
X65071246Y34071256D01*
X65105666Y33898215D01*
X65105666Y33721785D01*
X65071246Y33548744D01*
X65003729Y33385743D01*
X64905709Y33239046D01*
X64780954Y33114291D01*
X64634257Y33016271D01*
X64471256Y32948754D01*
X64298215Y32914334D01*
X64210000Y32910000D01*
X64208767Y32910000D01*
X63411233Y32910000D01*
X63410000Y32910000D01*
X63321785Y32914334D01*
X63148744Y32948754D01*
X62985743Y33016271D01*
X62839046Y33114291D01*
X62714291Y33239046D01*
X62616271Y33385743D01*
X62548754Y33548744D01*
X62514334Y33721785D01*
X62514334Y33898215D01*
X62548754Y34071256D01*
X62616271Y34234257D01*
X62714291Y34380954D01*
X62839046Y34505709D01*
X62985743Y34603729D01*
X63148744Y34671246D01*
X63321785Y34705666D01*
X63410000Y34710000D01*
X64210000Y34710000D01*
X64298215Y34705666D01*
G37*
G36*
X56678215Y37245666D02*
G01*
X56851256Y37211246D01*
X57014257Y37143729D01*
X57160954Y37045709D01*
X57285709Y36920954D01*
X57383729Y36774257D01*
X57451246Y36611256D01*
X57485666Y36438215D01*
X57485666Y36261785D01*
X57451246Y36088744D01*
X57383729Y35925743D01*
X57285709Y35779046D01*
X57160954Y35654291D01*
X57014257Y35556271D01*
X56851256Y35488754D01*
X56678215Y35454334D01*
X56590000Y35450000D01*
X56588767Y35450000D01*
X55791233Y35450000D01*
X55790000Y35450000D01*
X55701785Y35454334D01*
X55528744Y35488754D01*
X55365743Y35556271D01*
X55219046Y35654291D01*
X55094291Y35779046D01*
X54996271Y35925743D01*
X54928754Y36088744D01*
X54894334Y36261785D01*
X54894334Y36438215D01*
X54928754Y36611256D01*
X54996271Y36774257D01*
X55094291Y36920954D01*
X55219046Y37045709D01*
X55365743Y37143729D01*
X55528744Y37211246D01*
X55701785Y37245666D01*
X55790000Y37250000D01*
X56590000Y37250000D01*
X56678215Y37245666D01*
G37*
G36*
X64298215Y37245666D02*
G01*
X64471256Y37211246D01*
X64634257Y37143729D01*
X64780954Y37045709D01*
X64905709Y36920954D01*
X65003729Y36774257D01*
X65071246Y36611256D01*
X65105666Y36438215D01*
X65105666Y36261785D01*
X65071246Y36088744D01*
X65003729Y35925743D01*
X64905709Y35779046D01*
X64780954Y35654291D01*
X64634257Y35556271D01*
X64471256Y35488754D01*
X64298215Y35454334D01*
X64210000Y35450000D01*
X64208767Y35450000D01*
X63411233Y35450000D01*
X63410000Y35450000D01*
X63321785Y35454334D01*
X63148744Y35488754D01*
X62985743Y35556271D01*
X62839046Y35654291D01*
X62714291Y35779046D01*
X62616271Y35925743D01*
X62548754Y36088744D01*
X62514334Y36261785D01*
X62514334Y36438215D01*
X62548754Y36611256D01*
X62616271Y36774257D01*
X62714291Y36920954D01*
X62839046Y37045709D01*
X62985743Y37143729D01*
X63148744Y37211246D01*
X63321785Y37245666D01*
X63410000Y37250000D01*
X64210000Y37250000D01*
X64298215Y37245666D01*
G37*
G36*
X13208033Y40064691D02*
G01*
X13356545Y40003175D01*
X13490202Y39913869D01*
X13603869Y39800202D01*
X13693175Y39666545D01*
X13754691Y39518033D01*
X13786051Y39360374D01*
X13790000Y39280000D01*
X13790000Y38720000D01*
X13786051Y38639626D01*
X13754691Y38481967D01*
X13693175Y38333455D01*
X13603869Y38199798D01*
X13490202Y38086131D01*
X13356545Y37996825D01*
X13208033Y37935309D01*
X13050374Y37903949D01*
X12889626Y37903949D01*
X12731967Y37935309D01*
X12583455Y37996825D01*
X12449798Y38086131D01*
X12336131Y38199798D01*
X12246825Y38333455D01*
X12185309Y38481967D01*
X12153949Y38639626D01*
X12150000Y38720000D01*
X12150000Y39280000D01*
X12153949Y39360374D01*
X12185309Y39518033D01*
X12246825Y39666545D01*
X12336131Y39800202D01*
X12449798Y39913869D01*
X12583455Y40003175D01*
X12731967Y40064691D01*
X12889626Y40096051D01*
X13050374Y40096051D01*
X13208033Y40064691D01*
G37*
G36*
X15748033Y40064691D02*
G01*
X15896545Y40003175D01*
X16030202Y39913869D01*
X16143869Y39800202D01*
X16233175Y39666545D01*
X16294691Y39518033D01*
X16326051Y39360374D01*
X16330000Y39280000D01*
X16330000Y38720000D01*
X16326051Y38639626D01*
X16294691Y38481967D01*
X16233175Y38333455D01*
X16143869Y38199798D01*
X16030202Y38086131D01*
X15896545Y37996825D01*
X15748033Y37935309D01*
X15590374Y37903949D01*
X15429626Y37903949D01*
X15271967Y37935309D01*
X15123455Y37996825D01*
X14989798Y38086131D01*
X14876131Y38199798D01*
X14786825Y38333455D01*
X14725309Y38481967D01*
X14693949Y38639626D01*
X14690000Y38720000D01*
X14690000Y39280000D01*
X14693949Y39360374D01*
X14725309Y39518033D01*
X14786825Y39666545D01*
X14876131Y39800202D01*
X14989798Y39913869D01*
X15123455Y40003175D01*
X15271967Y40064691D01*
X15429626Y40096051D01*
X15590374Y40096051D01*
X15748033Y40064691D01*
G37*
G36*
X18288033Y40064691D02*
G01*
X18436545Y40003175D01*
X18570202Y39913869D01*
X18683869Y39800202D01*
X18773175Y39666545D01*
X18834691Y39518033D01*
X18866051Y39360374D01*
X18870000Y39280000D01*
X18870000Y38720000D01*
X18866051Y38639626D01*
X18834691Y38481967D01*
X18773175Y38333455D01*
X18683869Y38199798D01*
X18570202Y38086131D01*
X18436545Y37996825D01*
X18288033Y37935309D01*
X18130374Y37903949D01*
X17969626Y37903949D01*
X17811967Y37935309D01*
X17663455Y37996825D01*
X17529798Y38086131D01*
X17416131Y38199798D01*
X17326825Y38333455D01*
X17265309Y38481967D01*
X17233949Y38639626D01*
X17230000Y38720000D01*
X17230000Y39280000D01*
X17233949Y39360374D01*
X17265309Y39518033D01*
X17326825Y39666545D01*
X17416131Y39800202D01*
X17529798Y39913869D01*
X17663455Y40003175D01*
X17811967Y40064691D01*
X17969626Y40096051D01*
X18130374Y40096051D01*
X18288033Y40064691D01*
G37*
G36*
X20828033Y40064691D02*
G01*
X20976545Y40003175D01*
X21110202Y39913869D01*
X21223869Y39800202D01*
X21313175Y39666545D01*
X21374691Y39518033D01*
X21406051Y39360374D01*
X21410000Y39280000D01*
X21410000Y38720000D01*
X21406051Y38639626D01*
X21374691Y38481967D01*
X21313175Y38333455D01*
X21223869Y38199798D01*
X21110202Y38086131D01*
X20976545Y37996825D01*
X20828033Y37935309D01*
X20670374Y37903949D01*
X20509626Y37903949D01*
X20351967Y37935309D01*
X20203455Y37996825D01*
X20069798Y38086131D01*
X19956131Y38199798D01*
X19866825Y38333455D01*
X19805309Y38481967D01*
X19773949Y38639626D01*
X19770000Y38720000D01*
X19770000Y39280000D01*
X19773949Y39360374D01*
X19805309Y39518033D01*
X19866825Y39666545D01*
X19956131Y39800202D01*
X20069798Y39913869D01*
X20203455Y40003175D01*
X20351967Y40064691D01*
X20509626Y40096051D01*
X20670374Y40096051D01*
X20828033Y40064691D01*
G37*
G36*
X23368033Y40064691D02*
G01*
X23516545Y40003175D01*
X23650202Y39913869D01*
X23763869Y39800202D01*
X23853175Y39666545D01*
X23914691Y39518033D01*
X23946051Y39360374D01*
X23950000Y39280000D01*
X23950000Y38720000D01*
X23946051Y38639626D01*
X23914691Y38481967D01*
X23853175Y38333455D01*
X23763869Y38199798D01*
X23650202Y38086131D01*
X23516545Y37996825D01*
X23368033Y37935309D01*
X23210374Y37903949D01*
X23049626Y37903949D01*
X22891967Y37935309D01*
X22743455Y37996825D01*
X22609798Y38086131D01*
X22496131Y38199798D01*
X22406825Y38333455D01*
X22345309Y38481967D01*
X22313949Y38639626D01*
X22310000Y38720000D01*
X22310000Y39280000D01*
X22313949Y39360374D01*
X22345309Y39518033D01*
X22406825Y39666545D01*
X22496131Y39800202D01*
X22609798Y39913869D01*
X22743455Y40003175D01*
X22891967Y40064691D01*
X23049626Y40096051D01*
X23210374Y40096051D01*
X23368033Y40064691D01*
G37*
G36*
X25908033Y40064691D02*
G01*
X26056545Y40003175D01*
X26190202Y39913869D01*
X26303869Y39800202D01*
X26393175Y39666545D01*
X26454691Y39518033D01*
X26486051Y39360374D01*
X26490000Y39280000D01*
X26490000Y38720000D01*
X26486051Y38639626D01*
X26454691Y38481967D01*
X26393175Y38333455D01*
X26303869Y38199798D01*
X26190202Y38086131D01*
X26056545Y37996825D01*
X25908033Y37935309D01*
X25750374Y37903949D01*
X25589626Y37903949D01*
X25431967Y37935309D01*
X25283455Y37996825D01*
X25149798Y38086131D01*
X25036131Y38199798D01*
X24946825Y38333455D01*
X24885309Y38481967D01*
X24853949Y38639626D01*
X24850000Y38720000D01*
X24850000Y39280000D01*
X24853949Y39360374D01*
X24885309Y39518033D01*
X24946825Y39666545D01*
X25036131Y39800202D01*
X25149798Y39913869D01*
X25283455Y40003175D01*
X25431967Y40064691D01*
X25589626Y40096051D01*
X25750374Y40096051D01*
X25908033Y40064691D01*
G37*
G36*
X28448033Y40064691D02*
G01*
X28596545Y40003175D01*
X28730202Y39913869D01*
X28843869Y39800202D01*
X28933175Y39666545D01*
X28994691Y39518033D01*
X29026051Y39360374D01*
X29030000Y39280000D01*
X29030000Y38720000D01*
X29026051Y38639626D01*
X28994691Y38481967D01*
X28933175Y38333455D01*
X28843869Y38199798D01*
X28730202Y38086131D01*
X28596545Y37996825D01*
X28448033Y37935309D01*
X28290374Y37903949D01*
X28129626Y37903949D01*
X27971967Y37935309D01*
X27823455Y37996825D01*
X27689798Y38086131D01*
X27576131Y38199798D01*
X27486825Y38333455D01*
X27425309Y38481967D01*
X27393949Y38639626D01*
X27390000Y38720000D01*
X27390000Y39280000D01*
X27393949Y39360374D01*
X27425309Y39518033D01*
X27486825Y39666545D01*
X27576131Y39800202D01*
X27689798Y39913869D01*
X27823455Y40003175D01*
X27971967Y40064691D01*
X28129626Y40096051D01*
X28290374Y40096051D01*
X28448033Y40064691D01*
G37*
G36*
X30988033Y40064691D02*
G01*
X31136545Y40003175D01*
X31270202Y39913869D01*
X31383869Y39800202D01*
X31473175Y39666545D01*
X31534691Y39518033D01*
X31566051Y39360374D01*
X31570000Y39280000D01*
X31570000Y38720000D01*
X31566051Y38639626D01*
X31534691Y38481967D01*
X31473175Y38333455D01*
X31383869Y38199798D01*
X31270202Y38086131D01*
X31136545Y37996825D01*
X30988033Y37935309D01*
X30830374Y37903949D01*
X30669626Y37903949D01*
X30511967Y37935309D01*
X30363455Y37996825D01*
X30229798Y38086131D01*
X30116131Y38199798D01*
X30026825Y38333455D01*
X29965309Y38481967D01*
X29933949Y38639626D01*
X29930000Y38720000D01*
X29930000Y39280000D01*
X29933949Y39360374D01*
X29965309Y39518033D01*
X30026825Y39666545D01*
X30116131Y39800202D01*
X30229798Y39913869D01*
X30363455Y40003175D01*
X30511967Y40064691D01*
X30669626Y40096051D01*
X30830374Y40096051D01*
X30988033Y40064691D01*
G37*
G36*
X33528033Y40064691D02*
G01*
X33676545Y40003175D01*
X33810202Y39913869D01*
X33923869Y39800202D01*
X34013175Y39666545D01*
X34074691Y39518033D01*
X34106051Y39360374D01*
X34110000Y39280000D01*
X34110000Y38720000D01*
X34106051Y38639626D01*
X34074691Y38481967D01*
X34013175Y38333455D01*
X33923869Y38199798D01*
X33810202Y38086131D01*
X33676545Y37996825D01*
X33528033Y37935309D01*
X33370374Y37903949D01*
X33209626Y37903949D01*
X33051967Y37935309D01*
X32903455Y37996825D01*
X32769798Y38086131D01*
X32656131Y38199798D01*
X32566825Y38333455D01*
X32505309Y38481967D01*
X32473949Y38639626D01*
X32470000Y38720000D01*
X32470000Y39280000D01*
X32473949Y39360374D01*
X32505309Y39518033D01*
X32566825Y39666545D01*
X32656131Y39800202D01*
X32769798Y39913869D01*
X32903455Y40003175D01*
X33051967Y40064691D01*
X33209626Y40096051D01*
X33370374Y40096051D01*
X33528033Y40064691D01*
G37*
G36*
X36068033Y40064691D02*
G01*
X36216545Y40003175D01*
X36350202Y39913869D01*
X36463869Y39800202D01*
X36553175Y39666545D01*
X36614691Y39518033D01*
X36646051Y39360374D01*
X36650000Y39280000D01*
X36650000Y38720000D01*
X36646051Y38639626D01*
X36614691Y38481967D01*
X36553175Y38333455D01*
X36463869Y38199798D01*
X36350202Y38086131D01*
X36216545Y37996825D01*
X36068033Y37935309D01*
X35910374Y37903949D01*
X35749626Y37903949D01*
X35591967Y37935309D01*
X35443455Y37996825D01*
X35309798Y38086131D01*
X35196131Y38199798D01*
X35106825Y38333455D01*
X35045309Y38481967D01*
X35013949Y38639626D01*
X35010000Y38720000D01*
X35010000Y39280000D01*
X35013949Y39360374D01*
X35045309Y39518033D01*
X35106825Y39666545D01*
X35196131Y39800202D01*
X35309798Y39913869D01*
X35443455Y40003175D01*
X35591967Y40064691D01*
X35749626Y40096051D01*
X35910374Y40096051D01*
X36068033Y40064691D01*
G37*
G36*
X38608033Y40064691D02*
G01*
X38756545Y40003175D01*
X38890202Y39913869D01*
X39003869Y39800202D01*
X39093175Y39666545D01*
X39154691Y39518033D01*
X39186051Y39360374D01*
X39190000Y39280000D01*
X39190000Y38720000D01*
X39186051Y38639626D01*
X39154691Y38481967D01*
X39093175Y38333455D01*
X39003869Y38199798D01*
X38890202Y38086131D01*
X38756545Y37996825D01*
X38608033Y37935309D01*
X38450374Y37903949D01*
X38289626Y37903949D01*
X38131967Y37935309D01*
X37983455Y37996825D01*
X37849798Y38086131D01*
X37736131Y38199798D01*
X37646825Y38333455D01*
X37585309Y38481967D01*
X37553949Y38639626D01*
X37550000Y38720000D01*
X37550000Y39280000D01*
X37553949Y39360374D01*
X37585309Y39518033D01*
X37646825Y39666545D01*
X37736131Y39800202D01*
X37849798Y39913869D01*
X37983455Y40003175D01*
X38131967Y40064691D01*
X38289626Y40096051D01*
X38450374Y40096051D01*
X38608033Y40064691D01*
G37*
G36*
X41148033Y40064691D02*
G01*
X41296545Y40003175D01*
X41430202Y39913869D01*
X41543869Y39800202D01*
X41633175Y39666545D01*
X41694691Y39518033D01*
X41726051Y39360374D01*
X41730000Y39280000D01*
X41730000Y38720000D01*
X41726051Y38639626D01*
X41694691Y38481967D01*
X41633175Y38333455D01*
X41543869Y38199798D01*
X41430202Y38086131D01*
X41296545Y37996825D01*
X41148033Y37935309D01*
X40990374Y37903949D01*
X40829626Y37903949D01*
X40671967Y37935309D01*
X40523455Y37996825D01*
X40389798Y38086131D01*
X40276131Y38199798D01*
X40186825Y38333455D01*
X40125309Y38481967D01*
X40093949Y38639626D01*
X40090000Y38720000D01*
X40090000Y39280000D01*
X40093949Y39360374D01*
X40125309Y39518033D01*
X40186825Y39666545D01*
X40276131Y39800202D01*
X40389798Y39913869D01*
X40523455Y40003175D01*
X40671967Y40064691D01*
X40829626Y40096051D01*
X40990374Y40096051D01*
X41148033Y40064691D01*
G37*
G36*
X43688033Y40064691D02*
G01*
X43836545Y40003175D01*
X43970202Y39913869D01*
X44083869Y39800202D01*
X44173175Y39666545D01*
X44234691Y39518033D01*
X44266051Y39360374D01*
X44270000Y39280000D01*
X44270000Y38720000D01*
X44266051Y38639626D01*
X44234691Y38481967D01*
X44173175Y38333455D01*
X44083869Y38199798D01*
X43970202Y38086131D01*
X43836545Y37996825D01*
X43688033Y37935309D01*
X43530374Y37903949D01*
X43369626Y37903949D01*
X43211967Y37935309D01*
X43063455Y37996825D01*
X42929798Y38086131D01*
X42816131Y38199798D01*
X42726825Y38333455D01*
X42665309Y38481967D01*
X42633949Y38639626D01*
X42630000Y38720000D01*
X42630000Y39280000D01*
X42633949Y39360374D01*
X42665309Y39518033D01*
X42726825Y39666545D01*
X42816131Y39800202D01*
X42929798Y39913869D01*
X43063455Y40003175D01*
X43211967Y40064691D01*
X43369626Y40096051D01*
X43530374Y40096051D01*
X43688033Y40064691D01*
G37*
G36*
X46228033Y40064691D02*
G01*
X46376545Y40003175D01*
X46510202Y39913869D01*
X46623869Y39800202D01*
X46713175Y39666545D01*
X46774691Y39518033D01*
X46806051Y39360374D01*
X46810000Y39280000D01*
X46810000Y38720000D01*
X46806051Y38639626D01*
X46774691Y38481967D01*
X46713175Y38333455D01*
X46623869Y38199798D01*
X46510202Y38086131D01*
X46376545Y37996825D01*
X46228033Y37935309D01*
X46070374Y37903949D01*
X45909626Y37903949D01*
X45751967Y37935309D01*
X45603455Y37996825D01*
X45469798Y38086131D01*
X45356131Y38199798D01*
X45266825Y38333455D01*
X45205309Y38481967D01*
X45173949Y38639626D01*
X45170000Y38720000D01*
X45170000Y39280000D01*
X45173949Y39360374D01*
X45205309Y39518033D01*
X45266825Y39666545D01*
X45356131Y39800202D01*
X45469798Y39913869D01*
X45603455Y40003175D01*
X45751967Y40064691D01*
X45909626Y40096051D01*
X46070374Y40096051D01*
X46228033Y40064691D01*
G37*
G36*
X57239868Y39775450D02*
G01*
X57245586Y39772655D01*
X57247962Y39772278D01*
X57285987Y39752904D01*
X57343377Y39724847D01*
X57424847Y39643377D01*
X57452907Y39585980D01*
X57472276Y39547966D01*
X57472652Y39545592D01*
X57475450Y39539868D01*
X57490000Y39440000D01*
X57490000Y38340000D01*
X57475450Y38240132D01*
X57472652Y38234411D01*
X57472277Y38232038D01*
X57452926Y38194061D01*
X57424847Y38136623D01*
X57343377Y38055153D01*
X57285955Y38027081D01*
X57247965Y38007724D01*
X57245591Y38007349D01*
X57239868Y38004550D01*
X57140000Y37990000D01*
X55240000Y37990000D01*
X55140132Y38004550D01*
X55134410Y38007348D01*
X55132037Y38007723D01*
X55094035Y38027086D01*
X55036623Y38055153D01*
X54955153Y38136623D01*
X54927104Y38193997D01*
X54907723Y38232035D01*
X54907346Y38234412D01*
X54904550Y38240132D01*
X54890000Y38340000D01*
X54890000Y39440000D01*
X54904550Y39539868D01*
X54907345Y39545587D01*
X54907722Y39547963D01*
X54927108Y39586013D01*
X54955153Y39643377D01*
X55036623Y39724847D01*
X55093971Y39752884D01*
X55132034Y39772277D01*
X55134411Y39772654D01*
X55140132Y39775450D01*
X55240000Y39790000D01*
X57140000Y39790000D01*
X57239868Y39775450D01*
G37*
G36*
X64298215Y39785666D02*
G01*
X64471256Y39751246D01*
X64634257Y39683729D01*
X64780954Y39585709D01*
X64905709Y39460954D01*
X65003729Y39314257D01*
X65071246Y39151256D01*
X65105666Y38978215D01*
X65105666Y38801785D01*
X65071246Y38628744D01*
X65003729Y38465743D01*
X64905709Y38319046D01*
X64780954Y38194291D01*
X64634257Y38096271D01*
X64471256Y38028754D01*
X64298215Y37994334D01*
X64210000Y37990000D01*
X64208767Y37990000D01*
X63411233Y37990000D01*
X63410000Y37990000D01*
X63321785Y37994334D01*
X63148744Y38028754D01*
X62985743Y38096271D01*
X62839046Y38194291D01*
X62714291Y38319046D01*
X62616271Y38465743D01*
X62548754Y38628744D01*
X62514334Y38801785D01*
X62514334Y38978215D01*
X62548754Y39151256D01*
X62616271Y39314257D01*
X62714291Y39460954D01*
X62839046Y39585709D01*
X62985743Y39683729D01*
X63148744Y39751246D01*
X63321785Y39785666D01*
X63410000Y39790000D01*
X64210000Y39790000D01*
X64298215Y39785666D01*
G37*
G36*
X64011256Y43111246D02*
G01*
X64174257Y43043729D01*
X64320954Y42945709D01*
X64445709Y42820954D01*
X64543729Y42674257D01*
X64611246Y42511256D01*
X64645666Y42338215D01*
X64645666Y42161785D01*
X64611246Y41988744D01*
X64543729Y41825743D01*
X64445709Y41679046D01*
X64320954Y41554291D01*
X64174257Y41456271D01*
X64011256Y41388754D01*
X63838215Y41354334D01*
X63661785Y41354334D01*
X63488744Y41388754D01*
X63325743Y41456271D01*
X63179046Y41554291D01*
X63054291Y41679046D01*
X62956271Y41825743D01*
X62888754Y41988744D01*
X62854334Y42161785D01*
X62854334Y42338215D01*
X62888754Y42511256D01*
X62956271Y42674257D01*
X63054291Y42820954D01*
X63179046Y42945709D01*
X63325743Y43043729D01*
X63488744Y43111246D01*
X63661785Y43145666D01*
X63838215Y43145666D01*
X64011256Y43111246D01*
G37*
G36*
X8261256Y46111246D02*
G01*
X8424257Y46043729D01*
X8570954Y45945709D01*
X8695709Y45820954D01*
X8793729Y45674257D01*
X8861246Y45511256D01*
X8895666Y45338215D01*
X8895666Y45161785D01*
X8861246Y44988744D01*
X8793729Y44825743D01*
X8695709Y44679046D01*
X8570954Y44554291D01*
X8424257Y44456271D01*
X8261256Y44388754D01*
X8088215Y44354334D01*
X7911785Y44354334D01*
X7738744Y44388754D01*
X7575743Y44456271D01*
X7429046Y44554291D01*
X7304291Y44679046D01*
X7206271Y44825743D01*
X7138754Y44988744D01*
X7104334Y45161785D01*
X7104334Y45338215D01*
X7138754Y45511256D01*
X7206271Y45674257D01*
X7304291Y45820954D01*
X7429046Y45945709D01*
X7575743Y46043729D01*
X7738744Y46111246D01*
X7911785Y46145666D01*
X8088215Y46145666D01*
X8261256Y46111246D01*
G37*
G36*
X13261256Y46111246D02*
G01*
X13424257Y46043729D01*
X13570954Y45945709D01*
X13695709Y45820954D01*
X13793729Y45674257D01*
X13861246Y45511256D01*
X13895666Y45338215D01*
X13895666Y45161785D01*
X13861246Y44988744D01*
X13793729Y44825743D01*
X13695709Y44679046D01*
X13570954Y44554291D01*
X13424257Y44456271D01*
X13261256Y44388754D01*
X13088215Y44354334D01*
X12911785Y44354334D01*
X12738744Y44388754D01*
X12575743Y44456271D01*
X12429046Y44554291D01*
X12304291Y44679046D01*
X12206271Y44825743D01*
X12138754Y44988744D01*
X12104334Y45161785D01*
X12104334Y45338215D01*
X12138754Y45511256D01*
X12206271Y45674257D01*
X12304291Y45820954D01*
X12429046Y45945709D01*
X12575743Y46043729D01*
X12738744Y46111246D01*
X12911785Y46145666D01*
X13088215Y46145666D01*
X13261256Y46111246D01*
G37*
G36*
X16451256Y46111246D02*
G01*
X16614257Y46043729D01*
X16760954Y45945709D01*
X16885709Y45820954D01*
X16983729Y45674257D01*
X17051246Y45511256D01*
X17085666Y45338215D01*
X17085666Y45161785D01*
X17051246Y44988744D01*
X16983729Y44825743D01*
X16885709Y44679046D01*
X16760954Y44554291D01*
X16614257Y44456271D01*
X16451256Y44388754D01*
X16278215Y44354334D01*
X16101785Y44354334D01*
X15928744Y44388754D01*
X15765743Y44456271D01*
X15619046Y44554291D01*
X15494291Y44679046D01*
X15396271Y44825743D01*
X15328754Y44988744D01*
X15294334Y45161785D01*
X15294334Y45338215D01*
X15328754Y45511256D01*
X15396271Y45674257D01*
X15494291Y45820954D01*
X15619046Y45945709D01*
X15765743Y46043729D01*
X15928744Y46111246D01*
X16101785Y46145666D01*
X16278215Y46145666D01*
X16451256Y46111246D01*
G37*
G36*
X24071256Y46111246D02*
G01*
X24234257Y46043729D01*
X24380954Y45945709D01*
X24505709Y45820954D01*
X24603729Y45674257D01*
X24671246Y45511256D01*
X24705666Y45338215D01*
X24705666Y45161785D01*
X24671246Y44988744D01*
X24603729Y44825743D01*
X24505709Y44679046D01*
X24380954Y44554291D01*
X24234257Y44456271D01*
X24071256Y44388754D01*
X23898215Y44354334D01*
X23721785Y44354334D01*
X23548744Y44388754D01*
X23385743Y44456271D01*
X23239046Y44554291D01*
X23114291Y44679046D01*
X23016271Y44825743D01*
X22948754Y44988744D01*
X22914334Y45161785D01*
X22914334Y45338215D01*
X22948754Y45511256D01*
X23016271Y45674257D01*
X23114291Y45820954D01*
X23239046Y45945709D01*
X23385743Y46043729D01*
X23548744Y46111246D01*
X23721785Y46145666D01*
X23898215Y46145666D01*
X24071256Y46111246D01*
G37*
G36*
X27201256Y46111246D02*
G01*
X27364257Y46043729D01*
X27510954Y45945709D01*
X27635709Y45820954D01*
X27733729Y45674257D01*
X27801246Y45511256D01*
X27835666Y45338215D01*
X27835666Y45161785D01*
X27801246Y44988744D01*
X27733729Y44825743D01*
X27635709Y44679046D01*
X27510954Y44554291D01*
X27364257Y44456271D01*
X27201256Y44388754D01*
X27028215Y44354334D01*
X26851785Y44354334D01*
X26678744Y44388754D01*
X26515743Y44456271D01*
X26369046Y44554291D01*
X26244291Y44679046D01*
X26146271Y44825743D01*
X26078754Y44988744D01*
X26044334Y45161785D01*
X26044334Y45338215D01*
X26078754Y45511256D01*
X26146271Y45674257D01*
X26244291Y45820954D01*
X26369046Y45945709D01*
X26515743Y46043729D01*
X26678744Y46111246D01*
X26851785Y46145666D01*
X27028215Y46145666D01*
X27201256Y46111246D01*
G37*
G36*
X34821256Y46111246D02*
G01*
X34984257Y46043729D01*
X35130954Y45945709D01*
X35255709Y45820954D01*
X35353729Y45674257D01*
X35421246Y45511256D01*
X35455666Y45338215D01*
X35455666Y45161785D01*
X35421246Y44988744D01*
X35353729Y44825743D01*
X35255709Y44679046D01*
X35130954Y44554291D01*
X34984257Y44456271D01*
X34821256Y44388754D01*
X34648215Y44354334D01*
X34471785Y44354334D01*
X34298744Y44388754D01*
X34135743Y44456271D01*
X33989046Y44554291D01*
X33864291Y44679046D01*
X33766271Y44825743D01*
X33698754Y44988744D01*
X33664334Y45161785D01*
X33664334Y45338215D01*
X33698754Y45511256D01*
X33766271Y45674257D01*
X33864291Y45820954D01*
X33989046Y45945709D01*
X34135743Y46043729D01*
X34298744Y46111246D01*
X34471785Y46145666D01*
X34648215Y46145666D01*
X34821256Y46111246D01*
G37*
G36*
X38201256Y46111246D02*
G01*
X38364257Y46043729D01*
X38510954Y45945709D01*
X38635709Y45820954D01*
X38733729Y45674257D01*
X38801246Y45511256D01*
X38835666Y45338215D01*
X38835666Y45161785D01*
X38801246Y44988744D01*
X38733729Y44825743D01*
X38635709Y44679046D01*
X38510954Y44554291D01*
X38364257Y44456271D01*
X38201256Y44388754D01*
X38028215Y44354334D01*
X37851785Y44354334D01*
X37678744Y44388754D01*
X37515743Y44456271D01*
X37369046Y44554291D01*
X37244291Y44679046D01*
X37146271Y44825743D01*
X37078754Y44988744D01*
X37044334Y45161785D01*
X37044334Y45338215D01*
X37078754Y45511256D01*
X37146271Y45674257D01*
X37244291Y45820954D01*
X37369046Y45945709D01*
X37515743Y46043729D01*
X37678744Y46111246D01*
X37851785Y46145666D01*
X38028215Y46145666D01*
X38201256Y46111246D01*
G37*
G36*
X45821256Y46111246D02*
G01*
X45984257Y46043729D01*
X46130954Y45945709D01*
X46255709Y45820954D01*
X46353729Y45674257D01*
X46421246Y45511256D01*
X46455666Y45338215D01*
X46455666Y45161785D01*
X46421246Y44988744D01*
X46353729Y44825743D01*
X46255709Y44679046D01*
X46130954Y44554291D01*
X45984257Y44456271D01*
X45821256Y44388754D01*
X45648215Y44354334D01*
X45471785Y44354334D01*
X45298744Y44388754D01*
X45135743Y44456271D01*
X44989046Y44554291D01*
X44864291Y44679046D01*
X44766271Y44825743D01*
X44698754Y44988744D01*
X44664334Y45161785D01*
X44664334Y45338215D01*
X44698754Y45511256D01*
X44766271Y45674257D01*
X44864291Y45820954D01*
X44989046Y45945709D01*
X45135743Y46043729D01*
X45298744Y46111246D01*
X45471785Y46145666D01*
X45648215Y46145666D01*
X45821256Y46111246D01*
G37*
G36*
X64011256Y48111246D02*
G01*
X64174257Y48043729D01*
X64320954Y47945709D01*
X64445709Y47820954D01*
X64543729Y47674257D01*
X64611246Y47511256D01*
X64645666Y47338215D01*
X64645666Y47161785D01*
X64611246Y46988744D01*
X64543729Y46825743D01*
X64445709Y46679046D01*
X64320954Y46554291D01*
X64174257Y46456271D01*
X64011256Y46388754D01*
X63838215Y46354334D01*
X63661785Y46354334D01*
X63488744Y46388754D01*
X63325743Y46456271D01*
X63179046Y46554291D01*
X63054291Y46679046D01*
X62956271Y46825743D01*
X62888754Y46988744D01*
X62854334Y47161785D01*
X62854334Y47338215D01*
X62888754Y47511256D01*
X62956271Y47674257D01*
X63054291Y47820954D01*
X63179046Y47945709D01*
X63325743Y48043729D01*
X63488744Y48111246D01*
X63661785Y48145666D01*
X63838215Y48145666D01*
X64011256Y48111246D01*
G37*
G36*
X19684268Y51742388D02*
G01*
X19716711Y51720711D01*
X19738388Y51688268D01*
X19746000Y51650000D01*
X19746000Y49950000D01*
X19738388Y49911732D01*
X19716711Y49879289D01*
X19684268Y49857612D01*
X19646000Y49850000D01*
X17946000Y49850000D01*
X17907732Y49857612D01*
X17875289Y49879289D01*
X17853612Y49911732D01*
X17846000Y49950000D01*
X17846000Y51650000D01*
X17853612Y51688268D01*
X17875289Y51720711D01*
X17907732Y51742388D01*
X17946000Y51750000D01*
X19646000Y51750000D01*
X19684268Y51742388D01*
G37*
G36*
X46608268Y51742388D02*
G01*
X46640711Y51720711D01*
X46662388Y51688268D01*
X46670000Y51650000D01*
X46670000Y49950000D01*
X46662388Y49911732D01*
X46640711Y49879289D01*
X46608268Y49857612D01*
X46570000Y49850000D01*
X44870000Y49850000D01*
X44831732Y49857612D01*
X44799289Y49879289D01*
X44777612Y49911732D01*
X44770000Y49950000D01*
X44770000Y51650000D01*
X44777612Y51688268D01*
X44799289Y51720711D01*
X44831732Y51742388D01*
X44870000Y51750000D01*
X46570000Y51750000D01*
X46608268Y51742388D01*
G37*
G36*
X21611770Y51709093D02*
G01*
X21783827Y51637825D01*
X21938674Y51534360D01*
X22070360Y51402674D01*
X22173825Y51247827D01*
X22245093Y51075770D01*
X22281425Y50893116D01*
X22281425Y50706884D01*
X22245093Y50524230D01*
X22173825Y50352173D01*
X22070360Y50197326D01*
X21938674Y50065640D01*
X21783827Y49962175D01*
X21611770Y49890907D01*
X21429116Y49854575D01*
X21242884Y49854575D01*
X21060230Y49890907D01*
X20888173Y49962175D01*
X20733326Y50065640D01*
X20601640Y50197326D01*
X20498175Y50352173D01*
X20426907Y50524230D01*
X20390575Y50706884D01*
X20390575Y50893116D01*
X20426907Y51075770D01*
X20498175Y51247827D01*
X20601640Y51402674D01*
X20733326Y51534360D01*
X20888173Y51637825D01*
X21060230Y51709093D01*
X21242884Y51745425D01*
X21429116Y51745425D01*
X21611770Y51709093D01*
G37*
G36*
X24151770Y51709093D02*
G01*
X24323827Y51637825D01*
X24478674Y51534360D01*
X24610360Y51402674D01*
X24713825Y51247827D01*
X24785093Y51075770D01*
X24821425Y50893116D01*
X24821425Y50706884D01*
X24785093Y50524230D01*
X24713825Y50352173D01*
X24610360Y50197326D01*
X24478674Y50065640D01*
X24323827Y49962175D01*
X24151770Y49890907D01*
X23969116Y49854575D01*
X23782884Y49854575D01*
X23600230Y49890907D01*
X23428173Y49962175D01*
X23273326Y50065640D01*
X23141640Y50197326D01*
X23038175Y50352173D01*
X22966907Y50524230D01*
X22930575Y50706884D01*
X22930575Y50893116D01*
X22966907Y51075770D01*
X23038175Y51247827D01*
X23141640Y51402674D01*
X23273326Y51534360D01*
X23428173Y51637825D01*
X23600230Y51709093D01*
X23782884Y51745425D01*
X23969116Y51745425D01*
X24151770Y51709093D01*
G37*
G36*
X26691770Y51709093D02*
G01*
X26863827Y51637825D01*
X27018674Y51534360D01*
X27150360Y51402674D01*
X27253825Y51247827D01*
X27325093Y51075770D01*
X27361425Y50893116D01*
X27361425Y50706884D01*
X27325093Y50524230D01*
X27253825Y50352173D01*
X27150360Y50197326D01*
X27018674Y50065640D01*
X26863827Y49962175D01*
X26691770Y49890907D01*
X26509116Y49854575D01*
X26322884Y49854575D01*
X26140230Y49890907D01*
X25968173Y49962175D01*
X25813326Y50065640D01*
X25681640Y50197326D01*
X25578175Y50352173D01*
X25506907Y50524230D01*
X25470575Y50706884D01*
X25470575Y50893116D01*
X25506907Y51075770D01*
X25578175Y51247827D01*
X25681640Y51402674D01*
X25813326Y51534360D01*
X25968173Y51637825D01*
X26140230Y51709093D01*
X26322884Y51745425D01*
X26509116Y51745425D01*
X26691770Y51709093D01*
G37*
G36*
X29231770Y51709093D02*
G01*
X29403827Y51637825D01*
X29558674Y51534360D01*
X29690360Y51402674D01*
X29793825Y51247827D01*
X29865093Y51075770D01*
X29901425Y50893116D01*
X29901425Y50706884D01*
X29865093Y50524230D01*
X29793825Y50352173D01*
X29690360Y50197326D01*
X29558674Y50065640D01*
X29403827Y49962175D01*
X29231770Y49890907D01*
X29049116Y49854575D01*
X28862884Y49854575D01*
X28680230Y49890907D01*
X28508173Y49962175D01*
X28353326Y50065640D01*
X28221640Y50197326D01*
X28118175Y50352173D01*
X28046907Y50524230D01*
X28010575Y50706884D01*
X28010575Y50893116D01*
X28046907Y51075770D01*
X28118175Y51247827D01*
X28221640Y51402674D01*
X28353326Y51534360D01*
X28508173Y51637825D01*
X28680230Y51709093D01*
X28862884Y51745425D01*
X29049116Y51745425D01*
X29231770Y51709093D01*
G37*
G36*
X31771770Y51709093D02*
G01*
X31943827Y51637825D01*
X32098674Y51534360D01*
X32230360Y51402674D01*
X32333825Y51247827D01*
X32405093Y51075770D01*
X32441425Y50893116D01*
X32441425Y50706884D01*
X32405093Y50524230D01*
X32333825Y50352173D01*
X32230360Y50197326D01*
X32098674Y50065640D01*
X31943827Y49962175D01*
X31771770Y49890907D01*
X31589116Y49854575D01*
X31402884Y49854575D01*
X31220230Y49890907D01*
X31048173Y49962175D01*
X30893326Y50065640D01*
X30761640Y50197326D01*
X30658175Y50352173D01*
X30586907Y50524230D01*
X30550575Y50706884D01*
X30550575Y50893116D01*
X30586907Y51075770D01*
X30658175Y51247827D01*
X30761640Y51402674D01*
X30893326Y51534360D01*
X31048173Y51637825D01*
X31220230Y51709093D01*
X31402884Y51745425D01*
X31589116Y51745425D01*
X31771770Y51709093D01*
G37*
G36*
X34311770Y51709093D02*
G01*
X34483827Y51637825D01*
X34638674Y51534360D01*
X34770360Y51402674D01*
X34873825Y51247827D01*
X34945093Y51075770D01*
X34981425Y50893116D01*
X34981425Y50706884D01*
X34945093Y50524230D01*
X34873825Y50352173D01*
X34770360Y50197326D01*
X34638674Y50065640D01*
X34483827Y49962175D01*
X34311770Y49890907D01*
X34129116Y49854575D01*
X33942884Y49854575D01*
X33760230Y49890907D01*
X33588173Y49962175D01*
X33433326Y50065640D01*
X33301640Y50197326D01*
X33198175Y50352173D01*
X33126907Y50524230D01*
X33090575Y50706884D01*
X33090575Y50893116D01*
X33126907Y51075770D01*
X33198175Y51247827D01*
X33301640Y51402674D01*
X33433326Y51534360D01*
X33588173Y51637825D01*
X33760230Y51709093D01*
X33942884Y51745425D01*
X34129116Y51745425D01*
X34311770Y51709093D01*
G37*
G36*
X36851770Y51709093D02*
G01*
X37023827Y51637825D01*
X37178674Y51534360D01*
X37310360Y51402674D01*
X37413825Y51247827D01*
X37485093Y51075770D01*
X37521425Y50893116D01*
X37521425Y50706884D01*
X37485093Y50524230D01*
X37413825Y50352173D01*
X37310360Y50197326D01*
X37178674Y50065640D01*
X37023827Y49962175D01*
X36851770Y49890907D01*
X36669116Y49854575D01*
X36482884Y49854575D01*
X36300230Y49890907D01*
X36128173Y49962175D01*
X35973326Y50065640D01*
X35841640Y50197326D01*
X35738175Y50352173D01*
X35666907Y50524230D01*
X35630575Y50706884D01*
X35630575Y50893116D01*
X35666907Y51075770D01*
X35738175Y51247827D01*
X35841640Y51402674D01*
X35973326Y51534360D01*
X36128173Y51637825D01*
X36300230Y51709093D01*
X36482884Y51745425D01*
X36669116Y51745425D01*
X36851770Y51709093D01*
G37*
G36*
X39391770Y51709093D02*
G01*
X39563827Y51637825D01*
X39718674Y51534360D01*
X39850360Y51402674D01*
X39953825Y51247827D01*
X40025093Y51075770D01*
X40061425Y50893116D01*
X40061425Y50706884D01*
X40025093Y50524230D01*
X39953825Y50352173D01*
X39850360Y50197326D01*
X39718674Y50065640D01*
X39563827Y49962175D01*
X39391770Y49890907D01*
X39209116Y49854575D01*
X39022884Y49854575D01*
X38840230Y49890907D01*
X38668173Y49962175D01*
X38513326Y50065640D01*
X38381640Y50197326D01*
X38278175Y50352173D01*
X38206907Y50524230D01*
X38170575Y50706884D01*
X38170575Y50893116D01*
X38206907Y51075770D01*
X38278175Y51247827D01*
X38381640Y51402674D01*
X38513326Y51534360D01*
X38668173Y51637825D01*
X38840230Y51709093D01*
X39022884Y51745425D01*
X39209116Y51745425D01*
X39391770Y51709093D01*
G37*
G36*
X41931770Y51709093D02*
G01*
X42103827Y51637825D01*
X42258674Y51534360D01*
X42390360Y51402674D01*
X42493825Y51247827D01*
X42565093Y51075770D01*
X42601425Y50893116D01*
X42601425Y50706884D01*
X42565093Y50524230D01*
X42493825Y50352173D01*
X42390360Y50197326D01*
X42258674Y50065640D01*
X42103827Y49962175D01*
X41931770Y49890907D01*
X41749116Y49854575D01*
X41562884Y49854575D01*
X41380230Y49890907D01*
X41208173Y49962175D01*
X41053326Y50065640D01*
X40921640Y50197326D01*
X40818175Y50352173D01*
X40746907Y50524230D01*
X40710575Y50706884D01*
X40710575Y50893116D01*
X40746907Y51075770D01*
X40818175Y51247827D01*
X40921640Y51402674D01*
X41053326Y51534360D01*
X41208173Y51637825D01*
X41380230Y51709093D01*
X41562884Y51745425D01*
X41749116Y51745425D01*
X41931770Y51709093D01*
G37*
G36*
X48535770Y51709093D02*
G01*
X48707827Y51637825D01*
X48862674Y51534360D01*
X48994360Y51402674D01*
X49097825Y51247827D01*
X49169093Y51075770D01*
X49205425Y50893116D01*
X49205425Y50706884D01*
X49169093Y50524230D01*
X49097825Y50352173D01*
X48994360Y50197326D01*
X48862674Y50065640D01*
X48707827Y49962175D01*
X48535770Y49890907D01*
X48353116Y49854575D01*
X48166884Y49854575D01*
X47984230Y49890907D01*
X47812173Y49962175D01*
X47657326Y50065640D01*
X47525640Y50197326D01*
X47422175Y50352173D01*
X47350907Y50524230D01*
X47314575Y50706884D01*
X47314575Y50893116D01*
X47350907Y51075770D01*
X47422175Y51247827D01*
X47525640Y51402674D01*
X47657326Y51534360D01*
X47812173Y51637825D01*
X47984230Y51709093D01*
X48166884Y51745425D01*
X48353116Y51745425D01*
X48535770Y51709093D01*
G37*
G36*
X51075770Y51709093D02*
G01*
X51247827Y51637825D01*
X51402674Y51534360D01*
X51534360Y51402674D01*
X51637825Y51247827D01*
X51709093Y51075770D01*
X51745425Y50893116D01*
X51745425Y50706884D01*
X51709093Y50524230D01*
X51637825Y50352173D01*
X51534360Y50197326D01*
X51402674Y50065640D01*
X51247827Y49962175D01*
X51075770Y49890907D01*
X50893116Y49854575D01*
X50706884Y49854575D01*
X50524230Y49890907D01*
X50352173Y49962175D01*
X50197326Y50065640D01*
X50065640Y50197326D01*
X49962175Y50352173D01*
X49890907Y50524230D01*
X49854575Y50706884D01*
X49854575Y50893116D01*
X49890907Y51075770D01*
X49962175Y51247827D01*
X50065640Y51402674D01*
X50197326Y51534360D01*
X50352173Y51637825D01*
X50524230Y51709093D01*
X50706884Y51745425D01*
X50893116Y51745425D01*
X51075770Y51709093D01*
G37*
G36*
X53615770Y51709093D02*
G01*
X53787827Y51637825D01*
X53942674Y51534360D01*
X54074360Y51402674D01*
X54177825Y51247827D01*
X54249093Y51075770D01*
X54285425Y50893116D01*
X54285425Y50706884D01*
X54249093Y50524230D01*
X54177825Y50352173D01*
X54074360Y50197326D01*
X53942674Y50065640D01*
X53787827Y49962175D01*
X53615770Y49890907D01*
X53433116Y49854575D01*
X53246884Y49854575D01*
X53064230Y49890907D01*
X52892173Y49962175D01*
X52737326Y50065640D01*
X52605640Y50197326D01*
X52502175Y50352173D01*
X52430907Y50524230D01*
X52394575Y50706884D01*
X52394575Y50893116D01*
X52430907Y51075770D01*
X52502175Y51247827D01*
X52605640Y51402674D01*
X52737326Y51534360D01*
X52892173Y51637825D01*
X53064230Y51709093D01*
X53246884Y51745425D01*
X53433116Y51745425D01*
X53615770Y51709093D01*
G37*
G36*
X56155770Y51709093D02*
G01*
X56327827Y51637825D01*
X56482674Y51534360D01*
X56614360Y51402674D01*
X56717825Y51247827D01*
X56789093Y51075770D01*
X56825425Y50893116D01*
X56825425Y50706884D01*
X56789093Y50524230D01*
X56717825Y50352173D01*
X56614360Y50197326D01*
X56482674Y50065640D01*
X56327827Y49962175D01*
X56155770Y49890907D01*
X55973116Y49854575D01*
X55786884Y49854575D01*
X55604230Y49890907D01*
X55432173Y49962175D01*
X55277326Y50065640D01*
X55145640Y50197326D01*
X55042175Y50352173D01*
X54970907Y50524230D01*
X54934575Y50706884D01*
X54934575Y50893116D01*
X54970907Y51075770D01*
X55042175Y51247827D01*
X55145640Y51402674D01*
X55277326Y51534360D01*
X55432173Y51637825D01*
X55604230Y51709093D01*
X55786884Y51745425D01*
X55973116Y51745425D01*
X56155770Y51709093D01*
G37*
G36*
X58695770Y51709093D02*
G01*
X58867827Y51637825D01*
X59022674Y51534360D01*
X59154360Y51402674D01*
X59257825Y51247827D01*
X59329093Y51075770D01*
X59365425Y50893116D01*
X59365425Y50706884D01*
X59329093Y50524230D01*
X59257825Y50352173D01*
X59154360Y50197326D01*
X59022674Y50065640D01*
X58867827Y49962175D01*
X58695770Y49890907D01*
X58513116Y49854575D01*
X58326884Y49854575D01*
X58144230Y49890907D01*
X57972173Y49962175D01*
X57817326Y50065640D01*
X57685640Y50197326D01*
X57582175Y50352173D01*
X57510907Y50524230D01*
X57474575Y50706884D01*
X57474575Y50893116D01*
X57510907Y51075770D01*
X57582175Y51247827D01*
X57685640Y51402674D01*
X57817326Y51534360D01*
X57972173Y51637825D01*
X58144230Y51709093D01*
X58326884Y51745425D01*
X58513116Y51745425D01*
X58695770Y51709093D01*
G37*
G36*
X61235770Y51709093D02*
G01*
X61407827Y51637825D01*
X61562674Y51534360D01*
X61694360Y51402674D01*
X61797825Y51247827D01*
X61869093Y51075770D01*
X61905425Y50893116D01*
X61905425Y50706884D01*
X61869093Y50524230D01*
X61797825Y50352173D01*
X61694360Y50197326D01*
X61562674Y50065640D01*
X61407827Y49962175D01*
X61235770Y49890907D01*
X61053116Y49854575D01*
X60866884Y49854575D01*
X60684230Y49890907D01*
X60512173Y49962175D01*
X60357326Y50065640D01*
X60225640Y50197326D01*
X60122175Y50352173D01*
X60050907Y50524230D01*
X60014575Y50706884D01*
X60014575Y50893116D01*
X60050907Y51075770D01*
X60122175Y51247827D01*
X60225640Y51402674D01*
X60357326Y51534360D01*
X60512173Y51637825D01*
X60684230Y51709093D01*
X60866884Y51745425D01*
X61053116Y51745425D01*
X61235770Y51709093D01*
G37*
G36*
X63775770Y51709093D02*
G01*
X63947827Y51637825D01*
X64102674Y51534360D01*
X64234360Y51402674D01*
X64337825Y51247827D01*
X64409093Y51075770D01*
X64445425Y50893116D01*
X64445425Y50706884D01*
X64409093Y50524230D01*
X64337825Y50352173D01*
X64234360Y50197326D01*
X64102674Y50065640D01*
X63947827Y49962175D01*
X63775770Y49890907D01*
X63593116Y49854575D01*
X63406884Y49854575D01*
X63224230Y49890907D01*
X63052173Y49962175D01*
X62897326Y50065640D01*
X62765640Y50197326D01*
X62662175Y50352173D01*
X62590907Y50524230D01*
X62554575Y50706884D01*
X62554575Y50893116D01*
X62590907Y51075770D01*
X62662175Y51247827D01*
X62765640Y51402674D01*
X62897326Y51534360D01*
X63052173Y51637825D01*
X63224230Y51709093D01*
X63406884Y51745425D01*
X63593116Y51745425D01*
X63775770Y51709093D01*
G37*
M02*
