M48
; DRILL file {KiCad 9.0.7} date 2026-02-16T17:56:55-0500
; FORMAT={-:-/ absolute / metric / decimal}
; #@! TF.CreationDate,2026-02-16T17:56:55-05:00
; #@! TF.GenerationSoftware,Kicad,Pcbnew,9.0.7
; #@! TF.FileFunction,Plated,1,2,PTH
FMAT,2
METRIC
; #@! TA.AperFunction,Plated,PTH,ViaDrill
T1C0.300
; #@! TA.AperFunction,Plated,PTH,ViaDrill
T2C0.400
; #@! TA.AperFunction,Plated,PTH,ComponentDrill
T3C0.800
; #@! TA.AperFunction,Plated,PTH,ComponentDrill
T4C1.000
%
G90
G05
T1
X15.51Y29.51
X20.25Y29.25
X28.0Y33.81
X37.0Y37.25
X50.0Y23.0
X50.25Y25.0
X52.0Y37.25
X52.0Y27.25
X61.0Y46.25
T2
X7.5Y37.5
X7.5Y25.0
X15.0Y10.0
X17.5Y27.5
X42.75Y27.5
X47.75Y39.0
X48.75Y27.5
X53.75Y39.0
X56.25Y8.25
X56.25Y5.75
X57.75Y42.5
X58.0Y18.25
X60.0Y30.0
X62.5Y17.5
X62.5Y7.5
T3
X8.0Y45.25
X13.0Y45.25
X16.19Y45.25
X20.11Y14.81
X20.11Y7.19
X22.65Y14.81
X22.65Y7.19
X23.81Y45.25
X25.19Y14.81
X25.19Y7.19
X26.94Y45.25
X27.73Y14.81
X27.73Y7.19
X30.27Y14.81
X30.27Y7.19
X32.81Y14.81
X32.81Y7.19
X34.56Y45.25
X35.35Y14.81
X35.35Y7.19
X37.89Y14.81
X37.89Y7.19
X37.94Y45.25
X41.25Y7.25
X45.56Y45.25
X46.25Y7.25
X56.19Y38.89
X56.19Y36.35
X56.19Y33.81
X56.19Y31.27
X56.19Y28.73
X56.19Y26.19
X56.19Y23.65
X56.19Y21.11
X63.75Y47.25
X63.75Y42.25
X63.81Y38.89
X63.81Y36.35
X63.81Y33.81
X63.81Y31.27
X63.81Y28.73
X63.81Y26.19
X63.81Y23.65
X63.81Y21.11
T4
X12.97Y39.0
X12.97Y23.76
X15.51Y39.0
X15.51Y23.76
X18.05Y39.0
X18.05Y23.76
X18.796Y50.8
X20.59Y39.0
X20.59Y23.76
X21.336Y50.8
X23.13Y39.0
X23.13Y23.76
X23.876Y50.8
X25.67Y39.0
X25.67Y23.76
X26.416Y50.8
X27.94Y2.54
X28.21Y39.0
X28.21Y23.76
X28.956Y50.8
X30.48Y2.54
X30.75Y39.0
X30.75Y23.76
X31.496Y50.8
X33.02Y2.54
X33.29Y39.0
X33.29Y23.76
X34.036Y50.8
X35.56Y2.54
X35.83Y39.0
X35.83Y23.76
X36.576Y50.8
X38.1Y2.54
X38.37Y39.0
X38.37Y23.76
X39.116Y50.8
X40.64Y2.54
X40.91Y39.0
X40.91Y23.76
X41.656Y50.8
X43.18Y2.54
X43.45Y39.0
X43.45Y23.76
X45.72Y50.8
X45.72Y2.54
X45.99Y39.0
X45.99Y23.76
X48.26Y50.8
X50.8Y50.8
X50.8Y2.54
X53.34Y50.8
X53.34Y2.54
X55.88Y50.8
X55.88Y2.54
X58.42Y50.8
X58.42Y2.54
X60.96Y50.8
X60.96Y2.54
X63.5Y50.8
X63.5Y2.54
M30
